<?xml version="1.0" encoding="UTF-8"?>
<svg id="OBJECTS" xmlns="http://www.w3.org/2000/svg" version="1.1" viewBox="0 0 835 461.3">
  <defs>
    <style>
      .cls-1 {
        fill: #729e00;
      }

      .cls-1, .cls-2, .cls-3, .cls-4, .cls-5, .cls-6 {
        stroke-width: 0px;
      }

      .cls-2 {
        fill: #c6cad8;
      }

      .cls-3 {
        fill: #ececf1;
      }

      .cls-4 {
        fill: #81c500;
      }

      .cls-5 {
        fill: #ddf39e;
      }

      .cls-6 {
        fill: #6f8c00;
      }
    </style>
  </defs>
  <g>
    <path class="cls-3" d="M298.2,311l50.3-72.4,94.5-73.7,51,135.1s-57.8,37-72.8,40.7c-15,3.7-26,3.3-42.6,27.7l-80.3-57.4Z"/>
    <path class="cls-3" d="M513.7,142.7c1.4,0,18.7,12.4,9,22.6-10.4,10.8-47.3,42.4-47.3,42.4,0,0-18.7-1.8-14.7-12.5,4.1-10.9,53-52.4,53-52.4Z"/>
    <path class="cls-1" d="M528.6,327.7c-8.9.5-17.9-.2-26.9-1.9-29-5.7-53.9-22.5-70-47.3-15.4-23.7-20.9-52.1-15.5-79.9,5.4-27.8,21.2-52,44.4-68.2l95.5-66.6,29.4,42.1-95.5,66.6c-12.2,8.5-20.5,21.3-23.4,35.9-2.9,14.6,0,29.6,8.2,42,8.5,13.1,21.6,21.9,36.8,24.9,15.1,3,30.4-.2,43.1-8.8l94.8-72.1,31.1,40.9-95.8,72.8-.5.3c-16.8,11.6-36,18.2-55.8,19.2Z"/>
    <path class="cls-4" d="M520.5,316.6c-8.9.5-17.9-.2-26.9-1.9-29-5.7-53.9-22.5-70-47.3-15.4-23.7-20.9-52.1-15.5-79.9,5.4-27.8,21.2-52,44.4-68.2l95.5-66.6,29.4,42.1-95.5,66.6c-12.2,8.5-20.5,21.3-23.4,35.9-2.9,14.6,0,29.6,8.2,42,8.5,13.1,21.6,21.9,36.8,24.9,15.1,3,30.4-.2,43.1-8.8l94.8-72.1,31.1,41.4-95.8,72.3-.5.3c-16.8,11.6-36,18.2-55.8,19.2Z"/>
    <polygon class="cls-6" points="537.3 122.9 545.2 133.8 585.4 105.8 577.5 94.7 537.3 122.9"/>
    <polygon class="cls-5" points="507 81.5 537.3 122.9 577.5 94.7 548.3 52.3 507 81.5"/>
    <polygon class="cls-6" points="632.1 252.5 641.6 264.8 680.5 235.2 672.2 224.3 632.1 252.5"/>
    <polygon class="cls-5" points="601.1 213.9 633.4 254.2 672.6 224.7 641.7 183.3 601.1 213.9"/>
    <path class="cls-3" d="M476.8,223.8l1.9-3.4c3.3-9.8-.8-16-9.3-17.4-1.7-.3-3.3-.3-4.8.3-7.3,2.6-24.1,13.4-30.2,20.1-6,6.8-5.8,17.1,2,21,7.7,3.9,13.7-.2,23.6-6,9.9-5.8,16.7-14.5,16.7-14.5Z"/>
    <path class="cls-3" d="M491,245.3l1.9-3.4c3.3-9.8-.8-16-9.3-17.4-1.7-.3-3.3-.3-4.8.3-7.3,2.6-24.1,13.4-30.2,20.1-6,6.8-5.8,17.1,2,21,7.7,3.9,13.7-.2,23.6-6,9.9-5.8,16.7-14.5,16.7-14.5Z"/>
    <path class="cls-3" d="M507.2,266.1l1.9-3.4c3.3-9.8-.8-16-9.3-17.4-1.7-.3-3.3-.3-4.8.3-7.3,2.6-24.1,13.4-30.2,20.1-6,6.8-5.8,17.1,2,21,7.7,3.9,13.7-.2,23.6-6,9.9-5.8,16.7-14.5,16.7-14.5Z"/>
    <path class="cls-3" d="M326.8,271.1s21-57.3,27.8-71.7c6.9-14.4,48.4-47.6,48.4-47.6l43.4-19.8s16.2,19.1-3.5,33c-19.8,13.9-37.7,23.2-37.7,23.2l-4.1,27.5s12.7,65.6-39,105.2l-35.4-49.7Z"/>
  </g>
  <polygon class="cls-2" points="190.3 407.9 296.9 299 392.5 376.4 367.9 408.1 190.3 407.9"/>
</svg>