<?xml version="1.0" encoding="UTF-8"?>
<svg id="OBJECTS" xmlns="http://www.w3.org/2000/svg" version="1.1" viewBox="0 0 835 461.3">
  <defs>
    <style>
      .cls-1 {
        fill: #e1e1e1;
      }

      .cls-1, .cls-2 {
        stroke-width: 0px;
      }

      .cls-2 {
        fill: #fff;
      }
    </style>
  </defs>
  <g>
    <path class="cls-1" d="M702.8,93.8h0c-22.9,12.6-51.6,4.2-64.2-18.6h0c-12.6-22.9-4.2-51.6,18.6-64.2h0c22.9-12.6,51.6-4.2,64.2,18.6h0c12.6,22.9,4.2,51.6-18.6,64.2Z"/>
    <path class="cls-2" d="M683.4,50c2.7-3.4,3.2-8.4.9-12.7-3.1-5.6-9.8-7.9-15.1-5-5.3,2.9-7.1,9.8-4,15.4,2.4,4.3,6.9,6.6,11.3,6.2-13.5,10.3-4,25.9-4,25.9l34.8-18.9s-8.1-16.6-23.8-10.8Z"/>
  </g>
  <g>
    <path class="cls-1" d="M388.8,75h0c-15.2-9-20.2-28.5-11.3-43.7h0c9-15.2,28.5-20.2,43.7-11.3h0c15.2,9,20.2,28.5,11.3,43.7h0c-9,15.2-28.5,20.2-43.7,11.3Z"/>
    <path class="cls-2" d="M407.6,48.6c2.9.4,6-1,7.7-3.9,2.2-3.7,1.2-8.4-2.3-10.5-3.5-2.1-8.1-.7-10.3,3-1.7,2.9-1.5,6.3.3,8.7-10.6-4.3-16.4,6.6-16.4,6.6l23,13.7s6.8-10.4-2-17.6Z"/>
  </g>
  <g>
    <path class="cls-1" d="M783.4,255.9h0c-16.3,6.8-35-.9-41.8-17.1h0c-6.8-16.3.9-35,17.1-41.8h0c16.3-6.8,35,.9,41.8,17.1h0c6.8,16.3-.9,35-17.1,41.8Z"/>
    <path class="cls-2" d="M773.5,225.1c2.1-2.1,2.8-5.4,1.5-8.5-1.7-4-6-6-9.8-4.4-3.8,1.5-5.5,6.1-3.8,10.1,1.3,3.1,4.2,5,7.1,4.9-9.8,5.9-4.6,17.1-4.6,17.1l24.7-10.2s-4.2-11.7-15.2-8.9Z"/>
  </g>
</svg>