<?xml version="1.0" encoding="UTF-8"?>
<svg id="OBJECTS" xmlns="http://www.w3.org/2000/svg" version="1.1" viewBox="0 0 835 461.3">
  <defs>
    <style>
      .cls-1 {
        fill: #e1e1e1;
      }

      .cls-1, .cls-2, .cls-3, .cls-4, .cls-5, .cls-6, .cls-7, .cls-8 {
        stroke-width: 0px;
      }

      .cls-2 {
        fill: #f8f8f8;
      }

      .cls-3 {
        fill: #8e93ad;
      }

      .cls-4 {
        fill: #c8cbd9;
      }

      .cls-5 {
        fill: #ececec;
      }

      .cls-6 {
        fill: #acb0c5;
      }

      .cls-7 {
        fill: #fff;
      }

      .cls-8 {
        fill: #f1f2f4;
      }
    </style>
  </defs>
  <g>
    <g>
      <path class="cls-3" d="M178.3,112.5h457.6c12.7,0,23,10.3,23,23v279.9c0,17-13.8,30.9-30.9,30.9H185.1c-17,0-30.9-13.8-30.9-30.9V136.5c0-13.3,10.8-24,24-24Z"/>
      <path class="cls-6" d="M133.2,421.5h546.8v15.5c0,7.6-6.1,13.7-13.7,13.7H146.9c-7.6,0-13.7-6.1-13.7-13.7v-15.5h0Z"/>
      <rect class="cls-7" x="167.8" y="125.7" width="476.2" height="281.8" rx="15.4" ry="15.4"/>
      <polygon class="cls-8" points="356.9 421.5 363.7 432.3 459.1 432.3 465.4 421.5 356.9 421.5"/>
    </g>
    <rect class="cls-4" x="154.4" y="421.4" width="504.7" height="1.6"/>
  </g>
  <rect class="cls-2" x="208.5" y="319.5" width="43.1" height="88.5"/>
  <rect class="cls-2" x="276.5" y="275.1" width="43.1" height="132.9"/>
  <rect class="cls-2" x="490.9" y="210.4" width="43.1" height="197.5"/>
  <rect class="cls-2" x="556.9" y="167.9" width="43.1" height="240.1"/>
  <path class="cls-1" d="M244.4,151.2c2.9-1.7,5.9-3.1,9.1-3.9l1.9-9,15.2-.3,2.2,8.9c3.2.8,6.3,2,9.2,3.6l7.7-5,10.9,10.6-4.8,7.8c1.7,2.9,3.1,5.9,3.9,9.1l9,1.9.3,15.2-8.9,2.2c-.8,3.2-2,6.3-3.6,9.2l5,7.7-10.6,10.9-7.9-4.8c-2.9,1.7-5.9,3.1-9.1,3.9l-1.9,9-15.2.3-2.2-8.9c-3.2-.8-6.3-2-9.2-3.6l-7.7,5-10.9-10.6,4.8-7.9c-1.7-2.9-3.1-5.9-3.9-9.1l-9-1.9-.3-15.2,8.9-2.2c.8-3.2,2-6.3,3.6-9.2l-5-7.7,10.6-10.9,7.9,4.8h0ZM252.5,171.4c-6.3,6.5-6.1,16.8.4,23.1,6.5,6.3,16.8,6.1,23.1-.4,6.3-6.5,6.1-16.8-.4-23.1-6.5-6.3-16.8-6.1-23.1.4Z"/>
  <path class="cls-5" d="M215.7,240.4c2.1-1.3,4.3-2.2,6.6-2.9l1.4-6.5,11.1-.2,1.6,6.5c2.3.6,4.6,1.5,6.7,2.6l5.6-3.7,8,7.7-3.5,5.7c1.3,2.1,2.2,4.3,2.9,6.6l6.5,1.4.2,11.1-6.5,1.6c-.6,2.3-1.5,4.6-2.6,6.7l3.7,5.6-7.7,8-5.7-3.5c-2.1,1.3-4.3,2.2-6.6,2.9l-1.4,6.5-11.1.2-1.6-6.5c-2.3-.6-4.6-1.5-6.7-2.6l-5.6,3.7-8-7.7,3.5-5.7c-1.3-2.1-2.2-4.3-2.9-6.6l-6.5-1.4-.2-11.1,6.5-1.6c.6-2.3,1.5-4.6,2.6-6.7l-3.7-5.6,7.7-8,5.7,3.5h0ZM221.6,255.2c-4.6,4.7-4.4,12.2.3,16.8,4.7,4.6,12.2,4.4,16.8-.3,4.6-4.7,4.4-12.2-.3-16.8-4.7-4.6-12.2-4.4-16.8.3Z"/>
  <path class="cls-5" d="M328.3,149.1c1.4-.9,2.9-1.5,4.5-1.9l.9-4.4h7.5c0-.1,1.1,4.3,1.1,4.3,1.6.4,3.1,1,4.5,1.8l3.8-2.5,5.4,5.2-2.3,3.9c.9,1.4,1.5,2.9,1.9,4.5l4.4.9v7.5c.1,0-4.3,1.1-4.3,1.1-.4,1.6-1,3.1-1.8,4.5l2.5,3.8-5.2,5.4-3.9-2.3c-1.4.9-2.9,1.5-4.5,1.9l-.9,4.4h-7.5c0,.1-1.1-4.3-1.1-4.3-1.6-.4-3.1-1-4.5-1.8l-3.8,2.5-5.4-5.2,2.3-3.9c-.9-1.4-1.5-2.9-1.9-4.5l-4.4-.9v-7.5c-.1,0,4.3-1.1,4.3-1.1.4-1.6,1-3.1,1.8-4.5l-2.5-3.8,5.2-5.4,3.9,2.3h0ZM332.3,159.1c-3.1,3.2-3,8.3.2,11.3,3.2,3.1,8.3,3,11.3-.2,3.1-3.2,3-8.3-.2-11.3-3.2-3.1-8.3-3-11.3.2Z"/>
  <rect class="cls-2" x="417.6" y="347.7" width="43.1" height="60.2"/>
</svg>