<?xml version="1.0" encoding="UTF-8"?>
<svg id="OBJECTS" xmlns="http://www.w3.org/2000/svg" version="1.1" viewBox="0 0 835 461.3">
  <defs>
    <style>
      .cls-1 {
        fill: #80c500;
      }

      .cls-1, .cls-2, .cls-3, .cls-4, .cls-5, .cls-6, .cls-7, .cls-8 {
        stroke-width: 0px;
      }

      .cls-2 {
        fill: #d8d9dc;
      }

      .cls-3 {
        fill: #dcdee6;
      }

      .cls-4 {
        fill: #a640ab;
      }

      .cls-5 {
        fill: #c8cbd8;
      }

      .cls-9 {
        fill: none;
        stroke: #dcdee6;
        stroke-miterlimit: 10;
      }

      .cls-6 {
        fill: #ecedf1;
      }

      .cls-7 {
        fill: #222535;
      }

      .cls-8 {
        fill: #fff;
      }
    </style>
  </defs>
  <g>
    <rect class="cls-5" x="278.5" y="9" width="223.6" height="429.1" rx="22.3" ry="22.3" transform="translate(780.6 447.1) rotate(180)"/>
    <g>
      <path class="cls-8" d="M395.6,22.6h-20.6c-1,0-1.8-.8-1.8-1.8s.8-1.8,1.8-1.8h20.6c1,0,1.8.8,1.8,1.8s-.8,1.8-1.8,1.8Z"/>
      <path class="cls-8" d="M404.7,22.6c-.2,0-.5,0-.7-.1-.2,0-.4-.2-.6-.4-.2-.2-.3-.4-.4-.6,0-.2-.1-.5-.1-.7s0-.2,0-.4c0-.1,0-.2.1-.3,0-.1.1-.2.2-.3,0-.1.1-.2.2-.3.4-.4,1.1-.6,1.7-.5.1,0,.2,0,.3.1.1,0,.2.1.3.2.1,0,.2.1.3.2,0,0,.2.2.2.3,0,.1.1.2.2.3,0,.1,0,.2.1.3,0,.1,0,.2,0,.4,0,.2,0,.5-.1.7,0,.2-.2.4-.4.6-.2.2-.4.3-.6.4-.1,0-.2,0-.3.1-.1,0-.2,0-.4,0Z"/>
    </g>
    <path class="cls-8" d="M469.8,18.7h-18.8c-3.1,0-5.9,1.6-7.5,4.2l-3.7,5.9c-1.6,2.6-4.4,4.2-7.5,4.2h-85.1c-3.1,0-5.9-1.6-7.5-4.2l-3.7-5.9c-1.6-2.6-4.4-4.2-7.5-4.2h-18.8c-13.7,0-24.8,11.1-24.8,24.8v362.2c0,13.7,11.1,24.8,24.8,24.8h160c13.7,0,24.8-11.1,24.8-24.8V43.5c0-13.7-11.1-24.8-24.8-24.8Z"/>
  </g>
  <g>
    <rect class="cls-3" x="306" y="215.5" width="43.1" height="24.5" rx="4.8" ry="4.8"/>
    <rect class="cls-9" x="361.1" y="215.5" width="113.5" height="24.5" rx="4.8" ry="4.8"/>
  </g>
  <g>
    <rect class="cls-3" x="306" y="262.8" width="43.1" height="24.5" rx="4.8" ry="4.8"/>
    <rect class="cls-9" x="361.1" y="262.8" width="113.5" height="24.5" rx="4.8" ry="4.8"/>
  </g>
  <g>
    <rect class="cls-3" x="306" y="310" width="43.1" height="24.5" rx="4.8" ry="4.8"/>
    <rect class="cls-9" x="361.1" y="310" width="113.5" height="24.5" rx="4.8" ry="4.8"/>
  </g>
  <rect class="cls-1" x="335.1" y="374.4" width="110.5" height="28.9" rx="11" ry="11"/>
  <g>
    <path class="cls-3" d="M647.2,452.5h-203.6c-28.4-32.5-20.9-76.3,16.8-113.3,4.7-4.7,13.8-8,23.6-10.3,18.1-4.3,38.5-5.3,38.7-5.4,0,0,10.8-8.7,17.3-16.6,20.1-24.4,37.2-22.3,37.2-22.3,20.5-4,38-5.2,51,2.1t0,0c12,6.7,20.1,20.6,23.2,46.2.6,4.8,1,10.1,1.2,15.8.7,20.7,4.8,39.2,7.3,54.8,0,0,0,0,0,0,3.5,22.6,6,39.8-12.7,49Z"/>
    <g>
      <path class="cls-6" d="M483.4,409.3s3.6,9.5,2.8,13c-.7,3.5.5,10.4-.9,13.4-1.4,3.1-4,7.5-1.5,8.6.9.4,11.8-8.1,12.5-10.6.6-2.5,1.1-9.9,3.2-13.9,2.1-4,.3-7.2-2.7-8.7-3-1.5-7.3-9.5-7.3-9.5l-6,7.6Z"/>
      <path class="cls-7" d="M541.7,319.2s-59.6-3.7-67.2,4.2c-8.1,8.3,5.1,90.2,5.1,90.2,0,0,16.2.5,17.4-3.8,0,0-3-39.6-.5-46.5,2.5-6.9.9-16.3.9-16.3,0,0,31.6,4.7,41.6,2.3,10-2.4,2.7-30.1,2.7-30.1Z"/>
      <path class="cls-6" d="M556.1,275.5s-8.8,20.5-13.1,22.7c-4.3,2.2-19.8,20-23.1,19.7-3.3-.3,3.4,3.6,3.4,3.6,0,0,27.6-13.4,29.1-14.2,1.6-.8,9.9-14.4,11-21.4,1.1-6.9-7.4-10.4-7.4-10.4Z"/>
      <path class="cls-6" d="M472.4,425s-3.4,9.6-6.2,11.8c-2.8,2.2-6.3,8.2-9.4,9.7-3.1,1.4-7.9,3.2-6.7,5.6.4.9,14.3,1.5,16.4,0,2.1-1.5,7.2-6.9,11.4-8.6,4.2-1.7,4.9-5.3,3.5-8.4-1.4-3.1.6-12,.6-12l-9.5,1.9Z"/>
      <path class="cls-7" d="M574,266.4c-1.3-1.5,31,2.2,35.3,18.6,0,0,24.8-19.5,2-36-7.9-5.7-8.7-11.8-9.8-17.3-1.1-5.6-9-21.6-22.6-13.6,0,0-6.2,0-10.2,3.4-9,7.8-18.7,57.1,5.3,44.9Z"/>
      <path class="cls-7" d="M567.7,322.1s-64.8,6.6-70.4,13.2c-5.7,6.6-28,92.6-28,92.6,0,0,6.6,3.7,12.6.2,0,0,17.1-29.2,24.7-38.3,7.6-9.2,10.4-37.4,11.7-37.7,1.3-.3,41.8,5.6,55.8-5.1,14-10.7-6.3-24.9-6.3-24.9Z"/>
      <path class="cls-5" d="M603.8,263.3s-15.4-6.9-35-3.7c-4,.6-7.6,2-10.5,6.7-4,6.7-5.9,10.2-5.9,10.2,0,0,.4,3.1,5.9,5.5-1.5,5.5,1.4,15.2-1.3,18.9-2.7,3.7-19.1,13-19.9,18.2-1.5,9.5,28.1,26.7,37,24.8,25.4-5.3,42.7-73.4,29.7-80.6Z"/>
      <path class="cls-7" d="M595,243.8s3-6,3.4-10.9c.3-3.5-2.7-16.1-15.4-13.1,0,0-3.7.7-7,3.4-2.6,2.1-6.3,6.6-.7,17.3l1.5,3.7,18.1-.4Z"/>
      <g>
        <path class="cls-6" d="M577.7,264c-1.3,1.4-.8,5.8,5.2,5.5,3.9-.2,12.4-5.1,11.6-8.5-.4-1.6-3.4-5.7-4.1-15.2l-.7.2-12,3.4s.6,3.8.9,7.4c.2,3-.3,6.6-.8,7.1Z"/>
        <path class="cls-2" d="M577.6,249.4s.6,3.8.9,7.4c6.8-.7,9.9-7.3,11.2-10.8l-12,3.4Z"/>
        <path class="cls-6" d="M577.4,255s15.7-4,13.1-13.7c-2.6-9.8-2.4-16.8-12.5-14.7-10.2,2.1-11.1,6.4-11,9.8,0,3.5,6.3,19.4,10.4,18.6Z"/>
        <path class="cls-7" d="M570.8,228.2s5.3,10.1,15.3,11.1c5.8.6,7.4,4.5,7.4,4.5,0,0-1.8-11-4.7-17.7,0,0-16.2-4.2-18,2.1Z"/>
        <path class="cls-7" d="M572.6,229.5s-3.4,3.5-4.5,6c-1.6,3.7,1.5,11.4,2.8,13.1,0,0-7.3-12.4-4.9-17.8,2.6-5.7,6.6-1.3,6.6-1.3Z"/>
      </g>
      <path class="cls-6" d="M524.6,320.2s-3.1,3.3-3.5,3.5c-2.1,1-4.7.4-6,.7-1.3.3-1-.5-.1-1.1.9-.6,3.2-.4,2.3-.6-.9-.2-6-1.2-7.9-.7-3,.8-5.4-.1-5.6-.4-.2-.3,6.9-3.8,8.9-3.7,2,.1,7.8-.2,7.8-.2l4,2.4Z"/>
      <path class="cls-6" d="M609.1,269.5s19.5,44.1,14.1,50.6c-5.4,6.4-43-1.4-43-1.4l1.2-4.1s27.6-1.7,29.6-2.2c2.8-.8-14-31.7-14-31.7l12.1-11.1Z"/>
      <path class="cls-5" d="M601.8,262.6c.5,0,6.3,1.9,10.5,10.2,4.1,8.1,5.6,12.1,5.6,12.1,0,0-18.3,14.2-25.5,8.9-7.3-5.2,2.7-31.4,9.4-31.3Z"/>
      <path class="cls-2" d="M584.6,314.3s-3.1-2-4.4-3.1c-1.3-1.1-8.6-2-8.6-1.3,0,.7,4.3,1.8,4.8,2.5.5.7,3.1,3.8,5.3,3.8s3-1.9,3-1.9Z"/>
      <g>
        <path class="cls-4" d="M575.6,321l-10.1-1.4c-1.5-.2-3.1-1.5-3.4-2.8l-5.6-19.8c-.4-1.3.5-2.3,2.1-2l10.1,1.4c1.5.2,3.1,1.5,3.4,2.8l5.6,19.8c.4,1.3-.5,2.3-2.1,2Z"/>
        <path class="cls-4" d="M573.5,320.7l-10.1-1.4c-1.5-.2-3.1-1.5-3.4-2.8l-5.6-19.8c-.4-1.3.5-2.3,2.1-2l10.1,1.4c1.5.2,3.1,1.5,3.4,2.8l5.6,19.8c.4,1.3-.5,2.3-2.1,2Z"/>
        <path class="cls-4" d="M556.1,297.2c-.2-.6.2-.9.9-.9.6,0,1.3.6,1.4,1.2.2.6-.2.9-.9.9-.6,0-1.3-.6-1.4-1.2Z"/>
      </g>
      <path class="cls-6" d="M580.3,318.6s-5.7,0-7.1-.3c-1.4-.3-5.1-4.9-4.1-6,.6-.7,4,.6,5.6.6,1.6,0,5.8-2.3,8.7,2.4.3.5-3.1,3.2-3.1,3.2Z"/>
    </g>
  </g>
  <path class="cls-3" d="M523,191.5c.1-2.4,1.2-4.8,2.7-6.7,1.5-1.9,3.5-3.4,5.8-4.1,2.4-.7,5.2-.3,7.4,1,1.3.8,2.4,1.9,3.2,3.2.6-1.2,1.5-2.3,2.6-3.2,2-1.6,4.7-2.3,7.2-1.9,2.4.4,4.5,1.6,6.2,3.3,1.7,1.7,3.1,3.9,3.5,6.3.5,3,.2,6.4-1.3,9.1-1.5,2.9-4,5.3-6.7,7.1-4.5,3.1-10.4,7-10.4,7,0,0-5.4-3.5-10.3-6.1-2.9-1.5-5.7-3.6-7.5-6.2-1.7-2.5-2.5-5.8-2.4-8.9Z"/>
  <path class="cls-3" d="M594,132.5c0-1.5.7-3,1.7-4.2.9-1.2,2.2-2.2,3.7-2.6,1.5-.4,3.3-.2,4.7.6.8.5,1.5,1.2,2,2,.4-.8.9-1.5,1.6-2,1.3-1,3-1.4,4.5-1.2,1.5.2,2.9,1,3.9,2.1,1.1,1.1,1.9,2.5,2.2,4,.3,1.9.1,4-.8,5.8-.9,1.8-2.6,3.3-4.2,4.5-2.8,2-6.6,4.4-6.6,4.4,0,0-3.4-2.2-6.5-3.8-1.8-.9-3.6-2.3-4.8-3.9-1.1-1.6-1.6-3.7-1.5-5.6Z"/>
</svg>