<?xml version="1.0" encoding="UTF-8"?>
<svg id="OBJECTS" xmlns="http://www.w3.org/2000/svg" version="1.1" viewBox="0 0 835 461.3">
  <defs>
    <style>
      .cls-1 {
        opacity: .4;
      }

      .cls-1, .cls-2, .cls-3, .cls-4, .cls-5, .cls-6, .cls-7, .cls-8, .cls-9, .cls-10, .cls-11, .cls-12, .cls-13, .cls-14 {
        stroke-width: 0px;
      }

      .cls-1, .cls-8, .cls-11 {
        fill: #a540aa;
      }

      .cls-2 {
        fill: #d2d9de;
        opacity: .5;
      }

      .cls-3, .cls-15, .cls-4, .cls-13 {
        fill: #fff;
      }

      .cls-3, .cls-10 {
        fill-rule: evenodd;
      }

      .cls-15 {
        stroke: #999;
        stroke-miterlimit: 10;
        stroke-width: .5px;
      }

      .cls-4, .cls-16 {
        opacity: .8;
      }

      .cls-5 {
        fill: #c6cad8;
      }

      .cls-6 {
        fill: #ececf1;
      }

      .cls-7 {
        fill: #81c500;
      }

      .cls-9, .cls-10 {
        fill: #bbbdce;
      }

      .cls-11 {
        opacity: .6;
      }

      .cls-12 {
        fill: #e1e7f6;
      }

      .cls-14 {
        fill: #d0d3de;
      }
    </style>
  </defs>
  <g>
    <path class="cls-14" d="M571.6,347.2H183.9c-11.8,0-20.8-9.7-20-21.5l20.5-286.1c.8-11.8,11.2-21.5,23.1-21.5h387.7c11.8,0,20.8,9.7,20,21.5l-20.5,286.1c-.8,11.8-11.2,21.5-23.1,21.5Z"/>
    <polygon class="cls-14" points="481.4 447.4 355.6 447.4 333.2 291.9 459 291.9 481.4 447.4"/>
    <polygon class="cls-14" points="525.1 438.1 326.6 438.1 322.6 447.4 521.2 447.4 525.1 438.1"/>
    <path class="cls-14" d="M567.2,347.2H179.5c-11.8,0-20.8-9.7-20-21.5l20.5-286.1c.8-11.8,11.2-21.5,23.1-21.5h387.7c11.8,0,20.8,9.7,20,21.5l-20.5,286.1c-.8,11.8-11.2,21.5-23.1,21.5Z"/>
  </g>
  <g>
    <g>
      <path class="cls-13" d="M566.4,341.9H181.1c-9.2,0-16.2-7.5-15.6-16.8l20.4-285c.7-9.2,8.7-16.8,18-16.8h385.3c9.2,0,16.2,7.5,15.6,16.8l-20.4,285c-.7,9.2-8.7,16.8-18,16.8Z"/>
      <path class="cls-13" d="M566.4,341.9H181.1c-9.2,0-16.2-7.5-15.6-16.8l20.4-285c.7-9.2,8.7-16.8,18-16.8h385.3c9.2,0,16.2,7.5,15.6,16.8l-20.4,285c-.7,9.2-8.7,16.8-18,16.8Z"/>
      <path class="cls-6" d="M280,329.2h-90c-4.5,0-7.8-3.6-7.5-8.1l19.9-277.1c.3-4.5,4.2-8.1,8.7-8.1h90c4.5,0,7.8,3.6,7.5,8.1l-19.9,277.1c-.3,4.5-4.2,8.1-8.7,8.1Z"/>
    </g>
    <path class="cls-9" d="M276.5,75h-46.6c-4,0-7.1-3.3-6.8-7.3l.5-7.1c.3-4,3.8-7.3,7.8-7.3h46.6c4,0,7.1,3.3,6.8,7.3l-.5,7.1c-.3,4-3.8,7.3-7.8,7.3Z"/>
    <g>
      <path class="cls-15" d="M246.9,187.1h-71.1c-7,0-12.3-5.7-11.8-12.7l5.1-71.1c.5-7,6.6-12.7,13.6-12.7h71.1c7,0,12.3,5.7,11.8,12.7l-5.1,71.1c-.5,7-6.6,12.7-13.6,12.7Z"/>
      <path class="cls-2" d="M244.9,108.7h-29c-1.1,0-1.9-.9-1.8-1.9h0c0-1.1,1-1.9,2.1-1.9h29c1.1,0,1.9.9,1.8,1.9h0c0,1.1-1,1.9-2.1,1.9Z"/>
      <path class="cls-2" d="M244.1,118.6h-29c-1.1,0-1.9-.9-1.8-1.9h0c0-1.1,1-1.9,2.1-1.9h29c1.1,0,1.9.9,1.8,1.9h0c0,1.1-1,1.9-2.1,1.9Z"/>
      <path class="cls-10" d="M196.2,116c3.4,0,6.2-2.8,6.2-6.2s-2.8-6.2-6.2-6.2-6.2,2.8-6.2,6.2,2.8,6.2,6.2,6.2c-5.7,0-10.4,4.7-10.4,10.4s.9,2.1,2.1,2.1h16.6c1.1,0,2.1-.9,2.1-2.1,0-5.7-4.7-10.4-10.4-10.4Z"/>
      <path class="cls-2" d="M243.8,128.5h-29.3c-1.1,0-1.9-.9-1.8-1.9h0c0-1.1,1-1.9,2.1-1.9h29.3c1.1,0,1.9.9,1.8,1.9h0c0,1.1-1,1.9-2.1,1.9Z"/>
      <path class="cls-2" d="M232.9,175.6h-43.4c-4.6,0-8.1-3.7-7.7-8.3l1.6-22.8c.3-4.6,4.3-8.3,8.9-8.3h43.4c4.6,0,8.1,3.7,7.7,8.3l-1.6,22.8c-.3,4.6-4.3,8.3-8.9,8.3Z"/>
    </g>
    <g>
      <path class="cls-9" d="M270.2,213.7h-53.9c-2,0-3.5-1.6-3.3-3.6h0c.1-2,1.9-3.6,3.9-3.6h53.9c2,0,3.5,1.6,3.3,3.6h0c-.1,2-1.9,3.6-3.9,3.6Z"/>
      <path class="cls-4" d="M259.3,227.9h-34.2c-2,0-3.5-1.6-3.3-3.6h0c.1-2,1.9-3.6,3.9-3.6h34.2c2,0,3.5,1.6,3.3,3.6h0c-.1,2-1.9,3.6-3.9,3.6Z"/>
      <path class="cls-9" d="M267.4,252.8h-53.9c-2,0-3.5-1.6-3.3-3.6h0c.1-2,1.9-3.6,3.9-3.6h53.9c2,0,3.5,1.6,3.3,3.6h0c-.1,2-1.9,3.6-3.9,3.6Z"/>
      <path class="cls-4" d="M256.5,267h-34.2c-2,0-3.5-1.6-3.3-3.6h0c.1-2,1.9-3.6,3.9-3.6h34.2c2,0,3.5,1.6,3.3,3.6h0c-.1,2-1.9,3.6-3.9,3.6Z"/>
      <path class="cls-9" d="M264.6,291.9h-53.9c-2,0-3.5-1.6-3.3-3.6h0c.1-2,1.9-3.6,3.9-3.6h53.9c2,0,3.5,1.6,3.3,3.6h0c-.1,2-1.9,3.6-3.9,3.6Z"/>
      <path class="cls-4" d="M253.7,306h-34.2c-2,0-3.5-1.6-3.3-3.6h0c.1-2,1.9-3.6,3.9-3.6h34.2c2,0,3.5,1.6,3.3,3.6h0c-.1,2-1.9,3.6-3.9,3.6Z"/>
    </g>
    <g>
      <path class="cls-1" d="M570.6,248c2.3-3.6,7.7-2.1,7.4,2.1l-5.2,72.4c-.3,3.7-3.1,6.8-6.3,6.8h-260.9c-3.2,0-5.6-3-5.3-6.8l3.1-43c.4-5.8,6.3-10,11.7-8.3,14.7,4.6,27.3,1.9,39-3.9,25-12.4,46-39.1,74.8-39.1s2.2,0,3.2,0c42.8,2.6,55.9,55.8,89.1,55.8s18.8-4.2,26.6-10.3c9.5-7.4,17.3-17.5,22.8-25.8Z"/>
      <path class="cls-11" d="M576,277.8l-3.2,44.6c-.3,3.7-3.1,6.8-6.3,6.8h-260.9c-3.2,0-5.6-3-5.3-6.8l6.4-88.7c.4-6.1,8.4-8.6,11.6-3.7,8.3,12.7,21.1,29.1,35.9,37.2,5.6,3.1,11.6,5,17.6,5,21.1,0,39-25,60.4-44,13.1-11.7,27.6-21.1,44.8-21.1,36,0,41.4,58.6,70.8,66.6,5.7,1.6,12.2,1.2,20.1-1.8,4.2-1.6,8.4,1.5,8.1,5.9Z"/>
      <g class="cls-16">
        <path class="cls-13" d="M577.3,260.5c-.1,0-.3,0-.4-.2,0,0,0-.1-.1-.2,0,0,0-.1,0-.2,0-.2,0-.3.2-.4.2-.2.6-.2.8,0,.1,0,.2.2.2.4s0,.1,0,.2c0,0,0,.1-.1.2,0,0-.2.2-.4.2Z"/>
        <path class="cls-13" d="M323.6,297.6c-.3,0-.5-.2-.5-.5h0c0-.3.2-.5.5-.5h0c.3,0,.5.2.5.5h0c0,.3-.2.6-.5.6h0ZM318.2,297.3h0c-.3,0-.5-.3-.5-.6h0c0-.3.3-.5.6-.5h0c.3,0,.5.3.5.6h0c0,.3-.3.5-.5.5h0s0,0,0,0ZM328.4,296.8c0-.3.2-.6.5-.6h0c.3,0,.6.2.6.5h0c0,.3-.2.6-.5.6h0c-.3,0-.5-.2-.5-.5ZM312.8,296.5c-.3,0-.5-.3-.4-.6h0c0-.3.3-.5.6-.4h0c.3,0,.5.3.4.6h0c0,.3-.3.4-.5.4h-.1ZM333.7,295.9c0-.3,0-.6.4-.7h0c.3,0,.6.1.6.4h0c0,.3-.1.6-.4.7h-.1c-.3,0-.5-.2-.5-.4ZM506.8,296.2c-.3,0-.5-.2-.5-.5h0c0-.3.3-.5.5-.5h0c.3,0,.5.2.5.5h0c0,.3-.2.5-.5.5h0ZM511.6,295.4c0-.3.2-.6.5-.6h0c.3,0,.6.2.6.5h0c0,.3-.2.6-.5.6h0c-.3,0-.5-.2-.5-.5ZM501.4,295.8c-.3,0-.5-.3-.5-.6h0c0-.3.3-.5.6-.5h0c.3,0,.5.3.5.6h0c0,.3-.3.5-.5.5h0s0,0,0,0ZM307.6,295.2c-.3,0-.5-.4-.4-.7h0c0-.3.4-.5.7-.4h0c.3,0,.4.4.4.7h0c0,.2-.3.4-.5.4h0s0,0-.1,0ZM516.9,294.7c0-.3.1-.6.4-.6h0c.3,0,.6.1.6.4h0c0,.3-.1.6-.4.6h0s0,0,0,0h0c-.3,0-.5-.2-.5-.4ZM496.1,294.9c-.3,0-.5-.3-.4-.6h0c0-.3.3-.5.6-.4h0c.3,0,.5.4.4.6h0c0,.3-.3.4-.5.4h0s0,0-.1,0ZM338.8,294.4c-.1-.3,0-.6.3-.7h0c.3-.1.6,0,.7.3h0c0,.3,0,.6-.3.7h0c0,0-.1,0-.2,0h0c-.2,0-.4-.1-.5-.3ZM522.2,293.5c0-.3,0-.6.4-.7h0c.3,0,.6,0,.7.4h0c0,.3,0,.6-.4.7h0s0,0-.1,0h0c-.2,0-.5-.2-.5-.4ZM490.9,293.3h0c-.3,0-.4-.4-.3-.7h0c.1-.3.4-.4.7-.3h0c.3.1.4.4.3.7h0c0,.2-.3.3-.5.3h0c0,0-.1,0-.2,0ZM343.8,292.3c-.1-.3,0-.6.2-.7h0c.3-.1.6,0,.7.3h0c.1.3,0,.6-.2.7h0c0,0-.2,0-.3,0h0c-.2,0-.4-.1-.5-.3ZM527.3,291.9c-.1-.3,0-.6.3-.7h0c.3-.1.6,0,.7.3h0c0,.3,0,.6-.3.7h0c0,0-.1,0-.2,0h0c-.2,0-.4-.1-.5-.4ZM485.9,291.2h0c-.3-.1-.4-.4-.3-.7h0c.1-.3.4-.4.7-.3h0c.3.1.4.4.3.7h0c0,.2-.3.3-.5.3h0c0,0-.2,0-.2,0ZM532.3,290c-.1-.3,0-.6.3-.7h0c.3-.1.6,0,.7.3h0c.1.3,0,.6-.3.7h0c0,0-.1,0-.2,0h0c-.2,0-.4-.1-.5-.3ZM348.4,289.7c-.2-.3,0-.6.2-.8h0c.3-.2.6,0,.7.2h0c.2.3,0,.6-.2.7h0c0,0-.2,0-.3,0h0c-.2,0-.3,0-.5-.3ZM481.1,288.8h0c-.3-.1-.4-.5-.2-.7h0c.1-.3.5-.3.7-.2h0c.3.1.3.5.2.7h0c0,.2-.3.3-.5.3h0c0,0-.2,0-.3,0ZM537.3,287.8c-.1-.3,0-.6.3-.7h0c.3-.1.6,0,.7.3h0c.1.3,0,.6-.3.7h0c0,0-.2,0-.2,0h0c-.2,0-.4-.1-.5-.3ZM352.9,286.7c-.2-.3-.1-.6.1-.8h0c.2-.2.6-.1.8.1h0c.2.2.1.6-.1.8h0c0,0-.2.1-.3.1h0c-.2,0-.3,0-.4-.2ZM476.4,286.1h0c-.3-.2-.3-.5-.2-.7h0c.1-.3.5-.3.7-.2h0c.3.2.3.5.2.7h0c-.1.2-.3.3-.5.3h0c0,0-.2,0-.3,0ZM542.1,285.4c-.1-.3,0-.6.2-.7h0c.3-.1.6,0,.7.2h0c.1.3,0,.6-.2.7h0c0,0-.2,0-.3,0h0c-.2,0-.4-.1-.5-.3ZM357.2,283.5c-.2-.2-.2-.6,0-.8h0c.2-.2.6-.1.8,0h0c.2.2.1.6,0,.8h0c-.1,0-.2.1-.3.1h0c-.2,0-.3,0-.4-.2ZM471.8,283.2h0c-.3-.2-.3-.5-.2-.8h0c.2-.3.5-.3.8-.2h0c.2.2.3.5.2.7h0c-.1.2-.3.3-.5.3h0c-.1,0-.2,0-.3,0ZM546.8,282.8c-.2-.3,0-.6.2-.7h0c.3-.1.6,0,.7.2h0c.1.3,0,.6-.2.7h0c0,0-.2,0-.3,0h0c-.2,0-.4,0-.5-.3ZM467.3,280.2c-.2-.2-.3-.5-.1-.8h0c.2-.2.5-.3.8-.1h0c.2.2.3.5.1.8h0c-.1.2-.3.2-.5.2h0c0,0-.2,0-.3,0ZM551.4,280c-.2-.3,0-.6.2-.8h0c.3-.2.6,0,.7.2h0c.2.3,0,.6-.2.7h0c0,0-.2,0-.3,0h0c-.2,0-.3,0-.5-.3ZM361.4,280.1c-.2-.2-.2-.6,0-.8h0c.2-.2.6-.2.8,0h0c.2.2.2.6,0,.8h0c0,0-.2.1-.3.1h0c-.1,0-.3,0-.4-.2ZM555.9,277.1c-.2-.3-.1-.6.1-.8h0c.3-.2.6-.1.8.1h0c.2.2.1.6-.1.7h0c0,0-.2,0-.3,0h0c-.2,0-.3,0-.4-.2ZM462.9,277.2c-.3-.2-.3-.5-.1-.7h0c.2-.3.5-.3.7-.2h0c.3.2.3.5.1.8h0c0,.2-.3.2-.4.2h0c0,0-.2,0-.3,0ZM365.5,276.6c-.2-.2-.2-.6,0-.8h0c.2-.2.6-.2.8,0h0c.2.2.2.6,0,.8h0c-.1,0-.2.1-.3.1h0c-.2,0-.3,0-.4-.2ZM458.4,274.2c-.3-.2-.3-.5-.2-.7h0c.2-.3.5-.3.7-.2h0c.3.2.3.5.2.7h0c0,.2-.3.2-.4.2h0c-.1,0-.2,0-.3,0ZM560.3,274c-.2-.2-.1-.6.1-.7h0c.2-.2.6-.1.8.1h0c.2.2.1.6-.1.8h0c0,0-.2,0-.3,0h0c-.2,0-.3,0-.4-.2ZM369.6,273.2c-.2-.2-.2-.6,0-.8h0c.2-.2.6-.1.8,0h0c.2.2.2.6,0,.8h0c0,0-.2.1-.3.1h0c-.1,0-.3,0-.4-.2ZM453.9,271.3c-.3-.2-.3-.5-.2-.7h0c.2-.3.5-.3.7-.2h0c.3.2.3.5.2.7h0c-.1.2-.3.3-.5.3h0c0,0-.2,0-.3,0ZM564.6,270.8c-.2-.2-.1-.6,0-.8h0c.2-.2.6-.1.8,0h0c.2.2.1.6,0,.8h0c0,0-.2.1-.3.1h0c-.2,0-.3,0-.4-.2ZM373.8,269.9c-.2-.2-.1-.6.1-.8h0c.2-.2.6-.1.8.1h0c.2.2.1.6-.1.8h0c0,0-.2.1-.3.1h0c-.2,0-.3,0-.4-.2ZM449.3,268.6c-.3-.1-.3-.5-.2-.7h0c.1-.3.5-.3.7-.2h0c.3.1.4.5.2.7h0c0,.2-.3.3-.5.3h0c0,0-.2,0-.3,0ZM568.8,267.4c-.2-.2-.2-.6,0-.8h0c.2-.2.6-.2.8,0h0c.2.2.2.6,0,.8h0c-.1,0-.2.1-.3.1h0c-.2,0-.3,0-.4-.2ZM378.2,266.7c-.2-.3-.1-.6.1-.8h0c.3-.2.6,0,.8.2h0c.2.2,0,.6-.2.7h0c0,0-.2,0-.3,0h0c-.2,0-.3,0-.4-.2ZM444.6,266.1c-.3-.1-.4-.5-.2-.7h0c.1-.3.5-.4.7-.2h0c.3.1.4.5.2.7h0c0,.2-.3.3-.5.3h0c0,0-.2,0-.3,0ZM572.9,264c-.2-.2-.2-.6,0-.8h0c.2-.2.6-.2.8,0h0c.2.2.2.6,0,.8h0c0,0-.2.1-.3.1h0c-.2,0-.3,0-.4-.2ZM382.7,263.9c-.2-.3,0-.6.2-.7h0c.3-.1.6,0,.7.2h0c.1.3,0,.6-.2.7h0c0,0-.2,0-.3,0h0c-.2,0-.4,0-.5-.3ZM439.8,263.8h0c-.3-.1-.4-.4-.3-.7h0c.1-.3.4-.4.7-.3h0c.3.1.4.4.3.7h0c0,.2-.3.3-.5.3h0c0,0-.1,0-.2,0ZM434.9,261.8c-.3,0-.4-.4-.3-.7h0c0-.3.4-.4.7-.3h0c.3.1.4.4.3.7h0c0,.2-.3.3-.5.3h0c0,0-.1,0-.2,0ZM387.5,261.4c-.1-.3,0-.6.3-.7h0c.3-.1.6,0,.7.3h0c.1.3,0,.6-.3.7h0c0,0-.1,0-.2,0h0c-.2,0-.4-.1-.5-.3ZM429.8,260.1c-.3,0-.4-.4-.4-.7h0c0-.3.4-.4.7-.4h0c.3,0,.4.4.4.7h0c0,.2-.3.4-.5.4h0s0,0-.2,0ZM392.5,259.4c0-.3,0-.6.3-.7h0c.3,0,.6,0,.7.3h0c0,.3,0,.6-.3.7h0s-.1,0-.2,0h0c-.2,0-.4-.1-.5-.4ZM424.6,258.8c-.3,0-.5-.3-.4-.6h0c0-.3.3-.5.6-.4h0c.3,0,.5.3.4.6h0c0,.3-.3.4-.5.4h0s0,0-.1,0ZM397.6,257.9c0-.3.1-.6.4-.6h0c.3,0,.6.1.6.4h0c0,.3-.1.6-.4.6h0s0,0-.1,0h0c-.3,0-.5-.2-.5-.4ZM419.4,257.9h0c-.3,0-.5-.3-.5-.6h0c0-.3.3-.5.6-.5h0c.3,0,.5.3.5.6h0c0,.3-.3.5-.5.5h0ZM402.9,257c0-.3.2-.6.5-.6h0c.3,0,.6.2.6.5h0c0,.3-.2.6-.5.6h0c-.3,0-.5-.2-.5-.5ZM414.1,257.3h0c-.3,0-.5-.3-.5-.6h0c0-.3.3-.5.6-.5h0c.3,0,.5.3.5.6h0c0,.3-.3.5-.5.5h0s0,0,0,0ZM408.2,256.6c0-.3.2-.5.5-.5h0c.3,0,.5.2.5.5h0c0,.3-.2.5-.5.5h0c-.3,0-.5-.2-.5-.5Z"/>
        <path class="cls-13" d="M302.4,293.5c0,0-.1,0-.2,0,0,0-.1,0-.2-.1,0,0,0,0-.1-.2,0,0,0-.1,0-.2,0-.1,0-.3.2-.4,0,0,.1,0,.2-.1.1,0,.3,0,.4,0,0,0,.1,0,.2.1.1.1.2.2.2.4s0,.1,0,.2c0,0,0,.1-.1.2,0,0-.1,0-.2.1,0,0-.1,0-.2,0Z"/>
      </g>
    </g>
    <g>
      <g>
        <path class="cls-6" d="M389.2,131.4h0s-3.7-4-3.7-4c-6.6,6.1-15.3,9.9-24.6,9.9-15.7,0-28.1-10.6-30.9-25.1l-5.5,1.5s0,0,0,0l-5.1,1.3c1.5,7.6,5,14.5,10.1,20,16.1,17.3,44.5,17.3,63.1,0l-3.4-3.6Z"/>
        <path class="cls-8" d="M397.1,72l-4.8,4.5s0,0,0,0l-3.3,3.1c5.7,6.1,8.9,14.6,8.2,23.9-.7,9.3-5.1,17.8-11.6,23.9l2.9,3.1h0s4.2,4.5,4.2,4.5c9-8.4,14.5-19.7,15.3-31.5.8-11.8-3-23.2-10.8-31.5Z"/>
        <path class="cls-7" d="M397.1,72c-16.1-17.3-44.5-17.3-63.1,0-12.1,11.3-17.6,27.7-14.6,43.1l6.3-1.6s0,0,0,0l4.3-1.1c-.5-2.8-.7-5.7-.5-8.8,1.3-18.7,17.6-33.8,36.2-33.8s17.5,3.8,23.2,9.9l4.3-4s0,0,0,0l3.9-3.6Z"/>
      </g>
      <g>
        <path class="cls-6" d="M442.6,131.4h0s4.3-4,4.3-4c-5.7-6.1-8.9-14.6-8.2-23.9,1.1-15.7,12.7-28.8,27.4-32.7l-1.1-5.4s0,0,0,0l-1-5c-7.7,2-14.9,6-20.8,11.5-18.5,17.3-20.6,45.8-4.5,63.1l3.9-3.6Z"/>
        <path class="cls-8" d="M501.7,135.1l-4.2-4.5s0,0,0,0l-2.9-3.1c-6.5,6.1-15.3,9.9-24.6,9.9s-17.5-3.8-23.2-9.9l-3.3,3.1h0l-4.8,4.5c7.8,8.4,18.8,13.1,30.6,13.1s23.5-4.7,32.5-13.1Z"/>
        <path class="cls-7" d="M501.7,135.1c18.5-17.3,20.6-45.8,4.5-63.1-10.5-11.2-26.6-15.7-42.3-11.5l1.2,6.1s0,0,0,0l.8,4.3c2.8-.7,5.8-1.1,8.8-1.1,18.7,0,32.7,15.1,31.4,33.8-.7,9.3-5.1,17.8-11.6,23.9l3.7,4s0,0,0,0l3.4,3.6Z"/>
      </g>
    </g>
    <path class="cls-12" d="M576.5,62.9c.9,0,1.7.4,2.3,1,.6.6.9,1.5.8,2.4l-2,27.3c-.1,1.9-1.9,3.6-3.8,3.6h-27.3c-.9,0-1.7-.4-2.3-1-.6-.6-.9-1.5-.8-2.4l2-27.3c.1-1.9,1.9-3.6,3.8-3.6h27.3M576.5,61.5h-27.3c-2.7,0-5,2.2-5.2,4.9l-2,27.3c-.2,2.7,1.8,4.9,4.5,4.9h27.3c2.7,0,5-2.2,5.2-4.9l2-27.3c.2-2.7-1.8-4.9-4.5-4.9h0Z"/>
    <path class="cls-12" d="M573.1,109.9c.9,0,1.7.4,2.3,1,.6.6.9,1.5.8,2.4l-2,27.3c-.1,1.9-1.9,3.6-3.8,3.6h-27.3c-.9,0-1.7-.4-2.3-1-.6-.6-.9-1.5-.8-2.4l2-27.3c.1-1.9,1.9-3.6,3.8-3.6h27.3M573.1,108.5h-27.3c-2.7,0-5,2.2-5.2,4.9l-2,27.3c-.2,2.7,1.8,4.9,4.5,4.9h27.3c2.7,0,5-2.2,5.2-4.9l2-27.3c.2-2.7-1.8-4.9-4.5-4.9h0Z"/>
    <path class="cls-5" d="M533.2,260.9c.8,0,1.5.3,2,.8.5.5.7,1.3.7,2-.1,1.7-1.6,3-3.3,3s-1.5-.3-2-.8c-.5-.5-.7-1.3-.7-2,.1-1.7,1.6-3,3.3-3M533.2,259.5c-2.4,0-4.5,1.9-4.7,4.3s1.6,4.3,4,4.3,4.5-1.9,4.7-4.3c.2-2.4-1.6-4.3-4-4.3h0Z"/>
    <g>
      <polygon class="cls-5" points="533.5 259.5 532.8 259.5 532.9 258.1 533.6 258.2 533.5 259.5"/>
      <path class="cls-5" d="M533.8,255.3h-.7s.2-2.9.2-2.9h.7s-.2,2.9-.2,2.9ZM534.2,249.6h-.7s.2-2.9.2-2.9h.7s-.2,2.9-.2,2.9ZM534.6,243.9h-.7s.2-2.9.2-2.9h.7s-.2,2.9-.2,2.9ZM535,238.1h-.7s.2-2.9.2-2.9h.7s-.2,2.9-.2,2.9ZM535.4,232.4h-.7s.2-2.9.2-2.9h.7s-.2,2.9-.2,2.9ZM535.9,226.7h-.7s.2-2.9.2-2.9h.7s-.2,2.9-.2,2.9ZM536.3,221h-.7s.2-2.9.2-2.9h.7s-.2,2.9-.2,2.9ZM536.7,215.3h-.7s.2-2.9.2-2.9h.7s-.2,2.9-.2,2.9ZM537.1,209.6h-.7s.2-2.9.2-2.9h.7s-.2,2.9-.2,2.9ZM537.5,203.8h-.7s.2-2.9.2-2.9h.7s-.2,2.9-.2,2.9ZM537.9,198.1h-.7s.2-2.9.2-2.9h.7s-.2,2.9-.2,2.9Z"/>
      <rect class="cls-5" x="537.3" y="191.3" width="1.4" height=".7" transform="translate(308.7 714.8) rotate(-85.9)"/>
    </g>
    <path class="cls-5" d="M567.6,191.8h-250.6c-1.4,0-2.7-.6-3.7-1.6-.9-1-1.4-2.4-1.3-3.8l1.2-17.3c.2-2.9,2.7-5.2,5.6-5.2h250.6c1.4,0,2.7.6,3.7,1.6.9,1,1.4,2.4,1.3,3.8l-1.2,17.3c-.2,2.9-2.7,5.2-5.6,5.2Z"/>
    <path class="cls-3" d="M562.2,175h-237.6c-1.3,0-2.3-1.1-2.2-2.3h0c0-1.3,1.2-2.3,2.5-2.3h237.6c1.3,0,2.3,1.1,2.2,2.3h0c0,1.3-1.2,2.3-2.5,2.3Z"/>
    <path class="cls-3" d="M522.6,184.9h-198.7c-1.3,0-2.3-1.1-2.2-2.3h0c0-1.3,1.2-2.3,2.5-2.3h198.7c1.3,0,2.3,1.1,2.2,2.3h0c0,1.3-1.2,2.3-2.5,2.3Z"/>
  </g>
</svg>