<?xml version="1.0" encoding="UTF-8"?>
<svg xmlns="http://www.w3.org/2000/svg" version="1.1" xmlns:xlink="http://www.w3.org/1999/xlink" viewBox="0 0 835 461.3">
  <defs>
    <style>
      .cls-1 {
        fill: url(#linear-gradient);
      }

      .cls-1, .cls-2, .cls-3, .cls-4, .cls-5, .cls-6, .cls-7, .cls-8 {
        stroke-width: 0px;
      }

      .cls-2 {
        fill: #c6cad8;
      }

      .cls-9 {
        isolation: isolate;
      }

      .cls-3 {
        fill: #ececf1;
      }

      .cls-4 {
        fill: url(#linear-gradient-2);
        mix-blend-mode: multiply;
        opacity: .5;
      }

      .cls-5 {
        opacity: .3;
      }

      .cls-5, .cls-6 {
        fill: #d7d8db;
      }

      .cls-7 {
        fill: #212436;
      }

      .cls-8 {
        fill: #1a3649;
      }
    </style>
    <linearGradient id="linear-gradient" x1="629.5" y1="-16075.4" x2="629.5" y2="-16045.6" gradientTransform="translate(0 -15920) scale(1 -1)" gradientUnits="userSpaceOnUse">
      <stop offset="0" stop-color="#12285c"/>
      <stop offset="1" stop-color="#071a3a"/>
    </linearGradient>
    <linearGradient id="linear-gradient-2" x1="643.2" y1="-16245.4" x2="644.1" y2="-16218.9" gradientTransform="translate(0 -15920) scale(1 -1)" gradientUnits="userSpaceOnUse">
      <stop offset="0" stop-color="#263574"/>
      <stop offset="1" stop-color="#15175d"/>
    </linearGradient>
  </defs>
  <g class="cls-9">
    <g id="OBJECTS">
      <g>
        <path class="cls-6" d="M681,449.5l-2.2-9.2c3.8.6,9.9-1.2,12.4-1.5l-.2,10.7s-4.7,2.9-10,0Z"/>
        <g>
          <path class="cls-8" d="M626.2,266s0,0,0,0c0,0,0,0,0,0Z"/>
          <path class="cls-6" d="M632.6,449.5l-.4-7c3.8.6,8.2.3,10.6,0l-.2,7.1s-4.7,2.9-10,0Z"/>
          <path class="cls-7" d="M692.1,440.6c-2.6,1.5-10.2,2.6-13.8,1.5,0,0-16.3-73.7-18.3-82.8-2.7-11.8-7.5-26.1-10.3-39,0,6.7-.6,15.4-1.2,22.8h0c-.7,8.6-1.6,15.4-1.6,15.4.6,5.4,1.7,31.6-.5,48.3-1.4,10.7-1.5,35.7-1.5,35.7-2.9.7-8.6,1.2-14.3.2,0,0-8.9-82.3-9.3-88.7-1.6-27-.5-86.7-.3-87.8,0,.4,3.1,3.1,12.6,2.6,13.1-.7,37.8-2.6,37.8-2.6,7.3,4.1,8.6,25.1,8.3,35.2-.3,4.8,2.2,37.3,3.7,56,4.8,11.2,4.8,30.4,5.8,44.4,1.5,21.9,2.7,38.9,2.7,38.9Z"/>
        </g>
        <path class="cls-3" d="M613.5,206.9l-4.9,25.5c-6.1-5-15.6-12.4-22.1-16l-5,2.9s5.4,7.5,13.1,15.8c10,10.9,15.4,15.4,15.4,15.4h0c1.4,1.3,3.4,1.7,6.4.1,9.7-5.2,15.2-36.3,15.2-36.3l-18-7.4Z"/>
        <path class="cls-2" d="M607.8,222s4.2,2.8,10,4.7c1.6.5,3.3.9,5.1,1.2.9.2,1.8.2,2.8.3,1.3,0,2.6,0,3.9,0,.4,0,.8,0,1.3-.1l3.4-13.7,2.5-10.2-17.1-19.8s-4.5,7.6-11.7,37.7Z"/>
        <g>
          <path class="cls-1" d="M626.1,129.6h3.2s.2,1,.3,2.1l3.7,2.1v5.9s.5,5.3-3.5,4.1c-2.3-.7-2.8-5.3-2.7-8.9-2.3-1.5-.9-5.2-.9-5.2Z"/>
          <path class="cls-3" d="M656.8,173c-.8-1.8-1.5-23.7-1.5-23.7l-9.8,8.2-4.6,3.9c-.5,2.3-1.3,5.3-2,7.7-.7,2.4-.3,4.6-.3,4.6,0,0,2,3.7,6.6,3.3,9-.7,11.5-4,11.5-4Z"/>
          <path class="cls-5" d="M651.6,157.5s-3.9,8.7-12.7,11.5c.7-2.4,1.5-5.3,2-7.7l4.6-3.9h6.1Z"/>
          <path class="cls-3" d="M629,138.5s-2,20.6,4.8,24.4c3.7,2.1,11.5,1.3,16.6-3.5,2.2-2.1,3.5-4.9,4.6-7.8,1.7-4.6,4.3-13.2,2.6-18.8-2.3-7.8-26.4-12.7-28.6,5.6Z"/>
          <path class="cls-7" d="M631.5,119c3.9-.8,4.3-3.9,8.6-3.4s5,2.7,7,3.5c2,.8,4.4,0,7.1,1.7,1.7,1,2.3,2.8,2.5,4,8,1.2,7.3,6.7,5.4,12.9-1.4,4.6.7,6.1-1,9.4-.7,1.4-2.6,3.6-3,5.5-.6,3.2-.9,4.3-2.4,5.7-.6-3.3-1.7-5.9-2.7-11.4,0-.4-.2-.8-.3-1.1-3-.3-4.9.2-5.6-1.8-.5-1.7-.3-4-.5-6.2-6.9.5-8.8-2.3-9.7-3-7.4,1.6-10.4.9-12.1-1.7-1.9-2.8-.2-4.5-.2-5.4,0,0,0,0,0,0-.6-3.8,3-7.8,6.9-8.6Z"/>
        </g>
        <path class="cls-2" d="M621.4,269.8c2.9,3.7,14.2,6.6,22.6,6.6s27.5-3.5,30.2-7.2c.3-.4,2-2.1-.8-12.5-.7-2.5-1.7-8.8-1.9-11.1-.8-12.5,2.8-29.9,4.1-33.7,3.2-9.5,6.3-17.2,5-24.9-1.5-2.5-2.3-4.3-3.8-6.1-3.9-4.3-17.5-10.6-20.5-11.1,0,0-3.1,5.8-10.4,6.4-9,.7-7.2-6.4-7.2-6.4-5.3,2.7-12,6.1-16.6,10.8-3.8,3.9-6.7,12.6-4.2,28.9.8,5.1,2.1,24.2,2.7,39.6.4,10.4-.2,19.1.9,20.6Z"/>
        <path class="cls-3" d="M665,204s4.5,11.3,9.2,20.3c1.6,3.1,4.8,12.8,6.1,13.7,4.2,2.8,11.5-3.4,14.3-6.1,0-.2-1-6.7-3.3-14.3-3.5-11.6-8.7-25.9-8.7-25.9l-17.6,12.3Z"/>
        <path class="cls-2" d="M662.3,182.9c2.3-3,10-7.3,15.1-1,1,1.2,6.3,10.3,9,18.1,2.8,8.1,4.8,14.4,4.8,14.4,0,0-5.2,2.8-10.7,4.6-4.6,1.6-9.8,2.7-13.8,1.8,0,0-5.4-14.2-6.7-22,0,0-2-10.5,2.2-16Z"/>
        <path class="cls-3" d="M694.6,232s-25.3-11.1-28.9-13.2c-5.5-3.2-8.9-5.4-10.8-6.7h0s-4.3-8.2-5.4-10.2c-1.1-2-5.1-2.5-8-4.2-2.8-1.7-4.8-4.4-6.2-4-1.3.5.5,4.1,1.8,5.2,1.4,1.1,4.4,3.5,4.4,3.5,0,0-1.4,2.1-1.4,2.9s-1.2,1.7-1.3,3.2-.8,2.2-.5,3.6c.3,1.5,1.8,4.2,2.4,5,.3.4,1.1.2,1.4-.3.3-.5.5-1.3.5-1.6.2,0,2.6,3.5,6.8,4,.3,0,.5,0,.8,0,8.9,10.9,17.2,19,32.3,27.2,10.8,5.9,13.9-8.5,12.1-14.6Z"/>
        <path class="cls-7" d="M625.9,449s4.8-3.9,6.4-3.9,1.9.8,3,1.2c.8.3,1.5.3,1.7.4,4.1,0,5.6-1.2,5.6-1.2,3.9,7.1,1.5,12.8,1.5,12.8h-31.5c-.9-7.5,9.2-8,13.2-9.3Z"/>
        <path class="cls-7" d="M677.1,447.4s1.2-1.4,3.6-2.2c2.1-.7,4.5-1.2,8.7.4,1.1,0,1.7,0,1.7,0,.3,1.1.9,1.9,1.6,2.6,6,6.3,2.5,10.2,2.5,10.2h-17.3c-8.2-1.2-4.7-9.7-.8-10.9Z"/>
        <path class="cls-3" d="M650.7,153.8c4.7,2.6,7.9-9.4,3.3-10.6-3.5-.9-4.3,4.1-4.3,4.1,0,0-1.6,5.1,1.1,6.5Z"/>
        <path class="cls-4" d="M649.7,320.2c0,2.6,0,5.4-.2,8.4l-7.7-26.2c-2-3.1-3.8-5.1-4-5.4l7.1,2.8c1.1,5.8,4.7,20.5,4.7,20.5Z"/>
        <path class="cls-7" d="M631.4,236.9h-35c-1.8,0-3.5-1-4.4-2.6l-21.9-39.6c-.7-1.3.2-2.9,1.7-2.9h35c1.8,0,3.5,1,4.4,2.6l21.9,39.6c.7,1.3-.2,2.9-1.7,2.9Z"/>
        <path class="cls-3" d="M588.5,217.5c1.6-.2,1-1.7-.2-2.4-.5-.3-1.3-.6-2.1-.8,0,0,0,0,0,0,3.2.6,2.7-1.5,1.2-2.4-1.5-.9-5.5-1.6-5.5-1.6l-4.5-2.5-2-3.6s-1,4.7.1,6.5c0,.8-.1,2.3,0,2.6,0,.1.3.3.5.5.1,1.3.4,2.6.9,2.9.1,0,.3.2.4.3,0,.8.3,1.5.8,1.8,1.5,1,3.7,1.7,3.7,1.7,0,0,2.1.3,4.8.8,2.1.4,2.3-.6,1.6-1.4,1.9,0,1.5-1.5.3-2.3Z"/>
      </g>
    </g>
  </g>
</svg>