<?xml version="1.0" encoding="UTF-8"?>
<svg id="OBJECTS" xmlns="http://www.w3.org/2000/svg" version="1.1" xmlns:xlink="http://www.w3.org/1999/xlink" viewBox="0 0 835 461.3">
  <defs>
    <style>
      .cls-1 {
        fill: url(#linear-gradient);
      }

      .cls-1, .cls-2, .cls-3, .cls-4, .cls-5, .cls-6, .cls-7, .cls-8, .cls-9, .cls-10, .cls-11, .cls-12 {
        stroke-width: 0px;
      }

      .cls-2 {
        fill: #c6cad8;
      }

      .cls-3 {
        fill: #a64db1;
      }

      .cls-4 {
        fill: #81c500;
      }

      .cls-5 {
        fill: #a540aa;
      }

      .cls-6 {
        fill: #8e93ad;
      }

      .cls-7 {
        fill: #e6e6e6;
      }

      .cls-8 {
        fill: url(#linear-gradient-2);
      }

      .cls-9 {
        fill: #c8cbd9;
      }

      .cls-10 {
        fill: #acb0c5;
      }

      .cls-11 {
        fill: #fff;
      }

      .cls-12 {
        fill: #f1f2f4;
      }
    </style>
    <linearGradient id="linear-gradient" x1="273.1" y1="156.8" x2="305.6" y2="156.8" gradientUnits="userSpaceOnUse">
      <stop offset="0" stop-color="#fdfdfd"/>
      <stop offset=".4" stop-color="#f8f8f8"/>
      <stop offset=".9" stop-color="#ececec"/>
      <stop offset="1" stop-color="#e6e6e6"/>
    </linearGradient>
    <linearGradient id="linear-gradient-2" x1="255.2" y1="192.5" x2="323.4" y2="192.5" xlink:href="#linear-gradient"/>
  </defs>
  <g>
    <g>
      <path class="cls-6" d="M176.6,61.1h446.5c12.7,0,23,10.3,23,23v272.5c0,17-13.8,30.9-30.9,30.9H183.4c-17,0-30.9-13.8-30.9-30.9V85.1c0-13.3,10.8-24,24-24Z"/>
      <path class="cls-10" d="M131.9,363.3h534.7v14.8c0,7.6-6.1,13.7-13.7,13.7H145.7c-7.6,0-13.7-6.1-13.7-13.7v-14.8h0Z"/>
      <rect class="cls-11" x="165.8" y="74.1" width="465.7" height="275.6" rx="15.4" ry="15.4"/>
      <polygon class="cls-12" points="350.7 363.3 357.3 373.9 450.7 373.9 456.9 363.3 350.7 363.3"/>
    </g>
    <rect class="cls-9" x="152.7" y="363.2" width="493.5" height="1.6"/>
  </g>
  <g>
    <rect class="cls-7" x="374.5" y="116.6" width="95.1" height="8.7"/>
    <rect class="cls-7" x="374.5" y="135.4" width="83.2" height="8.7"/>
    <rect class="cls-7" x="374.5" y="154.1" width="68.6" height="8.7"/>
    <rect class="cls-7" x="374.5" y="172.8" width="48.8" height="8.7"/>
  </g>
  <rect class="cls-7" x="264.7" y="267.9" width="69.1" height="8.7"/>
  <rect class="cls-7" x="264.7" y="312.7" width="69.1" height="8.7"/>
  <rect class="cls-5" x="222.4" y="107.8" width="133.8" height="133.8" rx="20" ry="20"/>
  <rect class="cls-2" x="368.9" y="260.6" width="33.4" height="64.9"/>
  <rect class="cls-2" x="414" y="240.4" width="33.4" height="85.1"/>
  <rect class="cls-2" x="459" y="220.6" width="33.4" height="104.9"/>
  <rect class="cls-2" x="504.1" y="251.9" width="33.4" height="73.6"/>
  <rect class="cls-2" x="549.1" y="233.1" width="33.4" height="92.4"/>
  <rect class="cls-2" x="347.7" y="324" width="256" height="3"/>
  <path class="cls-4" d="M382.2,245.5c-.9,0-1.9-.4-2.6-1.1-1.4-1.4-1.4-3.7,0-5.1l28.7-28.7c2.7-2.7,6.2-4.1,9.9-4.1s7.3,1.5,9.9,4.1c2.7,2.7,7,2.7,9.6,0l29.2-29.2c5.5-5.5,14.4-5.5,19.9,0l29.5,29.5c2.7,2.7,7,2.7,9.6,0l37-37c1.4-1.4,3.7-1.4,5.1,0,1.4,1.4,1.4,3.7,0,5.1l-37,37c-5.5,5.5-14.4,5.5-19.9,0l-29.5-29.5c-2.7-2.7-7-2.7-9.6,0l-29.2,29.2c-5.5,5.5-14.4,5.5-19.9,0-1.3-1.3-3-2-4.8-2s-3.5.7-4.8,2l-28.7,28.7c-.7.7-1.6,1.1-2.6,1.1Z"/>
  <rect class="cls-7" x="222.3" y="257.5" width="27.5" height="27.5"/>
  <rect class="cls-7" x="222.3" y="303.3" width="27.5" height="27.5"/>
  <polygon class="cls-3" points="235.9 279 224.7 267.8 228.2 264.4 235.9 272.1 251.5 256.6 254.9 260 235.9 279"/>
  <g id="Layer_14" data-name="Layer 14">
    <circle class="cls-1" cx="289.3" cy="156.8" r="16.2"/>
    <path class="cls-8" d="M292.8,176.3h-6.9c-17,0-30.7,13.9-30.7,30.9,0,0,0,0,0,0,0,.9.7,1.6,1.6,1.6h65c.9,0,1.6-.9,1.6-1.8,0-16.9-13.7-30.6-30.7-30.7h0Z"/>
  </g>
</svg>