<?xml version="1.0" encoding="UTF-8"?>
<svg id="OBJECTS" xmlns="http://www.w3.org/2000/svg" version="1.1" viewBox="0 0 835 461.3">
  <defs>
    <style>
      .cls-1 {
        fill: #81c500;
      }

      .cls-1, .cls-2, .cls-3, .cls-4, .cls-5, .cls-6, .cls-7, .cls-8, .cls-9 {
        stroke-width: 0px;
      }

      .cls-2 {
        fill: #a540aa;
      }

      .cls-3 {
        fill: #e6e6e6;
      }

      .cls-4 {
        fill: #fdfdfd;
      }

      .cls-5 {
        fill: #222535;
      }

      .cls-6 {
        fill: #fff;
      }

      .cls-7 {
        fill: #979798;
      }

      .cls-8 {
        fill: #d0d3de;
      }

      .cls-9 {
        fill: #f0f0f0;
      }
    </style>
  </defs>
  <rect class="cls-9" x="483.2" y="9" width="259.1" height="113.5" rx="9.7" ry="9.7"/>
  <path class="cls-8" d="M732.6,9h-239.8c-5.3,0-9.7,4.3-9.7,9.7v23.2h259.1v-23.2c0-5.3-4.3-9.7-9.7-9.7Z"/>
  <g>
    <rect class="cls-6" x="502.2" y="56" width="69.1" height="8.7"/>
    <rect class="cls-6" x="578.4" y="56" width="69.1" height="8.7"/>
    <rect class="cls-6" x="654.6" y="56" width="69.1" height="8.7"/>
    <rect class="cls-6" x="502.2" y="70" width="69.1" height="8.7"/>
    <rect class="cls-6" x="561.4" y="70" width="86.1" height="8.7"/>
    <rect class="cls-6" x="654.6" y="70" width="69.1" height="8.7"/>
    <rect class="cls-6" x="502.2" y="84" width="69.1" height="8.7"/>
    <rect class="cls-6" x="578.4" y="84" width="79.3" height="8.7"/>
    <rect class="cls-6" x="654.6" y="84" width="69.1" height="8.7"/>
    <rect class="cls-6" x="502.2" y="98" width="69.1" height="8.7"/>
    <rect class="cls-6" x="578.4" y="98" width="40.9" height="8.7"/>
    <rect class="cls-6" x="626.4" y="98" width="97.3" height="8.7"/>
  </g>
  <g>
    <rect class="cls-3" x="602.7" y="382.3" width="14.5" height="14.5"/>
    <rect class="cls-6" x="582.8" y="219.5" width="150.2" height="192" rx="8.3" ry="8.3"/>
    <path class="cls-8" d="M724.7,219.5h-133.5c-4.6,0-8.3,3.7-8.3,8.3v20h150.2v-20c0-4.6-3.7-8.3-8.3-8.3Z"/>
    <g>
      <circle class="cls-4" cx="599.7" cy="233.6" r="5.9" transform="translate(234.6 763.6) rotate(-76.7)"/>
      <circle class="cls-4" cx="617.1" cy="233.6" r="5.9" transform="translate(248 780.6) rotate(-76.7)"/>
      <circle class="cls-4" cx="634.6" cy="233.6" r="5.9" transform="translate(261.4 797.5) rotate(-76.7)"/>
    </g>
    <path class="cls-1" d="M675,289.8l16.3-9.4c-6.7-9.5-17.4-16-29.6-17.1v18.8c5.3.9,10,3.7,13.3,7.7Z"/>
    <path class="cls-1" d="M678.8,311.7l16.3,9.4c2.4-5.2,3.7-11,3.7-17.1s-1.3-11.9-3.7-17.1l-16.3,9.4c.9,2.4,1.4,5,1.4,7.7s-.5,5.3-1.4,7.7Z"/>
    <g>
      <path class="cls-2" d="M637,311.7c-.9-2.4-1.4-5-1.4-7.7,0-11,8-20.1,18.5-21.9v-18.8c-20.8,1.9-37.1,19.4-37.1,40.8s1.3,11.9,3.7,17.1l16.3-9.4Z"/>
      <path class="cls-2" d="M675,318.3c-4.1,4.9-10.2,8-17.1,8s-13-3.1-17.1-8l-16.3,9.4c7.4,10.4,19.6,17.3,33.4,17.3s26-6.8,33.4-17.3l-16.3-9.4Z"/>
    </g>
    <rect class="cls-3" x="625.2" y="363.6" width="90" height="4.6"/>
    <rect class="cls-3" x="625.2" y="387.3" width="90" height="4.6"/>
    <rect class="cls-3" x="602.7" y="358.1" width="14.5" height="14.5"/>
    <polygon class="cls-1" points="746.1 337.8 753.7 344.7 718.1 379.5 699.2 359.4 646.5 408.3 629.9 390.7 572.3 448.7 575.2 452.3 629.1 412.2 645.7 429.9 698.4 381 717.6 401.4 765 355.1 772.9 362.3 780.7 326.9 746.1 337.8"/>
  </g>
  <g>
    <path class="cls-5" d="M749.5,140.1l60.5,56.9c1.2,1.1,2.7,1.5,3.3.8l2-2.2c.6-.7.2-2.2-1-3.3l-60.5-56.9c-1.2-1.1-2.7-1.5-3.3-.8l-2,2.2c-.6.7-.2,2.2,1,3.3Z"/>
    <path class="cls-7" d="M783.4,172l26.5,25c1.2,1.1,2.7,1.5,3.3.8l2-2.2c.6-.7.2-2.2-1-3.3l-26.5-25-4.4,4.6Z"/>
    <path class="cls-5" d="M752.6,72.3c-17.9-19.1-47.9-20-67-2-.3.2-.5.5-.7.7-18.3,18-19,47.4-1.3,66.3,17.9,19.1,47.9,20,67,2,6.2-5.9,10.5-13,12.9-20.7,4.8-15.7,1.2-33.5-10.8-46.3ZM748,136.6c-11.1,10.4-26.2,13.9-40,10.7-8-1.9-15.6-6.1-21.7-12.6-16.5-17.6-15.7-45.2,1.9-61.7,6.5-6.1,14.3-9.8,22.4-11.2,14-2.4,28.8,2,39.3,13.1,16.5,17.6,15.7,45.2-1.9,61.7Z"/>
  </g>
</svg>