<?xml version="1.0" encoding="UTF-8"?>
<svg id="_分離模式" data-name="分離模式" xmlns="http://www.w3.org/2000/svg" version="1.1" viewBox="0 0 629 423.7">
  <defs>
    <style>
      .cls-1 {
        fill: #e6e8ec;
      }

      .cls-1, .cls-2, .cls-3, .cls-4, .cls-5, .cls-6, .cls-7, .cls-8 {
        stroke-width: 0px;
      }

      .cls-2 {
        fill: #3d3d3d;
      }

      .cls-3 {
        fill: #c9cbd8;
      }

      .cls-4 {
        fill: #98c500;
      }

      .cls-9 {
        stroke: #333;
        stroke-miterlimit: 10;
      }

      .cls-9, .cls-10 {
        fill: none;
      }

      .cls-5 {
        fill: #adb0c4;
      }

      .cls-6 {
        fill: #fff;
      }

      .cls-7 {
        fill: #8f93ac;
      }

      .cls-10 {
        stroke: #c4c4ca;
        stroke-linecap: round;
        stroke-linejoin: round;
        stroke-width: 2px;
      }

      .cls-8 {
        fill: #f2f3f5;
      }
    </style>
  </defs>
  <g>
    <g>
      <path class="cls-7" d="M124.5,83h373.2c12.7,0,23,10.3,23,23v224c0,17-13.8,30.9-30.9,30.9H131.3c-17,0-30.9-13.8-30.9-30.9V107.1c0-13.3,10.8-24,24-24Z"/>
      <path class="cls-5" d="M82.9,340.4h455.3v10.6c0,7.6-6.1,13.7-13.7,13.7H96.6c-7.6,0-13.7-6.1-13.7-13.7v-10.6h0Z"/>
      <rect class="cls-6" x="111.8" y="94.1" width="396.5" height="234.7" rx="15.4" ry="15.4"/>
      <polygon class="cls-8" points="269.2 340.4 274.8 349.4 354.3 349.4 359.6 340.4 269.2 340.4"/>
    </g>
    <rect class="cls-3" x="100.6" y="340.3" width="420.2" height="1.3"/>
  </g>
  <g>
    <circle class="cls-4" cx="178.3" cy="177.1" r="49.3"/>
    <path class="cls-6" d="M206.1,204.7h-55.6s8.5-28.5,28.1-28.5,27.5,28.5,27.5,28.5Z"/>
    <circle class="cls-6" cx="178.7" cy="157" r="15.1"/>
  </g>
  <g>
    <rect class="cls-1" x="245.8" y="120.4" width="168" height="54.1" rx="5.1" ry="5.1"/>
    <g>
      <line class="cls-9" x1="376.4" y1="136.5" x2="398.3" y2="158.3"/>
      <line class="cls-9" x1="398.3" y1="136.5" x2="376.4" y2="158.3"/>
    </g>
    <g>
      <path class="cls-2" d="M280.5,150.2c-.7-.7-2-1.8-3.2-2.9-.5.9-1.1,1.6-1.7,2.3-.4-.3-1.1-.8-1.6-1,2,2.7,5.2,5.2,8.5,6.4-.5.4-1.2,1.3-1.5,1.8-2.9-1.3-5.6-3.5-7.6-6.1v7h-2.1v-6.9c-2.1,2.6-4.8,4.7-7.6,6-.3-.5-1-1.3-1.4-1.7,3.5-1.4,7.1-4.3,9-7.4v-5.2h-8.2v-2h8.2v-2.9h2.1v2.9h8.4v2h-8.4v5.1c.2.3.4.6.6.9,1.5-1.3,2.5-3.4,3-5.7l2,.4c-.2.9-.4,1.7-.8,2.5,1.3,1,2.9,2.3,3.8,3.2l-1.4,1.4ZM268.7,143.2c-.2.9-.5,1.7-.8,2.5.9.7,1.8,1.6,2.3,2.2l-1.4,1.4c-.4-.5-1.1-1.2-1.8-1.9-.7,1.3-1.6,2.4-2.7,3.2-.3-.4-1.1-1.1-1.6-1.3,2-1.4,3.3-3.8,3.9-6.5l2,.4Z"/>
      <path class="cls-2" d="M287.8,147.3c-.8-.6-2.4-1.6-3.6-2.3l1.2-1.4c1.1.6,2.8,1.5,3.7,2.1l-1.2,1.6ZM289.4,150.4c-.9,2.3-2,4.9-3,7l-1.8-1.1c.9-1.7,2.2-4.5,3.2-7l1.6,1.1ZM288.8,141.6c-.8-.6-2.4-1.7-3.6-2.4l1.2-1.4c1.1.6,2.8,1.6,3.6,2.2l-1.2,1.6ZM292.7,144.6c0,3.8-.4,9.4-3,13-.4-.3-1.2-.9-1.7-1.1,2.5-3.4,2.7-8.4,2.7-11.9v-6h13.4v1.8h-11.4v4.1ZM296.1,152c-.7,1.6-1.8,3.4-2.7,4.5-.4-.3-1.2-.7-1.6-1,.9-1,1.9-2.6,2.5-4l1.8.5ZM299.4,150.4v5.3c0,.9-.2,1.4-.8,1.7-.6.3-1.6.3-3,.3,0-.5-.3-1.2-.5-1.8.9,0,1.8,0,2.1,0s.4,0,.4-.3v-5.2h-3.7v-7.7h3.1c.2-.7.5-1.5.6-2.1l2.3.4c-.3.6-.6,1.1-.9,1.7h4.5v7.7h-4ZM295.5,145.8h5.9v-1.6h-5.9v1.6ZM295.5,148.9h5.9v-1.6h-5.9v1.6ZM302.2,151.3c.8,1.3,1.8,3.1,2.3,4.2l-1.9.8c-.5-1.1-1.4-2.9-2.2-4.3l1.8-.7Z"/>
      <path class="cls-2" d="M308.9,142.5c0-1.1.8-1.8,1.8-1.8s1.8.8,1.8,1.8-.8,1.8-1.8,1.8-1.8-.7-1.8-1.8ZM308.9,153.1c0-1.1.8-1.8,1.8-1.8s1.8.7,1.8,1.8-.8,1.8-1.8,1.8-1.8-.7-1.8-1.8Z"/>
      <path class="cls-2" d="M323.5,148.7c-.7.3-1.3.5-2,.8v5.8c0,1-.2,1.6-.8,1.8-.6.4-1.4.4-2.8.4,0-.5-.3-1.4-.5-1.9.8,0,1.6,0,1.8,0,.3,0,.4,0,.4-.4v-5.1c-.7.3-1.4.5-2,.7l-.5-2c.7-.2,1.6-.5,2.6-.8v-4.4h-2.3v-1.9h2.3v-4.3h1.9v4.3h1.7v1.9h-1.7v3.7c.6-.2,1.1-.4,1.7-.6l.3,1.8ZM335.8,149.8c-.8,2-2.2,3.5-3.8,4.7,1.6.7,3.4,1.1,5.4,1.4-.4.4-1,1.2-1.3,1.8-2.3-.4-4.3-1.1-6.1-2-2,1-4.3,1.7-6.7,2.1-.1-.5-.5-1.4-.9-1.8,2.1-.3,4.1-.8,5.8-1.5-1.2-.9-2.2-2-3-3.2l.8-.3h-2.3v-1.7h5.3v-11.7h1.9v11.7h3.8c0,0,1.2.5,1.2.5ZM328.2,147.8h-4.4v-8.1c1-.4,2.5-1.1,3.4-1.6l1.2,1.4c-.9.4-1.9.8-2.8,1v2h2.4v1.7h-2.4v1.8h2.6v1.7ZM327.2,151c.7,1,1.7,1.8,2.9,2.5,1.2-.7,2.1-1.6,2.9-2.5h-5.8ZM336,147.9h-4.5v-1.7h2.7v-1.8h-2.6v-1.7h2.6v-1.8h-2.7v-1.7h4.5v8.7Z"/>
      <path class="cls-2" d="M359,153.4h-4.4v2.4c0,1-.2,1.4-1,1.7-.8.3-1.9.3-3.7.3-.1-.5-.4-1.2-.7-1.6,1.3,0,2.6,0,2.9,0,.4,0,.5,0,.5-.4v-2.3h-7.7c1,.7,2.1,1.5,2.7,2.2l-1.4,1.3c-.6-.8-2-1.9-3.2-2.7l.9-.8h-4.6v-1.7h13.3v-1.2h-3.1v-4.6h8.3v4.6h-3.2v1.2h4.4v1.7ZM354,142.5h-14.6v-1.3h14.6v-1.1h-11.9v-1.4h13.9v2.4h2.9v1.6h-2.9v2.4h-14v-1.4h12v-1.1ZM339.6,149.4c1,0,2.1-.1,3.4-.2v-1.8h-3v-1.5h8.1v1.5h-3.1v1.7l3.5-.2v1.5c-3.2.3-6.4.5-8.7.6v-1.6ZM351.3,149.1h4.4v-1.8h-4.4v1.8Z"/>
    </g>
  </g>
  <g>
    <rect class="cls-1" x="245.8" y="185.7" width="304.3" height="54.1" rx="5.1" ry="5.1"/>
    <g>
      <line class="cls-9" x1="504" y1="201.8" x2="525.8" y2="223.7"/>
      <line class="cls-9" x1="525.8" y1="201.8" x2="504" y2="223.7"/>
    </g>
    <g>
      <path class="cls-2" d="M265.4,211.6v11.4h-2v-19.3h8.1v7.8h-6.1ZM265.4,205.4v1.5h4.1v-1.5h-4.1ZM269.5,210v-1.6h-4.1v1.6h4.1ZM270,220v1.3h-1.9v-7.9h8.3v6.6h-6.4ZM270,215.1v3.2h4.5v-3.2h-4.5ZM281.5,220.4c0,1.2-.3,1.9-1.1,2.2-.8.3-2.1.4-4.1.4,0-.6-.4-1.5-.7-2.1,1.4,0,2.8,0,3.2,0,.4,0,.5-.2.5-.5v-8.8h-6.2v-7.9h8.3v16.7ZM275.1,205.4v1.6h4.2v-1.6h-4.2ZM279.4,210v-1.7h-4.2v1.7h4.2Z"/>
      <path class="cls-2" d="M298.9,212c1.5,1.5,3.5,2.7,5.8,3.3-.5.4-1,1.2-1.3,1.7-1.6-.5-3.1-1.4-4.5-2.5,0,.1,0,.2,0,.3-.2,2.4-.4,3.5-.8,4-.4.4-.9.5-1.4.6-.6,0-1.7,0-2.8,0,0-.5-.2-1.1-.5-1.6,1,0,2,.1,2.3.1s.5,0,.7-.2c.2-.2.3-.7.4-1.9h-6v4.2c0,.8.3,1,2,1h5.6c1.4,0,1.6-.4,1.8-2.7.5.3,1.3.6,1.9.7-.3,3-1,3.7-3.6,3.7h-5.8c-3,0-3.9-.5-3.9-2.8v-5c-1,.7-2.1,1.4-3.4,2-.2-.5-.8-1.3-1.3-1.7,2.1-.9,3.7-2,5.1-3.3h-4.5v-1.8h6c.5-.7.9-1.4,1.3-2.1h-6v-1.8h3.3c-.4-.7-1-1.6-1.5-2.2l1.6-.9c.7.8,1.5,1.9,1.9,2.6l-.9.5h2.4c.4-1.2.7-2.4.9-3.6l2.1.2c-.2,1.1-.4,2.3-.8,3.4h2.4c.6-.9,1.4-2.1,1.8-3l1.9.6c-.5.8-1.1,1.7-1.6,2.4h3v1.8h-8.1c-.3.7-.7,1.4-1.1,2.1h10.7v1.8h-5ZM298.3,214c-.7-.6-1.3-1.3-1.8-2h-4.6c-.6.7-1.2,1.4-1.9,2h8.3Z"/>
      <path class="cls-2" d="M308.9,207.8c0-1.1.8-1.8,1.8-1.8s1.8.8,1.8,1.8-.8,1.8-1.8,1.8-1.8-.7-1.8-1.8ZM308.9,218.4c0-1.1.8-1.8,1.8-1.8s1.8.7,1.8,1.8-.8,1.8-1.8,1.8-1.8-.7-1.8-1.8Z"/>
      <path class="cls-2" d="M332.3,220c.8,0,1.9,0,2.4-.2,0,.6.2,1.5.3,2-.5.2-1.6.2-2.7.2h-5c-2.9,0-3.9-1.1-3.9-4v-5.3l-5.8.9-.3-2,6.1-1v-7.1h2.2v6.7l10.7-1.7.4,2.1-11.1,1.7v5.8c0,1.4.4,2,1.6,2h5.1Z"/>
      <path class="cls-2" d="M357.7,207c-2.4,9.1-8.7,13.9-16.3,16.1-.2-.6-.8-1.5-1.2-2,3.5-.9,6.8-2.4,9.4-4.7-1.4-1.3-3.6-3-5.6-4.3-.8.7-1.6,1.4-2.5,2-.4-.4-1.3-1.2-1.8-1.6,3.5-2.1,6.4-5.5,8-9.6l2.2.6c-.4,1-.9,2-1.4,2.9h7.7c0-.1,1.5.6,1.5.6ZM347.2,208.4c-.6.8-1.2,1.6-1.8,2.2,2,1.2,4.3,2.8,5.8,4.2,1.6-1.8,2.9-3.9,3.8-6.4h-7.8Z"/>
      <path class="cls-2" d="M365,213c-.9-.6-2.7-1.7-4-2.3l1.1-1.5c1.2.6,3.1,1.6,4,2.2l-1.1,1.7ZM361.4,221.4c1.2-1.6,2.9-4.5,4.1-6.9l1.5,1.4c-1.1,2.3-2.6,4.9-3.9,6.9l-1.7-1.4ZM366.1,207.1c-.9-.6-2.7-1.7-4-2.4l1.1-1.4c1.3.6,3.1,1.6,4.1,2.2l-1.2,1.6ZM375.2,211.2v3.2h4.5v8.4h-1.9v-.8h-7.3v.9h-1.9v-8.6h4.6v-3.2h-6.1v-2h6.1v-3.1c-1.5.2-3.1.4-4.6.5,0-.5-.4-1.2-.6-1.7,3.7-.4,8-1.1,10.4-2l1.6,1.6c-1.4.5-3.1.9-4.9,1.3v3.4h5.8v2h-5.8ZM377.8,216.3h-7.3v3.9h7.3v-3.9Z"/>
      <path class="cls-2" d="M402.5,207.9s0,.7,0,.9c-.2,9.1-.4,12.2-1.1,13.1-.4.7-.9.8-1.6.9-.7,0-1.7,0-2.7,0,0-.5-.3-1.4-.6-1.9,1,0,1.9,0,2.3,0s.6,0,.8-.4c.5-.6.7-3.4.9-10.9h-2.6c-.3,5.8-1.3,10.5-5,13.4-.3-.5-1-1.2-1.5-1.5.1,0,.3-.2.4-.3-3.2.4-6.3.7-8.7.9l-.3-1.7c1.3,0,2.9-.2,4.6-.4v-1.7h-4v-1.5h4v-1.1h-3.9v-6.6h3.9v-1.1h-4.5v-1.5h4.5v-1.2c-1.3.1-2.7.2-3.9.2,0-.4-.3-1.1-.5-1.5,3.2-.2,7.1-.6,9.4-1.1l1,1.5c-1.2.2-2.6.5-4.1.6v1.4h4.4v1.3h2.3c0-1.5,0-3,0-4.7h2c0,1.6,0,3.2,0,4.7h4.5ZM385.2,212h2.3v-1.3h-2.3v1.3ZM387.5,214.5v-1.3h-2.3v1.3h2.3ZM389.3,220c1.4-.1,2.8-.3,4.1-.4,1.8-2.5,2.3-5.8,2.5-9.8h-2.3v-1.6h-4.3v1.1h4.1v6.6h-4.1v1.1h4.1v1.5h-4.1v1.5ZM391.7,212v-1.3h-2.3v1.3h2.3ZM389.3,213.2v1.3h2.3v-1.3h-2.3Z"/>
      <path class="cls-2" d="M407.9,211.6v11.4h-2v-19.3h8.1v7.8h-6.1ZM407.9,205.4v1.5h4.1v-1.5h-4.1ZM412,210v-1.6h-4.1v1.6h4.1ZM412.5,220v1.3h-1.9v-7.9h8.3v6.6h-6.4ZM412.5,215.1v3.2h4.5v-3.2h-4.5ZM423.9,220.4c0,1.2-.3,1.9-1.1,2.2-.8.3-2.1.4-4.1.4,0-.6-.4-1.5-.7-2.1,1.4,0,2.8,0,3.2,0,.4,0,.5-.2.5-.5v-8.8h-6.2v-7.9h8.3v16.7ZM417.6,205.4v1.6h4.2v-1.6h-4.2ZM421.9,210v-1.7h-4.2v1.7h4.2Z"/>
      <path class="cls-2" d="M441.4,212c1.5,1.5,3.5,2.7,5.8,3.3-.5.4-1,1.2-1.3,1.7-1.6-.5-3.1-1.4-4.5-2.5,0,.1,0,.2,0,.3-.2,2.4-.4,3.5-.8,4-.4.4-.9.5-1.4.6-.6,0-1.7,0-2.8,0,0-.5-.2-1.1-.5-1.6,1,0,2,.1,2.3.1s.5,0,.7-.2c.2-.2.3-.7.4-1.9h-6v4.2c0,.8.3,1,2,1h5.6c1.4,0,1.6-.4,1.8-2.7.5.3,1.3.6,1.9.7-.3,3-1,3.7-3.6,3.7h-5.8c-3,0-3.9-.5-3.9-2.8v-5c-1,.7-2.1,1.4-3.4,2-.2-.5-.8-1.3-1.3-1.7,2.1-.9,3.7-2,5.1-3.3h-4.5v-1.8h6c.5-.7.9-1.4,1.3-2.1h-6v-1.8h3.3c-.4-.7-1-1.6-1.5-2.2l1.6-.9c.7.8,1.5,1.9,1.9,2.6l-.9.5h2.4c.4-1.2.7-2.4.9-3.6l2.1.2c-.2,1.1-.4,2.3-.8,3.4h2.4c.6-.9,1.4-2.1,1.8-3l1.9.6c-.5.8-1.1,1.7-1.6,2.4h3v1.8h-8.1c-.3.7-.7,1.4-1.1,2.1h10.7v1.8h-5ZM440.8,214c-.7-.6-1.3-1.3-1.8-2h-4.6c-.6.7-1.2,1.4-1.9,2h8.3Z"/>
      <path class="cls-2" d="M456.2,208.2h-7.6v-1.6h3.8c-.3-.8-1-2-1.5-2.9l1.5-.7c.6.9,1.3,2.1,1.6,2.9l-1.5.7h3.7v1.6ZM451.1,221.8v.9h-1.6v-7.4h6.1v6.4h-4.5ZM449.5,212.4h6v1.6h-6v-1.6ZM455.5,211.1h-6v-1.6h6v1.6ZM451.1,217v3.1h2.8v-3.1h-2.8ZM468.1,220.7c0,.9-.2,1.5-.8,1.8-.6.3-1.5.4-3,.4,0-.5-.3-1.3-.5-1.7,1,0,2,0,2.2,0,.3,0,.4,0,.4-.4v-8h-7.5c0,3.2-.4,7.6-2,10.3-.3-.3-1-.8-1.4-1,1.6-2.8,1.7-6.9,1.7-10v-8.3h10.8v16.9ZM458.9,205.6v2h2.9v-2h-2.9ZM458.9,211.1h2.9v-1.9h-2.9v1.9ZM461.1,219.2v1h-1.5v-6.2h5.7v5.2h-4.3ZM461.1,215.5v2.3h2.7v-2.3h-2.7ZM466.4,205.6h-2.9v2h2.9v-2ZM466.4,211.1v-1.9h-2.9v1.9h2.9Z"/>
      <path class="cls-2" d="M490.3,207.3h-6.3c2.3,1.5,4.8,3.2,6.2,4.4l-1.4,1.5c-1.6-1.5-4.7-3.7-7.3-5.4v4.1h5v7.3h-12v-7.2c-.9.5-1.8,1-2.7,1.4-.3-.5-.9-1.2-1.3-1.6,2.5-.9,5.2-2.5,7-4.5h-6.6v-1.8h8.6v-2.6h2v2.6h8.7v1.8ZM471.3,220.5h18.8v1.8h-18.8v-1.8ZM479.5,212v-4.2c-1.3,1.6-3,3-4.8,4.2h4.8ZM484.5,213.4h-7.9v1.5h7.9v-1.5ZM484.5,216.3h-7.9v1.6h7.9v-1.6Z"/>
    </g>
  </g>
  <g>
    <rect class="cls-1" x="245.8" y="251.1" width="215.1" height="54.1" rx="5.1" ry="5.1"/>
    <g>
      <line class="cls-9" x1="414.9" y1="267.2" x2="436.7" y2="289.1"/>
      <line class="cls-9" x1="436.7" y1="267.2" x2="414.9" y2="289.1"/>
    </g>
    <g>
      <path class="cls-2" d="M266.1,283.7c-.5,1.8-1.5,3.6-2.5,4.8-.4-.3-1.1-.8-1.5-1.1,1-1,1.8-2.6,2.2-4.1l1.8.4ZM269.6,282.9h-6.4v-13.8h6.4v13.8ZM267.8,270.8h-2.8v2.4h2.8v-2.4ZM267.8,274.8h-2.8v2.5h2.8v-2.5ZM267.8,278.8h-2.8v2.5h2.8v-2.5ZM268.5,283.2c.7,1.1,1.5,2.5,1.8,3.4l-1.6.8c-.3-.9-1.1-2.5-1.8-3.6l1.5-.7ZM282.4,284.9h-1.2v1.6c0,.9-.2,1.4-.8,1.7-.7.3-1.7.3-3.2.3,0-.5-.3-1.2-.5-1.6,1,0,2,0,2.3,0,.3,0,.4,0,.4-.4v-1.6h-6.3v3.6h-1.8v-3.6h-1.3v-1.5h1.3v-5.5h4v-1.1h-5.2v-1.5h3v-1.2h-2v-1.4h2v-1.1h-2.5v-1.5h2.5v-1.8h1.8v1.8h2.8v-1.8h1.8v1.8h2.5v1.5h-2.5v1.1h2.2v1.4h-2.2v1.2h3v1.5h-5.3v1.1h4.2v5.5h1.2v1.5ZM273,279.3v1.3h2.2v-1.3h-2.2ZM273,283.4h2.2v-1.4h-2.2v1.4ZM274.7,272.7h2.8v-1.1h-2.8v1.1ZM274.7,275.3h2.8v-1.2h-2.8v1.2ZM277,279.3v1.3h2.3v-1.3h-2.3ZM279.3,283.4v-1.4h-2.3v1.4h2.3Z"/>
      <path class="cls-2" d="M292.6,279.7c-.9.3-1.7.5-2.6.8v7.8h-1.9v-7.3l-3.4,1.1-.5-2c1.1-.3,2.5-.7,4-1.1v-4.6h-1.8c-.3,1.2-.6,2.2-.9,3-.3-.3-1.1-.7-1.5-.9.8-1.8,1.2-4.5,1.4-7.1l1.7.3c-.1.9-.2,1.9-.4,2.8h1.4v-4.3h1.9v4.3h2v1.9h-2v4l2.3-.7.3,1.8ZM304.2,271.8s0,.7,0,1c-.5,9.8-.9,13.3-1.8,14.4-.5.7-.9.9-1.6,1-.6.1-1.5,0-2.5,0,0-.6-.2-1.4-.6-2,.9,0,1.7,0,2.1,0s.6,0,.8-.4c.6-.7,1.1-3.8,1.5-12.2h-.6c-1.1,5.7-3.5,11.4-7,14.3-.4-.4-1.1-.9-1.7-1.2,3.5-2.5,5.8-7.8,6.9-13.1h-1.5c-1,3.7-2.9,7.7-5.2,9.8-.4-.4-1-.9-1.6-1.2,2.3-1.8,4.1-5.2,5.1-8.6h-1.6c-.7,1.6-1.5,3-2.4,4-.3-.3-1.1-.9-1.6-1.2,1.8-1.9,3-5,3.8-8.3l1.8.4c-.2,1.1-.6,2.2-.9,3.2h8.4Z"/>
      <path class="cls-2" d="M308.9,273.2c0-1.1.8-1.8,1.8-1.8s1.8.8,1.8,1.8-.8,1.8-1.8,1.8-1.8-.7-1.8-1.8ZM308.9,283.8c0-1.1.8-1.8,1.8-1.8s1.8.7,1.8,1.8-.8,1.8-1.8,1.8-1.8-.7-1.8-1.8Z"/>
      <path class="cls-2" d="M316.9,278.2c.5-1.5.9-3.9,1.1-5.6l1.6.2c-.1,1.8-.5,4.3-1,6l-1.6-.5ZM323.3,275.4c-.2-.8-.7-2.1-1.2-3.1v16.1h-1.9v-20.1h1.9v3.6l1.2-.5c.5,1.1,1.2,2.5,1.4,3.3l-1.4.7ZM335.8,286.3c0,1-.2,1.5-.9,1.7-.7.3-1.7.3-3.2.3,0-.5-.3-1.3-.6-1.7,1,0,2.1,0,2.3,0,.3,0,.4-.1.4-.4v-1.2h-7.2c-.2,1.3-.7,2.5-1.5,3.6-.3-.4-1.1-1.1-1.5-1.4,1.2-1.6,1.3-3.7,1.3-5.4v-4h10.7v8.5ZM337.1,275.3v1.5h-13.3v-1.5h5.5v-1.3h-4.4v-1.4h4.4v-1.1h-5v-1.5h5v-1.6h2v1.6h5v1.5h-5v1.1h4.4v1.4h-4.4v1.3h5.7ZM333.9,283.6v-1.4h-6.9c0,.4,0,.9,0,1.4h7ZM327,279.3v1.4h6.9v-1.4h-6.9Z"/>
      <path class="cls-2" d="M350.1,268.4c0,.8,0,2-.2,3.3.3,2.7,1.6,11.5,9.3,14.9-.6.5-1.2,1.2-1.5,1.7-5.2-2.4-7.5-7.3-8.7-11.2-1.1,4.1-3.4,8.6-8.4,11.3-.4-.5-1-1.2-1.7-1.6,9-4.6,8.7-14.9,8.8-18.4h2.3Z"/>
      <path class="cls-2" d="M368,283c-1.3,1.7-3.2,3.5-4.9,4.6-.4-.4-1.2-1.1-1.8-1.4,1.7-1,3.5-2.5,4.6-4l2.1.7ZM372.2,281.2v4.9c0,1.1-.2,1.6-1.1,1.9-.8.3-2,.3-3.6.3-.1-.6-.4-1.4-.8-2,1.2,0,2.5,0,2.9,0,.4,0,.4-.1.4-.4v-4.7c-5.5.4-6.4.6-7.1.8,0-.4-.4-1.4-.6-1.9.8-.1,1.7-.4,3-1.1.8-.4,2.4-1.1,4.2-2.2-4.3.3-5,.4-5.5.6,0-.4-.4-1.4-.6-1.9.5,0,1.1-.3,1.8-.7.7-.3,2.7-1.5,4.3-2.8-2.3.5-4.8,1-7.2,1.4,0-.5-.4-1.3-.6-1.7,4.9-.8,10.5-2.1,13.7-3.5l1.5,1.6c-1.8.7-3.9,1.4-6.3,2l1.3.8c-1.3,1-2.8,2-4.2,2.8l4.7-.2c.8-.5,1.6-1.1,2.4-1.7l1.6,1.3c-2.7,1.9-5.5,3.6-8.3,4.9l7.9-.5c-.6-.7-1.2-1.3-1.8-1.9l1.7-.8c1.6,1.5,3.4,3.5,4.4,4.8l-1.7,1.1c-.3-.4-.7-1-1.1-1.5l-5.3.4ZM375.5,282c1.7,1.2,3.9,3,5,4.1l-1.8,1.2c-1-1.2-3.1-3-4.8-4.3l1.6-1.1Z"/>
      <path class="cls-2" d="M383.3,269.3h10.8v1.9h-5.1c-.3.9-.6,1.9-.9,2.9h4.2c0,0,1.2.4,1.2.4-1.1,7.1-4.2,11.7-8.2,14-.3-.4-1.1-1.2-1.5-1.5,2.1-1.1,3.9-2.8,5.2-5-.9-.7-2.3-1.7-3.6-2.5-.5.7-1,1.3-1.5,1.8-.3-.4-1-1-1.4-1.3,2.2-2.1,3.7-5.6,4.4-8.7h-3.6v-1.9ZM387.4,276c-.3.7-.6,1.3-.9,1.9,1.2.7,2.6,1.6,3.5,2.3.5-1.3,1-2.7,1.3-4.2h-3.9ZM396.8,282.7h-2v-11.9h2v11.9ZM402,268.7v17.2c0,1.2-.3,1.8-1.1,2.1-.8.3-2,.4-4,.4-.1-.5-.4-1.4-.7-2,1.4,0,2.8,0,3.2,0,.4,0,.5-.1.5-.5v-17.2h2Z"/>
    </g>
  </g>
  <g>
    <rect class="cls-1" x="433.3" y="118.7" width="195.7" height="54.1" rx="5.1" ry="5.1"/>
    <g>
      <line class="cls-9" x1="583.9" y1="136.5" x2="605.8" y2="158.3"/>
      <line class="cls-9" x1="605.8" y1="136.5" x2="583.9" y2="158.3"/>
    </g>
    <g>
      <path class="cls-2" d="M475.9,149.8v1.6h-19.7v-1.6h5.3c-.2-.4-.4-.9-.6-1.3l.9-.2h-2.3v-4.1h13.5v4.1h-1.8.4c-.3.6-.7,1.1-.9,1.5h5.4ZM464.9,140.5h-8.1v-1.5h8.1v-1.5h2.1v1.5h8.2v1.5h-8.2v1.2h6.9v1.5h-15.5v-1.5h6.6v-1.2ZM458.9,152.4h14.3v5.3h-2.1v-.6h-10.2v.6h-2v-5.3ZM461,153.8v1.8h10.2v-1.8h-10.2ZM461.3,146.9h9.5v-1.5h-9.5v1.5ZM462.8,148.2c.3.5.6,1.1.7,1.5h4.8c.2-.5.5-1.1.7-1.5h-6.3Z"/>
      <path class="cls-2" d="M485.9,143.9c0,2.4-.4,5.2-1.6,8,1.1,1,2,1.9,2.7,2.7l-1.4,1.7c-.6-.7-1.4-1.6-2.3-2.5-1,1.4-2.2,2.8-3.9,4-.3-.4-1-1.1-1.4-1.4,1.7-1.2,3-2.5,3.9-3.9-1.2-1.1-2.4-2.1-3.4-2.9.4-1.4.8-3.2,1.2-5.1h-1.5c0,0-.2-1.9-.2-1.9h2.1c.2-1.7.5-3.4.6-4.8h2c-.2,1.5-.4,3.1-.6,4.7h2.2v-1.6h1.9v1.4h1.2c0,0,0,1.8,0,1.8h-1.2ZM481.5,144.2c-.3,1.6-.7,3.2-1,4.6.7.5,1.4,1.2,2.2,1.8,1-2.3,1.3-4.6,1.3-6.5l-2.5.2ZM498,148.6h-4.6v6.8c0,1.1-.2,1.7-1,2-.8.3-1.9.4-3.6.4-.1-.6-.4-1.4-.7-2,1.2,0,2.4,0,2.8,0,.4,0,.5,0,.5-.4v-6.8h-4.8v-2h4.8v-2.3c1-.9,2.1-2.2,2.9-3.4h-6.8v-1.9h8.7c0-.1,1.4.9,1.4.9-1.1,1.6-2.5,3.5-4.1,4.8v1.9h4.6v2Z"/>
      <path class="cls-2" d="M502.5,142.5c0-1.1.8-1.8,1.8-1.8s1.8.8,1.8,1.8-.8,1.8-1.8,1.8-1.8-.7-1.8-1.8ZM502.5,153.1c0-1.1.8-1.8,1.8-1.8s1.8.7,1.8,1.8-.8,1.8-1.8,1.8-1.8-.7-1.8-1.8Z"/>
      <path class="cls-2" d="M518.3,138.3c-.6,1.4-1.3,2.8-2.1,4.1v15.2h-1.9v-12.4c-.8,1.1-1.7,2.1-2.6,2.9-.2-.5-.7-1.6-1.1-2.1,2.3-2,4.6-5.2,5.9-8.4l1.9.6ZM527.3,155.2c1.2,0,1.4-.9,1.6-4.6.5.4,1.3.8,1.8.9-.3,4.1-.8,5.5-3.3,5.5h-3.9c-2.4,0-3.1-.7-3.1-3.4v-15.8h2v5.8h7.7v2h-7.7v8.1c0,1.2.2,1.5,1.3,1.5h3.6Z"/>
      <path class="cls-2" d="M538.1,137.6h1.9v20.1h-1.9v-7.5h-1.9v.6c0,1.8-.3,4.8-2,6.7-.4-.3-1.1-.7-1.6-1,1.5-1.7,1.7-4.3,1.7-5.8v-.5h-1.5v-1.8h5.3v-2.8h-4.5v-7h1.8v5.2h2.6v-6.2ZM551.6,157.5c-1.1-.9-2.7-2.1-4.4-3.4-1.4,1.5-3.2,2.6-5.6,3.5-.2-.5-.8-1.4-1.2-1.8,2.1-.7,3.8-1.7,5-2.9-1.3-.9-2.7-1.7-3.9-2.4.6-1.8,1.2-4.1,1.7-6.6h-2.6v-2h3c.3-1.5.5-2.9.6-4.3l2.1.2c-.2,1.3-.4,2.7-.6,4.1h3.8c0-.5.1-1.2.2-1.8h2.1c0,.7,0,1.2-.2,1.8h1v2h-1.2c-.5,3.6-1.4,6.4-3,8.7,1.8,1.1,3.4,2.3,4.5,3.2l-1.3,1.7ZM545.5,144c-.5,2.1-1,4.2-1.5,5.9.9.5,1.8,1.1,2.7,1.7,1.4-1.9,2.2-4.4,2.7-7.6h-3.9Z"/>
      <path class="cls-2" d="M555.5,148.1h7.9v9.5h-2v-1h-4v1.1h-1.9v-9.6ZM557.4,150v4.6h4v-4.6h-4ZM570.9,146h-12.3v-7.5h12.3v7.5ZM568.8,140.4h-8.2v3.6h8.2v-3.6ZM573.9,148.1v9.5h-2v-1h-4.3v1.1h-2v-9.6h8.3ZM571.9,154.6v-4.6h-4.3v4.6h4.3Z"/>
    </g>
  </g>
  <path class="cls-4" d="M557,75.8l-16.2-64.9c-.7-2.9-3.6-4.6-6.5-3.9l-11,2.7-2.7.7-99.6,24.8c-2.8.7-5.1,2.5-6.5,5.1l-18.2,34.1c-2.4,4.6-1,10.2,3.3,13.1l32.1,21.6c2.4,1.6,5.3,2.1,8.1,1.4l99.6-24.8,2.7-.7,11-2.7c2.9-.7,4.6-3.6,3.9-6.5ZM415.6,81.8c-2.4,0-4.4-2-4.4-4.4s2-4.4,4.4-4.4,4.4,2,4.4,4.4-2,4.4-4.4,4.4Z"/>
  <path class="cls-10" d="M412.6,77.5c-11,3-22.9-.5-33.1-5.6-9.1-4.6-18-10.7-28.2-10.9-6.3-.1-12.3,2-18.2,4.1-12.6,4.5-25.3,9-36.3,16.6"/>
</svg>