<?xml version="1.0" encoding="UTF-8"?>
<svg id="_分離模式" data-name="分離模式" xmlns="http://www.w3.org/2000/svg" version="1.1" viewBox="0 0 629 423.7">
  <defs>
    <style>
      .cls-1 {
        fill: #abaec2;
      }

      .cls-1, .cls-2, .cls-3, .cls-4, .cls-5, .cls-6 {
        stroke-width: 0px;
      }

      .cls-2 {
        fill: #96c309;
      }

      .cls-3 {
        fill: #e4e6ea;
      }

      .cls-4 {
        fill: #3d3d3d;
      }

      .cls-5 {
        fill: #fff;
      }

      .cls-6 {
        fill: #8d90ab;
      }
    </style>
  </defs>
  <g>
    <rect class="cls-6" x="205.9" y="6.7" width="213.7" height="410.2" rx="22.3" ry="22.3" transform="translate(625.5 423.7) rotate(180)"/>
    <g>
      <path class="cls-5" d="M317.8,19.7h-19.7c-1,0-1.8-.8-1.8-1.8s.8-1.8,1.8-1.8h19.7c1,0,1.8.8,1.8,1.8s-.8,1.8-1.8,1.8Z"/>
      <path class="cls-5" d="M326.5,19.7c-.2,0-.5,0-.7-.1-.2,0-.4-.2-.6-.4-.2-.2-.3-.4-.4-.6,0-.2-.1-.4-.1-.7s0-.2,0-.3c0-.1,0-.2.1-.3,0-.1,0-.2.2-.3,0,0,.1-.2.2-.3.4-.4,1-.6,1.6-.5.1,0,.2,0,.3,0,.1,0,.2,0,.3.2,0,0,.2.1.3.2,0,0,.2.2.2.3,0,0,.1.2.2.3,0,.1,0,.2,0,.3,0,.1,0,.2,0,.3,0,.2,0,.5-.1.7,0,.2-.2.4-.4.6-.2.2-.4.3-.6.4,0,0-.2,0-.3,0-.1,0-.2,0-.3,0Z"/>
    </g>
    <path class="cls-5" d="M388.7,16.1h-18c-2.9,0-5.6,1.5-7.2,4l-3.5,5.6c-1.5,2.5-4.3,4-7.2,4h-81.3c-2.9,0-5.6-1.5-7.2-4l-3.5-5.6c-1.5-2.5-4.3-4-7.2-4h-18c-13.1,0-23.7,10.6-23.7,23.7v346.3c0,13.1,10.6,23.7,23.7,23.7h152.9c13.1,0,23.7-10.6,23.7-23.7V39.7c0-13.1-10.6-23.7-23.7-23.7Z"/>
  </g>
  <g>
    <rect class="cls-3" x="89.6" y="135.2" width="268.5" height="182.4" rx="17.5" ry="17.5"/>
    <path class="cls-1" d="M358.1,160.6v-6.4c0-10.5-7.3-19.1-16.3-19.1H105.9c-9,0-16.3,8.5-16.3,19.1v6.4h268.5Z"/>
    <circle class="cls-5" cx="106.5" cy="147.9" r="5.6"/>
    <circle class="cls-5" cx="128.6" cy="147.9" r="5.6"/>
    <circle class="cls-5" cx="149.6" cy="147.9" r="5.6"/>
  </g>
  <rect class="cls-5" x="207.6" y="237.7" width="99" height="11.9" rx="3.8" ry="3.8"/>
  <rect class="cls-5" x="207.6" y="265.4" width="99" height="11.9" rx="3.8" ry="3.8"/>
  <g>
    <path class="cls-4" d="M211.9,206.1c-.3,2.6-.8,5.4-1.4,7.1-.4-.3-1.4-.5-2-.7.6-1.8,1-4.4,1.3-6.8l2,.4ZM216.5,205c0-.4-.2-1-.3-1.5-5.2.8-6.1,1-6.6,1.3-.1-.5-.4-1.6-.7-2.1.6-.2,1.2-.8,2-1.9.4-.4,1.1-1.5,2-2.9-2.4.3-3,.4-3.4.6-.1-.5-.5-1.5-.7-2.1.5-.1.9-.7,1.5-1.5.6-.8,2.3-4,3.2-7l2.2.9c-1,2.5-2.3,5.1-3.7,7.2l2.3-.2c.6-1.2,1.3-2.5,1.9-3.8l2,1.2c-1.6,3.1-3.6,6.3-5.6,8.9l3.4-.4c-.2-.8-.5-1.7-.7-2.5l1.8-.5c.6,1.9,1.3,4.4,1.5,5.8l-1.9.6ZM214.4,205.7c.4,2,.6,4.6.7,6.4l-1.9.4c0-1.8-.3-4.4-.6-6.4l1.8-.3ZM216.8,205c.5,1.6,1.2,3.7,1.5,5.1l-1.8.6c-.3-1.4-.8-3.5-1.4-5.2l1.7-.5ZM228.9,209.4c2,.7,4.1,1.5,5.4,2.2l-1.1,1.8c-1.5-.7-3.8-1.8-5.9-2.5l.8-1.5h-4.5l1.5,1.4c-2.1,1-4.8,2-6.8,2.7-.2-.5-.6-1.3-1-1.8,1.7-.6,4.1-1.6,5.7-2.3h-4.1v-8.2h13.8v8.2h-4ZM224.8,190.9h-6.9v-1.8h6.9v-1.4h2.5v1.4h6.5v1.8h-6.5v1.2h5.6v1.7h-13.9v-1.7h5.8v-1.2ZM218.1,194.8h15.7v5.4h-15.7v-5.4ZM220.2,198.5h2.6v-2h-2.6v2ZM221.3,203.7h9.1v-1h-9.1v1ZM221.3,205.8h9.1v-1h-9.1v1ZM221.3,208h9.1v-1.1h-9.1v1.1ZM227.3,198.5v-2h-2.4v2h2.4ZM231.5,196.5h-2.3v2h2.3v-2Z"/>
    <path class="cls-4" d="M244.3,207.4c-.7,2.3-1.9,4.6-3.2,6.1-.4-.4-1.4-1-2-1.3,1.3-1.3,2.3-3.3,2.8-5.3l2.3.6ZM248.8,206.4h-8.1v-17.6h8.1v17.6ZM246.4,191h-3.5v3.1h3.5v-3.1ZM246.4,196h-3.5v3.2h3.5v-3.2ZM246.4,201.1h-3.5v3.2h3.5v-3.2ZM247.4,206.8c.9,1.4,1.9,3.2,2.3,4.4l-2,1c-.4-1.2-1.4-3.1-2.2-4.5l2-.8ZM265.1,208.9h-1.5v2c0,1.1-.3,1.8-1.1,2.1-.8.4-2.1.4-4,.4,0-.6-.4-1.5-.7-2.1,1.3,0,2.6,0,2.9,0,.4,0,.5-.1.5-.4v-2h-8.1v4.6h-2.3v-4.6h-1.6v-1.9h1.6v-7.1h5.1v-1.3h-6.7v-1.9h3.8v-1.5h-2.5v-1.8h2.5v-1.4h-3.2v-1.9h3.2v-2.3h2.3v2.3h3.6v-2.3h2.3v2.3h3.2v1.9h-3.2v1.4h2.8v1.8h-2.8v1.5h3.8v1.9h-6.8v1.3h5.4v7.1h1.5v1.9ZM253.1,201.9v1.6h2.8v-1.6h-2.8ZM253.1,207h2.8v-1.8h-2.8v1.8ZM255.3,193.4h3.6v-1.4h-3.6v1.4ZM255.3,196.7h3.6v-1.5h-3.6v1.5ZM258.2,201.9v1.6h3v-1.6h-3ZM261.2,207v-1.8h-3v1.8h3Z"/>
    <path class="cls-4" d="M277.9,201.5c-.4,2.3-.9,4.4-1.7,6.1,1.8,2.7,5,3.2,9.8,3.2s7.2-.1,10.1-.4c-.4.6-.7,1.7-.8,2.4-2.7.2-6.2.3-9.3.3-5.3,0-8.6-.6-10.8-3.4-1,1.7-2.2,3-3.6,3.9-.3-.5-1.2-1.4-1.7-1.8,2.6-1.6,4.5-4.6,5.4-8.7h-2.7c-.7,0-1.5.2-1.7.4-.1-.6-.6-1.7-.9-2.2.4-.1.9-.3,1.4-.9.6-.6,2-2.5,3.1-4.1h-4.1v-2.1h6.1c0-.1,1.6.6,1.6.6-1.1,1.6-3,4.3-4.6,6.2h3.1c0,0,1.3.4,1.3.4ZM274.9,193.4c-.7-1.1-2.3-3.1-3.5-4.4l1.9-1.2c1.3,1.3,2.8,3.1,3.6,4.2l-2,1.4ZM281.5,209h-2.3v-14.3h7.2c-1.5-.7-3.2-1.5-4.6-2l1.6-1.4c1.1.4,2.4.9,3.6,1.4,1.1-.6,2.2-1.3,3.1-2h-10.9v-2h13.7c0-.1,1.6,1.1,1.6,1.1-1.4,1.4-3.3,2.7-5.3,3.8.8.3,1.4.7,2,1h3.3v11.9c0,1.1-.3,1.7-1,2-.8.4-1.9.4-3.7.4,0-.6-.4-1.4-.7-2,1.1,0,2.2,0,2.5,0,.4,0,.4-.1.4-.4v-2h-4.4v4.3h-2.2v-4.3h-4.2v4.4ZM281.5,196.7v2h4.2v-2h-4.2ZM285.6,202.7v-2.1h-4.2v2.1h4.2ZM292.2,196.7h-4.4v2h4.4v-2ZM292.2,202.7v-2.1h-4.4v2.1h4.4Z"/>
    <path class="cls-4" d="M309,201.3c0,.5-.1,1.1-.3,1.6,1.4,1.4,4.6,5,5.4,5.9l-1.8,2.2c-.9-1.4-2.8-3.8-4.3-5.5-.9,2.9-2.6,5.7-5.5,7.8-.4-.6-1.3-1.6-1.8-2,3.9-2.8,5.2-6.6,5.6-10.1h-5.3v-2.5h5.5v-5h-1.7c-.6,1.5-1.3,2.9-2.1,4-.5-.4-1.5-1.1-2.1-1.5,1.6-2,2.7-5.3,3.3-8.6l2.5.5c-.2,1.1-.5,2.1-.8,3.1h7.6v2.4h-4.2v5h4.9v2.5h-5.1ZM325.1,190.2v22.1h-2.6v-1.8h-5.1v2.1h-2.5v-22.4h10.2ZM322.5,208.1v-15.4h-5.1v15.4h5.1Z"/>
  </g>
  <g>
    <circle class="cls-5" cx="152.8" cy="216.6" r="36.6"/>
    <g>
      <path class="cls-2" d="M168.2,227.2v-17.6c0-7.7-5.7-14.1-13.1-15.3v-1.4c0-1.3-1-2.3-2.3-2.3s-2.3,1-2.3,2.3v1.4c-7.4,1.1-13.1,7.5-13.1,15.3v17.6c-2.1,1.1-3.6,3.2-3.6,5.7h38.1c0-2.5-1.4-4.7-3.6-5.7Z"/>
      <path class="cls-2" d="M152.8,242.6c4.1,0,7.5-3.4,7.5-7.5h-15c0,4.1,3.4,7.5,7.5,7.5Z"/>
    </g>
  </g>
  <rect class="cls-3" x="238.3" y="66" width="149.2" height="15" rx="6" ry="6"/>
  <rect class="cls-3" x="238.3" y="334.7" width="149.2" height="15" rx="6" ry="6"/>
  <rect class="cls-3" x="238.3" y="96.1" width="99.5" height="15" rx="6" ry="6"/>
  <rect class="cls-3" x="238.3" y="361.5" width="99.5" height="15" rx="6" ry="6"/>
</svg>