<?xml version="1.0" encoding="UTF-8"?>
<svg id="_分離模式" data-name="分離模式" xmlns="http://www.w3.org/2000/svg" version="1.1" viewBox="0 0 629 423.7">
  <defs>
    <style>
      .cls-1 {
        fill: #96c309;
      }

      .cls-1, .cls-2, .cls-3, .cls-4 {
        stroke-width: 0px;
      }

      .cls-2 {
        fill: #e4e6ea;
      }

      .cls-3 {
        fill: #fff;
      }

      .cls-4 {
        fill: #8d90ab;
      }
    </style>
  </defs>
  <g>
    <rect class="cls-4" x="120" y="56.6" width="384" height="264.1" rx="20.7" ry="20.7"/>
    <path class="cls-3" d="M494.6,80.9v195.9c0,3.6-2.9,6.5-6.5,6.5H135.9c-3.6,0-6.5-2.9-6.5-6.5V80.9c0-8.6,7-15.6,15.6-15.6h334c8.6,0,15.6,7,15.6,15.6Z"/>
    <polygon class="cls-4" points="348.6 377.1 275.4 377.1 283 332.4 285.1 320.7 338.9 320.7 340.9 332.4 348.6 377.1"/>
    <rect class="cls-4" x="251.1" y="367.5" width="121.8" height="9.6"/>
  </g>
  <g>
    <g>
      <path class="cls-1" d="M241.5,267.4h-66.7c-7.7,0-14-6.2-14-14h0c0-7.7,6.2-14,14-14h66.7c7.7,0,14,6.2,14,14h0c0,7.7-6.2,14-14,14Z"/>
      <g>
        <path class="cls-3" d="M184,253.8c.3.4.4.9.4,1.5s-.3,1.5-.9,1.9c-.6.4-1.5.7-2.8.7h-4.8v-9.5h4.5c1.1,0,2,.2,2.6.7s.9,1,.9,1.8-.1.9-.3,1.2c-.2.4-.5.6-.9.9.5.2.9.5,1.2.9ZM178.1,250v2.2h2.1c.5,0,.9,0,1.2-.3.3-.2.4-.5.4-.8s-.1-.6-.4-.8c-.3-.2-.7-.3-1.2-.3h-2.1ZM181.8,255.9c.3-.2.4-.5.4-.9,0-.8-.6-1.2-1.7-1.2h-2.5v2.3h2.5c.6,0,1,0,1.3-.3Z"/>
        <path class="cls-3" d="M187.1,256.9c-.7-.7-1.1-1.8-1.1-3.2v-5.3h2.1v5.2c0,1.7.7,2.5,2.1,2.5s1.2-.2,1.5-.6c.4-.4.5-1.1.5-1.9v-5.2h2.1v5.3c0,1.4-.4,2.5-1.1,3.2s-1.8,1.1-3.1,1.1-2.4-.4-3.1-1.1Z"/>
        <path class="cls-3" d="M200.8,254.5v3.4h-2.1v-3.4l-3.6-6.1h2.3l2.5,4.2,2.5-4.2h2.1l-3.6,6.1Z"/>
        <path class="cls-3" d="M217.5,248.3v9.5h-1.8l-4.6-5.8v5.8h-2.1v-9.5h1.8l4.6,5.8v-5.8h2.1Z"/>
        <path class="cls-3" d="M221.6,257.3c-.8-.4-1.4-1-1.8-1.8s-.7-1.6-.7-2.5.2-1.8.7-2.5c.4-.7,1-1.3,1.8-1.8s1.6-.6,2.6-.6,1.8.2,2.6.6c.8.4,1.4,1,1.8,1.8.4.7.7,1.6.7,2.5s-.2,1.8-.7,2.5-1,1.3-1.8,1.8c-.8.4-1.6.6-2.6.6s-1.8-.2-2.6-.6ZM225.7,255.7c.4-.3.8-.6,1-1.1.3-.5.4-1,.4-1.6s-.1-1.1-.4-1.6-.6-.8-1-1.1-.9-.4-1.5-.4-1,.1-1.5.4-.8.6-1,1.1-.4,1-.4,1.6.1,1.1.4,1.6c.3.5.6.8,1,1.1.4.3.9.4,1.5.4s1-.1,1.5-.4Z"/>
        <path class="cls-3" d="M244.6,248.3l-3,9.5h-2.3l-2-6.4-2.1,6.4h-2.3l-3-9.5h2.2l2.1,6.7,2.2-6.7h2l2.1,6.7,2.2-6.7h2Z"/>
      </g>
    </g>
    <g>
      <rect class="cls-2" x="151" y="205.8" width="114.2" height="22.4" rx="1.8" ry="1.8"/>
      <g>
        <polygon class="cls-3" points="167.2 211 169.7 214.3 173.6 215.6 171.2 219 171.1 223.1 167.2 221.9 163.2 223.1 163.2 219 160.8 215.6 164.7 214.3 167.2 211"/>
        <polygon class="cls-1" points="187.7 211 190.1 214.3 194 215.6 191.7 219 191.6 223.1 187.7 221.9 183.7 223.1 183.7 219 181.3 215.6 185.2 214.3 187.7 211"/>
        <polygon class="cls-1" points="208.1 211 210.6 214.3 214.5 215.6 212.1 219 212.1 223.1 208.1 221.9 204.2 223.1 204.1 219 201.8 215.6 205.7 214.3 208.1 211"/>
        <polygon class="cls-1" points="228.6 211 231.1 214.3 235 215.6 232.6 219 232.5 223.1 228.6 221.9 224.7 223.1 224.6 219 222.2 215.6 226.1 214.3 228.6 211"/>
        <polygon class="cls-1" points="249.1 211 251.6 214.3 255.5 215.6 253.1 219 253 223.1 249.1 221.9 245.1 223.1 245.1 219 242.7 215.6 246.6 214.3 249.1 211"/>
      </g>
    </g>
    <g>
      <rect class="cls-2" x="150.5" y="87.8" width="115.3" height="108.5" rx="1.8" ry="1.8"/>
      <path class="cls-3" d="M246.8,121.8h0l-14.5-15.7h0s0,0,0,0h-15c0,3.7-2.3,7-5.5,8.3-1.1.5-2.3.7-3.5.7s-1.2,0-1.8-.2c-4.1-.8-7.3-4.5-7.3-8.9h-15.1s0,0,0,0l-14.5,15.7h0l-2.3,2.5,11.7,10.9,2.3-2.5h0l2.8-3v48.4h48.2v-48.4l2.8,3h0l2.3,2.5,11.7-10.9-2.3-2.5Z"/>
    </g>
  </g>
  <g>
    <g>
      <g>
        <path class="cls-1" d="M386.1,267.4h-66.7c-7.7,0-14-6.2-14-14h0c0-7.7,6.2-14,14-14h66.7c7.7,0,14,6.2,14,14h0c0,7.7-6.2,14-14,14Z"/>
        <g>
          <path class="cls-3" d="M328.6,253.8c.3.4.4.9.4,1.5s-.3,1.5-.9,1.9c-.6.4-1.5.7-2.8.7h-4.8v-9.5h4.5c1.1,0,2,.2,2.6.7s.9,1,.9,1.8-.1.9-.3,1.2c-.2.4-.5.6-.9.9.5.2.9.5,1.2.9ZM322.7,250v2.2h2.1c.5,0,.9,0,1.2-.3.3-.2.4-.5.4-.8s-.1-.6-.4-.8c-.3-.2-.7-.3-1.2-.3h-2.1ZM326.5,255.9c.3-.2.4-.5.4-.9,0-.8-.6-1.2-1.7-1.2h-2.5v2.3h2.5c.6,0,1,0,1.3-.3Z"/>
          <path class="cls-3" d="M331.7,256.9c-.7-.7-1.1-1.8-1.1-3.2v-5.3h2.1v5.2c0,1.7.7,2.5,2.1,2.5s1.2-.2,1.5-.6c.4-.4.5-1.1.5-1.9v-5.2h2.1v5.3c0,1.4-.4,2.5-1.1,3.2s-1.8,1.1-3.1,1.1-2.4-.4-3.1-1.1Z"/>
          <path class="cls-3" d="M345.4,254.5v3.4h-2.1v-3.4l-3.6-6.1h2.3l2.5,4.2,2.5-4.2h2.1l-3.6,6.1Z"/>
          <path class="cls-3" d="M362.1,248.3v9.5h-1.8l-4.6-5.8v5.8h-2.1v-9.5h1.8l4.6,5.8v-5.8h2.1Z"/>
          <path class="cls-3" d="M366.2,257.3c-.8-.4-1.4-1-1.8-1.8s-.7-1.6-.7-2.5.2-1.8.7-2.5c.4-.7,1-1.3,1.8-1.8s1.6-.6,2.6-.6,1.8.2,2.6.6c.8.4,1.4,1,1.8,1.8.4.7.7,1.6.7,2.5s-.2,1.8-.7,2.5-1,1.3-1.8,1.8c-.8.4-1.6.6-2.6.6s-1.8-.2-2.6-.6ZM370.3,255.7c.4-.3.8-.6,1-1.1.3-.5.4-1,.4-1.6s-.1-1.1-.4-1.6-.6-.8-1-1.1-.9-.4-1.5-.4-1,.1-1.5.4-.8.6-1,1.1-.4,1-.4,1.6.1,1.1.4,1.6c.3.5.6.8,1,1.1.4.3.9.4,1.5.4s1-.1,1.5-.4Z"/>
          <path class="cls-3" d="M389.2,248.3l-3,9.5h-2.3l-2-6.4-2.1,6.4h-2.3l-3-9.5h2.2l2.1,6.7,2.2-6.7h2l2.1,6.7,2.2-6.7h2Z"/>
        </g>
      </g>
      <g>
        <rect class="cls-2" x="295.6" y="205.8" width="114.2" height="22.4" rx="1.8" ry="1.8"/>
        <g>
          <polygon class="cls-3" points="311.8 211 314.3 214.3 318.2 215.6 315.8 219 315.7 223.1 311.8 221.9 307.9 223.1 307.8 219 305.4 215.6 309.3 214.3 311.8 211"/>
          <polygon class="cls-3" points="332.3 211 334.7 214.3 338.6 215.6 336.3 219 336.2 223.1 332.3 221.9 328.3 223.1 328.3 219 325.9 215.6 329.8 214.3 332.3 211"/>
          <polygon class="cls-3" points="352.7 211 355.2 214.3 359.1 215.6 356.7 219 356.7 223.1 352.7 221.9 348.8 223.1 348.7 219 346.4 215.6 350.3 214.3 352.7 211"/>
          <polygon class="cls-1" points="373.2 211 375.7 214.3 379.6 215.6 377.2 219 377.2 223.1 373.2 221.9 369.3 223.1 369.2 219 366.8 215.6 370.7 214.3 373.2 211"/>
          <polygon class="cls-1" points="393.7 211 396.2 214.3 400.1 215.6 397.7 219 397.6 223.1 393.7 221.9 389.8 223.1 389.7 219 387.3 215.6 391.2 214.3 393.7 211"/>
        </g>
      </g>
      <rect class="cls-2" x="295.1" y="87.8" width="115.3" height="108.5" rx="1.8" ry="1.8"/>
    </g>
    <g>
      <path class="cls-3" d="M387.5,134.8v37.7c0,3.1-2.5,5.5-5.5,5.5h-58.4c-3,0-5.5-2.5-5.5-5.5v-37.7c0-3.1,2.5-5.5,5.5-5.5h58.4c3.1,0,5.5,2.5,5.5,5.5Z"/>
      <path class="cls-3" d="M360.5,115.7h-15.5c-3.9,0-7.1,3.2-7.1,7.1v6.4h2.8v-6.4c0-2.4,1.9-4.3,4.3-4.3h15.5c2.4,0,4.3,1.9,4.3,4.3v6.4h2.8v-6.4c0-3.9-3.2-7.1-7.1-7.1Z"/>
    </g>
  </g>
  <g>
    <g>
      <path class="cls-1" d="M530.7,267.4h-66.7c-7.7,0-14-6.2-14-14h0c0-7.7,6.2-14,14-14h66.7c7.7,0,14,6.2,14,14h0c0,7.7-6.2,14-14,14Z"/>
      <g>
        <path class="cls-3" d="M473.2,253.8c.3.4.4.9.4,1.5s-.3,1.5-.9,1.9c-.6.4-1.5.7-2.8.7h-4.8v-9.5h4.5c1.1,0,2,.2,2.6.7s.9,1,.9,1.8-.1.9-.3,1.2c-.2.4-.5.6-.9.9.5.2.9.5,1.2.9ZM467.3,250v2.2h2.1c.5,0,.9,0,1.2-.3.3-.2.4-.5.4-.8s-.1-.6-.4-.8c-.3-.2-.7-.3-1.2-.3h-2.1ZM471.1,255.9c.3-.2.4-.5.4-.9,0-.8-.6-1.2-1.7-1.2h-2.5v2.3h2.5c.6,0,1,0,1.3-.3Z"/>
        <path class="cls-3" d="M476.3,256.9c-.7-.7-1.1-1.8-1.1-3.2v-5.3h2.1v5.2c0,1.7.7,2.5,2.1,2.5s1.2-.2,1.5-.6c.4-.4.5-1.1.5-1.9v-5.2h2.1v5.3c0,1.4-.4,2.5-1.1,3.2s-1.8,1.1-3.1,1.1-2.4-.4-3.1-1.1Z"/>
        <path class="cls-3" d="M490,254.5v3.4h-2.1v-3.4l-3.6-6.1h2.3l2.5,4.2,2.5-4.2h2.1l-3.6,6.1Z"/>
        <path class="cls-3" d="M506.7,248.3v9.5h-1.8l-4.6-5.8v5.8h-2.1v-9.5h1.8l4.6,5.8v-5.8h2.1Z"/>
        <path class="cls-3" d="M510.8,257.3c-.8-.4-1.4-1-1.8-1.8s-.7-1.6-.7-2.5.2-1.8.7-2.5c.4-.7,1-1.3,1.8-1.8s1.6-.6,2.6-.6,1.8.2,2.6.6c.8.4,1.4,1,1.8,1.8.4.7.7,1.6.7,2.5s-.2,1.8-.7,2.5-1,1.3-1.8,1.8c-.8.4-1.6.6-2.6.6s-1.8-.2-2.6-.6ZM514.9,255.7c.4-.3.8-.6,1-1.1.3-.5.4-1,.4-1.6s-.1-1.1-.4-1.6-.6-.8-1-1.1-.9-.4-1.5-.4-1,.1-1.5.4-.8.6-1,1.1-.4,1-.4,1.6.1,1.1.4,1.6c.3.5.6.8,1,1.1.4.3.9.4,1.5.4s1-.1,1.5-.4Z"/>
        <path class="cls-3" d="M533.8,248.3l-3,9.5h-2.3l-2-6.4-2.1,6.4h-2.3l-3-9.5h2.2l2.1,6.7,2.2-6.7h2l2.1,6.7,2.2-6.7h2Z"/>
      </g>
    </g>
    <g>
      <rect class="cls-2" x="440.2" y="205.8" width="114.2" height="22.4" rx="1.8" ry="1.8"/>
      <g>
        <polygon class="cls-3" points="456.4 211 458.9 214.3 462.8 215.6 460.4 219 460.3 223.1 456.4 221.9 452.5 223.1 452.4 219 450 215.6 453.9 214.3 456.4 211"/>
        <polygon class="cls-3" points="476.9 211 479.3 214.3 483.2 215.6 480.9 219 480.8 223.1 476.9 221.9 472.9 223.1 472.9 219 470.5 215.6 474.4 214.3 476.9 211"/>
        <polygon class="cls-3" points="497.3 211 499.8 214.3 503.7 215.6 501.3 219 501.3 223.1 497.3 221.9 493.4 223.1 493.4 219 491 215.6 494.9 214.3 497.3 211"/>
        <polygon class="cls-3" points="517.8 211 520.3 214.3 524.2 215.6 521.8 219 521.8 223.1 517.8 221.9 513.9 223.1 513.8 219 511.4 215.6 515.4 214.3 517.8 211"/>
        <polygon class="cls-1" points="538.3 211 540.8 214.3 544.7 215.6 542.3 219 542.2 223.1 538.3 221.9 534.4 223.1 534.3 219 531.9 215.6 535.8 214.3 538.3 211"/>
      </g>
    </g>
    <rect class="cls-2" x="439.7" y="87.8" width="115.3" height="108.5" rx="1.8" ry="1.8"/>
    <path class="cls-3" d="M531.4,167.4c-.1.3-.4.3-.6.4-5.2,1-10.4,1.9-15.6,1.8-3.6,0-17-1.8-20-3.7-.7-.5-1.3-1.2-1.8-1.9-3.3-4.2-6.1-8.7-9.4-12.8-1.5-1.8-3.1-3.6-4.9-5.1l-2,21.7h-2.7l-5-27.5c0,0-.1-.1-.1-.2-3.2-15.2,7-16.1,7-16.1l12.6,7.5c.6.4,1.3,2.2,1.7,2.9.5,1,1.1,1.9,1.6,2.8,1.4,2.2,2.9,4.4,4.5,6.5,1.2,1.5,2.5,2.9,4.1,3.9,1.9,1.2,4.1,1.9,6.2,2.4,3.1.8,20.9,6.7,24.6,16.5,0,.2.3.5.2.7Z"/>
  </g>
</svg>