<?xml version="1.0" encoding="UTF-8"?>
<svg xmlns="http://www.w3.org/2000/svg" version="1.1" xmlns:xlink="http://www.w3.org/1999/xlink" viewBox="0 0 835 461.3">
  <defs>
    <style>
      .cls-1 {
        fill: url(#linear-gradient);
      }

      .cls-1, .cls-2, .cls-3, .cls-4, .cls-5, .cls-6, .cls-7, .cls-8, .cls-9, .cls-10, .cls-11, .cls-12, .cls-13 {
        stroke-width: 0px;
      }

      .cls-14 {
        isolation: isolate;
      }

      .cls-2 {
        fill: #222534;
      }

      .cls-3 {
        fill: #edeef2;
      }

      .cls-4 {
        fill: url(#linear-gradient-2);
        mix-blend-mode: multiply;
        opacity: .5;
      }

      .cls-5 {
        fill: #203647;
      }

      .cls-6 {
        opacity: .3;
      }

      .cls-6, .cls-9 {
        fill: #d9dadd;
      }

      .cls-7 {
        fill: #c9ccd8;
      }

      .cls-8 {
        fill: #bdc0ce;
      }

      .cls-10 {
        fill: #d3d5df;
      }

      .cls-11 {
        fill: #fff;
      }

      .cls-15 {
        fill: none;
        stroke: #d3d5df;
        stroke-miterlimit: 10;
      }

      .cls-12 {
        fill: #d5dbe0;
        opacity: .5;
      }

      .cls-13 {
        fill: #92c426;
      }
    </style>
    <linearGradient id="linear-gradient" x1="674.4" y1="-16132.5" x2="674.4" y2="-16103" gradientTransform="translate(0 -15970.7) scale(1 -1)" gradientUnits="userSpaceOnUse">
      <stop offset="0" stop-color="#162959"/>
      <stop offset="1" stop-color="#0b1b38"/>
    </linearGradient>
    <linearGradient id="linear-gradient-2" x1="688.1" y1="-16300.6" x2="688.9" y2="-16274.3" gradientTransform="translate(0 -15970.7) scale(1 -1)" gradientUnits="userSpaceOnUse">
      <stop offset="0" stop-color="#283770"/>
      <stop offset="1" stop-color="#141a5a"/>
    </linearGradient>
  </defs>
  <g class="cls-14">
    <g id="OBJECTS">
      <rect class="cls-10" x="175.4" y="4.3" width="536.6" height="369" rx="20.7" ry="20.7"/>
      <path class="cls-11" d="M698.9,38.2v273.8c0,5-4.1,9.1-9.1,9.1H197.7c-5,0-9.1-4.1-9.1-9.1V38.2c0-12,9.7-21.8,21.8-21.8h466.8c12,0,21.8,9.7,21.8,21.8Z"/>
      <polygon class="cls-7" points="494.9 452.1 392.6 452.1 403.3 389.7 406.1 373.4 481.4 373.4 484.2 389.7 494.9 452.1"/>
      <rect class="cls-10" x="358.6" y="438.7" width="170.2" height="13.4"/>
      <g>
        <path class="cls-9" d="M725.4,452.7l-2.2-9.1c3.7.6,9.8-1.2,12.3-1.5l-.2,10.6s-4.6,2.8-9.9,0Z"/>
        <g>
          <path class="cls-5" d="M671.3,271.2s0,0,0,0c0,0,0,0,0,0Z"/>
          <path class="cls-9" d="M677.5,452.7l-.4-6.9c3.7.6,8.1.3,10.5,0l-.2,7s-4.6,2.8-9.9,0Z"/>
          <path class="cls-2" d="M736.4,443.8c-2.6,1.5-10,2.6-13.7,1.4,0,0-16.1-72.9-18.1-81.8-2.7-11.7-7.4-25.8-10.2-38.6,0,6.6-.5,15.2-1.2,22.6h0c-.7,8.5-1.5,15.2-1.5,15.2.6,5.4,1.7,31.3-.5,47.8-1.4,10.6-1.5,35.3-1.5,35.3-2.9.7-8.5,1.2-14.1.2,0,0-8.8-81.4-9.2-87.8-1.6-26.7-.5-85.7-.3-86.9,0,.4,3.1,3.1,12.5,2.6,13-.7,37.4-2.6,37.4-2.6,7.2,4,8.5,24.8,8.3,34.8-.3,4.7,2.2,36.9,3.7,55.4,4.7,11.1,4.8,30.1,5.7,44,1.5,21.7,2.7,38.4,2.7,38.4Z"/>
        </g>
        <path class="cls-3" d="M658.7,212.7l-4.9,25.2c-6.1-4.9-15.5-12.2-21.8-15.8l-5,2.9s5.4,7.4,12.9,15.6c9.8,10.8,15.2,15.2,15.2,15.2h0c1.4,1.3,3.4,1.7,6.3.1,9.6-5.1,15-35.9,15-35.9l-17.8-7.3Z"/>
        <path class="cls-7" d="M653,227.7s4.1,2.8,9.9,4.6c1.6.5,3.3.9,5,1.2.9.2,1.8.2,2.7.3,1.2,0,2.5,0,3.9,0,.4,0,.8,0,1.3-.1l3.3-13.6,2.5-10-16.9-19.6s-4.4,7.5-11.6,37.3Z"/>
        <g>
          <path class="cls-1" d="M671.1,136.3h3.1s.2.9.3,2.1l3.6,2.1v5.8s.4,5.2-3.5,4c-2.3-.7-2.7-5.2-2.7-8.8-2.3-1.5-.9-5.2-.9-5.2Z"/>
          <path class="cls-3" d="M701.5,179.2c-.7-1.8-1.4-23.5-1.4-23.5l-9.7,8.1-4.6,3.8c-.5,2.3-1.3,5.2-2,7.6-.7,2.4-.3,4.6-.3,4.6,0,0,2,3.6,6.5,3.3,8.9-.7,11.4-3.9,11.4-3.9Z"/>
          <path class="cls-6" d="M696.3,163.9s-3.9,8.6-12.5,11.4c.7-2.4,1.5-5.3,2-7.6l4.6-3.8h6Z"/>
          <path class="cls-3" d="M674,145.1s-1.9,20.4,4.7,24.1c3.7,2,11.4,1.3,16.4-3.4,2.2-2.1,3.5-4.9,4.5-7.7,1.7-4.6,4.2-13.1,2.6-18.6-2.3-7.8-26.1-12.6-28.3,5.6Z"/>
          <path class="cls-2" d="M676.5,125.8c3.8-.8,4.3-3.8,8.5-3.4s4.9,2.7,6.9,3.5c2,.8,4.4,0,7,1.6,1.7,1,2.3,2.8,2.5,3.9,7.9,1.2,7.2,6.7,5.4,12.8-1.4,4.6.7,6-1,9.3-.7,1.4-2.6,3.6-3,5.4-.6,3.1-.9,4.3-2.4,5.6-.6-3.3-1.7-5.8-2.7-11.3,0-.4-.2-.8-.3-1.1-2.9-.3-4.8.2-5.5-1.8-.5-1.7-.3-4-.5-6.1-6.8.5-8.7-2.3-9.5-3-7.4,1.6-10.2.9-12-1.6-1.9-2.7-.2-4.5-.2-5.3,0,0,0,0,0,0-.6-3.8,3-7.7,6.8-8.5Z"/>
        </g>
        <path class="cls-7" d="M666.5,275c2.9,3.6,14,6.6,22.4,6.6s27.2-3.5,29.8-7.1c.3-.4,2-2.1-.8-12.4-.7-2.5-1.7-8.7-1.9-10.9-.8-12.3,2.8-29.6,4-33.3,3.2-9.4,6.2-17.1,5-24.6-1.5-2.5-2.2-4.3-3.8-6-3.9-4.3-17.3-10.5-20.3-11,0,0-3.1,5.7-10.3,6.3-8.9.7-7.2-6.3-7.2-6.3-5.3,2.7-11.9,6-16.5,10.7-3.8,3.8-6.6,12.5-4.2,28.6.8,5,2.1,24,2.6,39.2.4,10.3-.2,18.9.9,20.3Z"/>
        <path class="cls-3" d="M709.6,209.9s4.4,11.1,9.1,20.1c1.6,3.1,4.7,12.7,6,13.5,4.2,2.8,11.3-3.3,14.1-6.1,0-.2-1-6.6-3.3-14.1-3.4-11.5-8.6-25.6-8.6-25.6l-17.4,12.2Z"/>
        <path class="cls-7" d="M706.9,189c2.3-3,9.9-7.2,15-.9,1,1.2,6.3,10.2,8.9,17.9,2.8,8,4.7,14.3,4.7,14.3,0,0-5.2,2.7-10.5,4.6-4.5,1.5-9.7,2.7-13.7,1.8,0,0-5.3-14-6.6-21.8,0,0-1.9-10.4,2.2-15.8Z"/>
        <path class="cls-3" d="M738.9,237.5s-25-10.9-28.6-13c-5.4-3.2-8.8-5.3-10.7-6.6h0s-4.3-8.1-5.3-10.1c-1-2-5.1-2.5-7.9-4.2-2.8-1.7-4.8-4.4-6.1-3.9-1.3.4.5,4,1.8,5.2,1.3,1.1,4.4,3.5,4.4,3.5,0,0-1.4,2.1-1.4,2.9s-1.2,1.7-1.3,3.1-.8,2.1-.5,3.6c.3,1.5,1.8,4.2,2.4,4.9.3.4,1.1.2,1.4-.3.3-.5.5-1.3.5-1.5.2,0,2.6,3.4,6.7,4,.3,0,.5,0,.8,0,8.8,10.7,17,18.8,31.9,26.9,10.7,5.8,13.7-8.4,11.9-14.4Z"/>
        <path class="cls-2" d="M670.9,452.1s4.8-3.8,6.4-3.8,1.8.8,3,1.2c.8.3,1.5.3,1.7.4,4.1,0,5.6-1.1,5.6-1.1,3.8,7,1.5,12.6,1.5,12.6h-31.2c-.9-7.4,9.1-7.9,13-9.2Z"/>
        <path class="cls-2" d="M721.5,450.5s1.2-1.4,3.6-2.2c2-.7,4.5-1.2,8.6.4,1.1,0,1.6,0,1.6,0,.3,1,.9,1.9,1.6,2.6,6,6.3,2.4,10.1,2.4,10.1h-17.1c-8.1-1.2-4.7-9.6-.8-10.8Z"/>
        <path class="cls-3" d="M695.5,160.3c4.6,2.5,7.8-9.3,3.2-10.5-3.5-.9-4.3,4-4.3,4,0,0-1.6,5,1.1,6.4Z"/>
        <path class="cls-4" d="M694.4,324.8c0,2.5,0,5.4-.2,8.3l-7.6-25.9c-2-3.1-3.7-5.1-3.9-5.3l7,2.7c1.1,5.8,4.7,20.3,4.7,20.3Z"/>
        <path class="cls-2" d="M676.3,242.4h-34.6c-1.8,0-3.5-1-4.4-2.6l-21.7-39.1c-.7-1.3.2-2.9,1.7-2.9h34.6c1.8,0,3.5,1,4.4,2.6l21.7,39.1c.7,1.3-.2,2.9-1.7,2.9Z"/>
        <path class="cls-3" d="M633.9,223.3c1.5-.2,1-1.7-.2-2.4-.5-.3-1.3-.6-2.1-.8,0,0,0,0,0,0,3.2.6,2.7-1.5,1.2-2.3-1.5-.8-5.5-1.6-5.5-1.6l-4.4-2.5-2-3.6s-1,4.6.1,6.5c0,.8-.1,2.2,0,2.6,0,.1.3.3.5.5.1,1.2.4,2.5.9,2.9.1,0,.3.2.4.3,0,.8.3,1.4.8,1.8,1.5,1,3.7,1.7,3.7,1.7,0,0,2.1.3,4.7.8,2.1.4,2.3-.6,1.6-1.4,1.8,0,1.4-1.5.3-2.3Z"/>
      </g>
      <g>
        <rect class="cls-3" x="380.3" y="260.4" width="206.5" height="103.1" rx="6.6" ry="6.6"/>
        <g>
          <g>
            <circle class="cls-11" cx="413.8" cy="292.4" r="17.8"/>
            <circle class="cls-8" cx="413.8" cy="286.7" r="5.7"/>
            <path class="cls-8" d="M425.7,305.7c-3.2,2.8-7.3,4.5-11.9,4.5s-8.8-1.7-11.9-4.6c.2-6.4,5.4-11.6,11.9-11.6s6.3,1.3,8.4,3.5c2.1,2.1,3.4,4.9,3.5,8.1Z"/>
          </g>
          <g>
            <path class="cls-11" d="M506.1,286.7h-65.3c-1.1,0-2.1-.9-2.1-2.1h0c0-1.1.9-2.1,2.1-2.1h65.3c1.1,0,2.1.9,2.1,2.1h0c0,1.1-.9,2.1-2.1,2.1Z"/>
            <path class="cls-11" d="M506.1,294.4h-65.3c-1.1,0-2.1-.9-2.1-2.1h0c0-1.1.9-2.1,2.1-2.1h65.3c1.1,0,2.1.9,2.1,2.1h0c0,1.1-.9,2.1-2.1,2.1Z"/>
            <path class="cls-11" d="M470.4,302.2h-29.6c-1.1,0-2.1-.9-2.1-2.1h0c0-1.1.9-2.1,2.1-2.1h29.6c1.1,0,2.1.9,2.1,2.1h0c0,1.1-.9,2.1-2.1,2.1Z"/>
            <path class="cls-11" d="M480.9,302.2h-3.8c-1.1,0-2.1-.9-2.1-2.1h0c0-1.1.9-2.1,2.1-2.1h3.8c1.1,0,2.1.9,2.1,2.1h0c0,1.1-.9,2.1-2.1,2.1Z"/>
          </g>
        </g>
        <g>
          <g>
            <circle class="cls-11" cx="553.3" cy="331.5" r="17.8" transform="translate(-46.1 93.1) rotate(-9.2)"/>
            <path class="cls-8" d="M547.6,325.8c0,3.2,2.6,5.7,5.7,5.7s5.7-2.6,5.7-5.7-2.6-5.7-5.7-5.7-5.7,2.6-5.7,5.7Z"/>
            <path class="cls-8" d="M541.4,344.8c3.2,2.8,7.3,4.5,11.9,4.5s8.8-1.7,11.9-4.6c-.2-6.4-5.4-11.6-11.9-11.6s-6.3,1.3-8.4,3.5c-2.1,2.1-3.4,4.9-3.5,8.1Z"/>
          </g>
          <g>
            <path class="cls-11" d="M460.9,325.8h65.3c1.1,0,2.1-.9,2.1-2.1h0c0-1.1-.9-2.1-2.1-2.1h-65.3c-1.1,0-2.1.9-2.1,2.1h0c0,1.1.9,2.1,2.1,2.1Z"/>
            <path class="cls-11" d="M446.8,325.8h6.7c1.1,0,2.1-.9,2.1-2.1h0c0-1.1-.9-2.1-2.1-2.1h-6.7c-1.1,0-2.1.9-2.1,2.1h0c0,1.1.9,2.1,2.1,2.1Z"/>
            <path class="cls-11" d="M460.9,333.6h65.3c1.1,0,2.1-.9,2.1-2.1h0c0-1.1-.9-2.1-2.1-2.1h-65.3c-1.1,0-2.1.9-2.1,2.1h0c0,1.1.9,2.1,2.1,2.1Z"/>
            <path class="cls-11" d="M496.7,341.4h29.6c1.1,0,2.1-.9,2.1-2.1h0c0-1.1-.9-2.1-2.1-2.1h-29.6c-1.1,0-2.1.9-2.1,2.1h0c0,1.1.9,2.1,2.1,2.1Z"/>
          </g>
        </g>
      </g>
      <g>
        <path class="cls-8" d="M746.9,96.3h-35c-3.9,0-7.1,3.2-7.1,7.1v8.8c0,3.9,3.2,7.1,7.1,7.1h25.3l6.3,6.3c.8.8,2.3.2,2.3-.9v-5.4h1.1c3.9,0,7.1-3.2,7.1-7.1v-8.8c0-3.9-3.2-7.1-7.1-7.1Z"/>
        <g>
          <path class="cls-11" d="M719,107.8c0,1.2-.9,2.1-2.1,2.1s-2.1-.9-2.1-2.1.9-2.1,2.1-2.1,2.1.9,2.1,2.1Z"/>
          <path class="cls-11" d="M727.3,107.8c0,1.2-.9,2.1-2.1,2.1s-2.1-.9-2.1-2.1.9-2.1,2.1-2.1,2.1.9,2.1,2.1Z"/>
          <path class="cls-11" d="M735.6,107.8c0,1.2-.9,2.1-2.1,2.1s-2.1-.9-2.1-2.1.9-2.1,2.1-2.1,2.1.9,2.1,2.1Z"/>
          <path class="cls-11" d="M743.9,107.8c0,1.2-.9,2.1-2.1,2.1s-2.1-.9-2.1-2.1.9-2.1,2.1-2.1,2.1.9,2.1,2.1Z"/>
        </g>
      </g>
      <g>
        <path class="cls-8" d="M619.4,56.8h41.3c3.9,0,7.1,3.2,7.1,7.1v8.8c0,3.9-3.2,7.1-7.1,7.1h-31.6l-6.3,6.3c-.8.8-2.3.2-2.3-.9v-5.4h-1.1c-3.9,0-7.1-3.2-7.1-7.1v-8.8c0-3.9,3.2-7.1,7.1-7.1Z"/>
        <g>
          <path class="cls-11" d="M653.5,68.2c0,1.2.9,2.1,2.1,2.1s2.1-.9,2.1-2.1-.9-2.1-2.1-2.1-2.1.9-2.1,2.1Z"/>
          <path class="cls-11" d="M645.2,68.2c0,1.2.9,2.1,2.1,2.1s2.1-.9,2.1-2.1-.9-2.1-2.1-2.1-2.1.9-2.1,2.1Z"/>
          <path class="cls-11" d="M637,68.2c0,1.2.9,2.1,2.1,2.1s2.1-.9,2.1-2.1-.9-2.1-2.1-2.1-2.1.9-2.1,2.1Z"/>
          <path class="cls-11" d="M628.7,68.2c0,1.2.9,2.1,2.1,2.1s2.1-.9,2.1-2.1-.9-2.1-2.1-2.1-2.1.9-2.1,2.1Z"/>
          <path class="cls-11" d="M620.4,68.2c0,1.2.9,2.1,2.1,2.1s2.1-.9,2.1-2.1-.9-2.1-2.1-2.1-2.1.9-2.1,2.1Z"/>
        </g>
      </g>
      <g>
        <path class="cls-9" d="M452.6,58.5h8.9c1.3,0,2.3,1,2.3,2.3v28.3c0,1.3-1,2.3-2.3,2.3h-8.9c-1.3,0-2.3-1-2.3-2.3v-28.3c0-1.3,1-2.3,2.3-2.3Z"/>
        <path class="cls-9" d="M501.2,78.3c-.8,4.4-4.8,5.4-4.8,5.4,0,0,2.7.3,2,2.8-.7,2.6-2.9,5-4.9,5h-16.5c-2.7,0-5.4-.5-7.9-1.6-.2,0-.3-.1-.5-.2-1-.4-1.7-1.5-1.7-2.6v-23.9c0-1.1.3-2.2.8-3.2,1.1-2.1,3.1-6.2,3.1-8.3s-4.6-12.8-1.4-14.8c3.1-2,7.2.7,9.9,5.6,2.1,3.8.6,12.1,2.1,13.7h16s4.3-.2,4,3.8c-.3,3.4-2.1,5.4-2.1,5.4,0,0,2.8-.2,2.7,3.5,0,3.5-2.8,6-2.8,6,0,0,2.5.4,2,3.5Z"/>
      </g>
      <g>
        <rect class="cls-9" x="238.2" y="273.9" width="9.5" height="23.1" rx="1.6" ry="1.6"/>
        <path class="cls-9" d="M273.9,287.7c-.5,3.1-3.4,3.8-3.4,3.8,0,0,1.9.2,1.4,2-.5,1.8-2,3.5-3.5,3.5h-11.6c-1.9,0-3.8-.4-5.5-1.2-.1,0-.2,0-.3-.1-.7-.3-1.2-1-1.2-1.8v-16.8c0-.8.2-1.5.6-2.2.8-1.5,2.2-4.3,2.2-5.8s-3.2-8.9-1-10.3c2.2-1.4,5.1.5,6.9,3.9,1.5,2.7.4,8.5,1.5,9.6h11.2s3-.1,2.8,2.7c-.2,2.4-1.5,3.8-1.5,3.8,0,0,2-.1,1.9,2.4,0,2.5-2,4.2-2,4.2,0,0,1.8.3,1.4,2.4Z"/>
      </g>
      <g>
        <g>
          <path class="cls-15" d="M230.7,73.7h0c0,10.7,8.6,19.3,19.3,19.3h120.2c10.7,0,19.3-8.6,19.3-19.3h0c0-10.7-8.6-19.3-19.3-19.3h-120.2c-10.7,0-19.3,8.6-19.3,19.3Z"/>
          <path class="cls-12" d="M366.9,67.1h-80.9c-1.2,0-2.1-.9-2.1-2.1h0c0-1.2.9-2.1,2.1-2.1h80.9c1.2,0,2.1.9,2.1,2.1h0c0,1.2-.9,2.1-2.1,2.1Z"/>
          <path class="cls-12" d="M336.4,75.8h-50.4c-1.2,0-2.1-.9-2.1-2.1h0c0-1.2.9-2.1,2.1-2.1h50.4c1.2,0,2.1.9,2.1,2.1h0c0,1.2-.9,2.1-2.1,2.1Z"/>
          <path class="cls-12" d="M366.9,75.8h-21.6c-1.2,0-2.1-.9-2.1-2.1h0c0-1.2.9-2.1,2.1-2.1h21.6c1.2,0,2.1.9,2.1,2.1h0c0,1.2-.9,2.1-2.1,2.1Z"/>
          <path class="cls-12" d="M324.3,84.6h-38.4c-1.2,0-2.1-.9-2.1-2.1h0c0-1.2.9-2.1,2.1-2.1h38.4c1.2,0,2.1.9,2.1,2.1h0c0,1.2-.9,2.1-2.1,2.1Z"/>
        </g>
        <g>
          <path class="cls-8" d="M259.8,72.3h0c-5.7,0-10.3,4.6-10.3,10.3v1c0,.5.4.9.9.9h18.9c.5,0,.9-.4.9-.9v-1c0-5.7-4.6-10.3-10.3-10.3Z"/>
          <path class="cls-8" d="M264.2,66.1c0,2.4-2,5.5-4.4,5.5s-4.4-3.1-4.4-5.5,2-4.4,4.4-4.4,4.4,2,4.4,4.4Z"/>
        </g>
      </g>
      <g>
        <rect class="cls-7" x="81" y="197.1" width="132.8" height="254.8" rx="20.7" ry="20.7" transform="translate(294.8 649) rotate(180)"/>
        <g>
          <path class="cls-11" d="M150.5,205.2h-12.2c-.6,0-1.1-.5-1.1-1.1s.5-1.1,1.1-1.1h12.2c.6,0,1.1.5,1.1,1.1s-.5,1.1-1.1,1.1Z"/>
          <path class="cls-11" d="M155.9,205.2c-.1,0-.3,0-.4,0-.1,0-.2-.1-.4-.2-.1-.1-.2-.2-.2-.4,0-.1,0-.3,0-.4s0-.1,0-.2c0,0,0-.1,0-.2,0,0,0-.1,0-.2,0,0,0-.1.1-.2.2-.3.6-.4,1-.3,0,0,.1,0,.2,0,0,0,.1,0,.2.1,0,0,.1,0,.2.1,0,0,0,.1.1.2,0,0,0,.1.1.2,0,0,0,.1,0,.2,0,0,0,.1,0,.2,0,.1,0,.3,0,.4,0,.1-.1.3-.2.4-.1.1-.2.2-.4.2,0,0-.1,0-.2,0,0,0-.1,0-.2,0Z"/>
        </g>
        <path class="cls-11" d="M194.6,202.9h-11.2c-1.8,0-3.5.9-4.5,2.5l-2.2,3.5c-1,1.5-2.6,2.5-4.5,2.5h-50.5c-1.8,0-3.5-.9-4.5-2.5l-2.2-3.5c-1-1.5-2.6-2.5-4.5-2.5h-11.2c-8.1,0-14.7,6.6-14.7,14.7v215.1c0,8.1,6.6,14.7,14.7,14.7h95c8.1,0,14.7-6.6,14.7-14.7v-215.1c0-8.1-6.6-14.7-14.7-14.7Z"/>
      </g>
      <path class="cls-13" d="M147.4,292.2c-20.5,0-37.2,13.6-37.2,30.4s13.2,27.6,31.1,30c1.2.3,2.9.8,3.3,1.8.4.9.2,2.4.1,3.4l-.5,3.2c-.1.9-.7,3.7,3.3,2,4-1.7,21.4-12.7,29.2-21.8,5.3-5.9,7.9-11.9,7.9-18.6,0-16.8-16.7-30.4-37.2-30.4h0ZM132.8,332.6h-7.4c-1.1,0-2-.9-2-2v-14.9c0-1.1.9-2,2-2s2,.9,2,2v12.9h5.4c1.1,0,1.9.9,1.9,2s-.9,2-1.9,2ZM140.5,330.6c0,1.1-.9,2-2,2s-1.9-.9-1.9-2v-14.9c0-1.1.9-2,2-2s1.9.9,1.9,2v14.9ZM158.3,330.6c0,.8-.5,1.6-1.3,1.9-.2,0-.4,0-.6,0-.7,0-1.2-.3-1.6-.8l-7.6-10.3v9.2c0,1.1-.9,2-2,2s-1.9-.9-1.9-2v-14.9c0-.8.5-1.6,1.3-1.9.2,0,.4-.1.6-.1.6,0,1.2.3,1.5.8l7.6,10.4v-9.2c0-1.1.9-2,2-2s2,.9,2,2v14.9ZM170.2,321.2c1.1,0,2,.9,2,2s-.9,2-2,2h-5.4v3.5h5.4c1.1,0,2,.9,2,2s-.9,2-2,2h-7.4c-1.1,0-1.9-.9-1.9-2v-14.9c0-1.1.9-2,2-2h7.4c1.1,0,1.9.9,1.9,2s-.9,2-2,2h-5.4v3.5h5.4Z"/>
    </g>
  </g>
</svg>