<?xml version="1.0" encoding="UTF-8"?>
<svg id="OBJECTS" xmlns="http://www.w3.org/2000/svg" version="1.1" viewBox="0 0 835 461.3">
  <defs>
    <style>
      .cls-1, .cls-2 {
        opacity: .9;
      }

      .cls-3, .cls-2 {
        fill: #9b4aa7;
        stroke-width: 0px;
      }
    </style>
  </defs>
  <rect class="cls-2" x="285" y="231" width="317.6" height="9.5"/>
  <g class="cls-1">
    <g>
      <path class="cls-3" d="M306.6,208.3c-8-4.3-14.4-10.2-19-17.9-4.6-7.6-6.9-16.3-6.9-25.9s2.3-18.3,6.9-25.9c4.6-7.6,10.9-13.6,19-17.9,8-4.3,17.1-6.4,27.2-6.4s16.8,1.6,23.8,4.7c7.1,3.1,13,7.6,17.6,13.5l-17.4,15.7c-6.3-7.5-13.8-11.3-22.7-11.3s-9.9,1.1-14,3.4c-4.1,2.3-7.3,5.5-9.5,9.7-2.3,4.2-3.4,9-3.4,14.4s1.1,10.2,3.4,14.4c2.3,4.2,5.4,7.4,9.5,9.7,4.1,2.3,8.8,3.4,14,3.4,8.9,0,16.5-3.8,22.7-11.3l17.4,15.7c-4.7,5.9-10.6,10.4-17.6,13.5-7.1,3.1-15,4.7-23.8,4.7s-19.2-2.1-27.2-6.4Z"/>
      <path class="cls-3" d="M429.7,187.1h-14.9v25.6h-27.3v-96.5h44.1c8.7,0,16.3,1.4,22.7,4.3,6.4,2.9,11.4,7,14.9,12.4,3.5,5.4,5.2,11.7,5.2,19s-1.6,13.1-4.9,18.3c-3.3,5.2-7.9,9.3-14,12.2l20.8,30.3h-29.2l-17.5-25.6ZM442.6,141.5c-2.9-2.5-7.1-3.7-12.7-3.7h-15.2v28.3h15.2c5.6,0,9.8-1.2,12.7-3.7,2.8-2.4,4.3-5.9,4.3-10.4s-1.4-8-4.3-10.5Z"/>
      <path class="cls-3" d="M576.6,212.7l-.3-51.1-24.8,41.6h-12.1l-24.7-40.3v49.8h-25.2v-96.5h22.5l33.9,55.7,33.1-55.7h22.5l.3,96.5h-25.1Z"/>
    </g>
  </g>
</svg>