<?xml version="1.0" encoding="UTF-8"?>
<svg id="OBJECTS" xmlns="http://www.w3.org/2000/svg" version="1.1" viewBox="0 0 835 637.3">
  <defs>
    <style>
      .cls-1 {
        fill: none;
        stroke: #cecece;
        stroke-miterlimit: 10;
        stroke-width: 2px;
      }

      .cls-2 {
        fill: #edeef2;
      }

      .cls-2, .cls-3, .cls-4, .cls-5, .cls-6, .cls-7 {
        stroke-width: 0px;
      }

      .cls-3 {
        fill: #d9dadd;
      }

      .cls-4 {
        fill: #d3d5df;
      }

      .cls-5 {
        fill: #fff;
      }

      .cls-6 {
        fill: #c6c6cc;
      }

      .cls-7 {
        fill: #92c426;
      }
    </style>
  </defs>
  <g>
    <rect class="cls-4" x="276.9" y="75.9" width="272" height="522" rx="34.1" ry="34.1" transform="translate(825.8 673.8) rotate(180)"/>
    <g>
      <path class="cls-5" d="M419.3,92.4h-25.1c-1.2,0-2.2-1-2.2-2.2s1-2.2,2.2-2.2h25.1c1.2,0,2.2,1,2.2,2.2s-1,2.2-2.2,2.2Z"/>
      <path class="cls-5" d="M430.4,92.4c-.3,0-.6,0-.9-.2-.3-.1-.5-.3-.7-.5-.2-.2-.4-.5-.5-.7-.1-.3-.2-.6-.2-.9s0-.3,0-.4c0-.1,0-.3.1-.4,0-.1.1-.3.2-.4,0-.1.2-.2.3-.3.5-.5,1.3-.8,2-.6.1,0,.3,0,.4.1.1,0,.3.1.4.2.1,0,.2.2.3.3,0,0,.2.2.3.3,0,.1.2.2.2.4,0,.1,0,.3.1.4,0,.2,0,.3,0,.4,0,.3,0,.6-.2.9-.1.3-.3.5-.5.7-.2.2-.5.4-.7.5-.1,0-.3,0-.4.1-.1,0-.3,0-.4,0Z"/>
    </g>
    <path class="cls-5" d="M509.6,87.7h-22.9c-3.7,0-7.2,1.9-9.1,5.1l-4.4,7.2c-2,3.2-5.4,5.1-9.1,5.1h-103.5c-3.7,0-7.2-1.9-9.1-5.1l-4.4-7.2c-2-3.2-5.4-5.1-9.1-5.1h-22.9c-16.7,0-30.1,13.5-30.1,30.1v440.7c0,16.7,13.5,30.1,30.1,30.1h194.7c16.7,0,30.1-13.5,30.1-30.1V117.9c0-16.7-13.5-30.1-30.1-30.1Z"/>
  </g>
  <rect class="cls-2" x="259.8" y="358.9" width="304.9" height="90.6" rx="25.4" ry="25.4"/>
  <g>
    <path class="cls-1" d="M450.7,235.3h30.8c2.1,0,3.8,1.9,3.4,4-1.8,9.4-7.9,32.1-25.7,35.7l-12.4,16.8"/>
    <path class="cls-1" d="M373.9,235.3h-30.8c-2.1,0-3.8,1.9-3.4,4,1.8,9.4,7.9,32.1,25.7,35.7l12.4,16.8"/>
    <rect class="cls-3" x="404.7" y="301.2" width="18" height="49.9"/>
    <path class="cls-3" d="M369.6,236.9v43.6c0,20.7,17.9,37.5,40,37.5h8.1c22.1,0,40-16.8,40-37.5v-43.6h-88.1Z"/>
    <path class="cls-6" d="M452.9,227.1h-78.4c-4.5,0-8.2,3.7-8.2,8.2h0c0,4.5,3.7,8.2,8.2,8.2h78.4c4.5,0,8.2-3.7,8.2-8.2h0c0-4.5-3.7-8.2-8.2-8.2Z"/>
    <path class="cls-3" d="M433.8,361.8h-40.3c-3,0-5.4-2.4-5.4-5.4h0c0-3,2.4-5.4,5.4-5.4h40.3c3,0,5.4,2.4,5.4,5.4h0c0,3-2.4,5.4-5.4,5.4Z"/>
    <path class="cls-3" d="M438.9,368.7h-50.5c-3,0-5.4-2.4-5.4-5.4h0c0-3,2.4-5.4,5.4-5.4h50.5c3,0,5.4,2.4,5.4,5.4h0c0,3-2.4,5.4-5.4,5.4Z"/>
    <path class="cls-5" d="M385.6,290.4h0c-2.8,0-5.1-2.3-5.1-5.1v-30.4c0-2.8,2.3-5.1,5.1-5.1h0c2.8,0,5.1,2.3,5.1,5.1v30.4c0,2.8-2.3,5.1-5.1,5.1Z"/>
  </g>
  <g>
    <circle class="cls-7" cx="446" cy="406.4" r="29.1"/>
    <path class="cls-5" d="M462.4,422.7h-32.8s5-16.8,16.6-16.8,16.2,16.8,16.2,16.8Z"/>
    <circle class="cls-5" cx="446.2" cy="394.5" r="8.9"/>
  </g>
  <g>
    <circle class="cls-7" cx="375.1" cy="406.4" r="29.1"/>
    <path class="cls-5" d="M391.5,422.7h-32.8s5-16.8,16.6-16.8,16.2,16.8,16.2,16.8Z"/>
    <circle class="cls-5" cx="375.4" cy="394.5" r="8.9"/>
  </g>
  <g>
    <circle class="cls-7" cx="304.3" cy="406.4" r="29.1"/>
    <path class="cls-5" d="M320.7,422.7h-32.8s5-16.8,16.6-16.8,16.2,16.8,16.2,16.8Z"/>
    <circle class="cls-5" cx="304.5" cy="394.5" r="8.9"/>
  </g>
  <g>
    <circle class="cls-3" cx="516.8" cy="406.4" r="29.1"/>
    <path class="cls-5" d="M533.2,422.7h-32.8s5-16.8,16.6-16.8,16.2,16.8,16.2,16.8Z"/>
    <circle class="cls-5" cx="517" cy="394.5" r="8.9"/>
  </g>
</svg>