<?xml version="1.0" encoding="UTF-8"?>
<svg id="OBJECTS" xmlns="http://www.w3.org/2000/svg" version="1.1" viewBox="0 0 835 637.3">
  <defs>
    <style>
      .cls-1 {
        opacity: .9;
      }

      .cls-2 {
        fill: #9b4aa7;
      }

      .cls-2, .cls-3, .cls-4 {
        stroke-width: 0px;
      }

      .cls-3 {
        fill: #bbbece;
      }

      .cls-4 {
        fill: #f2f2f4;
      }
    </style>
  </defs>
  <path class="cls-4" d="M299.7,303.9H118.8c-7.6,0-13.7-7-13.7-15.6v-122.3c0-8.6,6.1-15.6,13.7-15.6h180.9c7.6,0,13.7,7,13.7,15.6v122.3c0,8.6-6.1,15.6-13.7,15.6Z"/>
  <path class="cls-4" d="M750.5,632h-282.5c-11.8,0-21.4-7-21.4-15.6v-122.3c0-8.6,9.6-15.6,21.4-15.6h282.5c11.8,0,21.4,7,21.4,15.6v122.3c0,8.6-9.6,15.6-21.4,15.6Z"/>
  <g>
    <path class="cls-3" d="M131.4,175.4h4.4v19.1h-4.4v-19.1Z"/>
    <path class="cls-3" d="M153.4,181.3c1.1,1.1,1.7,2.7,1.7,4.9v8.4h-4.3v-7.7c0-1.2-.3-2-.8-2.6-.5-.6-1.2-.9-2.2-.9s-1.9.3-2.6,1-1,1.6-1,3v7.2h-4.3v-14.7h4.1v1.7c.6-.6,1.3-1.1,2.1-1.4.8-.3,1.8-.5,2.8-.5,1.8,0,3.3.5,4.4,1.6Z"/>
    <path class="cls-3" d="M173.2,179.9l-6.2,14.7h-4.4l-6.2-14.7h4.4l4.1,10,4.2-10h4.1Z"/>
    <path class="cls-3" d="M175.1,177.1c-.5-.5-.7-1-.7-1.7s.2-1.2.7-1.7,1.1-.7,1.9-.7,1.4.2,1.9.7c.5.4.7,1,.7,1.6s-.2,1.3-.7,1.8c-.5.5-1.1.7-1.9.7s-1.4-.2-1.9-.7ZM174.9,179.9h4.3v14.7h-4.3v-14.7Z"/>
    <path class="cls-3" d="M192.6,193.8c-.4.3-.9.5-1.5.7s-1.2.2-1.9.2c-1.7,0-3.1-.4-4-1.3-1-.9-1.4-2.2-1.4-3.9v-6h-2.3v-3.3h2.3v-3.6h4.3v3.6h3.7v3.3h-3.7v6c0,.6.2,1.1.5,1.4.3.3.8.5,1.3.5s1.2-.2,1.7-.5l1.1,3Z"/>
    <path class="cls-3" d="M208.8,188.4h-11.1c.2.9.7,1.6,1.4,2.2s1.7.8,2.8.8,1.4-.1,2-.3c.6-.2,1.1-.6,1.6-1.1l2.3,2.5c-1.4,1.6-3.4,2.4-6,2.4s-3.1-.3-4.4-1c-1.3-.6-2.3-1.5-2.9-2.7s-1-2.4-1-3.9.3-2.7,1-3.9c.7-1.2,1.6-2.1,2.8-2.7,1.2-.6,2.5-1,4-1s2.7.3,3.9.9c1.2.6,2.1,1.5,2.7,2.7.7,1.2,1,2.5,1,4s0,.4,0,1.1ZM198.8,183.7c-.7.5-1.1,1.3-1.2,2.2h7.2c-.1-.9-.5-1.7-1.2-2.2-.7-.6-1.5-.8-2.4-.8s-1.8.3-2.4.8Z"/>
  </g>
  <g>
    <path class="cls-3" d="M168.1,262.8v9.2h-36.7v-7.3l18.7-17.7c2-1.9,3.3-3.5,4-4.9.7-1.4,1-2.7,1-4.1,0-1.9-.7-3.4-2-4.5s-3.2-1.6-5.8-1.6-4,.4-5.8,1.2c-1.7.8-3.1,2-4.3,3.6l-8.2-5.3c1.9-2.8,4.5-5,7.8-6.6s7.1-2.4,11.4-2.4,6.8.6,9.5,1.8,4.8,2.8,6.3,5c1.5,2.1,2.3,4.7,2.3,7.6s-.6,5.1-1.7,7.4c-1.1,2.3-3.3,4.9-6.4,7.9l-11.2,10.5h20.9Z"/>
    <path class="cls-3" d="M184.7,260.9c1.2,1.2,1.9,2.8,1.9,4.8s-.1,1.8-.3,2.8c-.2.9-.7,2.3-1.5,4.2l-4,10h-6.9l3.1-11c-1.2-.5-2.1-1.2-2.7-2.3-.7-1-1-2.3-1-3.6,0-2,.6-3.6,1.9-4.8,1.3-1.2,2.9-1.8,4.8-1.8s3.5.6,4.8,1.8Z"/>
    <path class="cls-3" d="M224.8,248c2.3,2.5,3.4,5.5,3.4,9.2s-.7,5.4-2.2,7.8c-1.5,2.4-3.7,4.3-6.8,5.7-3,1.4-6.7,2.1-11.1,2.1s-6.8-.5-10.1-1.4c-3.3-.9-6.1-2.2-8.4-3.8l4.4-8.6c1.8,1.4,4,2.5,6.4,3.2s4.9,1.1,7.5,1.1,5-.5,6.7-1.6c1.6-1.1,2.4-2.6,2.4-4.6,0-4-3-6-9.1-6h-5.1v-7.4l10-11.3h-20.7v-9h34v7.3l-11,12.5c4.3.7,7.5,2.3,9.8,4.7Z"/>
    <path class="cls-3" d="M252.1,223.5v48.5h-11.2v-39.5h-9.7v-9h20.9Z"/>
    <path class="cls-3" d="M279.3,223.5v48.5h-11.2v-39.5h-9.7v-9h20.9Z"/>
  </g>
  <g>
    <path class="cls-3" d="M473.2,526.5c-1.4-.4-2.5-.9-3.4-1.6l1.5-3.3c.8.6,1.8,1.1,2.9,1.4,1.1.4,2.3.5,3.4.5s2.2-.2,2.8-.6c.6-.4.9-.9.9-1.5s-.2-.8-.5-1.1c-.4-.3-.8-.5-1.4-.7-.6-.2-1.3-.4-2.2-.6-1.5-.3-2.6-.7-3.6-1-.9-.3-1.7-.9-2.4-1.7-.7-.8-1-1.8-1-3.1s.3-2.1.9-3c.6-.9,1.5-1.6,2.7-2.1,1.2-.5,2.7-.8,4.4-.8s2.4.1,3.6.4c1.2.3,2.2.7,3.1,1.3l-1.4,3.4c-1.8-1-3.5-1.5-5.3-1.5s-2.1.2-2.7.6c-.6.4-.9.9-.9,1.6s.3,1.1,1,1.5c.7.3,1.7.6,3.1.9,1.5.3,2.6.7,3.6,1,.9.3,1.7.9,2.4,1.6.7.7,1,1.8,1,3s-.3,2.1-.9,3-1.5,1.6-2.7,2.1c-1.2.5-2.7.8-4.4.8s-3-.2-4.4-.6Z"/>
    <path class="cls-3" d="M503.2,512.1v14.7h-4v-1.7c-.6.6-1.2,1.1-2,1.5s-1.6.5-2.5.5c-1.9,0-3.5-.6-4.6-1.7-1.1-1.1-1.7-2.8-1.7-4.9v-8.3h4.3v7.7c0,2.4,1,3.5,3,3.5s1.8-.3,2.5-1,.9-1.6.9-3v-7.2h4.3Z"/>
    <path class="cls-3" d="M510,526.1c-1.2-.6-2.2-1.5-2.9-2.7s-1-2.4-1-3.9.3-2.8,1-3.9,1.7-2,2.9-2.7c1.2-.6,2.6-1,4.2-1s2.9.3,4,1c1.2.6,2,1.6,2.5,2.8l-3.3,1.8c-.8-1.3-1.9-2-3.3-2s-2,.4-2.8,1.1-1.1,1.7-1.1,3,.4,2.2,1.1,3c.7.7,1.6,1.1,2.8,1.1s2.6-.7,3.3-2l3.3,1.8c-.5,1.2-1.4,2.1-2.5,2.7-1.2.7-2.5,1-4,1s-3-.3-4.2-1Z"/>
    <path class="cls-3" d="M525.9,526.1c-1.2-.6-2.2-1.5-2.9-2.7s-1-2.4-1-3.9.3-2.8,1-3.9,1.7-2,2.9-2.7c1.2-.6,2.6-1,4.2-1s2.9.3,4,1c1.2.6,2,1.6,2.5,2.8l-3.3,1.8c-.8-1.3-1.9-2-3.3-2s-2,.4-2.8,1.1-1.1,1.7-1.1,3,.4,2.2,1.1,3c.7.7,1.6,1.1,2.8,1.1s2.6-.7,3.3-2l3.3,1.8c-.5,1.2-1.4,2.1-2.5,2.7-1.2.7-2.5,1-4,1s-3-.3-4.2-1Z"/>
    <path class="cls-3" d="M553.2,520.7h-11.1c.2.9.7,1.6,1.4,2.2.7.5,1.7.8,2.8.8s1.4-.1,2-.3c.6-.2,1.1-.6,1.6-1.1l2.3,2.5c-1.4,1.6-3.4,2.4-6,2.4s-3.1-.3-4.4-1c-1.3-.6-2.3-1.5-2.9-2.7s-1-2.4-1-3.9.3-2.7,1-3.9c.7-1.2,1.6-2.1,2.8-2.7s2.5-1,4-1,2.7.3,3.9.9c1.2.6,2.1,1.5,2.7,2.7.7,1.2,1,2.5,1,4s0,.4,0,1.1ZM543.3,516c-.7.5-1.1,1.3-1.2,2.2h7.2c-.1-.9-.5-1.7-1.2-2.2s-1.5-.8-2.4-.8-1.8.3-2.4.8Z"/>
    <path class="cls-3" d="M557.5,526.6c-1.2-.3-2.1-.7-2.8-1.1l1.4-3.1c.7.4,1.4.8,2.4,1,.9.3,1.8.4,2.7.4,1.8,0,2.7-.4,2.7-1.3s-.2-.7-.7-.9c-.5-.2-1.2-.3-2.3-.5-1.2-.2-2.2-.4-3-.6s-1.5-.7-2-1.3-.9-1.5-.9-2.6.3-1.7.8-2.5c.5-.7,1.3-1.3,2.3-1.7,1-.4,2.2-.6,3.6-.6s2.1.1,3.1.3c1,.2,1.9.5,2.5.9l-1.4,3c-1.3-.7-2.7-1.1-4.2-1.1s-1.6.1-2,.4c-.5.3-.7.6-.7,1s.2.8.7,1c.5.2,1.3.4,2.3.5,1.2.2,2.2.4,2.9.6.8.2,1.4.6,2,1.2s.8,1.4.8,2.5-.3,1.7-.8,2.4-1.3,1.3-2.4,1.6c-1,.4-2.3.6-3.7.6s-2.4-.1-3.6-.4Z"/>
    <path class="cls-3" d="M572,526.6c-1.2-.3-2.1-.7-2.8-1.1l1.4-3.1c.7.4,1.4.8,2.4,1,.9.3,1.8.4,2.7.4,1.8,0,2.7-.4,2.7-1.3s-.2-.7-.7-.9c-.5-.2-1.2-.3-2.3-.5-1.2-.2-2.2-.4-3-.6s-1.5-.7-2-1.3-.9-1.5-.9-2.6.3-1.7.8-2.5c.5-.7,1.3-1.3,2.3-1.7,1-.4,2.2-.6,3.6-.6s2.1.1,3.1.3c1,.2,1.9.5,2.5.9l-1.4,3c-1.3-.7-2.7-1.1-4.2-1.1s-1.6.1-2,.4c-.5.3-.7.6-.7,1s.2.8.7,1c.5.2,1.3.4,2.3.5,1.2.2,2.2.4,2.9.6.8.2,1.4.6,2,1.2s.8,1.4.8,2.5-.3,1.7-.8,2.4-1.3,1.3-2.4,1.6c-1,.4-2.3.6-3.7.6s-2.4-.1-3.6-.4Z"/>
    <path class="cls-3" d="M589.8,512.5h3.8v3.3h-3.7v11.1h-4.3v-11.1h-2.3v-3.3h2.3v-.7c0-1.7.5-3,1.5-4,1-1,2.4-1.5,4.2-1.5s1.2,0,1.8.2c.6.1,1,.3,1.4.6l-1.1,3.1c-.5-.3-1.1-.5-1.7-.5-1.3,0-1.9.7-1.9,2.1v.6Z"/>
    <path class="cls-3" d="M610.4,512.1v14.7h-4v-1.7c-.6.6-1.2,1.1-2,1.5s-1.6.5-2.5.5c-1.9,0-3.5-.6-4.6-1.7-1.1-1.1-1.7-2.8-1.7-4.9v-8.3h4.3v7.7c0,2.4,1,3.5,3,3.5s1.8-.3,2.5-1,.9-1.6.9-3v-7.2h4.3Z"/>
    <path class="cls-3" d="M614.4,506.6h4.3v20.2h-4.3v-20.2Z"/>
    <path class="cls-3" d="M622.6,506.6h4.3v20.2h-4.3v-20.2Z"/>
    <path class="cls-3" d="M645.3,512.1l-6.6,15.6c-.7,1.7-1.5,2.9-2.5,3.6-1,.7-2.2,1-3.6,1s-1.5-.1-2.3-.4-1.4-.6-1.8-1l1.6-3c.3.3.7.5,1.1.7.4.2.8.2,1.3.2s1.1-.1,1.4-.4c.4-.3.7-.7,1-1.4h0c0-.1-6.3-14.9-6.3-14.9h4.4l4.1,9.9,4.1-9.9h4.1Z"/>
    <path class="cls-3" d="M655,509.4c-.5-.5-.7-1-.7-1.7s.2-1.2.7-1.7,1.1-.7,1.9-.7,1.4.2,1.9.7c.5.4.7,1,.7,1.6s-.2,1.3-.7,1.8c-.5.5-1.1.7-1.9.7s-1.4-.2-1.9-.7ZM654.8,512.1h4.3v14.7h-4.3v-14.7Z"/>
    <path class="cls-3" d="M676.3,513.6c1.1,1.1,1.7,2.7,1.7,4.8v8.4h-4.3v-7.7c0-1.2-.3-2-.8-2.6-.5-.6-1.2-.9-2.2-.9s-1.9.3-2.6,1-1,1.6-1,3v7.2h-4.3v-14.7h4.1v1.7c.6-.6,1.3-1.1,2.1-1.4.8-.3,1.8-.5,2.8-.5,1.8,0,3.3.5,4.4,1.6Z"/>
    <path class="cls-3" d="M696.1,512.1l-6.2,14.7h-4.4l-6.2-14.7h4.4l4.1,10,4.2-10h4.1Z"/>
    <path class="cls-3" d="M698,509.4c-.5-.5-.7-1-.7-1.7s.2-1.2.7-1.7,1.1-.7,1.9-.7,1.4.2,1.9.7c.5.4.7,1,.7,1.6s-.2,1.3-.7,1.8c-.5.5-1.1.7-1.9.7s-1.4-.2-1.9-.7ZM697.8,512.1h4.3v14.7h-4.3v-14.7Z"/>
    <path class="cls-3" d="M715.5,526.1c-.4.3-.9.5-1.5.7s-1.2.2-1.9.2c-1.7,0-3.1-.4-4-1.3-1-.9-1.4-2.2-1.4-3.9v-6h-2.3v-3.3h2.3v-3.6h4.3v3.6h3.7v3.3h-3.7v6c0,.6.2,1.1.5,1.4.3.3.8.5,1.3.5s1.2-.2,1.7-.5l1.1,3Z"/>
    <path class="cls-3" d="M731.7,520.7h-11.1c.2.9.7,1.6,1.4,2.2.7.5,1.7.8,2.8.8s1.4-.1,2-.3c.6-.2,1.1-.6,1.6-1.1l2.3,2.5c-1.4,1.6-3.4,2.4-6,2.4s-3.1-.3-4.4-1c-1.3-.6-2.3-1.5-2.9-2.7s-1-2.4-1-3.9.3-2.7,1-3.9c.7-1.2,1.6-2.1,2.8-2.7s2.5-1,4-1,2.7.3,3.9.9c1.2.6,2.1,1.5,2.7,2.7.7,1.2,1,2.5,1,4s0,.4,0,1.1ZM721.7,516c-.7.5-1.1,1.3-1.2,2.2h7.2c-.1-.9-.5-1.7-1.2-2.2s-1.5-.8-2.4-.8-1.8.3-2.4.8Z"/>
    <path class="cls-3" d="M749.5,506.6v20.2h-4.1v-1.7c-1.1,1.3-2.6,1.9-4.6,1.9s-2.6-.3-3.7-.9c-1.1-.6-2-1.5-2.6-2.6s-1-2.5-1-4,.3-2.8,1-4c.6-1.1,1.5-2,2.6-2.6,1.1-.6,2.4-.9,3.7-.9s3.3.6,4.4,1.8v-7.1h4.3ZM744.3,522.4c.7-.7,1.1-1.7,1.1-3s-.4-2.2-1.1-3c-.7-.7-1.6-1.1-2.7-1.1s-2,.4-2.7,1.1c-.7.7-1.1,1.7-1.1,3s.4,2.2,1.1,3c.7.7,1.6,1.1,2.7,1.1s2-.4,2.7-1.1Z"/>
  </g>
  <g class="cls-1">
    <g>
      <path class="cls-2" d="M506.4,584.3h-12.1v11.8h-8.9v-11.8h-12v-8.5h12v-11.8h8.9v11.8h12.1v8.5Z"/>
      <path class="cls-2" d="M530.6,555.8v48.5h-11.2v-39.5h-9.7v-9h20.9Z"/>
      <path class="cls-2" d="M550.3,593.2c1.2,1.2,1.9,2.8,1.9,4.8s-.1,1.8-.3,2.8c-.2.9-.7,2.3-1.5,4.2l-4,10h-6.9l3.1-11c-1.2-.5-2.1-1.2-2.7-2.3-.7-1-1-2.3-1-3.6,0-2,.6-3.6,1.9-4.8,1.3-1.2,2.9-1.8,4.8-1.8s3.5.6,4.8,1.8Z"/>
      <path class="cls-2" d="M590.2,561.1c3.8,4.1,5.8,10.1,5.8,17.9s-1,10.2-3.1,14.1c-2.1,3.9-5,6.9-8.7,8.9-3.7,2-8.1,3.1-13,3.1s-5.1-.3-7.4-.9c-2.4-.6-4.4-1.4-6-2.5l4.2-8.3c2.4,1.6,5.4,2.4,9.1,2.4s7.4-1.2,9.8-3.6,3.7-5.9,3.9-10.5c-2.9,2.9-6.9,4.4-12.1,4.4s-5.9-.6-8.5-1.9c-2.5-1.2-4.6-3-6-5.3-1.5-2.3-2.2-4.9-2.2-7.9s.8-6.1,2.4-8.5c1.6-2.4,3.8-4.3,6.6-5.7,2.8-1.3,5.9-2,9.3-2,6.8,0,12.1,2.1,15.9,6.2ZM581.1,575.8c1.5-1.4,2.3-3.1,2.3-5.2s-.8-3.9-2.3-5.2c-1.5-1.3-3.6-2-6.2-2s-4.4.6-5.9,1.9c-1.5,1.3-2.3,3.1-2.3,5.3s.8,4,2.3,5.3c1.5,1.3,3.5,2,6,2s4.4-.7,6-2Z"/>
      <path class="cls-2" d="M633.2,575.7c2.5,1.2,4.6,3,6,5.3,1.5,2.3,2.2,4.9,2.2,7.9s-.8,6.1-2.4,8.5c-1.6,2.5-3.8,4.3-6.6,5.7-2.8,1.3-5.9,2-9.3,2-6.8,0-12.1-2.1-15.9-6.2-3.8-4.2-5.8-10.1-5.8-17.8s1-10.2,3.1-14.1c2.1-3.9,5-6.9,8.7-8.9,3.7-2,8-3.1,12.9-3.1s5.1.3,7.5.9c2.4.6,4.4,1.4,6.1,2.5l-4.2,8.3c-2.4-1.6-5.4-2.4-9.1-2.4s-7.4,1.2-9.8,3.6c-2.4,2.4-3.7,5.9-3.9,10.5,2.9-2.9,6.9-4.3,12-4.3s5.9.6,8.5,1.9ZM628.3,594.8c1.5-1.3,2.3-3.1,2.3-5.3s-.8-4-2.3-5.3c-1.5-1.3-3.5-2-6-2s-4.5.7-6,2c-1.6,1.4-2.4,3.1-2.4,5.2s.8,3.9,2.3,5.2c1.5,1.3,3.6,2,6.2,2s4.4-.6,5.9-1.9Z"/>
      <path class="cls-2" d="M678,580.3c2.3,2.5,3.4,5.5,3.4,9.2s-.7,5.4-2.2,7.8c-1.5,2.4-3.7,4.3-6.8,5.7-3,1.4-6.7,2.1-11.1,2.1s-6.8-.5-10.1-1.4c-3.3-.9-6.1-2.2-8.4-3.8l4.4-8.6c1.8,1.4,4,2.5,6.4,3.2s4.9,1.1,7.5,1.1,5-.5,6.7-1.6c1.6-1.1,2.4-2.6,2.4-4.6,0-4-3-6-9.1-6h-5.1v-7.4l10-11.3h-20.7v-9h34v7.3l-11,12.5c4.3.7,7.5,2.3,9.8,4.7Z"/>
    </g>
  </g>
</svg>