<?xml version="1.0" encoding="UTF-8"?>
<svg id="OBJECTS" xmlns="http://www.w3.org/2000/svg" version="1.1" viewBox="0 0 835 637.3">
  <defs>
    <style>
      .cls-1 {
        fill: #9b4aa7;
      }

      .cls-1, .cls-2, .cls-3, .cls-4, .cls-5, .cls-6 {
        stroke-width: 0px;
      }

      .cls-2 {
        fill: #222534;
      }

      .cls-3 {
        fill: #edeef2;
      }

      .cls-4 {
        fill: #c9ccd8;
      }

      .cls-5 {
        fill: #d9dadd;
      }

      .cls-6 {
        fill: #989899;
      }
    </style>
  </defs>
  <g>
    <g>
      <path class="cls-3" d="M636.7,448.9s-1.1,13.2-.2,17.5c.5,2.3,3,7,1.8,9.2-1.2,2.2-2.5,2.7-2.5,2.7l-30.5.5c-1.7,0-.6-1,.8-2,2.2-1.6,4-2.6,11-6,.5-.2,2.1-1.3,2.7-1.6,1.5-.9,3-2.3,4.4-3.8,2.2-2.4,2.4-14,2.4-14l10.2-2.5Z"/>
      <path class="cls-2" d="M612.9,273.6s-13.1-6.5-10.6,7.6c2.5,14,21.7,171.9,21.7,171.9l18,1s2.3-52.6,1.8-60.2c-.5-7.6-3.5-19.2-3.5-19.2l-1.5-46.7-16.9-57.6-8.9,3.3Z"/>
      <path class="cls-6" d="M619.9,469.2c8.1,2,14,.7,17.3-.7.9,2.4,2,5.4,1.4,7.1-.7,2.1-1.7,3.1-2.6,3.1-7.4.2-27,0-32.6,0-.8,0-1.2-.9-.7-1.5,1.4-1.6,16.7-7.8,17.3-8.1Z"/>
      <path class="cls-3" d="M602.4,178.8s-11.1-21.3-12.8-29.1c-1.7-7.8-7.7-47.2-7.2-49.7.5-2.5,9.9-8.6,8.7-10.8-1.2-2.2-10.1-2.2-12.2-2-2.1.2-6.2,1.4-7.9,2.8-1.8,1.5,2,48.6,3.1,58.8,1.1,10.2,14.9,41.4,14.9,41.4l13.3-11.5Z"/>
      <g>
        <path class="cls-3" d="M688.6,344.7s9.1-9.6,11.2-13.4c1.1-2.1,2.1-7.4,4.3-8.3,2.3-.9,3.7-.5,3.7-.5l24,18.8c1.3,1-.2,1.1-1.9,1.1-2.7-.2-4.7-.5-12.3-2.3-.5-.1-2.4-.4-3.1-.5-1.8-.2-3.8,0-5.8.2-3.2.5-10.7,9.4-10.7,9.4l-9.4-4.5Z"/>
        <path class="cls-6" d="M714.5,339.6c-5-6.7-10.5-9.3-13.9-10.4.8-2.4,1.8-5.5,3.3-6.5,1.9-1.2,3.2-.9,4-.4,5.8,4.5,21.1,16.8,25.5,20.2.6.5.4,1.5-.4,1.6-2.1.4-17.8-4.5-18.5-4.6Z"/>
        <path class="cls-2" d="M688.8,172.3c-5.7-11.9-18.3-18.5-30.5-15.3-4.4-5.9-11.1-10.1-18.2-11.1-13.9-2-31.8,4.8-30,19.3-4.4,10.1-3.3,24.1,5.5,31-1.6,13.3,11.8,25.2,27.6,23.6,6.4,8.8,17.4,13.9,27.8,11.9,2.5-.5,6.3-1.4,6.9-1.3-.8,0,18,12.3,31-9.7,13.3-22.4.2-47.5-20.1-48.4Z"/>
        <path class="cls-2" d="M607.7,278.7s29.4-13.1,29.8-11.6c3.7,11.9,15.1,8,21.9,28.9,2.8,8.7,5.8,66.9,5.8,66.9,0,0,11.6-9.6,28.1-26.4,1.3-1.3,13.7,10.5,13.7,10.5-32.8,44.4-47,46.7-52.5,44.2-11.4-5.2-35.6-77.7-35.5-77.7-2.9-5.6-11.3-34.9-11.3-34.9Z"/>
        <path class="cls-3" d="M656.3,196.8s42.4,0,51.5-.6c8.2-.5,40.8.4,42.1.2,1.3-.1,9.7-14.4,11.1-12.9,1.4,1.5-4.7,7.1-2.8,8.5,1.9,1.4,22.1-1.8,21.9-.3-.5,2.8-12.3,2.4-12.3,3.8,0,1.4,12.4-.8,13.2,1.5.8,2.2-11.9.9-12.4,1.9-.5,1,11.8,2.8,10.5,4.9-.7,1.1-10.9-1.9-10.8-.3,0,1.5,7.5,5.1,6.6,6.3-.9,1.2-5.8-3.8-10.2-3.8-4.3,0-7.4-2.3-14.3-.4-3.4.9-29.4,4.1-51.4,6-22.5,1.9-41,2.5-41,2.5l-1.6-17.3Z"/>
        <path class="cls-4" d="M668.9,217.3c3-4.5-.7-23.2-.7-23.2,0,0-11.4-.4-20.4-.1h0c-3.8,0-23.9.6-29.7.7-.9,0-2.9-.9-3-.9-6-3.1-13.7-20.5-13.7-20.5-7.6,0-15,14.1-15,14.1,1.6,3,6,18.1,8,25.1-.3,2.3-1.6,7.5-1.1,14.3,1.1,13.8,6.8,50.1,8.9,54.4,1.8,3.7,40.8-6.9,38.2-9.5-5.5-5.5-9.5-20.5,4.9-48.8h0c0,0,0-.2.1-.3,0,0,0,0,0,0,2.1-2,23.2-5.2,23.2-5.2Z"/>
        <path class="cls-3" d="M630.5,183s-.5,10.2,0,14.5c.5,4.3-4.4,14.2-13.4,14.4-9,.2-1.3-9.6-.5-13.8.8-4.2,1.7-20.6,1.7-20.6l12.2,5.5Z"/>
        <path class="cls-5" d="M618.3,177.5s-.2,3.8-.5,8.2c2.8,3.4,7.2,5.1,12.5,3.1,0-3.2.2-5.8.2-5.8l-12.2-5.5Z"/>
        <path class="cls-3" d="M631.3,152.5s5.1,1.5,8,6.6c2.9,5.1,4.1,19.6-6.9,25.6-11,6-18.6-4.1-18.1-13.4.5-9.3,3.3-21.5,17-18.9Z"/>
        <path class="cls-3" d="M612,168.4c.7,2.3,2.4,3.8,3.8,3.4s1.8-2.6,1.1-4.9c-.7-2.3-2.4-3.8-3.8-3.4s-1.8,2.6-1.1,4.9Z"/>
        <path class="cls-2" d="M629.7,152.1s5.6,15.3,11.3,17c5.7,1.7,5.1,9.2,5.1,9.2,0,0,1.1-17.2-4.1-21.6-5.2-4.3-12.3-4.6-12.3-4.6Z"/>
        <path class="cls-3" d="M638.5,172.1c-.9,2.4-.4,4.8,1.2,5.4,1.6.6,3.6-.8,4.6-3.1.9-2.4.4-4.8-1.2-5.4-1.6-.6-3.6.8-4.6,3.1Z"/>
      </g>
      <path class="cls-5" d="M569.5,93.6s12.4.5,13.9.5,5.7-4.4,5.7-4.4l-19.6,3.8Z"/>
    </g>
    <path class="cls-5" d="M583.3,94.2l5.1-4.6s-2.4-2.9-1.4-3.5c1.6-.9,4.4,2.6,4.2,3.4-.2.8-3.3,3.6-3.3,3.6l-4.6,1Z"/>
  </g>
  <polygon class="cls-1" points="593.1 8.2 572.9 23 549.2 14.8 557 38.6 541.9 58.6 567 58.4 581.3 79 588.9 55.1 612.9 47.9 592.6 33.2 593.1 8.2"/>
</svg>