<?xml version="1.0" encoding="UTF-8"?>
<svg id="OBJECTS" xmlns="http://www.w3.org/2000/svg" version="1.1" viewBox="0 0 835 432.4">
  <defs>
    <style>
      .cls-1 {
        fill: #222534;
      }

      .cls-1, .cls-2, .cls-3, .cls-4, .cls-5 {
        stroke-width: 0px;
      }

      .cls-2 {
        fill: #edeef2;
      }

      .cls-3 {
        fill: #c9ccd8;
      }

      .cls-4 {
        fill: #d9dadd;
      }

      .cls-5 {
        fill: #989899;
      }
    </style>
  </defs>
  <g>
    <path class="cls-1" d="M169,183.2l-92.1,86.7c-1.8,1.7-4.1,2.2-5.1,1.2l-3.1-3.3c-1-1-.3-3.3,1.5-5l92.1-86.7c1.8-1.7,4.1-2.2,5.1-1.2l3.1,3.3c1,1,.3,3.3-1.5,5Z"/>
    <path class="cls-5" d="M117.3,231.8l-40.4,38c-1.8,1.7-4.1,2.2-5.1,1.2l-3.1-3.3c-1-1-.3-3.3,1.5-5l40.4-38,6.7,7.1Z"/>
    <path class="cls-1" d="M147.8,150.5c3.5,11.6,10.1,22.6,19.6,31.5,29,27.3,74.7,25.9,102-3.1,27-28.7,26-73.5-2-100.9-.4-.4-.7-.7-1.1-1.1-29-27.3-74.7-25.9-102,3.1-18.4,19.5-23.8,46.6-16.5,70.5ZM168.4,83.9c15.9-16.9,38.5-23.6,59.8-19.9,12.4,2.1,24.3,7.8,34.2,17.1,26.7,25.2,28,67.2,2.9,94-9.3,9.8-20.8,16.2-33,19.1-21,5-44-.4-60.9-16.3-26.7-25.2-28-67.2-2.9-94Z"/>
  </g>
  <g>
    <path class="cls-1" d="M42.1,407.3s.7,11.9,3,12c.3,0,11.6,0,11.6,0h14.5c0,0,0-3.6-4.3-4.3-4.2-.7-11.3-3.7-13.9-9.3-2.7-5.9-10.9,1.6-10.9,1.6Z"/>
    <path class="cls-1" d="M41.2,408.1s4.4,1.5,7.8,1.5,7.3-1,7.3-1c0,0,.8-8,5.4-25.6,2.4-9.2,5.8-21.1,10.6-35.9,13.4-40.8,17.5-64.7,17.9-67,0-.1,0-.2,0-.2h0s-41.2-18.1-41.2-18.1c0,0,5.1,56.3-1.4,77.8-.9,3-1.7,6.5-2.4,10.3-4.1,23.5-4,58.2-4,58.2Z"/>
    <path class="cls-1" d="M61.8,382.9c2.4-9.2,5.8-21.1,10.6-35.9,13.4-40.8,17.5-64.7,17.9-67,0,0,0-.1,0-.2l-41.2-18.1s5.1,56.3-1.4,77.8c-.9,3,14.1,43.3,14.1,43.3Z"/>
    <path class="cls-1" d="M74.3,407.3s.7,11.9,3,12c.3,0,11.6,0,11.6,0h14.5c0,0,0-3.6-4.3-4.3-4.2-.7-11.3-3.7-13.9-9.3-2.7-5.9-10.9,1.6-10.9,1.6Z"/>
    <path class="cls-1" d="M97.7,263.1s.5,36.5-5.8,81.2c-6.3,44.8-4.2,63.8-4.2,63.8,0,0-4.3,1.4-6.1,1.5-4.5.4-9-1-9-1,0,0-9-44.8-6.4-67.2,2.6-22.4-12.4-76.9-12.4-76.9l43.8-1.4Z"/>
    <path class="cls-4" d="M68.4,177.8l8.1,5.3,7.3-2.1c1.3-1.9,1.7-5.6,1.7-8.8,0-3.2-.3-5.9-.3-5.9l-10.9-4.8-4.1-1.8c0,0,.3,3.3.4,3.8.8,8.5-2.3,14.2-2.3,14.2Z"/>
    <path class="cls-3" d="M97.8,273.2c-10,9.7-47.9,8-50.3-2.6-2.3-10.7,2.5-90.7,19.7-95.8,3.6-1,22.5,5.1,22.5,5.1,0,0,3,7.8,4.9,17.7.4,1.9,1.5,22.4,2.3,41.5.4,9,.7,17.6.9,24,.2,5.9.2,9.8,0,10.1Z"/>
    <path class="cls-2" d="M71.5,163.7c2.2,3.7,9.9,7,14,8.5,0-3.2-.3-5.9-.3-5.9l-10.9-4.8c-2.4,0-3.9.5-2.9,2.2Z"/>
    <path class="cls-2" d="M89.3,165.7s-17.5,5.5-20.7-5.5c-3.2-10.9-7.7-17.6,3.4-21.6,11-3.9,14.5-.4,16.4,3,2,3.4,5.4,22.4.9,24.1Z"/>
    <path class="cls-1" d="M87.7,140.6s-1.1,12.7-3.8,12.2c-2.6-.6-5.5-1.7-5.2,2.1.4,3.8-2.6,10.4-6.4,10.4-8.1,0-17-20.9-14.8-24.9,6.4-11.4,39.3-13.8,30,.2Z"/>
    <path class="cls-3" d="M85.1,175.1c-.2,0-13-5.8-14.5-5.3-1.5.5-3.4,5.1-3.4,5.1l22.5,5.1s-1.8-3.6-4.7-4.8Z"/>
    <g>
      <path class="cls-2" d="M160.1,186.3c1.1-2.6.5-5.4.4-5.9,0,0,.8-.9,2,1.7.1.2.4.7.6,1.1,0,.2.3.2.4,0,1-1.2,1.5-2.9,3.8-5.1.3-.3,1.2.2,1.6.5.6.5,1.3.9,1.7,2.2.2.8,0,2.3-.8,5.6-.3,1.2-2.6,3.8-5.3,5.7l-2.4,1.4-3.4-3.4.5-.4c.8-.7.5-2.4.9-3.4Z"/>
      <path class="cls-3" d="M66.2,196.7s-15.2,32.8,53.4,25.4c11-1.2,42.8-27.3,42.8-27.3,0,0-.4-5.3-3.9-5.2,0,0-32.1,10.7-38.1,13.8-2.7,1.4-31.9-9.9-40.4-10.5-8.5-.7-13.8,3.9-13.8,3.9Z"/>
    </g>
  </g>
</svg>