<?xml version="1.0" encoding="UTF-8"?>
<svg id="OBJECTS" xmlns="http://www.w3.org/2000/svg" version="1.1" viewBox="0 0 835 432.4">
  <defs>
    <style>
      .cls-1 {
        fill: #f3f4f6;
      }

      .cls-1, .cls-2, .cls-3, .cls-4, .cls-5, .cls-6, .cls-7, .cls-8, .cls-9, .cls-10, .cls-11, .cls-12, .cls-13 {
        stroke-width: 0px;
      }

      .cls-2 {
        fill: #9b4aa7;
      }

      .cls-14 {
        fill: none;
        stroke: #3f3f5b;
        stroke-linecap: round;
        stroke-miterlimit: 10;
        stroke-width: 1.4px;
      }

      .cls-3 {
        fill: #222534;
      }

      .cls-4 {
        fill: #732e7f;
      }

      .cls-5 {
        fill: #bdc0cf;
      }

      .cls-6 {
        fill: #e5e7ec;
      }

      .cls-7 {
        fill: #c9ccd8;
      }

      .cls-8 {
        fill: #c1c5d2;
      }

      .cls-9 {
        fill: #dddfe6;
      }

      .cls-10 {
        fill: #d3d5df;
      }

      .cls-11 {
        fill: #fff;
      }

      .cls-12 {
        fill: #000;
        opacity: .3;
      }

      .cls-13 {
        fill: #92c426;
      }
    </style>
  </defs>
  <g>
    <rect class="cls-6" x="146.8" y="5.2" width="564.3" height="383.3" rx="36.9" ry="36.9"/>
    <path class="cls-10" d="M711,58.6v-13.4c0-22.1-15.3-40.1-34.2-40.1H180.9c-18.9,0-34.2,17.9-34.2,40.1v13.4h564.3Z"/>
    <circle class="cls-11" cx="182.2" cy="32" r="11.8"/>
    <circle class="cls-11" cx="228.7" cy="32" r="11.8"/>
    <circle class="cls-11" cx="272.8" cy="32" r="11.8"/>
  </g>
  <rect class="cls-11" x="288.4" y="78.2" width="393.5" height="281.7" rx="22.9" ry="22.9"/>
  <g>
    <rect class="cls-8" x="423.6" y="202.3" width="21.5" height="128.5"/>
    <rect class="cls-10" x="386.9" y="234.3" width="21.5" height="96.5"/>
    <rect class="cls-10" x="464.2" y="233" width="21.5" height="97.8"/>
    <rect class="cls-9" x="351.1" y="263.9" width="21.5" height="66.9"/>
    <path class="cls-10" d="M323.1,195.5c-.3,0-.7-.1-1-.4-.6-.5-.6-1.4,0-2l5.2-5.6c.3-.3.6-.5,1-.5h0c.4,0,.8.2,1,.5l4.7,5.2c.5.6.5,1.5,0,2-.6.5-1.5.5-2,0l-3.7-4-4.1,4.5c-.3.3-.7.5-1,.5Z"/>
    <path class="cls-10" d="M541.8,326.3c0-.3.1-.7.4-1,.5-.6,1.4-.6,2,0l5.6,5.2c.3.3.5.6.5,1h0c0,.4-.2.8-.5,1l-5.2,4.7c-.6.5-1.5.5-2,0-.5-.6-.5-1.5,0-2l4-3.7-4.5-4.1c-.3-.3-.5-.7-.5-1Z"/>
    <path class="cls-10" d="M328.1,342.5c-.8,0-1.4-.6-1.4-1.4v-151c0-.8.6-1.4,1.4-1.4s1.4.6,1.4,1.4v151c0,.8-.6,1.4-1.4,1.4Z"/>
    <path class="cls-10" d="M546.7,332.7h-228.6c-.8,0-1.4-.6-1.4-1.4s.6-1.4,1.4-1.4h228.6c.8,0,1.4.6,1.4,1.4s-.6,1.4-1.4,1.4Z"/>
    <rect class="cls-9" x="504" y="261.8" width="21.5" height="69.5"/>
  </g>
  <path class="cls-1" d="M643.1,112h-221.5c-4.8,0-8.7-1.8-8.7-4.1v-4c0-2.3,3.9-4.1,8.7-4.1h221.5c4.8,0,8.7,1.8,8.7,4.1v4c0,2.3-3.9,4.1-8.7,4.1Z"/>
  <path class="cls-1" d="M611.8,134.7h-191.4c-4.1,0-7.5-1.8-7.5-4.1v-4c0-2.3,3.4-4.1,7.5-4.1h191.4c4.1,0,7.5,1.8,7.5,4.1v4c0,2.3-3.4,4.1-7.5,4.1Z"/>
  <path class="cls-1" d="M537.1,157.7h-119.6c-2.6,0-4.7-1.8-4.7-4.1v-4c0-2.3,2.1-4.1,4.7-4.1h119.6c2.6,0,4.7,1.8,4.7,4.1v4c0,2.3-2.1,4.1-4.7,4.1Z"/>
  <g>
    <path class="cls-10" d="M358.3,128.9l-30.1-4.2c2.1-15.1,14.9-26.2,30.1-26.2v30.4Z"/>
    <path class="cls-9" d="M358.3,128.9l-23,20c-6-6.9-8.4-15.1-7.2-24.2l30.1,4.2Z"/>
    <path class="cls-5" d="M358.3,128.9l23.3,19.6c-10.8,12.9-30,14.6-42.9,3.8-1.2-1-2.4-2.2-3.4-3.3l23-20Z"/>
    <path class="cls-9" d="M358.3,128.9l23-20c10,11.5,10.2,27.8.3,39.5l-23.3-19.6Z"/>
    <path class="cls-1" d="M358.3,128.9v-30.4c9.2,0,17,3.6,23,10.5l-23,20Z"/>
  </g>
  <circle class="cls-11" cx="358.3" cy="129.2" r="20.2"/>
  <g>
    <circle class="cls-13" cx="216.9" cy="129.9" r="48.2"/>
    <path class="cls-11" d="M244.1,157h-54.4s8.3-27.8,27.5-27.8,26.9,27.8,26.9,27.8Z"/>
    <circle class="cls-11" cx="217.3" cy="110.3" r="14.8"/>
  </g>
  <rect class="cls-11" x="170" y="188.5" width="94.5" height="11.4" rx="3.6" ry="3.6"/>
  <rect class="cls-11" x="170" y="216.2" width="94.5" height="11.4" rx="3.6" ry="3.6"/>
  <rect class="cls-11" x="170" y="243.6" width="94.5" height="11.4" rx="3.6" ry="3.6"/>
  <path class="cls-14" d="M253.8,372"/>
  <path class="cls-14" d="M255.8,379"/>
  <path class="cls-14" d="M252.1,378.3"/>
  <circle class="cls-4" cx="645.4" cy="346.8" r="85.6"/>
  <circle class="cls-2" cx="643.1" cy="341.3" r="85.6"/>
  <circle class="cls-11" cx="643.1" cy="341.3" r="66.6"/>
  <circle class="cls-2" cx="643.1" cy="341.3" r="46.9" transform="translate(-53 554.7) rotate(-45)"/>
  <circle class="cls-11" cx="643.1" cy="341.3" r="24.7" transform="translate(-53 554.7) rotate(-45)"/>
  <polygon class="cls-7" points="709.3 271.9 707 253.7 725.6 233.8 726.9 253.5 709.3 271.9"/>
  <polygon class="cls-7" points="749.2 257.4 730.4 255.9 711.5 274.1 730.4 276.1 749.2 257.4"/>
  <path class="cls-12" d="M643.1,342.7l70.3-50.3c-2.2-3.3-5.8-7.7-8.9-11l-60.2,58.2-1.2,3.2Z"/>
  <path class="cls-3" d="M729.7,249.7c-2.9,3-5.9,6-8.8,8.9-7.1,7.2-14.1,14.3-21.2,21.5-8.5,8.6-17,17.2-25.5,25.9-7.4,7.5-14.8,15-22.2,22.5-3.6,3.6-7.3,7.2-10.8,10.9,0,0-.1.1-.2.2-2.1,2.1,1.2,5.4,3.3,3.3,2.9-3,5.9-6,8.8-8.9,7.1-7.2,14.1-14.3,21.2-21.5,8.5-8.6,17-17.2,25.5-25.9,7.4-7.5,14.8-15,22.2-22.5,3.6-3.6,7.3-7.2,10.8-10.9,0,0,.1-.1.2-.2,2.1-2.1-1.2-5.4-3.3-3.3h0Z"/>
</svg>