<?xml version="1.0" encoding="UTF-8"?>
<svg id="OBJECTS" xmlns="http://www.w3.org/2000/svg" version="1.1" viewBox="0 0 835 539.8">
  <defs>
    <style>
      .cls-1 {
        fill: #959bb2;
      }

      .cls-1, .cls-2, .cls-3, .cls-4, .cls-5 {
        stroke-width: 0px;
      }

      .cls-2 {
        fill: #9b4aa7;
      }

      .cls-3 {
        fill: #222534;
      }

      .cls-4 {
        fill: #edeef2;
      }

      .cls-5 {
        fill: #c9ccd8;
      }
    </style>
  </defs>
  <path class="cls-2" d="M501.9,205.6c-15,0-27.1-12.2-27.1-27.1s12.2-27.1,27.1-27.1,27.1,12.2,27.1,27.1-12.2,27.1-27.1,27.1ZM501.9,160.9c-9.7,0-17.5,7.9-17.5,17.5s7.9,17.5,17.5,17.5,17.5-7.9,17.5-17.5-7.9-17.5-17.5-17.5Z"/>
  <g>
    <path class="cls-4" d="M612.2,442.3s1.6,6.4,1.9,7.4c.2,1,10.3-1.7,10.3-1.7v-7.8s-11,1.1-12.1,2.2Z"/>
    <path class="cls-3" d="M613.9,448.9s-2.8,4.3-5.8,6.3c-2.9,2-14.3,4.7-16,6.7-1.2,1.4-2.9,6.8,15.4,4.4,13-1.7,19.4-1.3,20.5-3.6,1.2-2.3-3.7-15.4-3.7-15.4,0,0-2.8,1.5-10.5,1.6Z"/>
    <g>
      <rect class="cls-1" x="567.3" y="252.7" width="4.6" height="277.4" transform="translate(-35 56.6) rotate(-5.5)"/>
      <rect class="cls-1" x="641.6" y="245.5" width="4.6" height="277.4" transform="translate(-34 63.7) rotate(-5.5)"/>
      <g>
        <rect class="cls-1" x="557" y="255.9" width="74.7" height="4.6" transform="translate(-22.2 58.7) rotate(-5.5)"/>
        <rect class="cls-1" x="560.3" y="290.5" width="74.7" height="4.6" transform="translate(-25.5 59.1) rotate(-5.5)"/>
        <rect class="cls-1" x="563.7" y="325.1" width="74.7" height="4.6" transform="translate(-28.8 59.6) rotate(-5.5)"/>
        <rect class="cls-1" x="567" y="359.6" width="74.7" height="4.6" transform="translate(-32.1 60) rotate(-5.5)"/>
        <rect class="cls-1" x="570.4" y="394.2" width="74.7" height="4.6" transform="translate(-35.4 60.5) rotate(-5.5)"/>
        <rect class="cls-1" x="573.7" y="428.7" width="74.7" height="4.6" transform="translate(-38.8 61) rotate(-5.5)"/>
        <rect class="cls-1" x="577.1" y="463.3" width="74.7" height="4.6" transform="translate(-42.1 61.5) rotate(-5.5)"/>
        <rect class="cls-1" x="580.4" y="497.8" width="74.7" height="4.6" transform="translate(-45.4 62) rotate(-5.5)"/>
      </g>
    </g>
    <path class="cls-3" d="M599.8,307.3s-7.3,27.2-9.2,36.9c-1.7,8.5-5.1,31-5.5,36.4-.5,5.4,21.6,57.2,23.9,66.6l20.1-3.2s-21.2-54-15.7-66c8.2-17.8,9.3-17.3,15.8-32,6.5-14.7,21.3-15.1,25.3-42.3,0,0-49.3-5-54.7,3.7Z"/>
    <path class="cls-4" d="M635.6,175.2s-13.4-5-19.5,5.2c-6.2,10.2-5.6,30.5,1.2,33,6.7,2.5,16.9,1.2,20.3-5.2,3.4-6.4,6.6-15.6,6.4-21.7-.1-6.1-4.8-9.6-8.4-11.3Z"/>
    <path class="cls-4" d="M619.5,212.8s.5,3.5-.4,5.2c-.9,1.7,16.8,1.8,16.8,1.8,0,0,1.4-9.4,4.2-17.3,2.7-7.9-20.6,10.3-20.6,10.3Z"/>
    <path class="cls-3" d="M640.1,202.5s-1.2,2-6.2,1.2c-5-.8-11.1-7.4-13.2-8.1-2.1-.7-2.1-2-2.1-2l-1.3,1.9h-2.2c0,.1,2-5.8-1-8.2-3-2.4,3.2-19.2,19.1-13.6,0,0,12.3,3.4,11.8,10.4-.4,7-2.2,14.9-5,18.4Z"/>
    <path class="cls-4" d="M619,191.1c.3-1.2,3.3-4.5,4.4-.9,1.1,3.6-1.7,8.4-3.3,8-1.6-.4-1.8-4.1-1.1-7.1Z"/>
    <path class="cls-5" d="M669.9,263.9c-.1,1.8-2.1,3.6-3.5,4.6-.9.6-1.9,1-3,1h-.8s0,0,0,0l-13.9.5s-10.3-33.4,9-46.1c.6,0,13.5,23.9,12.2,40Z"/>
    <path class="cls-5" d="M619.5,217s10.9-2.5,17-.5l.9.9s1.9,3.6-5.2,3.9c-7,.3-18.1.8-12.8-4.3Z"/>
    <path class="cls-4" d="M662,472.3s1.6,6.4,1.9,7.4c.2,1,10.3-1.7,10.3-1.7v-7.8s-11,1.1-12.1,2.2Z"/>
    <path class="cls-3" d="M654.5,303.6s3.7,15.1,4.8,30.3c1,14,2.8,29.3,4.3,44,1.6,16.3,6.2,42.7,6.5,51.4.2,8.7,7.6,46.9,7.6,46.9l-18.8,2.2s-12.2-67.4-15.1-74.3c-2.9-6.9-17.2-56-17.7-61.5-.5-5.5,28.5-38.9,28.5-38.9Z"/>
    <path class="cls-3" d="M663.7,478.9s-2.8,4.3-5.8,6.3c-2.9,2-14.3,4.7-16,6.7-1.2,1.4-2.9,6.8,15.4,4.4,13-1.7,19.4-1.3,20.5-3.6,1.2-2.3-3.7-15.4-3.7-15.4,0,0-2.8,1.5-10.5,1.6Z"/>
    <path class="cls-5" d="M596,341.2c-1.6-.2,4-47.9,3.5-50.9-.3-2-.2-17.5-.1-27.2l-1.7-9.8c-1-.7-2.3-1.5-3.8-2.4-2.4-1.4-5.5-3-8.8-4.7.4-2.3.7-4.1.8-5.2.8-8.6,6.6-13.1,9.9-15.1,1.3-.8,2.3-1.1,2.3-1.1,1.2-.5,2.5-1,3.6-1.5,7.9-3.2,17.9-6.3,17.9-6.3h16.1s12.2,2.4,19.5,5.4c.9.4,1.8.9,2.6,1.4l-2.2,45.9s0,0,0,0c0,0,0,0,0,0-1,6.5-2,14.1-2.4,19.4-.1,2.2,2.3,13.9,3.6,24.6l4.5,25.7s-2.6,10.6-65.4,1.7Z"/>
    <path class="cls-4" d="M513.9,192.5s1,1.2,1.6,1.5c0,0,1.3.5,2.1.9.3.1.5.2.7.3.6.4,1.8,1.4,3.6,1.9,1.7.5,9.5,2.3,9.5,2.3l1.8-4.6,1.3-3.7s-7.2-9.3-8.7-10c-.2,0-.3-.1-.5-.2-1.4-.4-2.6-.2-3.3-.3-.3,0-3-.4-3.6.2-.8.8-1.1,1.7-.9,2.4,0,0-1.5,1.6-1.7,3.1,0,0-1.5,1.5-1.1,3.4,0,0-1.3,1.6-.8,2.8Z"/>
    <path class="cls-5" d="M597.2,252.9c-1.8-1.2-4.1-2.7-12.2-6.7-15-7.5-33.4-21.1-36.9-23-5.4-3-22.5-23.9-22.5-23.9.9-3.1,9-9.4,9-9.4,0,0,25.9,24.5,31.5,27.5,4.9,2.6,28.9,5.2,35.5,5.9,1.1.1,1.7.2,1.7.2,6.9,9.4-2.2,32-6.1,29.5Z"/>
  </g>
</svg>