<?xml version="1.0" encoding="UTF-8"?>
<svg id="OBJECTS" xmlns="http://www.w3.org/2000/svg" version="1.1" viewBox="0 0 835 539.8">
  <defs>
    <style>
      .cls-1 {
        fill: #f3f4f6;
      }

      .cls-1, .cls-2, .cls-3, .cls-4, .cls-5, .cls-6 {
        stroke-width: 0px;
      }

      .cls-2 {
        fill: #9b4aa7;
      }

      .cls-7, .cls-5 {
        fill: #92c426;
      }

      .cls-3 {
        fill: #d3d5df;
      }

      .cls-4 {
        fill: #fff;
      }

      .cls-6 {
        fill: #dfe0e8;
      }
    </style>
  </defs>
  <g>
    <rect class="cls-3" x="285.3" y="3.4" width="271.1" height="520.2" rx="38.6" ry="38.6" transform="translate(841.6 527) rotate(180)"/>
    <g>
      <path class="cls-4" d="M427.2,19.9h-25c-1.2,0-2.2-1-2.2-2.2s1-2.2,2.2-2.2h25c1.2,0,2.2,1,2.2,2.2s-1,2.2-2.2,2.2Z"/>
      <path class="cls-4" d="M438.2,19.9c-.3,0-.6,0-.9-.2-.3-.1-.5-.3-.7-.5-.2-.2-.4-.5-.5-.7-.1-.3-.2-.6-.2-.9s0-.3,0-.4c0-.1,0-.3.1-.4,0-.1.1-.3.2-.4,0-.1.2-.2.3-.3.5-.5,1.3-.8,2-.6.1,0,.3,0,.4.1.1,0,.3.1.4.2.1,0,.2.2.3.3,0,0,.2.2.3.3,0,.1.2.2.2.4,0,.1,0,.3.1.4,0,.2,0,.3,0,.4,0,.3,0,.6-.2.9-.1.3-.3.5-.5.7-.2.2-.5.4-.7.5-.1,0-.3,0-.4.1-.1,0-.3,0-.4,0Z"/>
    </g>
    <path class="cls-1" d="M517.2,15.2h-22.8c-3.7,0-7.1,1.9-9.1,5.1l-4.4,7.1c-2,3.1-5.4,5.1-9.1,5.1h-103.1c-3.7,0-7.1-1.9-9.1-5.1l-4.4-7.1c-2-3.1-5.4-5.1-9.1-5.1h-22.8c-16.6,0-30,13.5-30,30v439.1c0,16.6,13.5,30,30,30h194c16.6,0,30-13.5,30-30V45.3c0-16.6-13.5-30-30-30Z"/>
  </g>
  <g>
    <rect class="cls-4" x="307.4" y="309.5" width="68.8" height="68.8" rx="2.8" ry="2.8"/>
    <rect class="cls-4" x="386.4" y="309.5" width="68.8" height="68.8" rx="2.8" ry="2.8"/>
    <rect class="cls-4" x="465.4" y="309.5" width="68.8" height="68.8" rx="2.8" ry="2.8"/>
  </g>
  <g>
    <rect class="cls-4" x="307.4" y="220.1" width="68.8" height="68.8" rx="2.8" ry="2.8"/>
    <rect class="cls-4" x="386.4" y="220.1" width="68.8" height="68.8" rx="2.8" ry="2.8"/>
    <rect class="cls-4" x="465.4" y="220.1" width="68.8" height="68.8" rx="2.8" ry="2.8"/>
  </g>
  <g>
    <rect class="cls-4" x="307.4" y="130.6" width="68.8" height="68.8" rx="2.8" ry="2.8"/>
    <rect class="cls-4" x="386.4" y="130.6" width="68.8" height="68.8" rx="2.8" ry="2.8"/>
    <rect class="cls-4" x="465.4" y="130.6" width="68.8" height="68.8" rx="2.8" ry="2.8"/>
  </g>
  <rect class="cls-4" x="338.7" y="436.3" width="166.2" height="41.2" rx="6.4" ry="6.4"/>
  <path class="cls-2" d="M340,371.7c-15,0-27.1-12.2-27.1-27.1s12.2-27.1,27.1-27.1,27.1,12.2,27.1,27.1-12.2,27.1-27.1,27.1ZM340,327c-9.7,0-17.5,7.9-17.5,17.5s7.9,17.5,17.5,17.5,17.5-7.9,17.5-17.5-7.9-17.5-17.5-17.5Z"/>
  <path class="cls-2" d="M420.8,281.6c-15,0-27.1-12.2-27.1-27.1s12.2-27.1,27.1-27.1,27.1,12.2,27.1,27.1-12.2,27.1-27.1,27.1ZM420.8,236.9c-9.7,0-17.5,7.9-17.5,17.5s7.9,17.5,17.5,17.5,17.5-7.9,17.5-17.5-7.9-17.5-17.5-17.5Z"/>
  <path class="cls-2" d="M420.8,370.3c-15,0-27.1-12.2-27.1-27.1s12.2-27.1,27.1-27.1,27.1,12.2,27.1,27.1-12.2,27.1-27.1,27.1ZM420.8,325.7c-9.7,0-17.5,7.9-17.5,17.5s7.9,17.5,17.5,17.5,17.5-7.9,17.5-17.5-7.9-17.5-17.5-17.5Z"/>
  <g>
    <rect class="cls-3" x="493.9" y="314.4" width="11.7" height="59.1" rx="1.8" ry="1.8" transform="translate(-96.8 454.1) rotate(-45)"/>
    <rect class="cls-3" x="493.9" y="314.4" width="11.7" height="59.1" rx="1.8" ry="1.8" transform="translate(389.6 -252.7) rotate(45)"/>
  </g>
  <g>
    <rect class="cls-3" x="414.4" y="137" width="11.7" height="59.1" rx="1.8" ry="1.8" transform="translate(5.3 345.9) rotate(-45)"/>
    <rect class="cls-3" x="414.4" y="137" width="11.7" height="59.1" rx="1.8" ry="1.8" transform="translate(240.9 -248.3) rotate(45)"/>
  </g>
  <g>
    <rect class="cls-3" x="493.9" y="224.9" width="11.7" height="59.1" rx="1.8" ry="1.8" transform="translate(-33.6 427.9) rotate(-45)"/>
    <rect class="cls-3" x="493.9" y="224.9" width="11.7" height="59.1" rx="1.8" ry="1.8" transform="translate(326.3 -278.9) rotate(45)"/>
  </g>
  <g>
    <path class="cls-6" d="M177.7,435.8h134c3,0,5.4,2.4,5.4,5.4v87.9c0,3-2.4,5.4-5.4,5.4h-134c-3,0-5.4-2.4-5.4-5.4v-87.9c0-3,2.4-5.4,5.4-5.4Z"/>
    <rect class="cls-7" x="232.9" y="435.8" width="25.8" height="98.6"/>
    <path class="cls-5" d="M249.5,442.7c-.6,0-1.2-.2-1.6-.6-.2-.2-5.7-5.5-11.2-12.3-7.6-9.4-11.5-16.8-11.4-22.1,0-2.5.9-4.6,2.5-6.1,2.8-2.7,6.4-3,10-.9,4.4,2.5,8.7,8.8,11.6,16.7,3,8.3,3.8,16.9,2.3,23.7-.2.8-.8,1.4-1.6,1.7-.2,0-.4,0-.6,0ZM233.3,403.8c-1,0-1.7.5-2.3,1-.7.7-1.1,1.6-1.1,2.8,0,7.3,11,20.5,18,27.9.3-5.1-.6-11-2.7-16.8-2.5-6.8-6.1-12.3-9.6-14.3-.9-.5-1.7-.7-2.3-.7Z"/>
    <path class="cls-5" d="M238.9,438.9c-.3,0-.5,0-.8-.1-2.3-.8-22.6-8.3-26.3-16.4-.8-1.7-.9-3.4-.3-5,1-2.7,3.3-4.1,6.4-3.9,7.7.4,20.3,11.5,23.1,22.6.2.8,0,1.7-.7,2.2-.4.4-1,.6-1.5.6ZM217.5,418c-1.1,0-1.4.5-1.6,1-.1.3-.2.7.2,1.5,1.8,3.9,11.2,8.9,18.9,12.1-4.1-7.7-12.7-14.4-17.2-14.6,0,0-.2,0-.2,0Z"/>
  </g>
  <rect class="cls-5" x="169.7" y="459.2" width="149.9" height="11.9"/>
</svg>