<?xml version="1.0" encoding="UTF-8"?>
<svg id="OBJECTS" xmlns="http://www.w3.org/2000/svg" version="1.1" viewBox="0 0 835 539.8">
  <defs>
    <style>
      .cls-1 {
        fill: #edeef2;
      }

      .cls-1, .cls-2, .cls-3, .cls-4, .cls-5 {
        stroke-width: 0px;
      }

      .cls-2 {
        fill: #bbbece;
      }

      .cls-3 {
        fill: #d3d5df;
      }

      .cls-4 {
        fill: #fff;
      }

      .cls-5 {
        fill: #e1e2e9;
      }
    </style>
  </defs>
  <path class="cls-1" d="M690,73.6l-46.6-6.7c-.2,0-.4,0-.5.3l-28.5,47.9c0,.2-.1.4,0,.5s.3.3.4.3l48.2,4.1s0,0,0,0c.2,0,.3-.1.4-.3l27-45.2c0-.2.1-.3,0-.5,0-.2-.2-.3-.4-.3Z"/>
  <path class="cls-5" d="M643.8,67l-32.3-43.4c-.1-.1-.3-.2-.5-.2,0,0,0,0,0,0-.2,0-.3.1-.4.3l-25.7,47.8c0,.2,0,.4,0,.6l29.4,43.5c.1.2.3.2.5.2,0,0,0,0,0,0,.2,0,.3-.1.4-.3l28.5-47.9c.1-.2.1-.4,0-.6Z"/>
  <g>
    <polygon class="cls-4" points="643.1 67.1 611 24 656.7 32.7 690 74.1 643.1 67.1"/>
    <path class="cls-3" d="M690,74.6s0,0-.1,0l-46.8-6.9c-.1,0-.3,0-.4-.2l-32.1-43.2c-.1-.2-.1-.4,0-.6.1-.2.3-.3.6-.2l45.7,8.7c.1,0,.2,0,.3.2l33.2,41.4c.1.2.2.4,0,.6,0,.2-.3.3-.4.3Z"/>
  </g>
  <path class="cls-2" d="M648.9,43.6c-1,1-.2,3.5,1.7,5.4,2,1.9,4.4,2.7,5.4,1.6s.2-3.5-1.7-5.4c-2-1.9-4.4-2.7-5.4-1.6Z"/>
  <g>
    <path class="cls-2" d="M649.9,76c-1.7-1-4.1.2-5.5,2.6-1.4,2.4-1.2,5.1.5,6.1,1.7,1,4.1-.2,5.5-2.6,1.4-2.4,1.2-5.1-.5-6.1Z"/>
    <path class="cls-2" d="M675.2,79.3c-1.7-1-4.1.2-5.5,2.6-1.4,2.4-1.2,5.1.5,6.1s4.1-.2,5.5-2.6c1.4-2.4,1.2-5.1-.5-6.1Z"/>
    <path class="cls-2" d="M635.8,102c-1.6-1-4.1,0-5.6,2.3s-1.4,5.1.2,6.1c1.6,1,4.1,0,5.6-2.3,1.5-2.3,1.4-5.1-.2-6.1Z"/>
    <path class="cls-2" d="M661.9,104.6c-1.6-1-4.1,0-5.6,2.3-1.5,2.3-1.4,5.1.2,6.1,1.6,1,4.1,0,5.6-2.3,1.5-2.3,1.4-5.1-.2-6.1Z"/>
  </g>
  <g>
    <path class="cls-2" d="M593.4,74.2c-1.9-.8-2.4-3.7-1.1-6.4,1.2-2.7,3.7-4.2,5.6-3.4,1.9.8,2.4,3.7,1.1,6.4s-3.7,4.2-5.6,3.4Z"/>
    <path class="cls-2" d="M608.9,98.7c-1.9-.8-2.4-3.7-1.1-6.4s3.7-4.2,5.6-3.4c1.9.8,2.4,3.7,1.1,6.4-1.2,2.7-3.7,4.2-5.6,3.4Z"/>
    <path class="cls-2" d="M607.3,49.6c-1.9-.7-2.5-3.6-1.4-6.3,1.1-2.8,3.5-4.4,5.4-3.6,1.9.7,2.5,3.6,1.4,6.3-1.1,2.8-3.5,4.4-5.4,3.6Z"/>
    <path class="cls-2" d="M625,71.7c-1.9-.7-2.5-3.6-1.4-6.3,1.1-2.8,3.5-4.4,5.4-3.6,1.9.7,2.5,3.6,1.4,6.3s-3.5,4.4-5.4,3.6Z"/>
    <path class="cls-2" d="M607.8,74.3c-1.9-.7-2.5-3.6-1.4-6.3,1.1-2.8,3.5-4.4,5.4-3.6,1.9.7,2.5,3.6,1.4,6.3-1.1,2.8-3.5,4.4-5.4,3.6Z"/>
  </g>
</svg>