<?xml version="1.0" encoding="UTF-8"?>
<svg id="OBJECTS" xmlns="http://www.w3.org/2000/svg" version="1.1" viewBox="0 0 835 539.8">
  <defs>
    <style>
      .cls-1 {
        fill: #edeef2;
      }

      .cls-1, .cls-2, .cls-3, .cls-4, .cls-5 {
        stroke-width: 0px;
      }

      .cls-2 {
        fill: #bbbece;
      }

      .cls-3 {
        fill: #d3d5df;
      }

      .cls-4 {
        fill: #fff;
      }

      .cls-5 {
        fill: #e1e2e9;
      }
    </style>
  </defs>
  <path class="cls-1" d="M205.7,174.3l-21.3,54.8c0,.3,0,.5.2.7l50.1,48.2c.2.2.4.2.6.2s.4-.2.5-.4l18.5-57.4s0,0,0-.1c0-.2,0-.4-.2-.6l-47.3-45.5c-.2-.2-.4-.2-.6-.2-.2,0-.4.2-.5.4Z"/>
  <path class="cls-5" d="M184.7,228.7l-61.8,27c-.2,0-.4.3-.4.5,0,0,0,0,0,0,0,.2,0,.5.2.6l50.8,44.7c.2.2.5.2.7.1l61.1-23.5c.2,0,.4-.3.4-.5,0,0,0,0,0,0,0-.2,0-.4-.2-.6l-50.1-48.2c-.2-.2-.5-.2-.7-.1Z"/>
  <g>
    <polygon class="cls-4" points="184.7 229.4 123.2 256.3 146.6 203.2 206.3 174.5 184.7 229.4"/>
    <path class="cls-3" d="M207,174.6s0,0,0,.1l-21.6,54.9c0,.2-.2.3-.4.4l-61.5,26.8c-.3.1-.6,0-.8-.1-.2-.2-.3-.5-.1-.8l23.4-53.1c0-.1.2-.3.3-.3l59.7-28.7c.3-.1.5,0,.8.1.2.2.2.4.2.6Z"/>
  </g>
  <path class="cls-2" d="M157.7,215.8c1,1.5,4.1,1.3,7.1-.6,2.9-1.9,4.5-4.6,3.5-6.1s-4.1-1.3-7.1.6c-2.9,1.9-4.5,4.6-3.5,6.1Z"/>
  <g>
    <path class="cls-2" d="M197.3,223.7c-1.6,1.7-.9,5.1,1.6,7.4,2.5,2.4,5.9,2.9,7.5,1.1,1.6-1.7.9-5.1-1.6-7.4s-5.9-2.9-7.5-1.1Z"/>
    <path class="cls-2" d="M208.4,194c-1.6,1.7-.9,5.1,1.6,7.4,2.5,2.4,5.9,2.9,7.5,1.1s.9-5.1-1.6-7.4c-2.5-2.4-5.9-2.9-7.5-1.1Z"/>
    <path class="cls-2" d="M224.9,248.2c-1.7,1.7-1.1,5,1.3,7.5,2.4,2.5,5.7,3.2,7.5,1.5,1.7-1.7,1.1-5-1.3-7.5-2.4-2.5-5.7-3.2-7.5-1.5Z"/>
    <path class="cls-2" d="M235.4,217.2c-1.7,1.7-1.1,5,1.3,7.5s5.7,3.2,7.5,1.5c1.7-1.7,1.1-5-1.3-7.5-2.4-2.5-5.7-3.2-7.5-1.5Z"/>
  </g>
  <g>
    <path class="cls-2" d="M179.2,291.9c-1.5,2-5.2,1.8-8.1-.4-2.9-2.3-4-5.7-2.5-7.7,1.5-2,5.2-1.8,8.1.4,2.9,2.3,4.1,5.7,2.5,7.7Z"/>
    <path class="cls-2" d="M213.4,279.9c-1.5,2-5.2,1.8-8.1-.4s-4-5.7-2.5-7.7c1.5-2,5.2-1.8,8.1.4,2.9,2.3,4.1,5.7,2.5,7.7Z"/>
    <path class="cls-2" d="M153.3,268c-1.4,2.1-5.1,2.1-8.1,0-3-2.1-4.3-5.5-2.9-7.6,1.4-2.1,5.1-2.1,8.1,0,3,2.1,4.3,5.5,2.9,7.6Z"/>
    <path class="cls-2" d="M185.1,252.7c-1.4,2.1-5.1,2.1-8.1,0-3-2.1-4.3-5.5-2.9-7.6,1.4-2.1,5.1-2.1,8.1,0,3,2.1,4.3,5.5,2.9,7.6Z"/>
    <path class="cls-2" d="M183.4,274.4c-1.4,2.1-5.1,2.1-8.1,0-3-2.1-4.3-5.5-2.9-7.6,1.4-2.1,5.1-2.1,8.1,0,3,2.1,4.3,5.5,2.9,7.6Z"/>
  </g>
</svg>