<?xml version="1.0" encoding="utf-8"?>
<!-- Generator: Adobe Illustrator 28.0.0, SVG Export Plug-In . SVG Version: 6.00 Build 0)  -->
<svg version="1.1" id="Layer_1" xmlns="http://www.w3.org/2000/svg" xmlns:xlink="http://www.w3.org/1999/xlink" x="0px" y="0px"
	 viewBox="0 0 80 80" style="enable-background:new 0 0 80 80;" xml:space="preserve">
<style type="text/css">
	.st0{fill:#FFFFFF;}
</style>
<path class="st0" d="M55,24.2l-0.3-0.3c-1.8-1.9-4.3-2.8-6.7-2.8s-4.9,0.9-6.7,2.8l-2.8,2.8c-1.1,1.1-1.1,3,0,4.2
	c1.1,1.1,3,1.1,4.2,0l2.8-2.8c0.7-0.7,1.6-1.1,2.6-1.1c0.9,0,1.8,0.3,2.6,1.1l0.3,0.3c0.7,0.7,1.1,1.6,1.1,2.6
	c0,0.9-0.3,1.9-1.1,2.6l-7,6.7c-0.7,0.7-1.6,1.1-2.6,1.1c-0.9,0-1.8-0.3-2.5-1.1L38.6,40l-4.2,4.2l0.3,0.3c1.8,1.8,4.3,2.8,6.7,2.8
	l0,0c2.4,0,4.9-0.9,6.7-2.8l6.8-6.8c1.9-1.9,2.8-4.3,2.8-6.7C57.8,28.5,56.9,26.1,55,24.2z M37.5,49l-2.9,2.9
	C33.8,52.6,32.9,53,32,53c-0.9,0-1.8-0.3-2.5-1.1l-0.3-0.3c-0.7-0.7-1.1-1.6-1.1-2.6c0-0.9,0.3-1.8,1.1-2.6l6.8-6.8
	c0.7-0.7,1.6-1.1,2.6-1.1c0.9,0,1.8,0.3,2.6,1.1l0.3,0.3l4.2-4.2l0,0l0,0l-0.3-0.3L44.7,35c-0.2-0.2-0.5-0.4-0.7-0.5
	c-1.6-1.1-3.5-1.7-5.4-1.7c-2.4,0-4.9,0.9-6.7,2.8L25,42.3c-1.8,1.8-2.8,4.3-2.8,6.7s0.9,4.9,2.8,6.7l0.3,0.3
	c1.8,1.8,4.3,2.8,6.7,2.8l0,0c2.4,0,4.9-0.9,6.7-2.8l2.9-2.9c1.1-1.1,1.1-3,0-4.2C40.5,47.8,38.7,47.8,37.5,49z"/>
</svg>
