<?xml version="1.0" encoding="utf-8"?>
<!-- Generator: Adobe Illustrator 28.0.0, SVG Export Plug-In . SVG Version: 6.00 Build 0)  -->
<svg version="1.1" id="Layer_1" xmlns="http://www.w3.org/2000/svg" xmlns:xlink="http://www.w3.org/1999/xlink" x="0px" y="0px"
	 viewBox="0 0 80 80" style="enable-background:new 0 0 80 80;" xml:space="preserve">
<style type="text/css">
	.st0{fill:#FFFFFF;}
</style>
<path class="st0" d="M67.3,38.1C67.3,25.9,55.1,16,40,16s-27.3,9.9-27.3,22.2c0,11,9.7,20.1,22.9,21.9c0.9,0.2,2.1,0.6,2.4,1.3
	c0.3,0.7,0.2,1.8,0.1,2.5c0,0-0.3,1.9-0.4,2.3c-0.1,0.7-0.5,2.7,2.4,1.5s15.7-9.3,21.5-15.9l0,0C65.4,47.4,67.3,43,67.3,38.1z
	 M30.4,44.7c0,0.3-0.2,0.5-0.5,0.5h-7.7l0,0c-0.1,0-0.3-0.1-0.4-0.1l0,0l0,0c-0.1-0.1-0.1-0.2-0.1-0.4l0,0V32.8
	c0-0.3,0.2-0.5,0.5-0.5h1.9c0.3,0,0.5,0.2,0.5,0.5v9.5h5.2c0.3,0,0.5,0.2,0.5,0.5v1.9H30.4z M35,44.7c0,0.3-0.2,0.5-0.5,0.5h-1.9
	c-0.3,0-0.5-0.2-0.5-0.5V32.8c0-0.3,0.2-0.5,0.5-0.5h1.9c0.3,0,0.5,0.2,0.5,0.5V44.7z M48.2,44.7c0,0.3-0.2,0.5-0.5,0.5h-1.9h-0.1
	l0,0l0,0l0,0l0,0l0,0l0,0l0,0l0,0c-0.1,0-0.1-0.1-0.1-0.1l-5.5-7.4v7.1c0,0.3-0.2,0.5-0.5,0.5h-1.9c-0.3,0-0.5-0.2-0.5-0.5v-12
	c0-0.3,0.2-0.5,0.5-0.5h1.9l0,0l0,0l0,0l0,0l0,0l0,0l0,0l0,0l0,0l0,0l0,0l0,0l0,0l0,0l0,0l0,0l0,0l0,0c0,0,0,0,0,0.1l5.5,7.4v-7.1
	c0-0.3,0.2-0.5,0.5-0.5h1.9c0.3,0,0.5,0.2,0.5,0.5v12H48.2z M58.8,34.7c0,0.3-0.2,0.5-0.5,0.5H53v2h5.2c0.3,0,0.5,0.2,0.5,0.5v1.9
	c0,0.3-0.2,0.5-0.5,0.5H53v2h5.2c0.3,0,0.5,0.2,0.5,0.5v1.9c0,0.3-0.2,0.5-0.5,0.5h-7.7l0,0c-0.1,0-0.3-0.1-0.4-0.1l0,0l0,0
	C50,44.8,50,44.7,50,44.5l0,0V32.8l0,0c0-0.1,0.1-0.3,0.1-0.4l0,0l0,0c0.1-0.1,0.2-0.2,0.4-0.2l0,0h7.7c0.3,0,0.5,0.2,0.5,0.5
	L58.8,34.7L58.8,34.7z"/>
</svg>
