<?xml version="1.0" encoding="utf-8"?>
<!-- Generator: Adobe Illustrator 28.0.0, SVG Export Plug-In . SVG Version: 6.00 Build 0)  -->
<svg version="1.1" id="右下聯絡_00000101823254084428200940000016636437038953550999_"
	 xmlns="http://www.w3.org/2000/svg" xmlns:xlink="http://www.w3.org/1999/xlink" x="0px" y="0px" viewBox="0 0 170.1 170.1"
	 style="enable-background:new 0 0 170.1 170.1;" xml:space="preserve">
<style type="text/css">
	.st0{opacity:0.5;}
	.st1{fill:#FFFFFF;}
</style>
<g id="connection_聯絡我們_connection_聯絡我們connection_00000077311483058477430810000007868597516591815330_" class="st0">
</g>
<g>
	<path class="st1" d="M87,7.3l1.5,0.1l-0.7,9.2l5.7,0.4l-0.1,1.3l-7.2-0.6L87,7.3z"/>
	<path class="st1" d="M104.2,19.4l-0.3,1.3l-7.4-1.8L99,8.7l7.2,1.8l-0.3,1.3l-5.7-1.4l-0.8,3.1l5.1,1.2l-0.3,1.2l-5.1-1.2L98.3,18
		L104.2,19.4z"/>
	<path class="st1" d="M113.1,14.4l-3.3-1.4l0.5-1.2l8,3.4l-0.5,1.2l-3.3-1.4l-3.6,8.5l-1.4-0.6L113.1,14.4z"/>
	<path class="st1" d="M121.5,16.9l1.1,0.6l-2.1,3.5l-0.9-0.5L121.5,16.9z"/>
	<path class="st1" d="M121.7,29c-0.5-0.6-0.7-1.2-0.9-1.8l1.1-0.6c0.1,0.5,0.4,1.1,0.7,1.6s0.8,1,1.4,1.4c0.7,0.5,1.3,0.8,1.8,0.8
		s0.9-0.2,1.2-0.6c0.2-0.3,0.3-0.6,0.2-0.9c-0.1-0.3-0.2-0.6-0.4-0.9c-0.2-0.3-0.5-0.7-1-1.2c-0.5-0.6-0.9-1.1-1.2-1.6
		s-0.5-0.9-0.5-1.4c-0.1-0.5,0.1-1.1,0.5-1.6c0.3-0.5,0.7-0.8,1.2-1s1.1-0.2,1.7-0.1c0.6,0.1,1.3,0.5,2.1,1c0.5,0.4,1,0.8,1.4,1.3
		s0.7,1,0.9,1.5l-1.1,0.7c-0.2-0.5-0.5-0.9-0.8-1.3s-0.7-0.8-1.1-1c-0.7-0.5-1.3-0.7-1.8-0.7s-0.9,0.2-1.2,0.6
		c-0.2,0.3-0.3,0.6-0.2,0.9c0.1,0.3,0.2,0.6,0.4,0.9s0.5,0.7,0.9,1.2c0.5,0.6,0.9,1.1,1.2,1.6c0.3,0.5,0.4,0.9,0.5,1.4
		s-0.1,1-0.5,1.6c-0.3,0.4-0.7,0.8-1.2,1s-1.1,0.2-1.7,0.1s-1.3-0.5-2.1-1C122.7,30.1,122.2,29.6,121.7,29z"/>
	<path class="st1" d="M134.2,39.6c-0.3-0.7-0.4-1.4-0.4-1.9l1.2-0.3c0,0.5,0.1,1.1,0.3,1.7c0.2,0.6,0.6,1.2,1,1.7
		c0.6,0.7,1.1,1.1,1.6,1.2c0.5,0.1,0.9,0,1.3-0.3c0.3-0.2,0.4-0.5,0.4-0.8s0-0.7-0.2-1c-0.1-0.3-0.4-0.8-0.7-1.4
		c-0.4-0.7-0.6-1.3-0.8-1.8s-0.2-1-0.2-1.5s0.4-1,0.9-1.4c0.4-0.4,0.9-0.6,1.4-0.7c0.5-0.1,1.1,0,1.7,0.3c0.6,0.3,1.2,0.8,1.8,1.4
		c0.4,0.5,0.7,1,1,1.5c0.3,0.6,0.4,1.1,0.5,1.6l-1.2,0.4c-0.1-0.5-0.2-1-0.4-1.5s-0.5-0.9-0.8-1.3c-0.6-0.6-1.1-1-1.6-1.1
		s-1,0-1.3,0.3c-0.3,0.2-0.4,0.5-0.4,0.8s0.1,0.7,0.2,1c0.1,0.4,0.4,0.8,0.6,1.4c0.4,0.7,0.6,1.3,0.8,1.8s0.2,1,0.2,1.5
		c-0.1,0.5-0.4,1-0.9,1.4c-0.4,0.4-0.9,0.6-1.4,0.6s-1.1,0-1.7-0.3c-0.6-0.3-1.2-0.8-1.8-1.4C134.9,40.9,134.5,40.3,134.2,39.6z"/>
	<path class="st1" d="M149.2,44.4l-1.9-3l1.1-0.7L153,48l-1.1,0.7l-1.9-3l-7.8,4.9l-0.8-1.3L149.2,44.4z"/>
	<path class="st1" d="M150.6,61.6l-2.1-5.1l-2.9-0.1L145,55l11.5,0.3l0.6,1.4l-7.9,8.4l-0.6-1.5L150.6,61.6z M151.5,60.7l3.9-4.1
		l-5.6-0.1L151.5,60.7z"/>
	<path class="st1" d="M151.4,75l2.7-2.9c-0.1-0.3-0.1-0.5-0.2-0.6l-0.5-2.5l-3.1,0.7l-0.3-1.5l10.3-2.2l0.9,4
		c0.3,1.3,0.2,2.4-0.3,3.3s-1.3,1.5-2.4,1.7c-0.8,0.2-1.5,0.1-2.2-0.1s-1.2-0.7-1.6-1.4l-2.9,3.2L151.4,75z M156.3,73.2
		c0.5,0.4,1.1,0.5,1.9,0.4s1.3-0.5,1.5-1.1c0.3-0.6,0.3-1.3,0.1-2.3l-0.5-2.5l-4.6,1l0.5,2.5C155.4,72.1,155.7,72.8,156.3,73.2z"/>
	<path class="st1" d="M161.4,82l-0.2-3.6l1.3-0.1L163,87l-1.3,0.1l-0.2-3.6l-9.2,0.4l-0.1-1.5L161.4,82z"/>
	<path class="st1" d="M151.9,117.8l-0.6,1.6l-4.6-1.7l0.6-1.6l0.6,0.2l0.3-0.8l-3.2-1.2l0.6-1.7l7.3,2.7l-0.6,1.7l-2.4-0.9l-0.3,0.8
		L151.9,117.8z M153.8,112.9l-0.6,1.7l-2.5-0.9c-1.7-0.6-3.6-1.9-3.8-4.9c0.5,0,1.4-0.3,1.8-0.6c0.1,1.5,0.5,2.4,1.1,3l0.8-2.1
		l4.1,1.5l-0.6,1.6l-2.4-0.9l-0.3,0.8L153.8,112.9z M161,111.9l-13.4-4.9l0.6-1.7l2.9,1.1c0.2-1.3,0.4-2.5,0.6-3.6l1.9,0.3l-0.2,0.9
		l9.2,3.3l0.2-0.6l1.8,0.7l-2.1,5.7l-1.8-0.7L161,111.9z M151.7,119.1c0.3,0,0.6,0.1,0.9,0.1c0.5-2.9,0.6-3.4,0.5-3.7
		c0.4,0.1,1.3,0.2,1.8,0.2c-0.1,0.3,0.1,0.7,0.5,1.2c0.1,0.2,0.4,0.6,0.8,1.1c0.3-1.1,0.3-1.4,0.2-1.6c0.4,0.1,1.3,0.2,1.8,0.2
		c0,0.3,0.1,0.6,0.3,0.9s1.1,1.6,2.1,2.5l-1.1,1c-0.8-0.8-1.5-1.8-2-2.6l-0.3,0.9c0.4,0.4,0.8,0.8,1.2,1.2l-1.1,1
		c-1.1-1.2-2.2-2.5-2.9-3.7l-0.3,1.5c0.3,0,0.7,0,1,0v1.3c-1,0-2.4,0.1-3.2,0L151.7,119.1z M152.9,107l1.9,0.7l0.5-1.3l-2.1-0.8
		L152.9,107z M156.5,115.4c-1,0-2.3-0.1-3.1-0.2l0.1-1.3c0.2,0,0.5,0.1,0.8,0.1c0.7-2.9,0.7-3.4,0.7-3.7c0.4,0.1,1.4,0.2,1.9,0.2
		c0,0.3,0.1,0.7,0.4,1.3c0.1,0.2,0.3,0.6,0.6,1c0.2-0.8,0.2-1.1,0.2-1.3c0.4,0.1,1.4,0.2,2,0.2c0,0.3,0.1,0.6,0.3,0.9
		s1.1,1.6,2.2,2.4l-1.1,1.2c-0.9-0.9-1.7-2-2.3-2.9l-0.2,0.8c0.4,0.5,0.7,1,1.2,1.4l-1.2,1.1c-1.1-1.4-2.1-2.8-2.8-4.2l-0.4,1.6
		c0.3,0,0.7,0,1,0L156.5,115.4z M158.2,108.9l0.5-1.3l-1.8-0.7l-0.5,1.3L158.2,108.9z M161.6,110.2l0.5-1.3l-1.8-0.6l-0.5,1.3
		L161.6,110.2z"/>
	<path class="st1" d="M144.6,141.3c-1-1.6-1.7-3.3-2-5.1c-1.3,0.4-2.6,1-3.9,1.8c-0.1-0.6-0.4-1.6-0.6-2.2l0,0l-4.8-3.5l1.2-1.7
		l0.4,0.3l2.2-3l-0.4-0.3l1.2-1.6l4.7,3.5l0.1-0.4c0.6,0.1,1.5,0.1,2.1,0c-0.4,1.5-0.6,3.1-0.5,4.7c0.8-0.1,1.5-0.1,2.2,0
		c-0.1-0.6-0.2-1.2-0.3-1.8c0.5,0,1.6-0.2,2.2-0.4c0,2,0.7,4.2,1.8,6.1l-1.7,1.3c-0.2-0.4-0.5-0.8-0.7-1.2l-1.8,2.4l-0.1,0.3
		L144.6,141.3z M136.5,132.1l1.9,1.4l2.2-3l-1.9-1.4L136.5,132.1z M139.5,135.1c0.9-0.4,1.8-0.7,2.8-0.9c-0.1-1,0-2,0.1-3
		L139.5,135.1z M143.4,127.9c-1.1-0.3-2.5-0.8-3.3-1.2l0.5-1.5c0.8,0.4,2.2,1,3.3,1.3L143.4,127.9z M144.1,126.2
		c-1.1-0.6-2.5-1.3-3.4-1.9l0.7-1.5c0.9,0.6,2.3,1.4,3.4,2L144.1,126.2z M145,124.4c-1.2-1.1-2.4-2.3-3.1-3.3c0.4-0.2,1.1-0.7,1.5-1
		c0.6,1,1.8,2.1,2.9,3L145,124.4z M144.1,127c0.2,0.1,0.5,0.3,0.8,0.4c1.5-2.9,1.7-3.5,1.8-3.9c0.4,0.1,1.4,0.4,1.9,0.6
		c-0.2,0.4-0.1,1,0.1,1.8c0.1,0.3,0.2,1,0.5,1.8c0.7-1.2,0.8-1.6,0.9-1.8c0.4,0.1,1.3,0.4,1.8,0.6c-0.1,0.3-0.1,0.8,0.2,1.4
		c0.2,0.6,1.1,2.7,2.2,4.4l-1.8,1c-0.8-1.5-1.5-3.1-2-4.6l-0.7,1.1c0.3,0.8,0.8,1.7,1.2,2.5l-1.9,0.8c-0.6-1.3-1.1-2.7-1.5-4.1
		l-0.5,1.3c-1.2-0.4-2.8-1-3.6-1.4L144.1,127z M147,135.8c-0.8-0.1-1.6-0.1-2.5,0.1c0.2,0.9,0.5,1.7,0.8,2.5l1.8-2.4L147,135.8z
		 M146.4,128.1c0.4,0.2,0.8,0.3,1.2,0.5c-0.2-0.6-0.3-1.2-0.5-1.8L146.4,128.1z"/>
	<path class="st1" d="M123,151.3c-0.2-1.7-0.2-3.3,0-4.9c-1.2-0.8-2.2-1.1-2.6-0.8c-0.3,0.2,0,1,1.3,2.8c-0.7-0.1-1.5-0.1-2.1,0.1
		c-1.6-2.7-1.6-3.8-0.3-4.7c1-0.8,2.5-0.5,4.2,0.4c0.3-1.3,0.8-2.6,1.3-3.8c0.5,0.2,1.5,0.4,2.2,0.5c-0.7,1.3-1.3,2.9-1.7,4.4
		c1.2,0.9,2.4,2,3.6,3.3l2.9-2.2l-1.2-1.6c-0.6,0.7-1.3,1.4-1.9,2.1l-1.3-1.5l2-2.2l-1.9-2.5c-0.7-0.9-0.9-1.5-0.5-2.3
		c0.4-0.7,1.2-1.4,2.3-2.3c0.4,0.4,1.3,1,1.9,1.3c-0.8,0.6-1.7,1.2-1.9,1.4c-0.3,0.2-0.3,0.3-0.1,0.6l1.6,2.1
		c0.8-0.9,1.5-1.7,2.2-2.5l1.7,1.4c-0.7,0.7-1.6,1.7-2.6,2.7l1.5,1.9l2.7-2.1l1.2,1.6l-2.7,2.1l1.2,1.6c0.7-0.7,1.4-1.4,2.1-2.1
		c0.4,0.4,1.1,0.8,1.6,1.1c-1.8,1.8-3.7,3.9-4.8,5.5l-2.2-0.6c0.6-0.8,1.2-1.5,1.9-2.3l-1.5-1.9l-2.8,2.1c1.1,1.2,2.1,2.5,3.1,3.8
		l-1.8,1.4c-1-1.4-2-2.6-3.1-3.8l-3.9,3l-1.2-1.6l3.7-2.8c-0.8-0.8-1.5-1.5-2.2-2.1c-0.1,1,0,2,0.1,3L123,151.3z M126.5,153.7
		c0.9,0.4,2.5,0.7,3.8,0.8l-0.6,1.9c-1.3-0.1-2.9-0.3-3.8-0.7L126.5,153.7z"/>
	<path class="st1" d="M100.7,154.6c-0.4-1.1-0.4-1.7,0.2-2.3s1.6-1,3.2-1.6c0.3,0.5,0.9,1.3,1.4,1.7c-1.1,0.3-2.2,0.8-2.5,0.9
		c-0.3,0.1-0.4,0.3-0.3,0.6l2.3,6.1l3.1-1.2l2.4,6.4l-5,1.9L100.7,154.6z M105.4,161.5l0.4,1l1.5-0.6l-0.4-1L105.4,161.5z
		 M108.2,164.3l-0.4-1l-1.5,0.6l0.4,1L108.2,164.3z M108.7,158.5l2.9-1.1l-3.1-8.4l1.9-0.7l5.5,14.8c0-1.1,0-2.2,0.1-3.4l-4.5-11.9
		l1.9-0.7l3.2,8.4c0.1-0.6,0.3-1.2,0.5-1.8c0.3,0.4,1.3,1.4,1.8,1.8c-0.8,2.1-1.1,5-0.9,7.8l-2.1,0.1V163l-4.7,1.8L108.7,158.5z
		 M110.8,159.5l0.4,1l1.4-0.5l-0.4-1L110.8,159.5z M113.4,162.3l-0.4-1l-1.4,0.5l0.4,1L113.4,162.3z"/>
	<path class="st1" d="M77.4,165.6l-1.5-0.2l1-9.1l-5.6-0.6l0.1-1.3l7.1,0.8L77.4,165.6z"/>
	<path class="st1" d="M60.6,152.9l0.4-1.3l7.3,2.1l-2.8,10.1l-7.1-2l0.4-1.3l5.7,1.6l0.9-3.1l-5.1-1.4l0.3-1.2l5.1,1.4l0.9-3.3
		L60.6,152.9z"/>
	<path class="st1" d="M51.5,157.6l3.3,1.5l-0.5,1.2l-7.9-3.6l0.5-1.2l3.3,1.5l3.9-8.3l1.3,0.6L51.5,157.6z"/>
	<path class="st1" d="M43.2,154.8l-1.1-0.7l2.2-3.4l0.9,0.5L43.2,154.8z"/>
	<path class="st1" d="M43.4,142.7c0.4,0.6,0.7,1.2,0.8,1.8l-1.2,0.6c-0.1-0.5-0.3-1.1-0.7-1.6c-0.4-0.6-0.8-1-1.3-1.4
		c-0.7-0.5-1.3-0.8-1.8-0.8s-0.9,0.2-1.2,0.5c-0.2,0.3-0.3,0.6-0.3,0.9c0,0.3,0.2,0.6,0.4,0.9c0.2,0.3,0.5,0.7,0.9,1.2
		c0.5,0.6,0.9,1.2,1.2,1.6s0.4,0.9,0.5,1.5c0,0.5-0.2,1.1-0.6,1.6c-0.3,0.4-0.8,0.8-1.3,0.9c-0.5,0.2-1.1,0.2-1.7,0
		c-0.6-0.2-1.3-0.5-2-1c-0.5-0.4-0.9-0.8-1.3-1.3c-0.4-0.5-0.6-1-0.8-1.5l1.1-0.7c0.2,0.5,0.4,0.9,0.7,1.4c0.3,0.4,0.7,0.8,1,1.1
		c0.7,0.5,1.3,0.8,1.8,0.8s0.9-0.2,1.2-0.6c0.2-0.3,0.3-0.6,0.2-0.9c-0.1-0.3-0.2-0.6-0.4-1s-0.5-0.7-0.9-1.2
		c-0.5-0.6-0.9-1.2-1.2-1.6c-0.3-0.4-0.4-0.9-0.5-1.4s0.1-1,0.5-1.6c0.3-0.4,0.8-0.7,1.3-0.9s1.1-0.2,1.7,0c0.6,0.2,1.3,0.5,2,1.1
		C42.4,141.5,43,142.1,43.4,142.7z"/>
	<path class="st1" d="M31.3,131.7c0.3,0.7,0.4,1.4,0.3,1.9l-1.3,0.3c0-0.5-0.1-1.1-0.3-1.7c-0.2-0.6-0.5-1.2-0.9-1.7
		c-0.5-0.7-1.1-1.1-1.6-1.2c-0.5-0.1-0.9-0.1-1.3,0.2c-0.3,0.2-0.4,0.5-0.5,0.8s0,0.7,0.1,1s0.3,0.8,0.6,1.4
		c0.3,0.7,0.6,1.3,0.8,1.8c0.2,0.5,0.2,1,0.1,1.5s-0.4,1-0.9,1.4c-0.4,0.4-0.9,0.6-1.5,0.6c-0.5,0.1-1.1-0.1-1.7-0.4
		c-0.6-0.3-1.2-0.8-1.7-1.5c-0.4-0.5-0.7-1-1-1.6s-0.4-1.1-0.4-1.6l1.2-0.4c0.1,0.5,0.2,1,0.4,1.5c0.2,0.5,0.5,0.9,0.8,1.3
		c0.5,0.7,1.1,1.1,1.6,1.2c0.5,0.1,1,0,1.3-0.3c0.3-0.2,0.4-0.5,0.5-0.8c0-0.3,0-0.7-0.2-1c-0.1-0.4-0.3-0.8-0.6-1.4
		c-0.3-0.7-0.6-1.3-0.8-1.8c-0.2-0.5-0.2-1-0.1-1.5s0.4-1,0.9-1.4c0.4-0.3,0.9-0.5,1.5-0.6s1.1,0.1,1.7,0.4s1.2,0.8,1.7,1.5
		C30.6,130.3,31,130.9,31.3,131.7z"/>
	<path class="st1" d="M16.5,126.3l1.8,3.1l-1.1,0.7l-4.4-7.5l1.1-0.7l1.8,3.1l8-4.6l0.7,1.3L16.5,126.3z"/>
	<path class="st1" d="M15.7,109.1l2,5.2l2.9,0.2l0.5,1.4l-11.5-0.7l-0.5-1.4l8.1-8.2l0.6,1.5L15.7,109.1z M14.8,110l-4,3.9l5.6,0.3
		L14.8,110z"/>
	<path class="st1" d="M15.3,95.7l-2.8,2.8c0.1,0.3,0.1,0.5,0.1,0.6l0.5,2.6l3.1-0.6l0.3,1.5l-10.3,1.9l-0.7-4
		c-0.2-1.3-0.1-2.4,0.4-3.3s1.3-1.4,2.4-1.6c0.8-0.1,1.5-0.1,2.1,0.2c0.6,0.3,1.1,0.8,1.5,1.5l3-3.1L15.3,95.7z M10.4,97.4
		C10,97,9.3,96.8,8.6,96.9s-1.3,0.5-1.6,1s-0.4,1.3-0.2,2.2l0.5,2.5l4.7-0.8l-0.5-2.5C11.3,98.5,10.9,97.8,10.4,97.4z"/>
	<path class="st1" d="M5.6,88.4L5.7,92H4.4l-0.1-8.7h1.3l0.1,3.6l9.2-0.1v1.5L5.6,88.4z"/>
	<path class="st1" d="M6.5,60l13.3,5.1l-0.6,1.7l-2.9-1.1c-0.2,1.3-0.5,2.5-0.7,3.6L13.7,69l0.2-0.9l-9.1-3.5l-0.2,0.6l-1.8-0.7
		L5,58.8l1.8,0.7L6.5,60z M11.1,56.5c1,0,2.3,0.1,3.1,0.2L14.1,58c-0.2,0-0.5-0.1-0.8-0.1c-0.7,2.9-0.8,3.3-0.7,3.7
		c-0.4-0.1-1.3-0.2-1.9-0.2c0-0.3-0.1-0.7-0.4-1.3c-0.1-0.2-0.3-0.6-0.6-1c-0.2,0.8-0.2,1.1-0.2,1.3c-0.4-0.1-1.4-0.2-2-0.2
		c0-0.3-0.1-0.6-0.3-0.9C7,59,6.1,57.7,5.1,56.8l1.2-1.2c0.8,0.9,1.6,2,2.2,2.9l0.2-0.8c-0.3-0.5-0.7-1-1.1-1.5l1.2-1
		c1.1,1.4,2,2.9,2.7,4.2l0.4-1.6c-0.3,0-0.7,0-1-0.1L11.1,56.5z M5.9,61.7L5.4,63l1.8,0.7l0.5-1.3L5.9,61.7z M15.9,52.9
		c-0.3,0-0.6-0.1-0.9-0.1c-0.6,2.9-0.6,3.4-0.5,3.7c-0.4-0.1-1.3-0.2-1.8-0.2c0.1-0.3-0.1-0.7-0.5-1.2c-0.1-0.2-0.4-0.6-0.8-1.2
		c-0.3,1.1-0.3,1.4-0.3,1.6c-0.4-0.1-1.3-0.2-1.8-0.2c0-0.3-0.1-0.6-0.3-0.9c-0.1-0.2-1-1.5-2-2.4l1.1-1c0.8,0.8,1.5,1.8,2,2.6
		l0.3-0.9c-0.4-0.4-0.7-0.8-1.1-1.2l1.2-1c1.1,1.2,2.1,2.6,2.9,3.8l0.4-1.5c-0.3,0-0.7,0-1,0l0.1-1.3c1,0,2.4,0,3.2,0.1L15.9,52.9z
		 M9.3,63l-0.5,1.3l1.8,0.7l0.5-1.3L9.3,63z M14.6,65l-1.9-0.7l-0.5,1.3l2.1,0.8L14.6,65z M13.7,59.1l0.6-1.6l2.5,1
		c1.7,0.7,3.5,2,3.7,5c-0.5,0-1.4,0.3-1.8,0.5c-0.1-1.5-0.5-2.4-1.1-3l-0.8,2.1l-4.1-1.6l0.6-1.6l2.4,0.9L16,60L13.7,59.1z
		 M15.7,54.2l0.6-1.6l4.6,1.7L20.2,56l-0.6-0.2l-0.3,0.8l3.2,1.2l-0.7,1.7l-7.3-2.8l0.7-1.7l2.4,0.9l0.3-0.8L15.7,54.2z"/>
	<path class="st1" d="M23.7,45.1c-0.2-0.1-0.5-0.3-0.8-0.4c-1.5,2.9-1.8,3.5-1.9,3.9c-0.4-0.1-1.3-0.5-1.9-0.6
		c0.2-0.4,0.1-1-0.1-1.8c-0.1-0.3-0.2-1-0.5-1.8c-0.7,1.2-0.9,1.6-0.9,1.8c-0.4-0.2-1.3-0.5-1.8-0.6c0.1-0.3,0.1-0.8-0.2-1.4
		c-0.2-0.6-1-2.7-2.1-4.4l1.8-1c0.8,1.5,1.5,3.1,1.9,4.7l0.7-1c-0.3-0.8-0.7-1.7-1.1-2.5l1.9-0.7c0.6,1.3,1.1,2.7,1.5,4.1l0.5-1.3
		c1.2,0.4,2.8,1,3.6,1.5L23.7,45.1z M23.4,30.8c1,1.6,1.7,3.3,2,5.1c1.3-0.4,2.6-0.9,3.9-1.8c0.1,0.6,0.4,1.6,0.6,2.2l0,0l4.7,3.6
		l-1.3,1.7l-0.4-0.3l-2.2,2.9l0.4,0.3l-1.2,1.6l-4.7-3.6l-0.1,0.4c-0.6-0.1-1.5-0.1-2.1,0c0.5-1.5,0.6-3.1,0.6-4.7
		c-0.8,0-1.5,0-2.2,0c0.1,0.6,0.2,1.2,0.2,1.8c-0.5,0-1.6,0.2-2.2,0.3c0.1-2-0.6-4.2-1.7-6.1l1.7-1.3c0.2,0.4,0.4,0.8,0.6,1.2
		l1.8-2.4l0.1-0.3L23.4,30.8z M21.4,44c-0.4-0.2-0.8-0.3-1.2-0.5c0.2,0.6,0.3,1.2,0.5,1.8L21.4,44z M20.9,36.3
		c0.8,0.1,1.6,0.1,2.5,0c-0.2-0.9-0.4-1.8-0.8-2.5L20.9,36.3L20.9,36.3z M22.7,47.7c1.2,1.1,2.4,2.4,3,3.3c-0.4,0.2-1.1,0.7-1.5,1
		c-0.6-1-1.7-2.1-2.8-3.1L22.7,47.7z M23.6,45.9c1.1,0.6,2.5,1.4,3.4,2l-0.7,1.5c-0.9-0.6-2.3-1.5-3.4-2.1L23.6,45.9z M24.3,44.2
		c1.1,0.3,2.5,0.9,3.3,1.3L27.1,47c-0.8-0.5-2.2-1-3.3-1.4L24.3,44.2z M28.4,37.1c-0.9,0.4-1.9,0.7-2.8,0.9c0.1,1,0,2-0.1,3
		L28.4,37.1z M31.3,40.1l-1.9-1.4l-2.2,2.9l1.9,1.4L31.3,40.1z"/>
	<path class="st1" d="M45.1,21.2c0.2,1.7,0.2,3.3-0.1,4.9c1.2,0.8,2.2,1.2,2.6,0.9c0.3-0.2,0-1-1.2-2.8c0.7,0.1,1.5,0.1,2.1-0.1
		c1.6,2.7,1.5,3.8,0.2,4.7c-1.1,0.8-2.5,0.5-4.2-0.5c-0.3,1.3-0.8,2.6-1.4,3.7c-0.5-0.2-1.5-0.5-2.2-0.6c0.7-1.3,1.3-2.9,1.7-4.4
		c-1.2-0.9-2.4-2.1-3.6-3.4l-2.9,2.2l1.2,1.7c0.6-0.7,1.3-1.4,1.9-2l1.3,1.5l-2,2.2l1.8,2.5c0.7,0.9,0.8,1.6,0.4,2.3
		c-0.4,0.7-1.2,1.4-2.4,2.2c-0.4-0.4-1.3-1-1.9-1.3c0.8-0.6,1.7-1.2,1.9-1.4c0.3-0.2,0.3-0.3,0.1-0.6l-1.5-2.1
		c-0.8,0.9-1.6,1.7-2.2,2.4L33,31.8c0.7-0.7,1.7-1.7,2.7-2.7l-1.4-1.9l-2.7,2l-1.2-1.6l2.7-2L32,23.9c-0.7,0.7-1.4,1.4-2.1,2
		c-0.4-0.4-1.1-0.8-1.6-1.1c1.8-1.8,3.7-3.9,4.9-5.4l2.2,0.6c-0.6,0.7-1.2,1.5-1.9,2.3l1.4,2l2.8-2c-1.1-1.2-2.1-2.5-3.1-3.9
		l1.8-1.3c1,1.4,2,2.7,3.1,3.9l4-2.9l1.2,1.6l-3.8,2.8c0.8,0.8,1.5,1.5,2.2,2.1c0.1-1,0.1-2-0.1-3L45.1,21.2z M41.7,18.7
		c-0.9-0.4-2.5-0.8-3.8-0.9l0.7-1.8c1.3,0.1,2.9,0.4,3.8,0.7L41.7,18.7z"/>
	<path class="st1" d="M59.5,14.2l-2.9,1l3,8.4l-1.9,0.7L52.4,9.5c0,1.1,0,2.2-0.1,3.4l4.3,12l-1.9,0.7l-3-8.5
		c-0.2,0.6-0.3,1.2-0.6,1.8c-0.3-0.4-1.2-1.4-1.7-1.8c0.8-2.1,1.2-5,1-7.7l2.1-0.1v0.4L57.3,8L59.5,14.2z M54.8,10.3l0.3,1l1.4-0.5
		l-0.3-1L54.8,10.3z M57.5,13.2l-0.4-1l-1.4,0.5l0.4,1L57.5,13.2z M67.5,18.2c0.4,1.1,0.4,1.7-0.2,2.3c-0.6,0.6-1.6,1-3.2,1.6
		c-0.3-0.5-0.9-1.3-1.3-1.7c1.1-0.3,2.2-0.7,2.6-0.9c0.3-0.1,0.4-0.3,0.3-0.6l-2.2-6.1l-3.1,1.1L58,7.4l5-1.8L67.5,18.2z M60.1,8.4
		l0.3,1L62,8.8l-0.3-1L60.1,8.4z M62.8,11.3l-0.4-1L61,10.8l0.4,1L62.8,11.3z"/>
</g>
</svg>
