<?xml version="1.0" encoding="utf-8"?>
<!-- Generator: Adobe Illustrator 28.0.0, SVG Export Plug-In . SVG Version: 6.00 Build 0)  -->
<svg version="1.1" id="Layer_1" xmlns="http://www.w3.org/2000/svg" xmlns:xlink="http://www.w3.org/1999/xlink" x="0px" y="0px"
	 viewBox="0 0 504 386" style="enable-background:new 0 0 504 386;" xml:space="preserve">
<style type="text/css">
	.st0{fill:#FFFFFF;}
</style>
<path class="st0" d="M405.6,127.6c0,0-2.4-22.8-12-32.8c-12-12.8-25.6-13.2-31.6-14c-44-3.2-110-3.6-110-3.6s-66,0.4-110.4,3.6
	c-6,0.8-19.2,1.2-31.2,14.4c-9.2,10-12,32.4-12,32.4S96,154.4,96,180.8v24.8c0,26.4,2.4,53.2,2.4,53.2s2.4,22.4,12,32.4
	c12,13.2,28,12.8,34.8,14c25.2,2.4,107.2,3.6,107.2,3.6s66-0.4,110-3.6c6-0.8,19.2-0.8,31.2-14c9.2-10,12-32.4,12-32.4
	s2.4-26.8,2.4-53.2v-24.8C408,154.4,405.6,127.6,405.6,127.6z M219.6,235.6v-92l84.8,46.4L219.6,235.6z"/>
</svg>
