<?xml version="1.0" encoding="UTF-8"?>
<svg id="_圖層_1" data-name="圖層 1" xmlns="http://www.w3.org/2000/svg" viewBox="0 0 60 60">
  <defs>
    <style>
      .cls-1 {
        fill: #fff;
        stroke-width: 0px;
      }
    </style>
  </defs>
  <path class="cls-1" d="m30,2.5C14.18,2.5,1.3,13.02,1.3,25.94c0,11.58,10.21,21.28,24,23.12.94.2,2.21.62,2.53,1.42.29.72.19,1.84.09,2.6l-.39,2.45c-.11.72-.57,2.85,2.51,1.55,3.09-1.3,16.54-9.81,22.56-16.78,4.12-4.54,6.09-9.2,6.09-14.36,0-12.93-12.88-23.44-28.7-23.44h0Zm-11.23,31.13h-5.71c-.83,0-1.51-.69-1.51-1.51v-11.48c0-.83.68-1.52,1.51-1.52s1.51.69,1.51,1.52v9.96h4.2c.83,0,1.5.68,1.5,1.52s-.67,1.51-1.5,1.51Zm5.9-1.51c0,.83-.67,1.51-1.51,1.51s-1.5-.69-1.5-1.51v-11.48c0-.83.67-1.52,1.51-1.52s1.5.69,1.5,1.52v11.48Zm13.73,0c0,.65-.42,1.23-1.03,1.43-.15.05-.32.07-.48.07-.5,0-.94-.22-1.22-.6l-5.84-7.98v7.07c0,.83-.67,1.51-1.51,1.51s-1.5-.69-1.5-1.51v-11.48c0-.65.41-1.23,1.03-1.43.14-.06.33-.08.46-.08.47,0,.9.25,1.18.61l5.89,8.01v-7.11c0-.83.67-1.52,1.51-1.52s1.51.69,1.51,1.52v11.48Zm9.22-7.26c.83,0,1.51.69,1.51,1.52s-.67,1.52-1.51,1.52h-4.2v2.71h4.2c.83,0,1.51.68,1.51,1.52s-.67,1.51-1.51,1.51h-5.71c-.83,0-1.5-.69-1.5-1.51v-11.48c0-.83.67-1.52,1.51-1.52h5.71c.83,0,1.5.69,1.5,1.52s-.67,1.52-1.51,1.52h-4.2v2.71h4.2Z"/>
</svg>