<?xml version="1.0" encoding="UTF-8"?>
<svg id="_圖層_1" data-name="圖層 1" xmlns="http://www.w3.org/2000/svg" viewBox="0 0 60 60">
  <defs>
    <style>
      .cls-1 {
        fill: none;
      }

      .cls-1, .cls-2 {
        stroke-width: 0px;
      }

      .cls-2 {
        fill: #fff;
      }
    </style>
  </defs>
  <path class="cls-2" d="m38.77,42.75c-3.54.22-10.92-2.97-14.58-6.19-3.65-3.23-7.73-10.17-7.94-13.7,0,0,3.21-5.52,4.97-5.63,1.77-.11,7.39,4.86,5.74,6.74-1.65,1.88-3.42,1.99-3.31,3.75.11,1.77,1.99,3.43,3.86,5.08,1.88,1.66,3.76,3.32,5.52,3.21,1.76-.11,1.65-1.88,3.31-3.76,1.66-1.88,7.29,3.1,7.4,4.86.11,1.77-4.97,5.63-4.97,5.63"/>
  <path class="cls-2" d="m30.45,7.14c12.39,0,22.47,10.08,22.47,22.47s-10.08,22.47-22.47,22.47c-3.92,0-7.78-1.02-11.16-2.96l-1.56-.89-1.72.51-6.44,1.93,2.05-5.78.67-1.88-1.04-1.7c-2.15-3.51-3.28-7.56-3.28-11.7,0-12.39,10.08-22.47,22.47-22.47m0-4.18C15.73,2.96,3.8,14.9,3.8,29.61c0,5.09,1.42,9.84,3.9,13.88l-4.8,13.54,14.32-4.28c3.9,2.23,8.42,3.51,13.23,3.51,14.72,0,26.65-11.93,26.65-26.65S45.17,2.96,30.45,2.96"/>
  <rect class="cls-1" x="2.9" y="2.96" width="54.2" height="54.07"/>
</svg>