<?xml version="1.0" encoding="utf-8"?>
<!-- Generator: Adobe Illustrator 28.0.0, SVG Export Plug-In . SVG Version: 6.00 Build 0)  -->
<svg version="1.1" id="Layer_1" xmlns="http://www.w3.org/2000/svg" xmlns:xlink="http://www.w3.org/1999/xlink" x="0px" y="0px"
	 viewBox="0 0 504 386" style="enable-background:new 0 0 504 386;" xml:space="preserve">
<style type="text/css">
	.st0{fill:#FFFFFF;}
</style>
<g>
	<path class="st0" d="M326,102.4c9.2,0,16.6,7.4,16.6,16.6s-7.4,16.6-16.6,16.6s-16.6-7.4-16.6-16.6S316.8,102.4,326,102.4z"/>
	<path class="st0" d="M389.7,135.9c0.7,14.8,0.8,19.5,0.8,57.1s-0.2,42.4-0.8,57.1c-0.7,14.8-3,24.8-6.4,33.6
		c-3.5,9.1-8.3,16.8-16,24.5s-15.4,12.4-24.5,16c-8.8,3.4-18.9,5.8-33.6,6.4c-14.8,0.7-19.5,0.8-57.1,0.8s-42.3-0.2-57.1-0.8
		c-14.8-0.7-24.8-3-33.6-6.4c-9.1-3.5-16.8-8.3-24.5-16s-12.4-15.4-16-24.5c-3.4-8.8-5.8-18.9-6.4-33.6c-0.7-14.8-0.8-19.5-0.8-57.1
		s0.2-42.4,0.8-57.1c0.7-14.8,3-24.8,6.4-33.6c3.5-9.1,8.3-16.8,16-24.5s15.4-12.4,24.5-16c8.8-3.4,18.9-5.8,33.6-6.4
		c14.8-0.7,19.5-0.8,57.1-0.8s42.4,0.2,57.1,0.8c14.8,0.7,24.8,3,33.6,6.4c9.1,3.5,16.8,8.3,24.5,16s12.4,15.4,16,24.5
		C386.7,111.1,389,121.1,389.7,135.9z M365.6,193c0-37-0.1-41.4-0.8-56c-0.6-13.5-2.9-20.8-4.8-25.7c-2.5-6.5-5.5-11.1-10.4-15.9
		c-4.8-4.8-9.5-7.9-15.9-10.4c-4.9-1.9-12.2-4.2-25.7-4.8c-14.6-0.7-19-0.8-56-0.8s-41.4,0.1-56,0.8c-13.5,0.6-20.9,2.9-25.7,4.8
		c-6.5,2.5-11.1,5.5-15.9,10.4c-4.8,4.8-7.8,9.5-10.4,15.9c-1.9,4.9-4.1,12.2-4.8,25.7c-0.7,14.6-0.8,19-0.8,56s0.1,41.4,0.8,56
		c0.6,13.5,2.9,20.8,4.8,25.7c2.5,6.5,5.5,11.1,10.4,15.9s9.5,7.8,15.9,10.4c4.9,1.9,12.2,4.1,25.7,4.8c14.6,0.7,19,0.8,56,0.8
		s41.4-0.1,56-0.8c13.5-0.6,20.9-2.9,25.7-4.8c6.5-2.5,11.1-5.5,15.9-10.4c4.9-4.8,7.9-9.5,10.4-15.9c1.9-4.9,4.2-12.2,4.8-25.7
		C365.4,234.4,365.6,230,365.6,193z"/>
	<path class="st0" d="M252,121.8c39.3,0,71.1,31.8,71.1,71.2s-31.8,71.1-71.1,71.1s-71.1-31.8-71.1-71.1S212.7,121.8,252,121.8z
		 M298.2,193c0-25.5-20.7-46.2-46.2-46.2s-46.2,20.7-46.2,46.2s20.7,46.2,46.2,46.2S298.2,218.5,298.2,193z"/>
</g>
</svg>
