<?xml version="1.0" encoding="UTF-8"?>
<svg id="_圖層_1" data-name="圖層 1" xmlns="http://www.w3.org/2000/svg" viewBox="0 0 60 60">
  <defs>
    <style>
      .cls-1 {
        fill: #fff;
        stroke-width: 0px;
      }
    </style>
  </defs>
  <path class="cls-1" d="m44.56,12.32c-1.78,0-3.22,1.44-3.22,3.22s1.44,3.22,3.22,3.22,3.22-1.44,3.22-3.22-1.44-3.22-3.22-3.22Z"/>
  <path class="cls-1" d="m30.23,16.46c-7.47,0-13.55,6.08-13.55,13.54s6.08,13.54,13.55,13.54,13.54-6.08,13.54-13.54-6.08-13.54-13.54-13.54Zm0,22.22c-4.78,0-8.68-3.89-8.68-8.68s3.89-8.68,8.68-8.68,8.68,3.89,8.68,8.68-3.89,8.68-8.68,8.68Z"/>
  <path class="cls-1" d="m40.98,57.5h-21.96c-9.11,0-16.52-7.41-16.52-16.52v-21.96C2.5,9.91,9.91,2.5,19.02,2.5h21.96c9.11,0,16.52,7.41,16.52,16.52v21.96c0,9.11-7.41,16.52-16.52,16.52ZM19.02,7.67c-6.26,0-11.35,5.09-11.35,11.35v21.96c0,6.26,5.09,11.35,11.35,11.35h21.96c6.26,0,11.35-5.09,11.35-11.35v-21.96c0-6.26-5.09-11.35-11.35-11.35h-21.96Z"/>
</svg>