<?xml version="1.0" encoding="UTF-8"?>
<svg id="_圖層_1" data-name="圖層 1" xmlns="http://www.w3.org/2000/svg" viewBox="0 0 60 60">
  <defs>
    <style>
      .cls-1 {
        fill: #fff;
        stroke-width: 0px;
      }
    </style>
  </defs>
  <path class="cls-1" d="m59.9,36.68c-.45-3.89-2.17-7.14-5-9.8-7.34-6.89-19.17-7.06-26.71-.38-3.11,2.76-5.06,6.2-5.42,10.38-.49,5.74,1.72,10.41,6.19,13.92,5.47,4.29,11.66,5.2,18.31,3.42.35-.09.77-.07,1.11.04,1.31.45,2.59.96,3.89,1.46.71.27,1.39.23,1.96-.31.59-.55.68-1.23.43-1.99-.23-.68-.4-1.39-.66-2.06-.17-.44-.08-.69.28-.99,2.32-1.98,4.04-4.39,4.94-7.32.35-1.13.52-2.31.77-3.47v-2.46c-.03-.15-.08-.29-.1-.44Zm-25.1-1.07c-.97,0-1.75-.77-1.75-1.74,0-.96.8-1.76,1.75-1.76.95,0,1.76.81,1.76,1.76,0,.96-.78,1.74-1.76,1.74Zm12.17,0c-.97,0-1.74-.78-1.73-1.75,0-.96.8-1.75,1.76-1.74.95,0,1.75.83,1.75,1.77,0,.96-.8,1.73-1.77,1.73Z"/>
  <path class="cls-1" d="m38.55,18.28c1.21-.13,2.44-.14,3.71-.22-.06-.2-.11-.41-.18-.6-.81-2.25-2.01-4.27-3.61-6.04-4.04-4.45-9.11-6.81-15.07-7.24-6.62-.48-12.57,1.31-17.42,5.92C.6,15.22-1.27,21.46.86,28.67c1.2,4.07,3.76,7.23,7.18,9.71.32.23.41.43.31.81-.33,1.26-.61,2.54-.91,3.81-.19.8-.09,1.52.61,2.05.63.49,1.35.48,2.18-.03,1.55-.94,3.1-1.88,4.64-2.85.38-.24.72-.26,1.15-.17,1.17.25,2.36.42,3.55.63.02-.2.04-.26.03-.31-.02-.14-.04-.27-.07-.4-.58-3.03-.45-6.02.45-8.97,2.49-8.15,10.09-13.74,18.57-14.67Zm-12.49-2.93c.96,0,1.74.79,1.74,1.76,0,.98-.77,1.75-1.74,1.75-.95,0-1.76-.8-1.76-1.75,0-.95.81-1.76,1.76-1.76Zm-11.55,3.51c-.97,0-1.74-.78-1.74-1.75,0-.97.78-1.76,1.75-1.75.95,0,1.76.82,1.75,1.76,0,.95-.81,1.75-1.76,1.75Z"/>
</svg>