<?xml version="1.0" encoding="UTF-8"?>
<svg id="_圖層_1" data-name="圖層 1" xmlns="http://www.w3.org/2000/svg" viewBox="0 0 80 80">
  <defs>
    <style>
      .cls-1 {
        fill: #fff;
        stroke-width: 0px;
      }
    </style>
  </defs>
  <path class="cls-1" d="m48.98,50c-.21-.16-.44-.29-.63-.47-1.77-1.76-3.53-3.52-5.29-5.28-.05-.05-.09-.13-.13-.2-2.03,1.56-4.26,2.12-6.71,1.6-2.04-.44-3.67-1.55-4.84-3.28-2.22-3.26-1.69-7.47,1.02-10.1,3.03-2.94,7.54-2.94,10.57-.42,3.17,2.63,3.94,7.46,1.1,11.05.05.05.1.11.15.16,1.76,1.76,3.53,3.52,5.28,5.29.19.19.32.43.49.64v.35c-.11.33-.33.55-.66.66h-.35Zm-4.81-12.09c-.02-3.45-2.83-6.25-6.26-6.24-3.45.01-6.25,2.82-6.24,6.25.01,3.45,2.79,6.24,6.25,6.23,3.5,0,6.22-2.82,6.24-6.25Z"/>
</svg>