<?xml version="1.0" encoding="UTF-8"?>
<svg id="_圖層_1" data-name="圖層 1" xmlns="http://www.w3.org/2000/svg" viewBox="0 0 30 30">
  <defs>
    <style>
      .cls-1 {
        fill: #fff;
        stroke-width: 0px;
      }
    </style>
  </defs>
  <path class="cls-1" d="m24.78,2.56h-.97c-.24,0-.44.09-.63.21v-1.52c0-.64-.52-1.16-1.16-1.16s-1.16.52-1.16,1.16v1.52c-.18-.12-.39-.21-.63-.21h-10.5c-.24,0-.44.09-.63.21v-1.52c0-.64-.52-1.16-1.16-1.16s-1.16.52-1.16,1.16v1.52c-.18-.12-.39-.21-.62-.21h-.97C2.34,2.56,0,4.9,0,7.78v16.91c0,2.88,2.34,5.22,5.22,5.22h19.57c2.88,0,5.22-2.34,5.22-5.22V7.78c0-2.88-2.34-5.22-5.22-5.22ZM7.97,7.34c.64,0,1.16-.52,1.16-1.16v-1.52c.18.12.39.21.63.21h10.5c.24,0,.44-.09.63-.21v1.52c0,.64.52,1.16,1.16,1.16s1.16-.52,1.16-1.16v-1.52c.18.12.39.21.63.21h.97c1.6,0,2.9,1.3,2.9,2.9v16.91c0,1.6-1.3,2.9-2.9,2.9H5.22c-1.6,0-2.9-1.3-2.9-2.9V7.78c0-1.6,1.3-2.9,2.9-2.9h.97c.24,0,.44-.09.62-.21v1.52c0,.64.52,1.16,1.16,1.16Z"/>
  <path class="cls-1" d="m23.39,15.36c.98,0,1.78-.8,1.78-1.78s-.8-1.78-1.78-1.78-1.78.8-1.78,1.78.8,1.78,1.78,1.78Z"/>
  <circle class="cls-1" cx="12.2" cy="17.88" r="1.78"/>
  <path class="cls-1" d="m17.8,19.66c.98,0,1.78-.8,1.78-1.78s-.8-1.78-1.78-1.78-1.78.8-1.78,1.78.8,1.78,1.78,1.78Z"/>
  <path class="cls-1" d="m23.39,19.66c.98,0,1.78-.8,1.78-1.78s-.8-1.78-1.78-1.78-1.78.8-1.78,1.78.8,1.78,1.78,1.78Z"/>
  <path class="cls-1" d="m4.83,22.18c0,.98.8,1.78,1.78,1.78s1.78-.8,1.78-1.78-.8-1.78-1.78-1.78-1.78.8-1.78,1.78Z"/>
  <circle class="cls-1" cx="12.2" cy="22.18" r="1.78"/>
  <path class="cls-1" d="m17.8,23.96c.98,0,1.78-.8,1.78-1.78s-.8-1.78-1.78-1.78-1.78.8-1.78,1.78.8,1.78,1.78,1.78Z"/>
  <path class="cls-1" d="m23.39,23.96c.98,0,1.78-.8,1.78-1.78s-.8-1.78-1.78-1.78-1.78.8-1.78,1.78.8,1.78,1.78,1.78Z"/>
</svg>