<?xml version="1.0" encoding="UTF-8"?>
<svg id="_圖層_1" data-name="圖層 1" xmlns="http://www.w3.org/2000/svg" viewBox="0 0 60 60">
  <defs>
    <style>
      .cls-1 {
        fill: #fff;
        stroke-width: 0px;
      }
    </style>
  </defs>
  <path class="cls-1" d="m59.99,12.06c0-.7-.05-1.42-.18-2.11C58.69,4.02,53.85.03,47.8.03c-5.91,0-11.82,0-17.74,0h0c-6.12,0-12.24-.04-18.36.02C5.55.09.28,5.2.07,11.35c-.12,3.56-.05,7.12,0,10.68,0,.48.3,1.05.64,1.42.56.63,1.34.74,2.12.39.79-.36,1.21-1,1.21-1.88,0-3.29,0-6.58,0-9.87.01-4.52,3.52-8.06,8.03-8.06,11.97-.01,23.94-.01,35.91,0,4.48,0,8.02,3.53,8.02,8,.01,9.28.01,18.57,0,27.85,0,.78-.11,1.59-.33,2.33-.85,2.86-2.77,4.67-5.61,5.51-.82.24-1.49.66-1.85,1.45-.33.7-.25,1.39.22,2,.45.58,1.04.75,1.77.61,5.73-1.11,9.79-5.96,9.8-11.81.02-9.3,0-18.61,0-27.91Z"/>
  <path class="cls-1" d="m39.98,47.99c-.71-.01-1.42.06-2.12-.02-1.27-.13-2.15.38-2.95,1.35-1.56,1.89-3.21,3.71-4.88,5.61-.17-.18-.29-.3-.4-.42-1.59-1.82-3.2-3.62-4.76-5.46-.63-.74-1.34-1.08-2.32-1.07-3.46.04-6.91.02-10.37.01-4.64-.01-8.14-3.51-8.15-8.14,0-2.54,0-5.08,0-7.62,0-1.32-.82-2.23-2-2.23-1.18,0-1.99.9-1.99,2.24,0,2.58-.01,5.16,0,7.74,0,.7.05,1.42.19,2.11,1.13,5.9,5.96,9.88,11.98,9.89,3.1,0,6.2.01,9.31,0,.44,0,.73.13,1.01.46,1.89,2.19,3.8,4.36,5.71,6.54,1.19,1.35,2.39,1.36,3.57.01,1.59-1.82,3.25-3.58,4.74-5.47.9-1.14,1.85-1.83,3.34-1.53.04,0,.08,0,.12,0,1.13-.04,1.99-.89,2.01-1.98.01-1.11-.86-1.99-2.02-2.02Z"/>
  <polygon class="cls-1" points="37.42 18.59 32.55 21.11 30 12.01 27.48 21.11 22.58 18.59 25.05 23.36 17.66 26 25.05 28.67 22.58 33.42 27.48 30.9 30 39.99 32.55 30.9 37.42 33.42 34.95 28.67 42.34 26 34.95 23.36 37.42 18.59"/>
</svg>