<?xml version="1.0" encoding="UTF-8"?>
<svg id="_圖層_1" data-name="圖層 1" xmlns="http://www.w3.org/2000/svg" viewBox="0 0 70 70">
  <defs>
    <style>
      .cls-1 {
        fill: #fff;
        stroke-width: 0px;
      }
    </style>
  </defs>
  <g>
    <path class="cls-1" d="m34.11,37.09c-3.71-3.72-7.39-7.4-11.04-11.06.53-.53,1.02-1.03,1.49-1.5,4.15,4.15,8.34,8.35,12.51,12.53-4.15,4.16-8.34,8.36-12.5,12.53-.46-.46-.96-.96-1.47-1.47,3.64-3.65,7.33-7.34,11.01-11.03Z"/>
    <path class="cls-1" d="m37.08,37.04c3.71,3.72,7.39,7.4,11.04,11.06-.53.53-1.02,1.03-1.49,1.5-4.15-4.15-8.34-8.35-12.51-12.53,4.15-4.16,8.34-8.36,12.5-12.53.46.46.96.96,1.47,1.47-3.64,3.65-7.33,7.34-11.01,11.03Z"/>
  </g>
  <path class="cls-1" d="m35,1.5c18.47,0,33.5,15.03,33.5,33.5s-15.03,33.5-33.5,33.5S1.5,53.47,1.5,35,16.53,1.5,35,1.5m0-1.5C15.67,0,0,15.67,0,35s15.67,35,35,35,35-15.67,35-35S54.33,0,35,0h0Z"/>
</svg>