<?xml version="1.0" encoding="UTF-8"?>
<svg id="_圖層_1" data-name="圖層 1" xmlns="http://www.w3.org/2000/svg" viewBox="0 0 50 50">
  <defs>
    <style>
      .cls-1 {
        fill: #af8265;
        stroke-width: 0px;
      }
    </style>
  </defs>
  <path class="cls-1" d="m49.83,25.74C50.2,11.71,38.95,0,25.01,0S.1,11.43.1,25.09s11.15,24.91,24.91,24.91,24.26-10.6,24.81-23.79c.09-.28.09-.37,0-.46m-5.2,10.41h-8.74c.65-2.79,1.02-5.95,1.12-9.2h10.5c-.37,3.35-1.3,6.51-2.88,9.2m-26.21,5.39c-.46-.93-.84-1.95-1.21-3.07h15.52c-.37,1.12-.74,2.14-1.21,3.07-3.62,7.99-9.39,7.99-13.1,0m-1.86-5.39c-.65-2.79-1.12-5.86-1.21-9.2h19.24c-.09,3.25-.56,6.41-1.21,9.2h-16.82ZM2.52,26.95h10.5c.09,3.25.46,6.32,1.12,9.2H5.4c-1.58-2.7-2.51-5.86-2.88-9.2m2.97-13.38h8.83c-.84,3.35-1.21,7.16-1.3,11.06H2.43c.09-3.9,1.21-7.71,3.07-11.06M25.01,2.23c2.42,0,4.74,2.32,6.6,6.23.37.84.74,1.77,1.02,2.79h-15.24c.28-1.02.65-1.86,1.02-2.79,1.86-3.9,4.18-6.23,6.6-6.23m8.36,11.34c.84,3.35,1.3,7.06,1.3,11.06H15.35c0-4,.46-7.71,1.3-11.06h16.73Zm3.63,11.15c0-3.9-.47-7.71-1.3-11.06h8.83c1.86,3.25,2.97,7.06,3.07,11.06h-10.59Zm5.95-13.48h-7.9c-.84-2.88-2.23-5.95-4.18-8.27,4.93,1.39,9.11,4.37,12.08,8.27M19.06,3.07c-1.95,2.23-3.25,5.39-4.18,8.27h-7.9c3.07-4,7.25-6.97,12.08-8.27M6.98,38.48h7.9c.84,2.88,2.14,5.95,4.18,8.27-4.93-1.39-9.2-4.28-12.08-8.27m24.07,8.27c1.95-2.32,3.35-5.39,4.18-8.27h7.9c-2.97,4-7.25,6.88-12.08,8.27"/>
</svg>