<?xml version="1.0" encoding="UTF-8"?>
<svg id="_圖層_1" data-name="圖層 1" xmlns="http://www.w3.org/2000/svg" viewBox="0 0 80 80">
  <defs>
    <style>
      .cls-1 {
        stroke-width: 0px;
      }
    </style>
  </defs>
  <path class="cls-1" d="m73.25,15.01c-6.56-8.21-15.33-12.62-25.55-14.38-1.66-.29-3.35-.42-5.03-.63h-5.32c-.2.04-.4.1-.6.13-1.78.22-3.58.35-5.35.67-8.3,1.53-15.65,5-21.72,10.95C4.33,16.98,1.01,23.26.44,30.78c-.6,7.9,1.78,14.92,6.9,20.95,5.78,6.81,13.32,10.61,21.94,12.48,1.62.35,3.26.57,4.94.86,0,2.31,0,4.6,0,6.89,0,2.06,0,4.11,0,6.17,0,.74.25,1.33.93,1.68.68.35,1.31.19,1.89-.27.14-.11.29-.22.44-.33,8.27-6.31,16.54-12.61,24.8-18.93,4.42-3.38,8.62-7,11.96-11.51,3.14-4.24,5.11-8.93,5.39-14.24.38-7.31-1.82-13.83-6.36-19.52Zm-2.2,32.51c-2.89,3.74-6.44,6.81-10.17,9.67-7.55,5.79-15.12,11.55-22.68,17.32-.18.14-.37.25-.67.45v-.87c0-3.41,0-6.82,0-10.23,0-1.35-.48-1.89-1.84-2.01-6.34-.58-12.35-2.23-17.83-5.53-6.1-3.67-10.71-8.64-12.91-15.5-2.75-8.58-1.14-16.47,4.29-23.56,4.85-6.33,11.38-10.26,19.01-12.32,11.54-3.11,22.65-1.97,33.08,4.04,5.81,3.35,10.37,7.98,12.99,14.24,3.64,8.7,2.52,16.83-3.26,24.31Z"/>
  <path class="cls-1" d="m49.37,25.21c-.13-.67-.55-1.12-1.24-1.24-.66-.12-1.31.02-1.64.63-.24.43-.35.98-.36,1.48-.04,2.13-.02,4.27-.02,6.4,0,.43,0,.85,0,1.28-.48-.29-.78-.61-1.04-.95-2.05-2.66-4.1-5.33-6.16-7.98-.64-.83-1.26-1.06-2.02-.81-.8.26-1.24.82-1.25,1.78-.02,4.4-.02,8.8,0,13.2,0,1.1.73,1.82,1.73,1.83.94.01,1.66-.74,1.68-1.87.04-2.08.02-4.17.02-6.25,0-.49,0-.97,0-1.46.07-.03.14-.06.22-.09.25.26.51.5.73.77.89,1.12,1.76,2.26,2.64,3.39,1.25,1.6,2.49,3.21,3.75,4.8.48.61,1.11.86,1.87.59.75-.26,1.11-.82,1.15-1.6.01-.26.02-.52.02-.78,0-3.98,0-7.97-.01-11.95,0-.39,0-.79-.07-1.17Z"/>
  <path class="cls-1" d="m56.67,27.31c1.56,0,3.13,0,4.69-.11,1.08-.07,1.65-.74,1.59-1.65-.07-1.03-.7-1.63-1.81-1.63-2.22-.02-4.43-.03-6.65,0-1.54.02-2.11.61-2.13,2.16-.02,2.16-.02,4.32-.02,6.48,0,2.11,0,4.21.02,6.32.02,1.16.53,1.87,1.55,1.89,2.5.07,5,.06,7.5,0,1.01-.03,1.51-.7,1.5-1.65,0-.93-.54-1.51-1.56-1.61-.7-.07-1.41-.07-2.11-.07-1.11-.01-2.23,0-3.37,0v-3.25c.44-.03.82-.07,1.21-.08,1.38-.02,2.76.01,4.14-.05,1.25-.06,1.9-.96,1.64-2.13-.17-.75-.8-1.21-1.85-1.25-.99-.04-1.98-.01-2.97-.03-2.38-.03-2.47-.15-2.28-2.52.05-.66.3-.82.9-.82Z"/>
  <path class="cls-1" d="m25.99,37.5c-.41-.07-.83-.07-1.25-.07-1.45,0-2.91,0-4.45,0,0-3.71,0-7.28,0-10.85,0-.51-.04-1.05-.18-1.54-.22-.75-.84-1.14-1.6-1.11-.77.03-1.33.45-1.5,1.24-.1.45-.14.93-.14,1.39,0,3.93,0,7.86,0,11.79,0,.36.03.73.09,1.09.13.79.62,1.33,1.4,1.34,2.53.05,5.06.06,7.58,0,.88-.02,1.51-.79,1.52-1.6.02-.8-.59-1.52-1.47-1.68Z"/>
  <path class="cls-1" d="m32.72,25.3c-.06-.99-.46-1.33-1.44-1.38-1.4-.08-1.89.37-1.9,1.8-.01,2.21,0,4.42,0,6.63,0,2.26-.01,4.52,0,6.79.01,1.25.46,1.7,1.61,1.72,1.2.03,1.66-.41,1.75-1.68.02-.23.01-.47.01-.7,0-3.38,0-6.76,0-10.14,0-1.01.02-2.03-.04-3.04Z"/>
</svg>