<?xml version="1.0" encoding="UTF-8"?>
<svg id="a" data-name="圖層 1" xmlns="http://www.w3.org/2000/svg" viewBox="0 0 412.66 123.86">
  <path d="m152.85,88.56c-3.89-1.41-5.57-3.39-4.95-5.77.79-1.97,2.89-3.07,4.95-2.6,2.47.42,4.54,2.09,5.47,4.41v.22l1.51-2.82h0c-1.8-1.95-4.33-3.05-6.99-3.05h-.27c-3.52-.4-6.71,2.09-7.18,5.6-.22,3.12,1.98,5.35,6.96,7.06,3.91,1.36,5.57,2.82,5.35,4.78-.11.87-.57,1.67-1.26,2.2-1.28.82-2.82,1.11-4.31.82-2.46-.48-4.42-2.33-5.05-4.76v-.22l-1.93,2.48h0c1.77,2.42,4.59,3.84,7.58,3.81h.3c2.19.09,4.33-.67,5.97-2.13.96-.95,1.46-2.27,1.39-3.62-.27-2.68-2.4-4.53-7.53-6.42Z" style="fill: #af8265; stroke-width: 0px;"/>
  <path d="m323.38,79.27l.12-.2h-4.16v.2c.33.46.48,1.02.45,1.59v17.74c.04.56-.12,1.12-.45,1.59v.2h4.16l-.12-.2c-.27-.43-.41-.93-.42-1.44v-17.91c-.02-.55.13-1.09.42-1.56Z" style="fill: #af8265; stroke-width: 0px;"/>
  <path d="m377.46,79.27v-.2h-4.16v.2c.3.47.45,1.03.42,1.59v17.74c.03.56-.12,1.11-.42,1.59v.2h4.16v-.2c-.29-.42-.45-.92-.45-1.44v-17.91c-.02-.55.14-1.1.45-1.56Z" style="fill: #af8265; stroke-width: 0px;"/>
  <path d="m186.34,79.27h-14.37l-1.24,2.48s.84-.89,4.09-.89h2.8v17.93c-.06.63-.24,1.23-.54,1.78h4.16c-.31-.52-.49-1.11-.54-1.71v-18.18h2.8c3.27,0,4.11.89,4.11.89l-1.26-2.3Z" style="fill: #af8265; stroke-width: 0px;"/>
  <path d="m276.96,93.34l-.12.27c-.95,3.27-3.88,5.57-7.28,5.7-4.91-.43-8.57-4.72-8.22-9.64-.34-4.91,3.32-9.19,8.22-9.61,3.45.08,6.45,2.39,7.43,5.7v.32l1.21-3.37h0c-2.25-2.46-5.44-3.84-8.77-3.79-6.04-.29-11.17,4.38-11.46,10.42-.29,6.04,4.38,11.17,10.42,11.46.35.02.69.02,1.04,0,3.43-.1,6.67-1.61,8.94-4.19h0l-1.41-3.27Z" style="fill: #af8265; stroke-width: 0px;"/>
  <path d="m411.32,93.34v.27c-.96,3.27-3.9,5.56-7.31,5.7-4.91-.43-8.57-4.72-8.22-9.64-.34-4.91,3.32-9.19,8.22-9.61,3.41.14,6.34,2.43,7.31,5.7v.32l1.21-3.37h0c-2.25-2.46-5.44-3.84-8.77-3.79-6.04-.29-11.17,4.38-11.46,10.42-.29,6.04,4.38,11.17,10.42,11.46.35.02.69.02,1.04,0,3.41-.11,6.63-1.62,8.89-4.19h0l-1.34-3.27Z" style="fill: #af8265; stroke-width: 0px;"/>
  <path d="m207.1,79.27h-3.34v.17c.48.67.59,1.53.3,2.3l-8.2,18.68h1.76l2.75-6.29h9.91l2.75,6.24h3.42l-9.29-21.11h-.05Zm2.48,13.48h-8.67l4.34-9.91,4.34,9.91Z" style="fill: #af8265; stroke-width: 0px;"/>
  <path d="m238.46,90.02h1.26c3,0,5.43-2.43,5.43-5.43s-2.43-5.43-5.43-5.43h-10.63v.2c.33.46.48,1.02.45,1.59v17.66c.04.56-.12,1.12-.45,1.59v.2h4.16l-.12-.2c-.27-.43-.42-.93-.42-1.44v-18.28h5.28c2.26-.18,4.24,1.52,4.42,3.78s-1.52,4.24-3.78,4.42c-.21.02-.43.02-.64,0h-4.21v.2l.64,1.07.54.84c2.1,3.36,4.76,6.33,7.88,8.77,1,.54,2.11.84,3.25.87h.94l-.22-.17c-3.17-3.08-5.97-6.51-8.35-10.23Z" style="fill: #af8265; stroke-width: 0px;"/>
  <path d="m356.8,98.12v-18.85h-1.63v16.84l-13.65-16.84h-3.37l.4.22c.61.47.95,1.21.89,1.98v19h1.66v-16.84l13.6,16.8h3.22l-.25-.22c-.56-.55-.87-1.3-.87-2.08Z" style="fill: #af8265; stroke-width: 0px;"/>
  <path d="m296.92,79.27l.12-.2h-4.16v.2c.31.47.47,1.02.45,1.59v17.74c.02.56-.13,1.12-.45,1.59v.2h4.16l-.12-.2c-.27-.43-.41-.93-.42-1.44v-17.91c-.02-.55.13-1.09.42-1.56Z" style="fill: #af8265; stroke-width: 0px;"/>
  <path d="m297.71,98.87c-3.27,0-4.09-.89-4.09-.89l1.24,2.48h10.4l1.24-2.48s-.84.87-4.09.87h-2.48l-2.23.02Z" style="fill: #af8265; stroke-width: 0px;"/>
  <path d="m96.84,17.07C87.15,6.07,71.97,0,54.13,0S21.13,6.07,11.42,17.07C2.28,27.45-1.56,41.37.57,57.35c2.16,15.77,7.97,30.82,16.97,43.95,4.31,6.34,9.77,11.81,16.1,16.13,12.31,8.59,28.67,8.59,40.97,0,6.33-4.32,11.79-9.79,16.1-16.13,9-13.13,14.81-28.18,16.97-43.95,2.03-15.98-1.71-29.9-10.85-40.28Zm7.43,39.83c-2.07,15.2-7.67,29.71-16.35,42.36-12.39,17.34-25.12,21.08-33.71,21.08s-21.4-3.67-33.71-21.08c-8.68-12.63-14.31-27.11-16.42-42.29-1.91-14.86,1.56-27.89,9.91-37.5C23.22,9.17,37.31,3.52,54.13,3.52s31.01,5.65,40.06,15.88c8.45,9.61,11.92,22.57,10.01,37.58l.07-.07Z" style="fill: #af8265; stroke-width: 0px;"/>
  <path d="m35.78,52.57c-1.48-1.71-2.25-3.91-2.16-6.17.15-3.58,2.73-6.59,6.24-7.28.9-.24,1.86.05,2.48.74l7.43,8.15v-8.13c.05-1.45-1.08-2.67-2.52-2.72-.02,0-.03,0-.05,0h-9.91c-5.62-.04-10.3,4.3-10.68,9.91-.12,2.63.77,5.21,2.48,7.21,2.03,2.48,10.28,10.31,13.72,14.22,2.44,2.44,2.44,6.39,0,8.83-.13.13-.26.25-.39.36l-12.26,10.18v8.82l18.78-16.99c3.29-3.56,3.52-8.98.54-12.81-5.25-6.07-11.92-12.21-13.7-14.32Z" style="fill: #af8265; stroke-width: 0px;"/>
  <path d="m70.93,37.16h-9.91c-1.44,0-2.6,1.16-2.6,2.6,0,0,0,.02,0,.02v8.13l7.43-8.15c.62-.69,1.58-.98,2.48-.74,3.51.69,6.09,3.71,6.24,7.28.1,2.26-.68,4.46-2.16,6.17-1.78,2.11-8.42,8.25-13.7,14.22-3.17,3.86-2.97,9.48.47,13.1l18.78,16.99v-8.72l-12.26-10.18c-2.63-2.23-2.96-6.17-.73-8.8.12-.14.24-.27.36-.39,3.47-3.91,11.72-11.72,13.75-14.19,1.71-2,2.59-4.58,2.48-7.21-.29-5.66-4.96-10.11-10.63-10.13Z" style="fill: #af8265; stroke-width: 0px;"/>
  <polygon points="60.25 29.31 58.22 25.39 64.31 23.19 58.22 21.01 60.25 17.07 56.24 19.15 54.13 11.64 52.05 19.15 48.01 17.07 50.04 21.01 43.95 23.19 50.04 25.39 48.01 29.31 52.05 27.22 54.13 34.73 56.24 27.22 60.25 29.31" style="fill: #af8265; stroke-width: 0px;"/>
  <path d="m204.05,33.96c-1.81,6.23-5.22,11.88-9.91,16.37l.45.79c4.38-2.48,9.04-8.3,12.14-16.45,0,0-1.19-.97-1.71-.94-.33.06-.65.14-.97.22Z" style="fill: #af8265; stroke-width: 0px;"/>
  <rect x="197.64" y="32.58" width="18.93" height="1.61" style="fill: #af8265; stroke-width: 0px;"/>
  <path d="m213.32,21.25c-5.09,2.29-10.51,3.77-16.05,4.41,0,0,.15.4.3.94,6.02.12,12.01-.88,17.66-2.95l-1.91-2.4Z" style="fill: #af8265; stroke-width: 0px;"/>
  <rect x="205.64" y="24.38" width="3.1" height="33.84" style="fill: #af8265; stroke-width: 0px;"/>
  <rect x="220.7" y="23.63" width="10.87" height="1.56" style="fill: #af8265; stroke-width: 0px;"/>
  <rect x="220.7" y="55.66" width="10.87" height="1.56" style="fill: #af8265; stroke-width: 0px;"/>
  <rect x="218.82" y="23.63" width="3.15" height="33.57" style="fill: #af8265; stroke-width: 0px;"/>
  <rect x="229.79" y="23.63" width="3.15" height="33.57" style="fill: #af8265; stroke-width: 0px;"/>
  <path d="m209.28,36.59l1.19-.69c2.98,3.71,5.13,8.02,6.32,12.63h-3.42c-.62-4.2-2.01-8.24-4.09-11.94Z" style="fill: #af8265; stroke-width: 0px;"/>
  <rect x="151.66" y="22.47" width="3.15" height="13.38" style="fill: #af8265; stroke-width: 0px;"/>
  <rect x="178.24" y="22.47" width="3.15" height="13.38" style="fill: #af8265; stroke-width: 0px;"/>
  <rect x="154.28" y="28.29" width="24.52" height="1.66" style="fill: #af8265; stroke-width: 0px;"/>
  <rect x="154.28" y="34.28" width="24.52" height="1.59" style="fill: #af8265; stroke-width: 0px;"/>
  <rect x="154.28" y="22.47" width="24.52" height="1.56" style="fill: #af8265; stroke-width: 0px;"/>
  <rect x="164.89" y="37.26" width="3.25" height="20.39" style="fill: #af8265; stroke-width: 0px;"/>
  <rect x="155" y="42.43" width="27.65" height="1.56" style="fill: #af8265; stroke-width: 0px;"/>
  <rect x="152.1" y="49" width="28.83" height="1.56" style="fill: #af8265; stroke-width: 0px;"/>
  <rect x="147.74" y="56.6" width="36.89" height="1.61" style="fill: #af8265; stroke-width: 0px;"/>
  <path d="m155.89,37.41c-1.6,4.74-4.48,8.94-8.32,12.14l.52.59c4.8-2.7,8.63-6.85,10.95-11.84l-3.15-.89Z" style="fill: #af8265; stroke-width: 0px;"/>
  <rect x="251.07" y="22.47" width="2.4" height="13.4" style="fill: #af8265; stroke-width: 0px;"/>
  <rect x="251.09" y="21.63" width="17.29" height="1.41" style="fill: #af8265; stroke-width: 0px;"/>
  <rect x="248.69" y="40.55" width="39.36" height="1.61" style="fill: #af8265; stroke-width: 0px;"/>
  <rect x="252.75" y="56.63" width="31.26" height="1.56" style="fill: #af8265; stroke-width: 0px;"/>
  <rect x="252.75" y="45.06" width="31.26" height="1.56" style="fill: #af8265; stroke-width: 0px;"/>
  <rect x="258.2" y="53.01" width="19.94" height="1.63" style="fill: #af8265; stroke-width: 0px;"/>
  <rect x="271.23" y="21.63" width="10.78" height="1.41" style="fill: #af8265; stroke-width: 0px;"/>
  <rect x="269.75" y="29.33" width="14.64" height="1.41" style="fill: #af8265; stroke-width: 0px;"/>
  <polygon points="266.55 27.6 256.2 27.6 256.89 26.18 266.55 26.18 266.55 27.6" style="fill: #af8265; stroke-width: 0px;"/>
  <rect x="255.08" y="30.1" width="12.51" height="1.41" style="fill: #af8265; stroke-width: 0px;"/>
  <polygon points="253.99 38.62 253.99 37.01 267.91 37.01 266.85 38.62 253.99 38.62" style="fill: #af8265; stroke-width: 0px;"/>
  <path d="m251.12,35.62c-.14,1.51.97,2.85,2.49,2.99.14.01.28.01.41,0l1.02-1.59s-1.51,0-1.51-1.19c0-.62-.47-1.15-1.09-1.21l-1.21.77-.1.22Z" style="fill: #af8265; stroke-width: 0px;"/>
  <path d="m257.56,23.73c-.7,2.03-1.83,3.89-3.32,5.45l.69.45c2.01-1.29,3.6-3.12,4.61-5.28l-1.98-.62Z" style="fill: #af8265; stroke-width: 0px;"/>
  <path d="m260.11,27.25l-.17.32c.27,3.55-1.95,6.82-5.35,7.88l.35.54s5.2-1.02,6.81-4.58c.53-1.3.75-2.69.67-4.09-.4,0-.45-.25-.45-.25l-1.86.17Z" style="fill: #af8265; stroke-width: 0px;"/>
  <path d="m262.74,30.74c.89,2.19,2.7,3.87,4.95,4.58l-.35.54c-2.73-.54-5.12-2.19-6.59-4.56,0,0,0-.25-.2-.57h2.18Z" style="fill: #af8265; stroke-width: 0px;"/>
  <path d="m271.85,22.57l-.62-.27c.19,2.52-1.11,4.92-3.32,6.14l.4.67s4.48-.97,5.43-4.56c.13-.66.17-1.34.12-2.01l-2.01.02Z" style="fill: #af8265; stroke-width: 0px;"/>
  <path d="m281.14,30.17s-1.59,5.67-12.56,8.5l.32.74c6.16-.56,11.79-3.71,15.48-8.67l-3.25-.57Z" style="fill: #af8265; stroke-width: 0px;"/>
  <rect x="252.73" y="45.11" width="3.05" height="13.08" style="fill: #af8265; stroke-width: 0px;"/>
  <rect x="280.94" y="45.11" width="3.05" height="13.08" style="fill: #af8265; stroke-width: 0px;"/>
  <path d="m263.73,41.59s.45,5.33-2.48,7.26c-1.34.94-2.84,1.61-4.43,1.98l.62,1.09c2.2-.37,4.3-1.21,6.14-2.48,1.64-1.07,2.66-2.85,2.75-4.81.15-1.06.23-2.13.25-3.2l-2.85.15Z" style="fill: #af8265; stroke-width: 0px;"/>
  <path d="m270.32,41.89v6.27s-.27,2.48,2.95,2.48h8.22v-1.98h-7.78s-.84,0-.87-1.24,0-5.5,0-5.5l-2.53-.02Z" style="fill: #af8265; stroke-width: 0px;"/>
  <path d="m286.22,28.41h-3.39c-2.06,0-3.07-.74-3.07-2.65v-4.14h2.48v4.14c0,.72,0,1.14,1.09,1.14h3.44l-.55,1.51Z" style="fill: #af8265; stroke-width: 0px;"/>
  <path d="m277.55,35.37c-1.22-.68-2.36-1.51-3.37-2.48-.93-.84-1.6-1.93-1.93-3.15l-2.48.64v.4c.67,1.47,1.67,2.77,2.92,3.79,1.24.98,2.6,1.81,4.04,2.48,2.8,1.27,5.77,2.11,8.82,2.48l.15-.84c-2.87-.68-5.62-1.8-8.15-3.32Z" style="fill: #af8265; stroke-width: 0px;"/>
  <rect x="309.73" y="28.29" width="28.59" height="1.54" style="fill: #af8265; stroke-width: 0px;"/>
  <path d="m338.61,39.36c-1.93-.31-3.84-.78-5.7-1.41-1.93-.66-3.75-1.62-5.38-2.85-1.74-1.33-3.11-3.08-3.99-5.08-.44-1.04-.75-2.13-.92-3.25-.09-.56-.15-1.12-.17-1.68l.27-1.54h2.18l.27,1.49v1.36c.21,2.74,1.47,5.3,3.52,7.13,1.39,1.24,2.97,2.26,4.68,3,1.73.77,3.53,1.39,5.38,1.83l-.15.99Z" style="fill: #af8265; stroke-width: 0px;"/>
  <path d="m308.84,38.37c1.84-.45,3.64-1.06,5.38-1.83,1.71-.75,3.29-1.76,4.68-3,1.35-1.22,2.38-2.76,2.97-4.48.3-.85.47-1.75.52-2.65.02-.45.02-.91,0-1.36l.3-1.49h2.18l.25,1.54c0,.57,0,1.11-.17,1.68-.18,1.12-.49,2.21-.94,3.25-.86,2.01-2.23,3.75-3.96,5.08-1.63,1.23-3.44,2.19-5.38,2.85-1.86.62-3.76,1.1-5.7,1.41l-.12-.99Z" style="fill: #af8265; stroke-width: 0px;"/>
  <path d="m333.34,30.92c-.61,2.06-1.83,3.89-3.49,5.25.51.03,1.02.03,1.54,0,2.52-1.02,4.6-2.9,5.87-5.3l-3.91.05Z" style="fill: #af8265; stroke-width: 0px;"/>
  <path d="m314.91,30.92c.63,2.06,1.86,3.88,3.52,5.25-.52.03-1.04.03-1.56,0-2.52-1.02-4.59-2.9-5.85-5.3l3.89.05Z" style="fill: #af8265; stroke-width: 0px;"/>
  <rect x="322.39" y="21.48" width="2.77" height="5.47" style="fill: #af8265; stroke-width: 0px;"/>
  <rect x="308.76" y="23.76" width="30.02" height="1.56" style="fill: #af8265; stroke-width: 0px;"/>
  <rect x="307.03" y="23.76" width="3.05" height="20.81" style="fill: #af8265; stroke-width: 0px;"/>
  <path d="m307.03,44.59c0,6.37-2.01,10.8-5.28,13.4l.64.74s7.7-3.1,7.7-14.14l-1.56-.77-1.51.77Z" style="fill: #af8265; stroke-width: 0px;"/>
  <rect x="314.93" y="37.26" width="18.6" height="1.54" style="fill: #af8265; stroke-width: 0px;"/>
  <rect x="314.93" y="41.79" width="18.6" height="1.54" style="fill: #af8265; stroke-width: 0px;"/>
  <rect x="314.93" y="46.32" width="18.6" height="1.54" style="fill: #af8265; stroke-width: 0px;"/>
  <rect x="313.59" y="37.26" width="2.65" height="10.63" style="fill: #af8265; stroke-width: 0px;"/>
  <rect x="331.8" y="37.26" width="2.65" height="10.63" style="fill: #af8265; stroke-width: 0px;"/>
  <path d="m329.37,49.54c2.24,2.31,4.16,4.91,5.7,7.73l3.27-.87c-1.85-3.21-4.69-5.72-8.1-7.16l-.87.3Z" style="fill: #af8265; stroke-width: 0px;"/>
  <path d="m309.23,56.98c2.78-2.19,5.02-4.99,6.56-8.17l3,1.21c-2.3,3.28-5.42,5.9-9.04,7.61l-.52-.64Z" style="fill: #af8265; stroke-width: 0px;"/>
  <polygon points="323.28 54.77 325.93 55.27 325.93 46.99 323.28 46.99 323.28 54.77" style="fill: #af8265; stroke-width: 0px;"/>
  <path d="m324.39,54s-1.11.25-1.11.54c0,1.19.22,1.96-1.66,1.96-1.22,0-2.44-.18-3.62-.52l-.37.84c1.99.98,4.14,1.61,6.34,1.88,2.23,0,2.06-2.65,2.08-3.64s-1.66-1.07-1.66-1.07Z" style="fill: #af8265; stroke-width: 0px;"/>
  <path d="m301.83,30.94c1.74,1.28,3.12,2.99,4.01,4.95l2.23-1.14s-.47-2.6-5.67-4.26l-.57.45Z" style="fill: #af8265; stroke-width: 0px;"/>
  <path d="m307.03,38.47c-1.53,2.33-3.48,4.35-5.77,5.95l1.61,2.23c2.71-1.61,4.44-4.46,4.63-7.61l-.47-.57Z" style="fill: #af8265; stroke-width: 0px;"/>
</svg>