<?xml version="1.0" encoding="UTF-8"?>
<svg xmlns="http://www.w3.org/2000/svg" version="1.1" viewBox="0 0 353.3 327">
  <defs>
    <style>
      .cls-1 {
        fill: #323333;
      }

      .cls-2 {
        fill: #323232;
      }
    </style>
  </defs>
  <!-- Generator: Adobe Illustrator 28.6.0, SVG Export Plug-In . SVG Version: 1.2.0 Build 709)  -->
  <g>
    <g id="_圖層_1" data-name="圖層_1">
      <g>
        <g>
          <path class="cls-2" d="M307.6,93c-5.2,0-9.4,4.2-9.4,9.4v172.5c0,18.2-14.8,33.1-33.1,33.1H57.9c-18.2,0-33.1-14.8-33.1-33.1V67.9c0-18.2,14.8-33.1,33.1-33.1h207.1c5.2,0,9.4-4.2,9.4-9.4s-4.2-9.4-9.4-9.4H57.9c-28.6,0-51.9,23.3-51.9,51.9v207.1c0,28.6,23.3,51.9,51.9,51.9h207.1c28.6,0,51.9-23.3,51.9-51.9V102.5c0-5.2-4.2-9.4-9.5-9.4h0ZM307.6,93"/>
          <path class="cls-1" d="M265.1,15.9c5.2,0,9.4,4.2,9.4,9.4s-4.2,9.4-9.4,9.4H57.9c-18.2,0-33.1,14.8-33.1,33.1v207.1c0,18.2,14.8,33.1,33.1,33.1h207.1c18.2,0,33.1-14.8,33.1-33.1V102.5c0-5.2,4.2-9.4,9.4-9.4s9.4,4.2,9.4,9.4v172.5c0,28.6-23.3,51.9-51.9,51.9H57.9c-28.6,0-51.9-23.3-51.9-51.9V67.9c0-28.6,23.3-51.9,51.9-51.9h207.1M265.1,12.9H57.9C27.6,12.9,3,37.6,3,67.9v207.1c0,30.3,24.6,54.9,54.9,54.9h207.1c30.3,0,54.9-24.7,54.9-54.9V102.5c0-6.9-5.6-12.4-12.4-12.4s-12.4,5.6-12.4,12.4v172.5c0,16.6-13.5,30.1-30.1,30.1H57.9c-16.6,0-30.1-13.5-30.1-30.1V67.9c0-16.6,13.5-30.1,30.1-30.1h207.1c6.9,0,12.4-5.6,12.4-12.4s-5.6-12.4-12.4-12.4h0Z"/>
        </g>
        <g>
          <path class="cls-2" d="M342.5,8.7c-3.7-3.7-9.7-3.7-13.4,0l-189.8,189.8-47.4-47.4c-3.7-3.7-9.7-3.7-13.4,0-3.7,3.7-3.7,9.7,0,13.4l54.1,54.1c1.8,1.8,4.3,2.8,6.7,2.8s4.8-.9,6.7-2.8c0,0,0,0,0,0L342.5,22.1c3.7-3.7,3.7-9.7,0-13.4h0ZM342.5,8.7"/>
          <path class="cls-1" d="M335.8,6c2.4,0,4.8.9,6.7,2.8,3.7,3.7,3.7,9.7,0,13.4l-196.4,196.4s0,0,0,0c-1.8,1.8-4.3,2.8-6.7,2.8s-4.8-.9-6.7-2.8l-54.1-54.1c-3.7-3.7-3.7-9.7,0-13.4,1.8-1.8,4.3-2.8,6.7-2.8s4.8.9,6.7,2.8l47.4,47.4L329.2,8.7c1.8-1.8,4.3-2.8,6.7-2.8M335.8,3c-3.3,0-6.5,1.3-8.8,3.6l-187.7,187.7-45.3-45.3c-2.3-2.4-5.5-3.6-8.8-3.6s-6.4,1.3-8.8,3.6c-4.9,4.9-4.9,12.7,0,17.6l54.1,54.1c2.4,2.4,5.5,3.6,8.8,3.6s6.5-1.3,8.8-3.6c0,0,0,0,.1-.1L344.6,24.2c2.4-2.4,3.6-5.5,3.6-8.8s-1.3-6.5-3.6-8.8c-2.4-2.4-5.5-3.6-8.8-3.6h0Z"/>
        </g>
      </g>
    </g>
  </g>
</svg>