<?xml version="1.0" encoding="UTF-8"?>
<svg id="a" data-name="圖層 1" xmlns="http://www.w3.org/2000/svg" viewBox="0 0 240 240">
  <path d="m200.76,211.52V50.34c0-4.7,0-9.37-.04-14.09-.08-7.09-5.31-7.57-10.57-7.55l-33.55.02c-.28-13.47-16.37-18.14-25.51-8.9-3.95,3.99-12.25,5.91-16.8,3.63-7.05-3.53-8.54-9.66-18.61-8.24-7.3,1.08-11.84,6.11-12.15,13.51h-25.93c-4.1,0-8.39-.18-12.46.19-6.98.64-5.91,9.19-5.9,13.98v160.72c0,5.34-.26,12.05.34,17.43.37,3.31,5.04,3.95,9.4,3.96h.05c2.6,0,5.09-.22,6.45-.22h97.38s29.19,0,29.19,0c3.16,0,10.8.44,13.34-.21,4.82-1.23,5.43-5.35,5.43-9.29v-.02c0-1.31-.07-2.59-.07-3.74ZM96.47,20.57c8.7-1.28,10.1,8.56,20.66,8.72,9.2.13,12.28.1,18.68-6.46,3.11-3.22,10.33-3.1,13.27.22,2.73,3.08,2.22,14.68,2.02,19.34-1.02,2.33-8.37,1.34-10.85,1.34h-37.97c-15.76,0-12.88,2.67-13.33-10.95-.2-6.18.49-11.06,7.52-12.22Zm95.27,198.92l-147.21.03V38.23c0-1.55-.36-3.47,1.41-4.02h37.58c-.04,6.69-1.46,15.09,8.14,15.04l51.47.02c14.59,0,13.31-2.9,13.46-15.06h23.9c2.9,0,14.7-1.39,14.72,1.74v169.82s.04,7.11.04,7.11c.03,4.01.97,6.56-3.51,6.6Zm-89.31-90.49c-1.48,1.34-4.72,4.73-6.42,5.34-1.39.5-23.68.2-26.81.2v28.71h30.1v-24.28c2.2-2.07,4.6-3.95,6.76-6-.55-.72-2.98-3.64-3.63-3.97Zm-8.63,28.94h-19.23v-18.05h2.28c4.11,0,10.34.22,14.31,0-9.61,11.62-8.49,3.1-11.67,4.61-6.6,3.14,1.96,7.03,4.66,8.82,1.64-.83,3.33-2.38,4.79-3.59,1.62-1.82,3-3.03,4.85-4.55v12.76Zm69.6-23.4h7.65v5.35h-57.42c.12-2,.1-3.37,0-5.35h49.77Zm7.65,18.78c-.07,1.94-.09,3.44,0,5.38h-57.42v-5.38h57.42Zm-68.62-74.51c-1.48,1.34-4.72,4.73-6.42,5.34-1.39.5-23.68.2-26.81.2v28.71h30.1v-24.28c2.2-2.07,4.6-3.95,6.76-6-.55-.72-2.98-3.64-3.63-3.97Zm-8.63,28.94h-19.23v-18.05h2.28c4.11,0,10.34.22,14.31,0-9.61,11.62-8.49,3.1-11.67,4.61-6.6,3.14,1.96,7.03,4.66,8.82,1.64-.83,3.33-2.38,4.79-3.59,1.62-1.82,3-3.03,4.85-4.55v12.76Zm69.6-23.4h7.65v5.35h-57.42c.12-2,.1-3.37,0-5.35h49.77Zm7.65,18.78c-.07,1.94-.09,3.44,0,5.38h-57.42v-5.38h57.42Z" style="fill: #fff; stroke-width: 0px;"/>
</svg>