<?xml version="1.0" encoding="UTF-8"?>
<svg id="_圖層_1" data-name="圖層 1" xmlns="http://www.w3.org/2000/svg" viewBox="0 0 240 240">
  <defs>
    <style>
      .cls-1 {
        fill: #fff;
        stroke-width: 0px;
      }
    </style>
  </defs>
  <path class="cls-1" d="m109.76,105.97c0-9.25.02-18.49-.02-27.74,0-1.25.35-1.89,1.47-2.64,1.6-1.07,3-2.57,4.13-4.15.66-.93,1.16-1.35,2.29-1.36,4.19-.04,8.43.17,12.56-.38,11.37-1.51,19.87-11.9,19.36-23.25-.53-11.83-9.85-21.33-21.56-21.89-3.46-.17-6.93-.05-10.39-.15-.63-.02-1.62-.29-1.81-.72-1.37-3.11-3.88-4.78-6.94-5.86h-63.98c-.28.15-.54.34-.83.45-4.79,1.84-7.21,6.07-6.33,11.11.77,4.47,4.69,7.57,9.63,7.62,1.11.01,2.22,0,3.49,0,0,2.25,0,4.23,0,6.21.02,4.56,2.46,6.99,7.05,7,12.73.01,25.46.01,38.19,0,4.65,0,7.11-2.5,7.13-7.17.01-1.97,0-3.93,0-6.04.95,0,1.61-.03,2.26,0,4.66.28,8.15-1.45,10.27-5.74.22-.44,1.03-.81,1.56-.82,3.46-.05,6.94-.11,10.39.07,8.69.46,15.36,7.27,15.86,16.03.47,8.21-5.57,15.95-13.89,17.15-4.19.6-8.5.32-12.76.37-.39,0-.99-.41-1.16-.78-2.06-4.33-5.6-5.87-10.22-5.86-18.99.06-37.99.02-56.98.03-.93,0-1.87.02-2.79.15-3.96.53-7.07,3.34-7.95,7.13-.93,4,.5,8.38,4,10.25,2.12,1.13,2.63,2.45,2.37,4.52-.09.72-.02,1.46-.01,2.19,0,2.13-.06,4.26.03,6.38.08,1.85,1.39,3.1,3.02,3.09,1.64-.01,2.83-1.28,2.93-3.14.04-.73.01-1.46.01-2.19,0-2.97,0-5.95,0-8.98h53.51v7.09c-2.1,0-4.09-.02-6.07,0-2.4.03-3.67,1.08-3.66,2.98.01,1.87,1.33,2.96,3.7,3,1.98.03,3.96,0,6,0v13.8c-2.08,0-4-.02-5.92,0-2.41.03-3.72,1.05-3.77,2.91-.05,1.96,1.26,3.04,3.79,3.07,1.97.03,3.94,0,5.94,0,.06.78.12,1.24.12,1.7,0,15.17,0,30.33,0,45.5,0,6.12-1.17,12.02-3.32,17.73-4.18,11.13-8.35,22.26-12.55,33.39-1.96,5.19-5.96,8.13-10.94,8.12-4.96,0-8.94-2.97-10.9-8.17-4.03-10.69-7.96-21.42-12.08-32.07-2.65-6.86-3.89-13.9-3.87-21.24.06-16.96.02-33.92.02-50.89,0-.73.23-1.65-.12-2.15-.66-.94-1.61-2.18-2.54-2.28-.94-.1-2.17.88-2.97,1.69-.44.45-.35,1.51-.36,2.29-.02,17.69-.03,35.39,0,53.08.01,6.63,1.08,13.1,3.42,19.33,4.36,11.63,8.7,23.27,13.09,34.88.51,1.36,1.16,2.71,2,3.88,3.91,5.47,9.3,8.18,16,7.49,7.02-.73,12-4.59,14.55-11.18,4.28-11.09,8.34-22.27,12.58-33.38,2.69-7.04,4.02-14.29,3.99-21.83-.06-16.56-.02-33.13-.02-49.69Zm-12.71-61.86h-40.13v-6.98h40.13v6.98Zm12.58-14.58c-.58.87-2.22,1.42-3.41,1.43-9.79.11-19.58.06-29.38.06-9.73,0-19.45,0-29.18,0-2.71,0-4.05-1.2-4.08-3.53-.03-2.42,1.36-3.67,4.16-3.67,19.52,0,39.03,0,58.55-.02,1.59,0,3.15.32,3.62,1.87.36,1.19.35,2.91-.29,3.86Zm-1.77,41.01c-.76.18-1.58.18-2.38.19-9.52.01-19.05,0-28.57,0-9.66,0-19.31.01-28.97,0-3.12,0-4.57-1.43-4.33-4.1.14-1.57.99-2.59,2.51-2.97.7-.17,1.45-.19,2.18-.19,19.11,0,38.23-.01,57.34,0,.79,0,1.62.02,2.37.24,1.7.49,2.44,1.78,2.41,3.48-.03,1.7-.83,2.94-2.55,3.36Z"/>
  <path class="cls-1" d="m156.57,130.28c-25.43-.04-46.08,20.45-46.14,45.78-.06,25.34,20.5,46.02,45.85,46.12,25.47.1,46.19-20.5,46.21-45.93.02-25.39-20.5-45.93-45.93-45.97Zm-.1,85.91c-22.08,0-40.05-17.96-40.04-39.99.01-22.09,17.91-39.93,40.05-39.93,22.15,0,40.02,17.84,40.02,39.94,0,22.08-17.94,39.99-40.03,39.98Z"/>
  <path class="cls-1" d="m63.38,144.3c-.1-2.01-1.12-3.12-2.85-3.18-1.8-.06-3.08,1.1-3.1,3.15-.05,4.79-.31,9.61.14,14.36.42,4.39,1.24,8.84,2.64,13.01,2.84,8.43,6.17,16.69,9.33,25.01,1.42,3.73,3.94,5.62,7.39,5.64,3.54.02,6.09-1.91,7.53-5.74,3.07-8.14,6.13-16.29,9.19-24.43,1.7-4.51,2.8-9.16,2.82-14,.05-11.51.05-23.02.02-34.52,0-3.96-2.53-6.52-6.49-6.54-8.66-.05-17.33-.05-25.99,0-3.95.02-6.46,2.53-6.61,6.48-.07,1.93-.04,3.86,0,5.79.04,2.33,1.17,3.73,2.98,3.76,1.82.03,2.97-1.36,3-3.68.03-2.04,0-4.09,0-6.25h27.12v2.3c0,9.11-.16,18.23.05,27.34.17,7.1-1.01,13.84-3.67,20.43-2.84,7.02-5.34,14.17-8.08,21.23-.28.73-1.15,1.68-1.79,1.71-.6.03-1.25-1.02-1.86-1.62-.13-.13-.18-.36-.25-.54-2.98-7.96-6.11-15.87-8.88-23.9-1.2-3.48-2.02-7.17-2.4-10.83-.44-4.22-.19-8.5-.24-12.76,0-.73.02-1.46-.01-2.19Z"/>
  <path class="cls-1" d="m164.35,176.73c-.26-.16-.58-.23-.86-.33,1.68-1.26,3.05-2.12,4.22-3.18,7.12-6.47,8.86-14.83,8.24-23.96-.04-.59-.48-1.46-.95-1.65-.96-.39-2.35-.87-3.06-.45-.9.53-1.68,1.86-1.82,2.93-.28,2.13-.08,4.32-.08,6.54h-27.16c0-2.29.04-4.47-.01-6.64-.04-1.88-1.21-3.14-2.85-3.21-1.72-.06-3.02,1.21-3.11,3.19-.07,1.53-.08,3.06,0,4.58.54,9.02,3.97,16.44,11.96,21.31.13.08.21.26.37.48-5.67,3.24-9.43,8-11.02,14.14-.94,3.61-1.03,7.46-1.3,11.22-.17,2.47,1.07,3.9,2.95,3.93,1.92.03,2.99-1.34,3.01-3.85.01-1.96,0-3.91,0-5.9h27.15c0,2.21-.03,4.31,0,6.42.04,2.01,1.23,3.31,2.95,3.33,1.74.03,2.98-1.26,3.02-3.25.04-1.86.12-3.73-.05-5.58-.76-8.46-4.16-15.44-11.62-20.06Zm-19.47-13.98h23.19c-1.57,3.48-3.94,5.95-7.02,7.97-3.15,2.07-5.93,2.07-9.09.02-3.05-1.98-5.41-4.41-7.07-7.99Zm0,26.92c1.51-3.38,3.66-5.95,6.71-7.74,4.51-2.65,5.17-2.65,9.71-.03,3.08,1.77,5.23,4.36,6.77,7.78h-23.19Z"/>
</svg>