<?xml version="1.0" encoding="UTF-8"?>
<svg id="a" data-name="圖層 1" xmlns="http://www.w3.org/2000/svg" viewBox="0 0 240 240">
  <path d="m107.22,198.21c-.91-1.05-.79-2.64.27-3.55,1.05-.91,2.63-.79,3.55.26.08.08,3.82,4.26,8.93,4.43,3.41.12,6.48-1.43,9.61-4.56.98-.98,2.58-.98,3.56,0,.98.98.98,2.58,0,3.56-4.01,4.01-8.33,6.05-12.84,6.05-5.08,0-10.22-2.87-13.08-6.19Zm-50.16-60.52c-6.36-10.31-5.8-35.35-2.53-47.75,8.26-31.27,35.69-46.41,60.47-48.21,29.49-2.18,56.26,14.68,65.54,34.02,8.27,17.24,8.81,32.71,6.26,49.48-.31,1.08.08,3.39-3.5,11.8-1.85,3.49-4.49,3.58-5.91,3.32-5.05-.87-4.1-5.9-4.91-9.25-1.66-6.9-5.77-12.02-12.56-15.63-5.8-3.09-10.46-5.78-14.67-8.46-4.66-2.96-8.39-6.71-11.12-11.15-4.55,4.64-10.17,8.4-17.07,11.45-7.96,3.52-15.24,6.4-22.27,8.82-11.16,3.85-20.22,10.97-27.01,19.82-4.75,6.24-8.5,5.31-10.7,1.74Zm3.46-4.25c1.36,2.31.53,2.99,3.24-.55,7.45-9.69,17.3-17.36,29.37-21.52,6.89-2.38,14.04-5.21,21.87-8.67,7.34-3.25,13.05-7.33,17.46-12.5.78-.92,1.58-.81,1.92-.89,3.66,0,3.15,6.83,13.55,13.44,4.1,2.61,8.66,5.24,14.34,8.26,19.13,10.2,14.29,27.92,16.47,23.84.57-1.39,2.4-6.05,2.77-8.45.78-11.08,4.96-26.61-5.53-48.49-8.38-17.47-33.12-33.17-60.63-31.17-23.43,1.71-48.48,16.12-55.96,44.47-5.13,19.41-1.65,30.25,1.12,42.21Zm25.81-93.58c.21,1.23,1.28,2.1,2.48,2.1,1.56,0,2.75-1.4,2.49-2.94-1.07-6.28.34-11.11,4.44-15.2,11.77-11.72,36.72-11.8,48.53.11,3.62,3.65,5.17,8.09,4.68,13.73-.08.21-.16.45-.25.73-.41,1.33.34,2.74,1.67,3.15,1.36.41,2.74-.34,3.15-1.67.2-.56.47-1.25.53-1.97,2.12-28.09-42.65-36.79-61.87-17.65-5.3,5.27-7.21,11.69-5.85,19.62Zm34.7,190.14c10.46,0,23.38-7.13,34.55-19.09.95-1.02.9-2.61-.12-3.56-1.01-.95-2.61-.9-3.56.12-10.08,10.79-21.91,17.49-30.87,17.49-20.64,0-52.62-30.59-54.49-72.85-.06-1.39-1.3-2.55-2.63-2.41-1.39.06-2.47,1.24-2.41,2.63,2,45.05,36.94,77.66,59.53,77.66Zm54.46-77.88c-.13,3.06-.46,6.19-.97,9.3-.25,1.53.93,2.93,2.49,2.93,1.21,0,2.28-.88,2.48-2.11.54-3.31.89-6.64,1.03-9.91.06-1.39-1.02-2.56-2.41-2.62-1.37-.16-2.57,1.02-2.62,2.41Zm-49.81,17.14c-1.39.09-2.44,1.29-2.35,2.67.07,1.08-.85,1.92-1.91,1.87-1.34-.07-2.14-.24-2.58-.38-1.32-.4-2.74.33-3.15,1.66-.41,1.33.33,2.74,1.66,3.15,11.49,3.56,13.51-9.48,8.33-8.99Zm-71.81-.67c3.32.59,4.14-4.38.89-4.96-12.1-2.17-15.86-14.97-7.02-23.38,1.01-.96,1.05-2.55.09-3.56-.95-1.01-2.56-1.06-3.56-.09-11.84,11.26-6.58,29.1,9.6,31.99Zm141.88-31.99c-1.01-.97-2.61-.92-3.56.09-.96,1.01-.92,2.6.09,3.56,8.85,8.42,5.09,21.21-7.02,23.38-3.26.59-2.42,5.55.89,4.96,16.15-2.89,21.46-20.71,9.6-31.99Zm-83.15,4.05c.33-1.36-.5-2.72-1.85-3.04l-10.5-2.55c-6.37-1.55-13-.58-18.67,2.71l-2.32,1.35c-2.2,1.29-1.31,4.7,1.27,4.7,1.1,0,1.59-.62,3.59-1.69,4.53-2.64,9.85-3.41,14.94-2.18l10.49,2.55c1.36.33,2.72-.5,3.04-1.85Zm48.91,3.17c2.56,0,3.49-3.4,1.27-4.7l-2.32-1.36c-5.67-3.3-12.29-4.26-18.67-2.71l-10.49,2.55c-1.35.33-2.18,1.69-1.85,3.04.33,1.35,1.68,2.18,3.04,1.85l10.49-2.55c5.1-1.24,10.41-.47,14.94,2.17,2.05,1.1,2.5,1.7,3.58,1.7Zm33.05,34.41c0-1.39-1.13-2.52-2.52-2.52h-13.47c-2.46-4.96-7.53-8.41-13.43-8.41h-5.48v-2.02c0-1.39-1.13-2.52-2.52-2.52s-2.52,1.13-2.52,2.52v8.78c0,1.39,1.13,2.52,2.52,2.52s2.52-1.13,2.52-2.52v-1.71h5.48c5.52,0,10.01,4.49,10.01,10.01s-4.49,10.01-10.01,10.01h-5.48v-1.87c0-1.39-1.13-2.52-2.52-2.52s-2.52,1.13-2.52,2.52v8.77c0,1.39,1.13,2.52,2.52,2.52s2.52-1.13,2.52-2.52v-1.87c2.6-.43,11.49,1.99,17.52-6.11h14.87c1.39,0,2.52-1.13,2.52-2.52s-1.13-2.52-2.52-2.52h-12.43c.84-3.11.53-4.45.41-5.5h12.02c1.39,0,2.52-1.13,2.52-2.52Zm-42.57-28.05c-3.57,1.22-7.02,1.22-10.57,0-1.33-.45-2.75.25-3.2,1.57-.45,1.32.25,2.75,1.57,3.2,4.44,1.52,9.11,1.61,13.83,0,1.32-.45,2.02-1.88,1.57-3.2-.45-1.32-1.89-2.03-3.2-1.57Zm-52.01,0c-3.56,1.22-7.02,1.22-10.57,0-1.34-.45-2.75.25-3.2,1.57-.45,1.32.25,2.75,1.57,3.2,4.44,1.52,9.11,1.61,13.83,0,1.32-.45,2.02-1.88,1.57-3.2-.45-1.32-1.89-2.03-3.2-1.57Z" style="fill: #fff; stroke-width: 0px;"/>
</svg>