<?xml version="1.0" encoding="UTF-8"?>
<svg id="a" data-name="圖層 1" xmlns="http://www.w3.org/2000/svg" viewBox="0 0 240 240">
  <path d="m136.88,182.99c-.79-1.06-.57-2.57.49-3.36,1.06-.8,2.57-.57,3.36.49,4.32,5.81,11.4,8.05,17.83,6.53,1.29-.3,2.59.5,2.89,1.79s-.5,2.59-1.79,2.89c-8.68,2.03-17.62-1.4-22.78-8.35Zm-36.35-2.87c-4.33,5.83-11.43,8.04-17.83,6.53-1.29-.3-2.59.5-2.89,1.79s.5,2.59,1.79,2.89c8.67,2.03,17.61-1.4,22.78-8.35.79-1.06.57-2.57-.49-3.36-1.06-.8-2.57-.57-3.36.49Zm19.55-25.04c1.33,0,2.4-1.08,2.4-2.4.19-1-1.82-15.82,10.51-25.57,2.14-1.7,4.49-3.17,6.96-4.36,1.19-.58,1.69-2.02,1.11-3.21-.57-1.19-2.01-1.69-3.21-1.11-8.2,3.97-14.39,9.88-17.77,18.42-3.35-8.46-9.48-14.42-17.78-18.42-1.19-.59-2.63-.07-3.21,1.12-.58,1.2-.08,2.63,1.12,3.21,2.46,1.19,4.8,2.66,6.96,4.36,12.32,9.75,10.31,24.57,10.51,25.57,0,1.33,1.08,2.4,2.4,2.4Zm58.61,32.65c-7.23,5.19-6.58,13.69-7.27,16.17-.19,1.31.72,2.53,2.04,2.72,1.37.19,2.54-.76,2.72-2.04.68-2.65.07-9.19,5.31-12.95,11.16-8.02,17.82-21,17.82-34.73,0-12.54-4.69-14.92-2.32-21.57l16.53-46.6c.44-1.25-.21-2.63-1.46-3.07-1.25-.44-2.62.21-3.07,1.46l-16.53,46.6c-1.22,3.43-1.22,7.28,0,10.83,5.49,16.02-.32,33.52-13.76,43.17Zm-137.88-30.82c0,13.68,6.31,26.21,17.3,34.37,8.11,6.03,3.08,15.38,8.07,15.38,1.48,0,2.6-1.31,2.38-2.76l-.81-5.51c-.64-4.3-3.04-8.19-6.77-10.97-9.76-7.24-15.36-18.36-15.36-30.51,0-2.67.87-7.08,2.45-12.41.98-3.3.88-6.78-.28-10.06l-16.79-47.31c-.44-1.25-1.81-1.9-3.07-1.46-1.25.44-1.91,1.82-1.46,3.07l16.79,47.31c.82,2.31.89,4.76.2,7.09-1.21,4.08-2.65,9.78-2.65,13.78Zm-5.89,47.93c.28,1.09,1.26,1.81,2.33,1.81,1.57,0,2.72-1.48,2.33-3-14.72-57.61-6.37-42.75-18.95-107.09-2.61-13.35,1.04-24.59,10.26-31.65,4.85-3.7,9.79-4.61,16.36-6.92,9.13,22.6,18.95,42.81,29.21,60.07,17.74,29.76,32.01,42.74,37.29,46.93,3.51,2.84,8.94,2.86,12.46.02,5.31-4.2,19.57-17.19,37.31-46.94,10.26-17.18,20.09-37.39,29.24-60.07,7,2.45,11.57,3.28,16.33,6.92,9.23,7.06,12.87,18.3,10.26,31.65-12.48,63.81-4.26,49.6-18.95,107.09-.33,1.29.45,2.6,1.73,2.92.2.05.4.08.6.08,1.07,0,2.05-.72,2.33-1.81,14.05-54.99,7.22-47.09,19.01-107.36,3.75-19.19-3.99-36.03-23.94-42.11-21.04-6.43-36.49-16.27-43.83-21.56-1.08-.78-2.58-.53-3.36.54-.78,1.08-.53,2.58.54,3.36,6.3,4.54,18.39,12.32,34.75,18.62-9.05,22.39-18.75,42.33-28.86,59.26-17.33,29.07-31.07,41.6-36.19,45.65-1.71,1.4-4.71,1.39-6.44-.02-5.1-4.04-18.84-16.57-36.17-45.64-10.12-17.02-19.81-36.97-28.84-59.3,12.12-4.7,23.61-10.92,34.26-18.59,1.08-.78,1.32-2.28.54-3.36-.77-1.07-2.27-1.32-3.36-.54-13.24,9.55-27.83,16.8-43.36,21.56-19.92,6.11-27.69,22.88-23.93,42.11,12.53,64.07,4.16,49.23,19.01,107.36Z" style="fill: #fff; stroke-width: 0px;"/>
</svg>