<?xml version="1.0" encoding="UTF-8"?>
<svg id="a" data-name="圖層 1" xmlns="http://www.w3.org/2000/svg" viewBox="0 0 240 240">
  <path d="m84.68,43.38c-14.64,24.39-14.94,39.69-12.08,77.2,1.45,12.38-2.76,20.06-5.94,30.14-.79,2.49-.28,5.18,1.35,7.21,4.28,5.32,12.59,2.82,13.86-3.43,0-.32,1.09-3.27-1.17-6.59-2.99-2.92-5.31-5.29-6.94-7.29l-.56-.71c-.81-1.05-.62-2.56.43-3.38,1.06-.81,2.57-.62,3.38.44l.49.61c2.41,2.94,6.71,6.94,7.01,7.36,6.1,8.55.12,20.66-10.45,20.66-8.6,0-14.52-8.31-11.98-16.35,3.2-10.13,7.06-16.99,5.74-28.23-2.76-36.27-3.3-53.39,12.75-80.14.68-1.14,2.16-1.51,3.3-.83,1.14.69,1.51,2.17.83,3.3Zm34.51,142.51c-4.9,0-8.74-3.13-8.74-7.14s3.84-7.13,8.74-7.13,8.74,3.13,8.74,7.13-3.84,7.14-8.74,7.14Zm0-4.81c2.25,0,3.92-1.23,3.92-2.32s-1.68-2.32-3.92-2.32-3.92,1.23-3.92,2.32,1.68,2.32,3.92,2.32Zm28.37-7.91c-4.9,0-8.74-3.13-8.74-7.13s3.84-7.14,8.74-7.14,8.74,3.13,8.74,7.14-3.84,7.13-8.74,7.13Zm0-4.81c2.25,0,3.92-1.23,3.92-2.32s-1.68-2.32-3.92-2.32-3.92,1.23-3.92,2.32,1.68,2.32,3.92,2.32Zm19.63,11.58c0-4,3.84-7.13,8.74-7.13s8.74,3.13,8.74,7.13-3.84,7.13-8.74,7.13-8.74-3.13-8.74-7.13Zm4.81,0c0,1.09,1.68,2.32,3.92,2.32s3.92-1.23,3.92-2.32-1.68-2.32-3.92-2.32-3.92,1.23-3.92,2.32Zm41.03-13.9c0,4-3.84,7.13-8.74,7.13s-8.74-3.13-8.74-7.13,3.84-7.14,8.74-7.14,8.74,3.13,8.74,7.14Zm-4.81,0c0-1.1-1.68-2.32-3.92-2.32s-3.92,1.23-3.92,2.32,1.68,2.32,3.92,2.32,3.92-1.23,3.92-2.32Zm13.51-86.15c-29.19,11.14-65.66,6.81-100.93,2.63-14.43-1.71-28.06-3.33-41.22-3.94-1.28-.05-2.45.97-2.51,2.29-.06,1.33.96,2.45,2.29,2.52,46.17,2.15,101.75,17.14,144.09,1,1.24-.48,1.86-1.86,1.39-3.11-.47-1.24-1.87-1.86-3.11-1.39Zm-201.01,10.09c13.12-3.85,18.78-.94,39.81-4.66,1.31-.23,2.18-1.48,1.95-2.79-.23-1.31-1.49-2.17-2.79-1.95-20.52,3.62-26.5.72-40.33,4.78-3.01.89-1.75,5.52,1.36,4.62Zm201.01,98.4c-29.19,11.14-65.66,6.81-100.93,2.63-14.43-1.71-28.06-3.33-41.22-3.94-1.28-.05-2.45.97-2.51,2.29-.06,1.33.96,2.45,2.29,2.52,46.17,2.15,101.75,17.14,144.09,1,1.24-.48,1.86-1.86,1.39-3.11-.47-1.24-1.87-1.86-3.11-1.39Zm-194.03,8.91c13.12-3.85,18.78-.94,39.81-4.66,1.31-.23,2.18-1.48,1.95-2.79-.23-1.31-1.49-2.17-2.79-1.95-20.52,3.62-26.5.72-40.33,4.78-3.01.89-1.75,5.52,1.36,4.62Zm192.45-93.21c-2.79,1.84-5.58,4.15-8.22,6.31-1.23.99-2.93.9-4.06-.24l-4.44-4.34c-5.59-5.5-15.01-3.54-17.91,3.81l-5.49,13.98c-.93,2.37-4.33,2.73-5.54.26l-5.52-11.13c-2.5-5.06-9.44-5.94-13.17-1.49l-4.91,6.02c-1.21,1.51-3.61,1.5-4.79-.12l-10.22-14.17c-1.45-2.03-3.71-3.23-6.19-3.28-5.2-.05-6.92,4.04-7.87,4.95-1.53,1.92-4.32,1.45-5.22-.63-2.25-5.26-9.14-6.44-13.04-2.21-2.97,2.74-4.68,6.74-9.62,6.98-3.79.19-7.3,2.02-9.63,5.01-6.47,8.31,0,18.86,5.3,28.11,4.8,8.57,4.68,20.95-3.77,26.51l-1.53,1.01c-14.18,9.34-32.39-3.89-27.88-20.22,1.98-7.18,2.78-10.08,3.36-12.25,3.56-13.39-3.46-22.37-4.3-24.82-2.12-4.66-6.99-7.91-12.68-7.63-8.41.41-11.13,7.58-13.3,9.8-1.8,2.33-5.07,2.85-7.46,1.18-.32-.22-2.98-2.03-3.27-2.23-1.09-.76-2.59-.51-3.35.58-.77,1.09-.51,2.59.58,3.36.4.32,2.7,1.85,3.31,2.26,4.48,3.12,10.62,2.15,14.03-2.25l3.44-4.58c3.8-5.05,11.7-4.2,14.33,1.56.89,2.53,7.04,10.14,4.01,21.55-.59,2.24-1.21,4.48-3.35,12.21-4.12,14.93,7.23,29.37,22.38,29.37,8.31,0,13.51-4.47,14.33-4.87,6.36-4.18,9.09-10.84,9.09-18.51,0-9.36-4.4-15.25-4.85-16.28-3.72-6.59-9.02-15.24-4.63-20.89,1.47-1.89,3.69-3.04,6.07-3.16,7.41-.36,10.21-6.14,12.92-8.53,1.53-1.67,4.19-1.21,5.07.85,2.36,5.46,9.63,6.46,13.42,1.7,1.11-1.1,1.57-2.99,3.99-3.11.95.02,1.82.48,2.39,1.28l10.23,14.18c3.07,4.21,9.25,4.3,12.44.33l4.88-5.99c1.45-1.73,4.16-1.42,5.14.55l5.52,11.14c2.94,6.03,11.81,5.78,14.33-.63l5.49-13.98c1.63-4.13,6.9-5.25,10.06-2.14l4.42,4.32c2.84,2.84,7.34,3.08,10.47.56,2.52-2.05,5.28-4.34,7.84-6.03,1.11-.73,1.42-2.23.68-3.33-.73-1.11-2.23-1.41-3.33-.68Z" style="fill: #fff; stroke-width: 0px;"/>
</svg>