<?xml version="1.0" encoding="UTF-8"?>
<svg id="a" data-name="圖層 1" xmlns="http://www.w3.org/2000/svg" viewBox="0 0 240 240">
  <path d="m186.65,85.83c2.18.46,3.51-1.24,4.17-2.96,3.52-9.14,10.78-16.02,19.39-20.42,3.39-2.16,4.7-3.8.14-6.22-9.03-4.8-16.58-11.65-20.38-21.33-2.29-4.74-5.05-.15-6.29,2.46-2.47,5.23-5.71,9.01-10.1,12.74-15.98-20.85-47.48-26.51-68.44-10.51l-.38.3c-9.91-6.67-19.33-10.53-31.64-9.78-37.1.55-58.5,42.71-39.15,75.35,11.8,19.91,9.84,25.65,11.25,47.8,1.13,16.84,8.78,43.22,23.26,54.01,5.64,4.2,13.44,3.5,18.31-1.53,4.13-4.28,3.92-10.56,4.7-16.17l3.62-27.07c.38-2.85.66-5.76,1.29-8.55,1.37-5.97,9.07-7.92,13.29-3.6,2.15,2.2,2.19,4.71,2.6,7.58l4.93,33.41c.51,3.28.71,7.45,1.99,10.46,3.03,7.15,11.28,9.92,18.18,6.93,15.9-8.03,26.18-40.25,26.44-57.86.24-16.7-.34-24.71,7.9-39.65,6.96-12.62,10.05-18.38,9.86-33.1,1.31,2.08,3.18,7.32,5.06,7.72Zm-18.4,18.94c-10.51,18.72-10.04,24.37-10.43,45.18-.32,16.87-6.77,37.43-18.85,49.7-2.93,2.98-5.67,5.44-10.07,3.69-5.41-2.95-4.83-7.81-5.62-13.11l-4.76-32.04c-.53-3.56-.88-7.26-3.07-10.26-7.13-9.8-22.85-7.19-25.14,5.05-.9,4.86-1.39,9.79-2.04,14.69l-3.23,23.49c-.42,3.15-.56,8.28-2.85,10.47-8.79,8.41-17.83-7.27-21.42-13.96-6.12-11.41-9.38-25.07-9.78-38.02.17-14.91-.57-27.5-8.2-40.77-1.75-3.04-3.63-6.28-5.24-9.5-8.6-17.19-6.12-38.21,8.21-51.55,6.88-6.4,17.75-11.78,27.36-11.41,1.76-.65,4.9-.25,6.68-.05,22.13,2.41,26.39,21.42,47.53,19.17,2.47-.26,7.03-.95,8.9-2.83,1.1-1.13.34-3.66-.95-4.39-3.35-1.89-12.03,5.85-26.01-4.07,18.84-12.25,45.78-9.77,58.98,9.38-1.74,1.35-10,4.72-6.62,7.75,3.24,2.91,8.94,4.36,13.21,8.65,2.27,13.63-.09,23.16-6.59,34.74Zm2.43-45.26c8.05-4.96,11.25-7.83,16.67-15.78.67.68,1.69,2.4,2.3,3.25,4.43,6.16,8.52,8.08,13.74,12.53-5.32,1.8-13.37,10.94-16.05,15.87-5.88-7.57-7.88-10.42-16.67-15.87Zm-59.26,9.19c-3.17.86-18.74-6.74-21.57-8.55-15.94-10.22-36.71-.71-37.72,18-.13,2.48.13,4.48.53,6.9,1.92,9.79,5.45,19.15,10.53,27.68,4.02,6.75-1.43,7.79-3.26,5.89-.96-1-1.39-2.06-2.06-3.22-5.38-9.32-11.39-23.83-11.8-34.92-.58-15.68,12.55-30.23,28.45-30.72,11.08-1.28,22.1,8.37,33.24,11.79,1.68.59,2.92.55,4.5,1.52,2.43,1.49,1.79,4.91-.85,5.62Zm-39.34,66.32c-2.28-.38-12.96-11.62-5.45-13.15,2.22.26,13.14,11.58,5.45,13.15Z" style="fill: #fff; stroke-width: 0px;"/>
</svg>