<?xml version="1.0" encoding="UTF-8"?>
<svg id="a" data-name="圖層 1" xmlns="http://www.w3.org/2000/svg" viewBox="0 0 240 240">
  <path d="m187.3,217.39c-1.01,0-1.91-.65-2.22-1.61l-3.11-9.53c-2.5-7.66-8.56-13.72-16.22-16.23l-9.53-3.11c-.96-.32-1.61-1.21-1.61-2.22s.65-1.91,1.61-2.22l9.53-3.11c7.66-2.5,13.72-8.56,16.22-16.22l3.11-9.53c.31-.96,1.21-1.61,2.22-1.61s1.91.65,2.22,1.61l3.11,9.53c2.5,7.66,8.56,13.72,16.22,16.23,0,0,9.53,3.11,9.53,3.11.97.32,1.61,1.21,1.61,2.22s-.65,1.91-1.62,2.23l-9.53,3.11c-7.66,2.5-13.72,8.57-16.22,16.23l-3.11,9.53c-.32.96-1.21,1.61-2.22,1.61Zm0-52.79c-.53,0-1,.33-1.17.83-3.04,8.46-9.63,15.05-18.09,18.1-.49.18-.82.65-.82,1.17s.33.99.82,1.17c8.46,3.04,15.05,9.64,18.09,18.1.18.5.65.83,1.17.83s.99-.33,1.17-.83c3.04-8.46,9.64-15.05,18.09-18.1.49-.18.82-.65.82-1.17s-.33-.99-.82-1.17c-8.46-3.04-15.05-9.64-18.09-18.1-.18-.5-.65-.83-1.17-.83Zm-75.57,42.52c-1.29,0-2.34-1.05-2.34-2.34v-3.67c0-15.24-8.2-29.43-21.39-37.04-1.12-.64-1.5-2.08-.86-3.2.42-.72,1.19-1.17,2.03-1.17.41,0,.81.11,1.17.32,9.08,5.24,16.27,13.51,20.24,23.29.19.47.65.78,1.15.78s.96-.31,1.15-.78c3.97-9.78,11.16-18.05,20.23-23.29.36-.21.76-.32,1.16-.32.83,0,1.61.45,2.03,1.17.64,1.11.26,2.55-.86,3.19-13.19,7.61-21.39,21.81-21.39,37.04v3.67c0,1.29-1.05,2.34-2.34,2.34Zm-79.77,0c-1,0-1.89-.64-2.21-1.59-19.1-56.25-6.56-97.82,7.32-122.8,9.95-17.91,12.98-38.25,8.53-57.26-.14-.61-.04-1.23.29-1.76.33-.53.85-.9,1.45-1.04.18-.04.35-.06.53-.06,1.08,0,2.03.76,2.28,1.8,4.72,20.14,1.52,41.66-9,60.59-13.42,24.15-25.52,64.4-6.98,119.03.2.59.16,1.23-.12,1.79-.28.56-.76.98-1.35,1.18-.24.08-.49.12-.75.12Zm118.76-49.93c-1.01,0-1.91-.65-2.22-1.61l-2.24-6.85c-1.73-5.31-5.94-9.52-11.24-11.25l-6.85-2.23c-.96-.32-1.61-1.21-1.61-2.22s.65-1.91,1.61-2.22l6.85-2.24c5.31-1.73,9.51-5.94,11.25-11.25l2.24-6.85c.32-.96,1.21-1.61,2.22-1.61s1.91.65,2.22,1.61l2.23,6.85c1.73,5.31,5.94,9.52,11.25,11.25.13.04,6.85,2.24,6.85,2.24.96.31,1.61,1.21,1.61,2.22s-.65,1.91-1.61,2.22l-6.85,2.23c-5.31,1.73-9.51,5.93-11.25,11.25l-2.24,6.85c-.32.97-1.21,1.62-2.22,1.62Zm0-36.37c-.48,0-.91.27-1.12.7-2.18,4.51-5.87,8.2-10.38,10.38-.43.21-.7.64-.7,1.12s.27.91.7,1.12c4.51,2.18,8.2,5.86,10.38,10.38.21.43.64.7,1.12.7h0c.48,0,.91-.27,1.12-.7,2.18-4.51,5.87-8.2,10.38-10.38.43-.21.7-.64.7-1.12s-.27-.91-.7-1.12c-4.51-2.18-8.2-5.87-10.38-10.38-.21-.43-.64-.7-1.12-.7Zm50.31,27.15c-1.27,0-2.3-1-2.34-2.27-.63-21.84-6.14-42.26-16.38-60.69-10.52-18.93-13.72-40.45-9-60.59.25-1.06,1.19-1.8,2.28-1.8.18,0,.36.02.53.06.61.14,1.12.51,1.45,1.04.33.53.43,1.16.29,1.76-4.45,19.01-1.42,39.35,8.53,57.26,10.61,19.08,16.31,40.22,16.96,62.82.04,1.28-.97,2.36-2.25,2.4h-.08Zm-89.29-44.27c-4.44,0-8.05-3.61-8.05-8.05,0-1.29,1.05-2.34,2.34-2.34s2.34,1.05,2.34,2.34c0,1.86,1.51,3.38,3.38,3.38s3.38-1.52,3.38-3.38c0-1.29,1.05-2.34,2.34-2.34s2.34,1.05,2.34,2.34c0,4.44-3.61,8.05-8.05,8.05Z" style="fill: #fff; stroke-width: 0px;"/>
</svg>