<?xml version="1.0" encoding="UTF-8"?>
<svg id="a" data-name="圖層 1" xmlns="http://www.w3.org/2000/svg" viewBox="0 0 240 240">
  <path d="m84.69,194.03c-.59,1.26-.04,2.76,1.22,3.34,8.63,4.03,17.41,4.03,26.05,0,1.26-.59,1.8-2.09,1.22-3.35-.58-1.26-2.08-1.81-3.35-1.22-7.33,3.42-14.46,3.42-21.8,0-1.27-.59-2.76-.04-3.34,1.22Z" style="fill: #fff; stroke-width: 0px;"/>
  <path d="m145.82,195.34l-3.5,3.59c-1.2,1.2-14.96,10.31-14.96,10.31-10.48,7.45-13.37,12.05-22.73,14.22-8.97,2.05-17.85-1.44-24.61-7.42-4.37-3.87-10.04-7.81-13.92-10.37l-4.29-2.77v.02c-9.84-6.1-14.95-23.97-17.42-35.26-.23-1.07-1.12-1.86-2.21-1.97-5.53-.55-10.19-3.68-12.13-8.14-1.51-3.55-1.29-7.61.6-11.44.62-1.25.11-2.76-1.14-3.37-1.26-.63-2.76-.1-3.37,1.14-2.52,5.09-2.78,10.79-.71,15.67,2.46,5.64,7.89,9.71,14.44,10.91,2.77,12.02,8.51,30.6,19.28,36.74.11.07,10.74,6.59,17.55,12.62,13.42,11.89,30.76,12.78,45.18.02,17.1-14.82,21.2-11.04,27.84-23.94.14-.26.2-.54.23-.82-1.62-3.18-4.11.27-4.11.27Z" style="fill: #fff; stroke-width: 0px;"/>
  <path d="m135.13,128.3c-1.39,0-2.52,1.13-2.52,2.52,0,2.04-1.66,3.7-3.7,3.7s-3.7-1.66-3.7-3.7c0-1.39-1.13-2.52-2.52-2.52s-2.52,1.13-2.52,2.52c0,4.82,3.92,8.74,8.74,8.74s8.74-3.92,8.74-8.74c0-1.39-1.13-2.52-2.52-2.52Z" style="fill: #fff; stroke-width: 0px;"/>
  <path d="m79.12,128.3c-1.39,0-2.52,1.13-2.52,2.52,0,2.04-1.66,3.7-3.7,3.7s-3.7-1.66-3.7-3.7c0-1.39-1.13-2.52-2.52-2.52-5.04,0-2.27,11.26,6.22,11.26,4.82,0,8.74-3.92,8.74-8.74,0-1.39-1.13-2.52-2.52-2.52Z" style="fill: #fff; stroke-width: 0px;"/>
  <path d="m104.76,171.56c1.33-.41,2.07-1.83,1.65-3.15-.41-1.32-1.81-2.07-3.15-1.65-.89.28-2.11.46-3.56.52-1.75.11-3.43-1.33-3.31-3.28.09-1.39-.96-2.59-2.35-2.67-1.37-.19-2.59.96-2.67,2.35-.3,4.69,3.45,8.64,8.18,8.64.13,0,3.59-.25,5.21-.76Z" style="fill: #fff; stroke-width: 0px;"/>
  <path d="m159.43,133.31c1.12,1.06,2.97.89,3.84-.44.19-.34,4.63-7.16,8.55-15.68,11.06-23.93,10.3-40.96-2.19-49.26-.41-.27-.62-.84-.54-1.44.85-6.04,1.51-21.21-10.72-31.49-.35-.3-.58-.64-.63-.94-1.12-6.68-14.05-24.46-36.53-24.91-38.16-.74-58.57,4.58-59.22,4.76-.37.07-37.37,7.07-41.24,38.9-.49,3.23-4.35,31.13,7.76,35.16-.73,5.02-1.52,15.72,2.74,25.47.04.09,3.58,9.04,1.99,21.43-.31,2.44,2.73,3.82,4.37,2.01.54-.6,13.18-14.8,14.04-34.37.09-3.67,1.45-14,6.61-17.66,3.04-2.11,5.53-3.8,7.69-5.64,1.06-.9,1.19-2.49.28-3.55-.9-1.06-2.5-1.19-3.55-.28-1.91,1.63-4.02,3.06-7.33,5.36-8.25,5.86-8.72,21-8.73,21.59-.45,10.12-4.52,18.83-7.94,24.44-.26-9.02-2.63-14.94-2.78-15.3-4.17-9.52-2.79-20.52-2.26-23.67.34-2.07-1.03-4.01-3.18-4.52-6.73-1.58-6.09-20.71-4.71-29.8,3.43-28.19,36.81-34.57,37.35-34.67.2-.05,20.55-5.4,58.02-4.64,20.92.42,31.06,17.15,31.66,20.71.25,1.49,1.09,2.89,2.35,3.96,10.3,8.67,9.71,21.72,8.97,26.94-.36,2.52.72,5.01,2.74,6.34,15.37,10.21,4.47,36.71-4.64,52.76-1.62-20.86,3.09-37.03-3.31-44.77-.84-2-3.31-1.98-4.35-.46-2.96,4.54-5.67,7.44-12.43,8.04-1.88.15-3.18,2.68-1.53,4.29,0,.17,0,.37,0,.52-.01,1.09-1.06,2.34-2.81,3.36-7.35,4.31-18.72.76-18.67-3.6,0-.1,0,.35.02-.95.02-1.39-1.1-2.53-2.49-2.55-4.82-.06-9.25-1.58-11.58-3.96-1.92-1.97-1.66-3.53-.55-5.16,5.61-.2,11.99-1.06,19.32-2.98,1.34-.35,2.15-1.73,1.8-3.08-.35-1.35-1.74-2.14-3.08-1.8-15.44,4.05-36.21,5.26-47.24-6.27-.05-.05-.08-.13-.14-.18-.13-.11-12.86-11.35-15.35-23.36-.28-1.36-1.63-2.22-2.98-1.95-1.36.28-2.24,1.62-1.95,2.98,2.73,13.14,15.35,24.69,16.82,25.99,1.21,1.41,9.17,9.77,27.23,10.64-.97,3.11.2,6.3,2.52,8.68,2.86,2.93,7.54,4.87,12.81,5.36.97,5.22,7.24,9.08,15.46,9.17,7.2,0,15.87-3.56,15.89-10.64,5.35-1.17,8.59-3.89,10.59-6.26.29,1.32,1.47,3.7,1.17,10.02-1.61,33.81.97,36.27,2.07,37.32Z" style="fill: #fff; stroke-width: 0px;"/>
  <path d="m197.13,125.45c-20.18-1.35-38.7,11.5-44.62,30.7l-13.08,5.32c-.87.35-1.47,1.16-1.56,2.1-.09.93.35,1.84,1.14,2.35l11.83,7.62c3.61,34.74,45.31,51.61,72.01,28.25,8.77-7.68,14.04-18.3,14.82-29.91,1.62-23.98-16.57-44.81-40.55-46.43Zm35.53,46.09c-.33,4.82-1.56,9.44-3.54,13.7-2.57-.06-5.05-.84-7.04-2.25-4.75-3.31-10.6-3.82-14.34-2.71-1.33.4-2.09,1.8-1.7,3.13.39,1.33,1.79,2.1,3.13,1.7,2.39-.71,6.62-.35,10,2,2.1,1.5,4.6,2.49,7.27,2.93-15.27,23.3-49.11,23.36-64.49.05,2.68-.42,5.21-1.42,7.43-2.98,3.55-2.55,8.82-3.01,12.53-1.1,1.25.64,2.76.14,3.39-1.1.63-1.24.14-2.76-1.1-3.39-2.23-1.14-4.83-1.74-7.5-1.74-3.76,0-7.31,1.12-10.25,3.23-2.07,1.46-4.55,2.24-7.22,2.27-.01,0-.03,0-.04,0-3.69-7.86-3.12-13.2-3.87-14.47-.47-.8-.95-.92-9.53-6.49,9.51-3.94,10.14-3.82,10.85-4.99.14-.24.3-.59.3-.6,4.86-17.59,21.67-29.44,39.82-28.24,21.21,1.44,37.3,19.86,35.87,41.07Z" style="fill: #fff; stroke-width: 0px;"/>
  <path d="m216.08,152.96l-8.08,2.69c-2.7.9-2.05,4.91.79,4.91.75,0,.64-.12,8.88-2.82,1.32-.44,2.04-1.87,1.6-3.18-.44-1.32-1.88-2.03-3.18-1.6Z" style="fill: #fff; stroke-width: 0px;"/>
  <path d="m204.81,151.77l6.02-6.02c.98-.98.98-2.58,0-3.56s-2.58-.98-3.56,0l-6.02,6.02c-.98.98-.98,2.58,0,3.56s2.58.98,3.56,0Z" style="fill: #fff; stroke-width: 0px;"/>
  <path d="m214.46,166.19l-8.34-1.72c-1.37-.29-2.7.59-2.98,1.95-.28,1.36.59,2.7,1.95,2.98,8.88,1.82,8.39,1.78,8.85,1.78,1.17,0,2.22-.82,2.46-2.01.28-1.36-.59-2.7-1.95-2.98Z" style="fill: #fff; stroke-width: 0px;"/>
  <path d="m198.3,182.4c.68-4.59,1.4-8.81.98-14.66-.1-1.39-1.34-2.37-2.69-2.33-1.39.1-2.43,1.3-2.33,2.69.42,5.91-.45,10.04-1.02,14.12-7.15,2.5-8,14.33-1.73,18.59,5.95,4.04,13.24-2.07,12.08-10.6-.45-3.29-2.22-6.45-5.29-7.81Zm-3.96,14.24c-3.08-2.09-2.44-9,.73-9.77,1.85-.47,3.25,2.01,3.52,4.02.49,3.57-1.85,7.38-4.25,5.75Z" style="fill: #fff; stroke-width: 0px;"/>
</svg>