<?xml version="1.0" encoding="UTF-8"?>
<svg id="a" data-name="圖層 1" xmlns="http://www.w3.org/2000/svg" viewBox="0 0 240 240">
  <path d="m120.73,153.47c-7.63,2.07-14.04.84-20.91-3.08-2.71-1.54-5.88-1.85-8.72-.85-11.39,4.02-24.65,5.83-39.4,5.4-2.12-.08-3.4,2.13-2.55,3.91,4.05,8.47,11.1,14.96,19.86,18.28,6.59,2.5,13.49,4.47,20.5,5.88,21.24,4.25,47.42,2.96,70.92-5.88,8.85-3.34,16.09-9.81,20.38-18.22.96-1.89-.52-4.09-2.51-3.97-14.84.45-28.18-1.4-39.63-5.49-2.64-.94-5.43-.79-7.85.41-2.48,1.23-5.97,2.47-10.1,3.59Zm16.11,1.14c10.8,3.85,23.11,5.82,36.67,5.87-3.71,5.23-8.91,9.26-15,11.55-25.52,9.59-57.51,11.39-87.56,0-6-2.28-11.06-6.3-14.59-11.55,13.52-.04,25.8-1.98,36.57-5.78,3.48-1.23,4.17,1.38,11.95,3.88,5.35,1.72,11.34,1.78,17.29.16,11.98-3.26,11.38-5.3,14.67-4.13Zm20.23-49.11l-4.44-3.53c-2.21-1.76-2.58-4.98-.82-7.19l4.45-5.6c.68-.86,1.93-1.01,2.8-.32.86.68,1,1.94.32,2.8l-4.45,5.6c-.39.49-.31,1.21.18,1.6l4.44,3.53c.49.39,1.21.3,1.6-.18l4.45-5.6c.68-.86,1.94-1,2.8-.32.86.68,1,1.94.32,2.8l-4.45,5.6c-1.75,2.2-4.98,2.59-7.19.82Zm66.48-66.17c2.3-2.9,1.81-7.11-1.08-9.4l-12.17-9.66c-4.62-3.66-11.06.58-10.44,5.99.34,2.95,2.35,4.14,2.58,4.4l-8.15,10.26c-1.05,1.32-.09,3.23,1.56,3.23.59,0,1.17-.26,1.56-.75l8.15-10.26,5.75,4.57-8.15,10.26c-1.05,1.32-.08,3.23,1.56,3.23.59,0,1.17-.26,1.56-.75l8.15-10.27c.3.18,1.91,2.01,4.88,1.67,1.57-.18,3.96-2.3,4.22-2.53Zm-6.08-1.83c-13.9-11.05-13.5-10.46-13.64-11.7-.14-1.2.6-1.78.76-2.04.79-.99,2.25-1.16,3.25-.37,12.09,9.93,12.94,9.52,13.17,11.47.22,1.94-1.89,3.95-3.53,2.64Zm-32.84,5.67c-.86-.69-2.12-.54-2.8.32-.68.86-.54,2.11.32,2.8l2.74,2.17-23.23,29.24c-1.99,2.52-1.57,6.19.94,8.18l7.74,6.15c2.55,2.03,6.21,1.56,8.19-.94l23.23-29.24,2.33,1.85c.86.68,2.12.54,2.8-.32.68-.86.54-2.11-.32-2.8-.7-.56-22.68-18.02-21.92-17.42Zm13.99,16.21c-24.41,30.41-23.03,29.76-24.46,29.92-1.32.17-1.37-.63-9.09-6.53-.79-.63-.93-1.79-.3-2.59l23.23-29.24c.27.21,11.32,9,10.62,8.44Zm-59.22,61.22l10.36-13.12c.68-.86,1.93-1.01,2.8-.33.86.68,1.01,1.94.33,2.8l-10.36,13.12c-.39.5-.98.76-1.57.76-1.64,0-2.6-1.91-1.56-3.23Zm-1.29-27.61c2-.31,4.26-.46,5.3-.46,1.48,0,2.69,1.18,2.73,2.66.04,1.51-1.15,2.76-2.66,2.8-2.82.07-4.71.43-5.08.48-1.48.25-2.89-.76-3.14-2.26-.24-1.49.77-2.9,2.26-3.14l.59-.09Zm-64.16,3.24c.44,1.44-.37,2.97-1.81,3.41-3.13.96-6.05,2.35-8.67,4.14-1.24.84-2.94.53-3.8-.72-.85-1.25-.52-2.95.72-3.8,3.08-2.09,6.49-3.72,10.14-4.84,1.46-.44,2.97.37,3.41,1.81Zm25.57,1.7c.68-1.34,2.32-1.9,3.67-1.21,3.25,1.64,6.35,3.76,9.2,6.32,1.12,1.01,1.22,2.74.21,3.86-1.01,1.13-2.74,1.21-3.86.21-2.49-2.23-5.18-4.09-8-5.51-1.35-.68-1.89-2.32-1.21-3.67Zm-20.61-2.52c-.07-1.51,1.09-2.79,2.6-2.86,3.57-.17,7.5-.03,11.04.62,3.26.59,2.82,5.42-.48,5.42-.97,0-3.45-.88-10.31-.58-1.35.11-2.79-1.09-2.86-2.6Zm38.37,11.15c-1-1.13-.89-2.86.25-3.86,2.87-2.52,5.99-4.61,9.28-6.21,1.36-.65,2.99-.09,3.65,1.26.66,1.36.1,2.99-1.26,3.65-7,3.41-7.66,6.08-9.87,6.08-.76,0-1.51-.31-2.05-.93Zm-88.45,20.49c2.66-2.12,5.37-4.34,8.04-6.59,1.16-.96,2.88-.82,3.85.32.97,1.15.83,2.88-.32,3.85-2.71,2.29-5.46,4.55-8.16,6.69-1.2.95-2.91.73-3.84-.44-.94-1.18-.74-2.9.44-3.84Zm27.26-20.49c1.06,1.07,1.06,2.8-.01,3.86-2.23,2.21-4.83,4.66-7.72,7.27-1.11,1.01-2.84.92-3.86-.2-1.01-1.12-.92-2.85.2-3.86,2.83-2.55,5.36-4.94,7.53-7.09,1.07-1.06,2.8-1.06,3.86.01Zm-35.53,26.82c1.21-.89,2.93-.63,3.82.59.89,1.22.63,2.92-.59,3.82-1.59,1.17-3.11,2.24-4.53,3.22-1.23.84-2.94.53-3.8-.72-.85-1.25-.53-2.95.72-3.8,1.37-.94,2.84-1.98,4.38-3.1Zm188.92.61c1.54,1.14,3.01,2.19,4.36,3.11,2.21,1.51,1.14,4.99-1.54,4.99-1.06,0-1.55-.36-6.06-3.71-1.21-.9-1.47-2.61-.57-3.82.89-1.21,2.6-1.48,3.82-.57Zm-19.19-15.51c3.08,2.66,6.3,5.37,9.47,7.94,1.98,1.61.84,4.85-1.72,4.85-.61,0-1.22-.2-1.72-.61-3.21-2.61-6.48-5.35-9.6-8.05-1.14-.99-1.27-2.71-.28-3.85.99-1.14,2.71-1.26,3.85-.28Zm-16.91-8.13c-1.07-1.07-1.07-2.8,0-3.86,1.07-1.07,2.8-1.07,3.86,0,1.15,1.15,2.45,2.4,3.86,3.74,1.81,1.7.57,4.72-1.87,4.72-1.34,0-1.78-.51-5.86-4.59ZM15,161.6c0-9.51,8.92-7.05,32.43-32.72,6.09-6.71,8.26-10.39,15.24-14.88,4.97-3.2,10.11-4.33,11.94-4.98,23.3-7.18,36.93,8.79,40.42,10.94,1.67-.56,7.17-7.76,18.43-11.04,1.46-.43,2.97.41,3.39,1.86.42,1.45-.41,2.97-1.86,3.39-5.11,1.49-9.92,4.31-14.3,8.38-2.8,2.48-3.45,2.38-5.13,3-1.57.58-2.51-.34-3.69-1.13-.89-.59-1.9-1.27-2.84-2.11-17.02-15.96-34.11-7.3-35.49-7.24-18.64,5.74-16.03,18.16-51.24,43.13-.54.45-.98.71-1.41,1.55-.85,1.63-.43,3.85,1.15,5,6.45,4.79,13.11,8.5,31.78,26.33,35.41,33.57,87.12,30.84,118.38,3.25,18.76-16.59,13.96-13.06,35.8-29.66,2.17-1.63,2.05-4.81-.08-6.34-32.18-22.78-32.66-35.18-48.11-42.27-1.37-.63-1.97-2.25-1.34-3.62.63-1.38,2.28-1.97,3.62-1.34,17.31,7.94,16.64,19.87,49.01,42.78,5.43,3.88,5.07,11.5.21,15.15-22.08,16.8-17.23,13.26-35.48,29.4-33.63,29.69-88.58,31.85-125.77-3.4-8.01-7.65-17.62-16.44-28.21-23.72-3.29-2.28-6.85-6.73-6.85-9.73Z" style="fill: #fff; stroke-width: 0px;"/>
</svg>