<?xml version="1.0" encoding="UTF-8"?>
<svg id="_圖層_1" data-name="圖層 1" xmlns="http://www.w3.org/2000/svg" version="1.1" viewBox="0 0 30 30">
  <defs>
    <style>
      .cls-1 {
        fill: #9bcb40;
        stroke: #9bcb40;
        stroke-miterlimit: 10;
      }
    </style>
  </defs>
  <path class="cls-1" d="M29.4,14.9h0c-.1-.3-.3-.4-.5-.4h-13.4V1.1h0c0-.4-.2-.6-.5-.6h0c-.3,0-.5.2-.5.5h0v13.5H1.1c-.2,0-.4.1-.5.4h0c0,.4.3.7.6.7h13.3v13.3c0,.3.2.5.5.5h0c.3,0,.5-.2.5-.5v-13.3h13.3c.4,0,.7-.3.7-.7q0,.1,0,0h0Z"/>
</svg>