<?xml version="1.0" encoding="UTF-8"?>
<svg id="_圖層_1" data-name="圖層 1" xmlns="http://www.w3.org/2000/svg" version="1.1" viewBox="0 0 835 574.7">
  <defs>
    <style>
      .cls-1 {
        fill: #a640ab;
      }

      .cls-1, .cls-2 {
        stroke-width: 0px;
      }

      .cls-2 {
        fill: #fff;
      }
    </style>
  </defs>
  <rect class="cls-1" x="62.5" y="291.7" width="126.9" height="71.9" rx="8" ry="8"/>
  <g>
    <path class="cls-2" d="M99.1,333.7c-.5.3-2,.6-3.7.6-5.5,0-8-3.4-8-7.4s3.8-7.9,8.2-7.9,3.1.3,3.7.6l-.8,3.1c-.6-.3-1.6-.5-2.7-.5-2.3,0-4.2,1.3-4.2,4.3s1.6,4.3,4.3,4.3,2-.2,2.6-.4l.5,3.1Z"/>
    <path class="cls-2" d="M105.9,334.4c-3.2,0-5.7-2-5.7-5.6s2.3-5.7,5.9-5.7,5.6,2.3,5.6,5.5-2.8,5.7-5.8,5.7h0ZM106,331.6c1.1,0,1.6-1.1,1.6-2.9s-.5-2.9-1.6-2.9-1.8,1.4-1.8,2.9.5,2.9,1.7,2.9h0Z"/>
    <path class="cls-2" d="M124.3,330.4c0,1.5,0,2.8,0,3.7h-3.4l-.2-1.4h0c-.4.6-1.3,1.7-3.3,1.7s-3.8-1.6-3.8-4.7v-6.4h4v5.7c0,1.4.4,2.1,1.4,2.1s1.1-.5,1.3-.9c0-.2,0-.4,0-.6v-6.4h4v7.1Z"/>
    <path class="cls-2" d="M126.7,327c0-1.4,0-2.7,0-3.7h3.4l.2,1.4h0c.8-1.1,2-1.6,3.5-1.6,2.2,0,4.4,2,4.4,5.5s-2.6,5.8-4.9,5.8-2.2-.5-2.6-1h0v5.1h-4v-11.5ZM130.7,329.4c0,.2,0,.5,0,.7.2.7.7,1.3,1.5,1.3,1.2,0,1.9-1,1.9-2.6s-.6-2.6-1.9-2.6-1.5.6-1.6,1.4c0,.2,0,.3,0,.5v1.3Z"/>
    <path class="cls-2" d="M145.4,334.4c-3.2,0-5.7-2-5.7-5.6s2.3-5.7,5.9-5.7,5.6,2.3,5.6,5.5-2.8,5.7-5.8,5.7h0ZM145.5,331.6c1.1,0,1.6-1.1,1.6-2.9s-.5-2.9-1.6-2.9-1.8,1.4-1.8,2.9.5,2.9,1.7,2.9h0Z"/>
    <path class="cls-2" d="M153.1,327c0-1.4,0-2.7,0-3.7h3.4l.2,1.4h0c.4-.6,1.4-1.6,3.2-1.6s3.9,1.7,3.9,4.7v6.4h-4v-5.9c0-1.3-.4-2-1.4-2s-1.1.5-1.3.9c0,.2-.1.5-.1.8v6.1h-4v-7.1Z"/>
  </g>
</svg>