<?xml version="1.0" encoding="UTF-8"?>
<svg xmlns="http://www.w3.org/2000/svg" version="1.1" xmlns:xlink="http://www.w3.org/1999/xlink" viewBox="0 0 835 574.7">
  <defs>
    <style>
      .cls-1 {
        fill: url(#linear-gradient);
        mix-blend-mode: multiply;
        opacity: .5;
      }

      .cls-1, .cls-2, .cls-3, .cls-4 {
        stroke-width: 0px;
      }

      .cls-5 {
        isolation: isolate;
      }

      .cls-2 {
        fill: #c8cbd8;
      }

      .cls-3 {
        fill: #ecedf1;
      }

      .cls-4 {
        fill: #222535;
      }
    </style>
    <linearGradient id="linear-gradient" x1="719.2" y1="401.9" x2="736.9" y2="401.9" gradientUnits="userSpaceOnUse">
      <stop offset="0" stop-color="#263574"/>
      <stop offset="1" stop-color="#15175e"/>
    </linearGradient>
  </defs>
  <g class="cls-5">
    <g id="_圖層_1" data-name="圖層 1">
      <g>
        <path class="cls-3" d="M754.2,380.3s-.7,3.8-2.8,4.3c-1.8.5-3.8,2.4-4.4,3-.8.8-4.2,2.3-3.2,3.3,1,1,5.7-2.2,6.8-2.6,1.1-.5-.5,4.8,0,5.9.5,1.2,9.3,3.4,10-.3.7-3.7-1-8.1-.8-8.8.3-.6.6-2.7.6-2.7l-6.2-2.1Z"/>
        <path class="cls-3" d="M750.5,393.2s-1.4,11.5-.8,12.3c.6.8,1.2.9,1.4-.2s1.6-11.1,1.6-11.1c0,0,.7,13.9,1,14.7.2.5,1.4.6,1.5,0,.1-.6.3-14.4.3-14.4,0,0,.6,13,1.1,13.6.4.5,1.5.4,1.6-.6,0-1,0-13,0-13,0,0,1.1,9.4,1.7,9.7.4.2,1.5.3,1.1-2.1-.4-2.4-.6-8.2-.6-8.2l-10-.7Z"/>
        <path class="cls-3" d="M630.6,239.1s-1.9-3.5-2.5-6.3c-.6-2.8-4.2-6.6-5.6-7.5-1.4-.9-11.8-8.3-13-8.3-1.2,0-.5,2.3.5,3,1,.7,9.5,7.2,9.5,7.2,0,0-10.5-7.2-11.6-7-1.1.2-1.9,1.6-.7,3,0,0-2.4,1.6.1,3.5l5,3.8s-2.9-1.5-1.8.8c.6,1.2,6.7,4.9,7.7,6,1,1.1,8.7,4.9,8.7,4.9l3.9-3.1Z"/>
        <path class="cls-3" d="M692.1,561.5h-2.6s.9-9.8-1.5-9.9c-2.4,0-8.4,8-11.9,9.2-3.6,1.3-21.9,2.3-22-1.1,0-3.4,7-4.7,9.2-5.7,2.2-1,13-11.5,14.9-12.7,1.9-1.3,5.1-7.6,5.1-7.6h9.8s1.1,5.3,1.7,9.6c.2,1.6.4,3,.4,4,0,3.7-3.2,14.1-3.2,14.1Z"/>
        <path class="cls-3" d="M737.3,559.6h-2.2v-9.1c-1.8.2-7.9,5.9-9.8,7.6-1.9,1.7-4.5,1.6-12.4,2.1-7.9.5-8.7-4.2-7.4-5.8,1.3-1.6,5.3-2.3,7.4-3.3,2.1-1,10.4-10.4,12.6-12.6,2.2-2.2,3.6-8.6,3.6-8.6l9.2.8s0,5.8,1,10.7h0s0,0,0,0c0,.4.2.8.3,1.2,1.4,5.1-2.5,17.1-2.5,17.1Z"/>
        <path class="cls-3" d="M715.6,254.1s4.5,9.5,2.1,17.3c0,0,13.9-1.9,14.3-3.5.4-1.6-1.7-16.2-.1-20.7,1.6-4.5-16.3,6.9-16.3,6.9Z"/>
        <path class="cls-2" d="M715.3,268.2s-8,3.4-11.7,4.5c-3.7,1.1-11.2,5.2-9.6,18.7,1.6,13.5,4.8,25,6.1,30.8,1.3,5.7,1.8,20.6,1,27.9,0,0,20.1,3.4,43-3.1,0,0-5-12-5.1-15.1-.1-3.2,11.6-30.3,11.9-34.4.3-4.2,1.8-22.5-4.8-26.1-6.5-3.6-11.6-2.7-14.3-4.3-2.8-1.6-12.7-.4-16.5,1.2Z"/>
        <path class="cls-2" d="M715.3,289.2s3.1-16.2-12.6-16.2c-13.8,0-26.8-2.6-29-3.8-2.2-1.2-10.6-5.4-15.1-9.9-4.4-4.6-28.4-22.8-28.4-22.8l-6.6,6.7s25.3,27.5,29.4,30.2c4.1,2.7,38.4,21.8,42.7,22.4,4.3.6,16.6,3.9,19.6-6.6Z"/>
        <path class="cls-2" d="M764.7,339.2c.5,5.7-2.6,45.1-2.6,45.1l-11.2,1.3s.8-38.9,1.4-47.8c.2-2.6-.4-6.7-1.4-11.1h0c-.6-2.8-1.3-5.7-2.1-8.5-2.1-7.7-4.4-14.4-4.4-14.4,0,0-12.5-32.5,3.2-31.2,0,0,5.8,6,8.3,15.9,2.5,9.9,5.3,24.6,5.4,30.5.1,5.9,3,16.1,3.4,20.3Z"/>
        <path class="cls-4" d="M703.7,349.7s-3.6,8.5-3.9,10.7c-.3,2.1-11.6,30.3-12.4,38.5-.8,8.3-3.2,30.5-4,33.7-.8,3.2,1.9,17.4,2.3,20.5.4,3.2.2,55.1-3.6,80.7,0,0,8.9,3.8,15.7,0,0,0,11.2-40,10.6-63.1-.6-23.1-3.6-32.8,0-42.2,3.6-9.3,24.6-37.3,26.7-40.2,2.1-3,15.4-19.4,2.8-37.1-12.6-17.8-34.2-1.4-34.2-1.4Z"/>
        <path class="cls-4" d="M747.1,425.6c-1.1,7.4,0,17.2,2.4,44.3,2.3,27.1-4.1,59.9-4.1,59.9-8,2.8-17.3,0-17.3,0,.2-1.9,0-66.1,0-71.8,0-5.7-1.6-12.2-2.1-18.8-.3-4.5-2.4-12.7-4.7-21.1-.7-2.5-1.4-5.1-2.1-7.5h0c-.4-1.4-.8-2.7-1.2-4-3.3-11.4-7.7-55.6-7.7-55.6,0,0,24.6-19.8,36.6-1.2,12,18.6,5.8,32.2,5.4,34.5-.4,2.3-4,33.9-5.1,41.3Z"/>
        <path class="cls-2" d="M699.5,316.4s2.2,35.1-4.3,54.8c0,0,26,4.3,59.1-6.8,0,0-9.1-23.6-8.8-27.3.3-3.7,9.9-46.6,5.3-56.3-4.6-9.6-49.6,4-51.2,35.5Z"/>
        <path class="cls-3" d="M720.7,214.9c-5.9-.2-21.1,2.1-18.3,24.9,2.8,22.8,11.1,20.9,19.2,17.8,8.2-3,16.8-21.5,16.5-26.3-.3-4.8-.5-15.8-17.4-16.5Z"/>
        <path class="cls-4" d="M702.5,229.3s7.2,8,14.1,9.5c0,0,5.8,8.8,14.9,10.5,0,0,17.8-19.6.7-32.2-17.1-12.6-30.3,5.2-29.7,12.2Z"/>
        <path class="cls-3" d="M715.1,235.7c.1-1.3,2.7-4,5.1-1.3,2.3,2.7-1.1,9.6-2.6,9.7-1.5.1-3-3.6-2.5-8.4Z"/>
        <path class="cls-1" d="M736.9,385.7c-.2.4-12.4,27.6-15.6,32.3-.7-2.5-1.4-5.1-2.1-7.5h0s17.3-24.2,17.7-24.8Z"/>
        <path class="cls-2" d="M751.4,298.7s.9,17.3-.5,27.9c-.6-2.8-1.3-5.7-2.1-8.5,0-.4,2.4-16.6,2.7-19.4Z"/>
        <path class="cls-4" d="M725.2,213.5s20.7-.5,17.5,35c-2.4,27.3,7.6,40.7,6.2,44.7-1.4,4-6.3,10.6-17.1,4.6-10.8-6-3.7-37.3-9.5-49.4-5.8-12.2-18.6-17.8-18.6-17.8,0,0,2.2-20.7,21.5-17.1Z"/>
        <path class="cls-2" d="M697.4,285.3s-4.7,16.8-5.8,20.8c-1.5,5.2,5.3,14.9,11.3,11.9,6-3-5.5-32.7-5.5-32.7Z"/>
        <path class="cls-2" d="M737.3,559.6h-2.2v-9.1c-1.8.2-7.9,5.9-9.8,7.6-1.9,1.7-4.5,1.6-12.4,2.1-7.9.5-8.7-4.2-7.4-5.8,1.3-1.6,5.3-2.3,7.4-3.3,8.5.5,18.8-11.4,23.7-11.4,2.6,0,2.6,1.5,2.7,1.7h0s0,0,0,0c0,.4.2.8.3,1.2,1.4,5.1-2.5,17.1-2.5,17.1Z"/>
        <path class="cls-2" d="M692.1,561.5h-2.6s.9-9.8-1.5-9.9c-2.4,0-8.4,8-11.9,9.2-3.6,1.3-21.9,2.3-22-1.1,0-3.4,7-4.7,9.2-5.7,7.5,0,19.8-8.3,23.6-10,3.8-1.7,7.9-.7,7.9-.7.2,1.6.4,3,.4,4,0,3.7-3.2,14.1-3.2,14.1Z"/>
      </g>
    </g>
  </g>
</svg>