<?xml version="1.0" encoding="UTF-8"?>
<svg id="_圖層_1" data-name="圖層 1" xmlns="http://www.w3.org/2000/svg" version="1.1" viewBox="0 0 835 574.7">
  <defs>
    <style>
      .cls-1 {
        fill: #000;
        stroke-width: 0px;
      }
    </style>
  </defs>
  <path class="cls-1" d="M132.2,211.8v-6.3h1.3v6.3h-1.3Z"/>
  <path class="cls-1" d="M132.2,195.6v-6.3h1.3v6.3h-1.3Z"/>
  <path class="cls-1" d="M132.2,179.3v-6.3h1.3v6.3h-1.3Z"/>
  <path class="cls-1" d="M132.2,163.1v-6.3h1.3v6.3h-1.3Z"/>
  <path class="cls-1" d="M132.2,146.9v-6.3h1.3v6.3h-1.3Z"/>
  <path class="cls-1" d="M132.1,130.4l.5-6.3h1.3c0,0-.5,6.4-.5,6.4h-1.3Z"/>
  <path class="cls-1" d="M134.4,114l1.7-6.1,1.2.4-1.7,6.1-1.2-.4Z"/>
  <path class="cls-1" d="M139.9,98.4l2.9-5.6,1.1.6-2.9,5.6-1.1-.6Z"/>
  <path class="cls-1" d="M148.2,84.1l3.9-5,1,.8-3.9,5-1-.8Z"/>
  <path class="cls-1" d="M159.1,71.6l4.7-4.2.9.9-4.7,4.2-.9-.9Z"/>
  <path class="cls-1" d="M171.9,61.1l5.3-3.5.7,1.1-5.3,3.5-.7-1.1Z"/>
  <path class="cls-1" d="M186.1,52.7l5.7-2.7.5,1.2-5.7,2.7-.5-1.2Z"/>
  <path class="cls-1" d="M201.2,46.2l6-2.1.4,1.2-6,2.1-.4-1.2Z"/>
  <path class="cls-1" d="M216.8,41.4l6.1-1.5.3,1.2-6.1,1.5-.3-1.2Z"/>
  <path class="cls-1" d="M232.8,37.9l6.2-1,.2,1.3-6.2,1-.2-1.3Z"/>
  <path class="cls-1" d="M249,35.6l6.3-.6v1.3c.1,0-6.2.6-6.2.6v-1.3Z"/>
  <path class="cls-1" d="M265.3,34.3l6.3-.3v1.3c0,0-6.3.3-6.3.3v-1.3Z"/>
  <path class="cls-1" d="M281.6,33.8h6.3c0,0,0,1.3,0,1.3h-6.3c0,0,0-1.3,0-1.3Z"/>
  <path class="cls-1" d="M297.9,34.1l6.3.3v1.3c0,0-6.4-.3-6.4-.3v-1.3Z"/>
  <path class="cls-1" d="M314.2,35.2l6.3.6v1.3c-.1,0-6.4-.6-6.4-.6v-1.3Z"/>
  <path class="cls-1" d="M330.5,37.1l6.2,1-.2,1.3-6.2-1,.2-1.3Z"/>
  <path class="cls-1" d="M346.5,40.1l6.1,1.5-.3,1.2-6.1-1.5.3-1.2Z"/>
  <path class="cls-1" d="M362.4,44.4l6,2-.4,1.2-6-2,.4-1.2Z"/>
  <path class="cls-1" d="M377.8,50.1l5.7,2.7-.5,1.2-5.7-2.7.5-1.2Z"/>
  <path class="cls-1" d="M392.4,57.7l5.3,3.4-.7,1.1-5.3-3.4.7-1.1Z"/>
  <path class="cls-1" d="M405.9,67.3l4.7,4.2-.9.9-4.7-4.2.9-.9Z"/>
  <path class="cls-1" d="M417.6,79l3.8,5-1,.8-3.8-5,1-.8Z"/>
  <path class="cls-1" d="M426.8,92.8l2.7,5.7-1.2.5-2.7-5.7,1.2-.5Z"/>
  <path class="cls-1" d="M432.8,108.3l1.3,6.2-1.2.3-1.3-6.2,1.2-.3Z"/>
  <path class="cls-1" d="M434.9,124.8v6.3h-1.3v-6.3h1.3Z"/>
  <path class="cls-1" d="M434.9,141v6.3h-1.3v-6.3h1.3Z"/>
  <path class="cls-1" d="M434.9,157.3v6.3h-1.3v-6.3h1.3Z"/>
  <path class="cls-1" d="M434.9,173.5v6.3h-1.3v-6.3h1.3Z"/>
  <path class="cls-1" d="M434.9,189.8v6.3h-1.3v-6.3h1.3Z"/>
  <path class="cls-1" d="M434.9,206v6.3h-1.3v-6.3h1.3Z"/>
  <path class="cls-1" d="M434.9,222.2v6.3h-1.3v-6.3h1.3Z"/>
  <path class="cls-1" d="M434.9,238.5v6.3h-1.3v-6.3h1.3Z"/>
  <path class="cls-1" d="M434.9,254.7v6.3h-1.3v-6.3h1.3Z"/>
  <path class="cls-1" d="M434.9,271v6.3h-1.3v-6.3h1.3Z"/>
  <path class="cls-1" d="M434.9,287.2v6.3h-1.3v-6.3h1.3Z"/>
  <path class="cls-1" d="M434.9,303.5v6.3h-1.3v-6.3h1.3Z"/>
  <path class="cls-1" d="M438.6,322.1l4.4,4.5-.9.9-4.4-4.5.9-.9Z"/>
  <path class="cls-1" d="M451.9,333.4l5.5,3.1-.6,1.1-5.5-3.1.6-1.1Z"/>
  <path class="cls-1" d="M467.5,340.7l6.1,1.8-.4,1.2-6.1-1.8.4-1.2Z"/>
  <path class="cls-1" d="M484.1,344.6l6.3.7v1.3c-.1,0-6.4-.7-6.4-.7v-1.3Z"/>
  <path class="cls-1" d="M500.9,345.8l6.3-.2v1.3s-6.3.2-6.3.2v-1.3Z"/>
  <path class="cls-1" d="M518,344.1l6.1-1.6.3,1.2-6.1,1.6-.3-1.2Z"/>
  <path class="cls-1" d="M534.5,338.2l5.4-3.3.7,1.1-5.4,3.3-.7-1.1Z"/>
  <path class="cls-1" d="M548.6,327.6l4.1-4.8,1,.8-4.1,4.8-1-.8Z"/>
  <path class="cls-1" d="M558.7,313.1l2.4-5.8,1.2.5-2.4,5.8-1.2-.5Z"/>
  <path class="cls-1" d="M560.9,295.5v-6.3h1.3v6.3h-1.3Z"/>
  <path class="cls-1" d="M560.9,279.3v-6.3h1.3v6.3h-1.3Z"/>
  <path class="cls-1" d="M560.9,263v-6.3h1.3v6.3h-1.3Z"/>
</svg>