<?xml version="1.0" encoding="UTF-8"?>
<svg id="_圖層_1" data-name=" 圖層 1" xmlns="http://www.w3.org/2000/svg" version="1.1" viewBox="0 0 835 574.7">
  <defs>
    <style>
      .cls-1 {
        fill: #dcdee6;
      }

      .cls-1, .cls-2, .cls-3, .cls-4, .cls-5, .cls-6 {
        stroke-width: 0px;
      }

      .cls-2 {
        fill: #e1e5e8;
      }

      .cls-3 {
        fill: #c8cbd8;
      }

      .cls-4 {
        fill: #ecedf1;
      }

      .cls-5 {
        fill: #d2d4df;
      }

      .cls-6 {
        fill: #fff;
      }
    </style>
  </defs>
  <g>
    <rect class="cls-5" x="159" y="6.7" width="627.3" height="431.4" rx="20.7" ry="20.7"/>
    <path class="cls-6" d="M771,46.3v320.1c0,5.9-4.8,10.6-10.6,10.6H185.1c-5.9,0-10.6-4.8-10.6-10.6V46.3c0-14,11.4-25.4,25.4-25.4h545.7c14,0,25.4,11.4,25.4,25.4Z"/>
    <polygon class="cls-3" points="532.6 530.2 412.9 530.2 425.4 457.2 428.7 438.1 516.7 438.1 520 457.2 532.6 530.2"/>
    <rect class="cls-5" x="373.2" y="514.5" width="199" height="15.7"/>
  </g>
  <g>
    <rect class="cls-3" x="48.7" y="232.1" width="155.2" height="297.9" rx="8.7" ry="8.7"/>
    <g>
      <path class="cls-6" d="M129.9,241.5h-14.3c-.7,0-1.3-.6-1.3-1.3s.6-1.3,1.3-1.3h14.3c.7,0,1.3.6,1.3,1.3s-.6,1.3-1.3,1.3Z"/>
      <path class="cls-6" d="M136.2,241.5h-.5c-.1,0-.3-.2-.4-.3-.1-.1-.2-.3-.3-.4v-1s0-.1.1-.2l.2-.2c.3-.3.7-.4,1.2-.4h.2s.2,0,.2.1l.2.2.2.2s0,.1.1.2v.5c0,.2,0,.3-.1.5,0,.2-.2.3-.3.4-.1.1-.3.2-.4.3h-.5.1Z"/>
    </g>
    <path class="cls-6" d="M181.5,238.8h-13.1c-2.1,0-4.1,1.1-5.2,2.9l-2.5,4.1c-1.1,1.8-3.1,2.9-5.2,2.9h-59c-2.1,0-4.1-1.1-5.2-2.9l-2.5-4.1c-1.1-1.8-3.1-2.9-5.2-2.9h-13.1c-9.5,0-17.2,7.7-17.2,17.2v251.5c0,9.5,7.7,17.2,17.2,17.2h111.1c9.5,0,17.2-7.7,17.2-17.2v-251.5c0-9.5-7.7-17.2-17.2-17.2h-.1Z"/>
  </g>
  <rect class="cls-4" x="62.5" y="386.8" width="126.9" height="11.5" rx="3.1" ry="3.1"/>
  <rect class="cls-4" x="62.5" y="409.8" width="88.3" height="11.5" rx="3.1" ry="3.1"/>
  <rect class="cls-4" x="445.4" y="83.5" width="277.6" height="12.2" rx="3.1" ry="3.1"/>
  <rect class="cls-4" x="445.4" y="140.1" width="242.3" height="11.5" rx="3.1" ry="3.1"/>
  <rect class="cls-4" x="445.4" y="111.6" width="193.3" height="12.2" rx="3.1" ry="3.1"/>
  <rect class="cls-4" x="62.5" y="431.8" width="72.5" height="11.5" rx="3.1" ry="3.1"/>
  <g>
    <rect class="cls-2" x="215.9" y="56.1" width="203.2" height="191.1" rx="1.8" ry="1.8"/>
    <path class="cls-6" d="M385.6,115.9h0l-25.6-27.6h-26.5c0,6.6-4,12.3-9.8,14.7-1.9.8-4,1.3-6.2,1.3s-2.2,0-3.2-.3c-7.3-1.5-12.8-8-12.8-15.6h-26.5l-25.6,27.6h0l-4.1,4.4,20.7,19.2,4.1-4.4h0l4.9-5.3v85.3h85v-85.3l4.9,5.3h0l4.1,4.4,20.7-19.2-4.1-4.4h0Z"/>
  </g>
  <path class="cls-1" d="M329.6,290.5c0-10.3-8.3-18.6-18.6-18.6h-76.4c-10.3,0-18.6,8.3-18.6,18.6v82.3h113.6v-82.3Z"/>
  <path class="cls-1" d="M475.9,290.5c0-10.3-8.3-18.6-18.6-18.6h-76.4c-10.3,0-18.6,8.3-18.6,18.6v82.3h113.6v-82.3Z"/>
  <path class="cls-1" d="M622.3,290.5c0-10.3-8.3-18.6-18.6-18.6h-76.4c-10.3,0-18.6,8.3-18.6,18.6v82.3h113.6v-82.3Z"/>
</svg>