<?xml version="1.0" encoding="UTF-8"?>
<svg id="_圖層_1" data-name="圖層 1" xmlns="http://www.w3.org/2000/svg" version="1.1" viewBox="0 0 835 574.7">
  <defs>
    <style>
      .cls-1 {
        fill: #7fc300;
      }

      .cls-1, .cls-2 {
        stroke-width: 0px;
      }

      .cls-2 {
        fill: #fff;
      }
    </style>
  </defs>
  <rect class="cls-1" x="447.8" y="173.9" width="223.2" height="59.4" rx="16.2" ry="16.2"/>
  <g>
    <path class="cls-2" d="M515.4,203.4c.5.7.8,1.5.8,2.5,0,1.4-.5,2.5-1.6,3.3-1.1.8-2.6,1.1-4.7,1.1h-8.1v-16.1h7.7c1.9,0,3.4.4,4.4,1.1,1,.8,1.5,1.8,1.5,3.1s-.2,1.5-.6,2.1-.9,1.1-1.5,1.5c.9.3,1.6.8,2.1,1.5ZM505.3,197v3.8h3.6c.9,0,1.6-.2,2-.5.5-.3.7-.8.7-1.4s-.2-1.1-.7-1.4c-.5-.3-1.1-.5-2-.5h-3.6ZM511.7,207c.5-.3.7-.8.7-1.5,0-1.3-1-2-2.9-2h-4.3v4h4.3c1,0,1.7-.2,2.2-.5Z"/>
    <path class="cls-2" d="M520.6,208.7c-1.3-1.3-1.9-3.1-1.9-5.5v-9h3.6v8.9c0,2.9,1.2,4.3,3.5,4.3s2-.3,2.6-1c.6-.7.9-1.8.9-3.3v-8.9h3.6v9c0,2.4-.6,4.2-1.9,5.5-1.3,1.3-3,1.9-5.3,1.9s-4-.6-5.3-1.9Z"/>
    <path class="cls-2" d="M544,204.6v5.7h-3.6v-5.8l-6.1-10.4h3.9l4.2,7.2,4.2-7.2h3.6l-6.1,10.4Z"/>
    <path class="cls-2" d="M572.5,194.2v16.1h-3l-7.9-9.8v9.8h-3.6v-16.1h3l7.8,9.8v-9.8h3.6Z"/>
    <path class="cls-2" d="M579.4,209.5c-1.3-.7-2.3-1.7-3.1-3-.7-1.3-1.1-2.7-1.1-4.3s.4-3,1.1-4.3c.7-1.3,1.8-2.3,3.1-3,1.3-.7,2.8-1.1,4.4-1.1s3.1.4,4.4,1.1c1.3.7,2.3,1.7,3.1,3,.8,1.3,1.1,2.7,1.1,4.3s-.4,3-1.1,4.3c-.8,1.3-1.8,2.3-3.1,3-1.3.7-2.8,1.1-4.4,1.1s-3.1-.4-4.4-1.1ZM586.4,206.7c.8-.4,1.3-1,1.8-1.8s.6-1.7.6-2.7-.2-1.9-.6-2.7-1-1.4-1.8-1.8-1.6-.7-2.5-.7-1.8.2-2.5.7-1.3,1-1.8,1.8c-.4.8-.6,1.7-.6,2.7s.2,1.9.6,2.7c.4.8,1,1.4,1.8,1.8.8.4,1.6.7,2.5.7s1.8-.2,2.5-.7Z"/>
    <path class="cls-2" d="M618.5,194.2l-5.2,16.1h-3.9l-3.5-10.9-3.6,10.9h-3.9l-5.2-16.1h3.8l3.6,11.3,3.7-11.3h3.4l3.6,11.4,3.7-11.4h3.5Z"/>
  </g>
</svg>