<?xml version="1.0" encoding="UTF-8"?>
<svg id="_圖層_1" data-name="圖層 1" xmlns="http://www.w3.org/2000/svg" version="1.1" viewBox="0 0 835 553.3">
  <defs>
    <style>
      .cls-1 {
        fill: #babdcf;
      }

      .cls-1, .cls-2, .cls-3, .cls-4, .cls-5 {
        stroke-width: 0px;
      }

      .cls-2 {
        fill: #e0e1e9;
      }

      .cls-3 {
        fill: #ecedf1;
      }

      .cls-4 {
        fill: #d2d4df;
      }

      .cls-5 {
        fill: #fff;
      }
    </style>
  </defs>
  <path class="cls-3" d="M829.7,161.8l-54.9-7.9c-.3,0-.5,0-.6.3l-33.6,56.4c-.1.2-.1.4,0,.6s.3.3.5.3l56.8,4.8s0,0,.1,0c.2,0,.4-.1.5-.3l31.8-53.3c.1-.2.1-.4,0-.6,0-.2-.3-.3-.5-.4Z"/>
  <path class="cls-2" d="M775.2,154.1l-38-51.1c-.1-.2-.3-.3-.6-.3,0,0,0,0,0,0-.2,0-.4.1-.5.3l-30.3,56.3c-.1.2,0,.5,0,.7l34.7,51.2c.1.2.3.3.5.3,0,0,0,0,0,0,.2,0,.4-.1.5-.3l33.6-56.4c.1-.2.1-.5,0-.7Z"/>
  <g>
    <polygon class="cls-5" points="774.5 154.2 736.7 103.4 790.5 113.6 829.6 162.4 774.5 154.2"/>
    <path class="cls-4" d="M829.7,163s0,0-.1,0l-55.1-8.2c-.2,0-.3-.1-.4-.3l-37.8-50.8c-.2-.2-.2-.5,0-.7.1-.2.4-.3.7-.3l53.8,10.2c.2,0,.3.1.4.2l39.1,48.8c.2.2.2.5,0,.7-.1.2-.3.3-.5.3Z"/>
  </g>
  <path class="cls-1" d="M781.3,126.5c-1.2,1.2-.3,4.1,2,6.4,2.3,2.3,5.2,3.2,6.4,1.9,1.2-1.2.3-4.1-2-6.4-2.3-2.3-5.2-3.2-6.4-1.9Z"/>
  <g>
    <path class="cls-1" d="M782.5,164.7c-1.9-1.1-4.8.3-6.5,3.1-1.6,2.8-1.4,6,.6,7.2,1.9,1.1,4.8-.3,6.5-3.1,1.6-2.8,1.4-6-.6-7.2Z"/>
    <path class="cls-1" d="M812.2,168.5c-1.9-1.1-4.8.3-6.5,3.1-1.6,2.8-1.4,6,.6,7.2,1.9,1.1,4.8-.3,6.5-3.1,1.6-2.8,1.4-6-.6-7.2Z"/>
    <path class="cls-1" d="M765.8,195.3c-1.9-1.2-4.9,0-6.6,2.8-1.8,2.7-1.7,6,.2,7.2,1.9,1.2,4.9,0,6.6-2.8,1.8-2.7,1.7-6-.2-7.2Z"/>
    <path class="cls-1" d="M796.6,198.3c-1.9-1.2-4.9,0-6.6,2.8-1.8,2.7-1.7,6,.2,7.2,1.9,1.2,4.9,0,6.6-2.8,1.8-2.7,1.7-6-.2-7.2Z"/>
  </g>
  <g>
    <path class="cls-1" d="M715.9,162.5c-2.2-1-2.8-4.4-1.3-7.6,1.5-3.2,4.4-4.9,6.6-4,2.2,1,2.8,4.4,1.3,7.6s-4.4,4.9-6.6,4Z"/>
    <path class="cls-1" d="M734.2,191.4c-2.2-1-2.8-4.4-1.3-7.6,1.5-3.2,4.4-4.9,6.6-4,2.2,1,2.8,4.4,1.3,7.6-1.5,3.2-4.4,4.9-6.6,4Z"/>
    <path class="cls-1" d="M732.3,133.6c-2.2-.9-3-4.2-1.7-7.5,1.3-3.2,4.1-5.2,6.4-4.3,2.2.9,3,4.2,1.7,7.5-1.3,3.2-4.1,5.2-6.4,4.3Z"/>
    <path class="cls-1" d="M753.1,159.6c-2.2-.9-3-4.2-1.7-7.5,1.3-3.2,4.1-5.2,6.4-4.3,2.2.9,3,4.2,1.7,7.5s-4.1,5.2-6.4,4.3Z"/>
    <path class="cls-1" d="M732.8,162.7c-2.2-.9-3-4.2-1.7-7.5,1.3-3.2,4.1-5.2,6.4-4.3,2.2.9,3,4.2,1.7,7.5-1.3,3.2-4.1,5.2-6.4,4.3Z"/>
  </g>
</svg>