<?xml version="1.0" encoding="UTF-8"?>
<svg id="_圖層_1" data-name="圖層 1" xmlns="http://www.w3.org/2000/svg" version="1.1" viewBox="0 0 835 553.3">
  <defs>
    <style>
      .cls-1 {
        fill: #c8cbd8;
      }

      .cls-1, .cls-2, .cls-3, .cls-4 {
        stroke-width: 0px;
      }

      .cls-2 {
        fill: #939ab3;
      }

      .cls-3 {
        fill: #ecedf1;
      }

      .cls-5 {
        fill: none;
        stroke: #a640ab;
        stroke-miterlimit: 10;
        stroke-width: 5px;
      }

      .cls-4 {
        fill: #222535;
      }
    </style>
  </defs>
  <circle class="cls-5" cx="550.3" cy="187.9" r="21.1"/>
  <g>
    <path class="cls-3" d="M658.6,459.9s1.6,6.5,1.9,7.4c.2,1,10.4-1.7,10.4-1.7v-7.9s-11,1.1-12.2,2.2Z"/>
    <path class="cls-4" d="M660.3,466.5s-2.8,4.3-5.8,6.4c-3,2.1-14.4,4.7-16.1,6.7-1.2,1.4-2.9,6.9,15.5,4.4,13.1-1.8,19.5-1.3,20.7-3.6,1.2-2.3-3.7-15.5-3.7-15.5,0,0-2.8,1.5-10.6,1.6Z"/>
    <g>
      <rect class="cls-2" x="613.3" y="268.7" width="4.7" height="279.7" transform="translate(-36.4 61.1) rotate(-5.5)"/>
      <rect class="cls-2" x="688.3" y="261.4" width="4.7" height="279.7" transform="translate(-35.4 68.3) rotate(-5.5)"/>
      <g>
        <rect class="cls-2" x="602.9" y="272" width="75.3" height="4.7" transform="translate(-23.5 63.2) rotate(-5.5)"/>
        <rect class="cls-2" x="606.3" y="306.8" width="75.3" height="4.7" transform="translate(-26.8 63.6) rotate(-5.5)"/>
        <rect class="cls-2" x="609.6" y="341.6" width="75.3" height="4.7" transform="translate(-30.2 64.1) rotate(-5.5)"/>
        <rect class="cls-2" x="613" y="376.5" width="75.3" height="4.7" transform="translate(-33.5 64.5) rotate(-5.5)"/>
        <rect class="cls-2" x="616.4" y="411.3" width="75.3" height="4.7" transform="translate(-36.9 65) rotate(-5.5)"/>
        <rect class="cls-2" x="619.8" y="446.2" width="75.3" height="4.7" transform="translate(-40.2 65.6) rotate(-5.5)"/>
        <rect class="cls-2" x="623.2" y="481" width="75.3" height="4.7" transform="translate(-43.6 66.1) rotate(-5.5)"/>
        <rect class="cls-2" x="626.5" y="515.8" width="75.3" height="4.7" transform="translate(-46.9 66.6) rotate(-5.5)"/>
      </g>
    </g>
    <path class="cls-4" d="M646.1,323.7s-7.4,27.4-9.3,37.2c-1.7,8.5-5.1,31.3-5.6,36.7-.5,5.4,21.8,57.7,24.1,67.2l20.3-3.3s-21.4-54.4-15.8-66.5c8.3-18,9.4-17.5,15.9-32.3,6.5-14.8,21.5-15.2,25.5-42.7,0,0-49.7-5-55.1,3.7Z"/>
    <path class="cls-3" d="M682.2,190.5s-13.5-5-19.7,5.2c-6.2,10.3-5.6,30.8,1.2,33.3,6.8,2.5,17,1.2,20.5-5.2,3.5-6.4,6.6-15.7,6.5-21.9-.2-6.2-4.9-9.6-8.4-11.4Z"/>
    <path class="cls-3" d="M665.9,228.5s.5,3.5-.4,5.3c-.9,1.7,16.9,1.8,16.9,1.8,0,0,1.4-9.5,4.2-17.5,2.7-8-20.8,10.4-20.8,10.4Z"/>
    <path class="cls-4" d="M686.7,218.1s-1.2,2-6.3,1.2c-5-.8-11.2-7.5-13.3-8.2-2.1-.7-2.1-2-2.1-2l-1.3,1.9h-2.2c0,.1,2-5.8-1-8.3-3.1-2.4,3.2-19.4,19.3-13.7,0,0,12.4,3.4,11.9,10.5-.5,7-2.3,15.1-5,18.6Z"/>
    <path class="cls-3" d="M665.4,206.6c.3-1.2,3.3-4.6,4.4-.9,1.2,3.6-1.7,8.5-3.3,8.1-1.6-.4-1.8-4.1-1.1-7.1Z"/>
    <path class="cls-1" d="M716.8,280c-.1,1.8-2.2,3.7-3.5,4.6-.9.6-1.9,1-3.1,1h-.8s0,0,0,0l-14,.5s-10.4-33.6,9.1-46.5c.6,0,13.7,24.1,12.3,40.3Z"/>
    <path class="cls-1" d="M665.9,232.7s11-2.6,17.2-.5l.9.9s1.9,3.6-5.2,3.9c-7.1.3-18.2.8-12.9-4.3Z"/>
    <path class="cls-3" d="M708.8,490.1s1.6,6.5,1.9,7.4c.2,1,10.4-1.7,10.4-1.7v-7.9s-11,1.1-12.2,2.2Z"/>
    <path class="cls-4" d="M701.2,320s3.7,15.3,4.8,30.5c1,14.1,2.9,29.6,4.3,44.4,1.6,16.5,6.3,43.1,6.5,51.9.2,8.8,7.7,47.3,7.7,47.3l-19,2.2s-12.3-68-15.2-74.9c-2.9-6.9-17.3-56.5-17.8-62-.5-5.6,28.7-39.2,28.7-39.2Z"/>
    <path class="cls-4" d="M710.5,496.8s-2.8,4.3-5.8,6.4c-3,2.1-14.4,4.7-16.1,6.7-1.2,1.4-2.9,6.9,15.5,4.4,13.1-1.8,19.5-1.3,20.7-3.6,1.2-2.3-3.7-15.5-3.7-15.5,0,0-2.8,1.5-10.6,1.6Z"/>
    <path class="cls-1" d="M642.3,357.9c-1.6-.2,4-48.3,3.6-51.4-.3-2-.2-17.6-.1-27.4l-1.8-9.9c-1-.7-2.3-1.5-3.9-2.4-2.4-1.4-5.5-3-8.9-4.7.4-2.3.7-4.2.8-5.2.8-8.7,6.7-13.3,10-15.2,1.3-.8,2.3-1.1,2.3-1.1,1.3-.5,2.5-1,3.7-1.5,7.9-3.3,18-6.3,18-6.3h16.2s12.3,2.5,19.7,5.5c.9.4,1.8.9,2.7,1.5l-2.2,46.2s0,0,0,0c0,0,0,0,0,0-1,6.5-2,14.2-2.4,19.6-.1,2.2,2.4,14,3.7,24.8l4.6,25.9s-2.7,10.7-65.9,1.7Z"/>
    <path class="cls-3" d="M559.5,208s1,1.2,1.6,1.5c0,0,1.3.5,2.1.9.3.1.5.2.7.3.6.4,1.9,1.4,3.6,1.9,1.7.5,9.6,2.3,9.6,2.3l1.8-4.6,1.3-3.8s-7.3-9.4-8.8-10c-.2,0-.3-.1-.5-.2-1.4-.4-2.6-.2-3.3-.3-.3,0-3-.4-3.6.2-.8.8-1.1,1.7-.9,2.5,0,0-1.6,1.6-1.7,3.2,0,0-1.5,1.5-1.1,3.4,0,0-1.3,1.7-.8,2.8Z"/>
    <path class="cls-1" d="M643.4,268.9c-1.8-1.2-4.2-2.7-12.3-6.8-15.1-7.5-33.7-21.2-37.3-23.2-5.4-3-22.6-24.1-22.6-24.1.9-3.2,9-9.5,9-9.5,0,0,26.1,24.7,31.8,27.7,4.9,2.6,29.1,5.3,35.8,5.9,1.1.1,1.7.2,1.7.2,7,9.5-2.3,32.2-6.1,29.7Z"/>
  </g>
</svg>