<?xml version="1.0" encoding="UTF-8"?>
<svg id="_圖層_1" data-name="圖層 1" xmlns="http://www.w3.org/2000/svg" version="1.1" viewBox="0 0 835 553.3">
  <defs>
    <style>
      .cls-1 {
        fill: #babdcf;
      }

      .cls-1, .cls-2, .cls-3, .cls-4, .cls-5 {
        stroke-width: 0px;
      }

      .cls-2 {
        fill: #e0e1e9;
      }

      .cls-3 {
        fill: #ecedf1;
      }

      .cls-4 {
        fill: #d2d4df;
      }

      .cls-5 {
        fill: #fff;
      }
    </style>
  </defs>
  <path class="cls-3" d="M149.8.5l-26.6,68.4c-.1.3,0,.7.2.9l62.6,60.1c.2.2.5.3.8.2s.5-.3.6-.6l23.1-71.7s0,0,0-.1c0-.3,0-.5-.3-.7L151.2.2c-.2-.2-.5-.3-.8-.2-.3,0-.5.3-.6.5Z"/>
  <path class="cls-2" d="M123.6,68.5l-77.2,33.7c-.3.1-.5.4-.5.6,0,0,0,0,0,0,0,.3,0,.6.3.8l63.4,55.8c.2.2.6.3.9.2l76.3-29.3c.3-.1.5-.3.5-.6,0,0,0,0,0,0,0-.3,0-.5-.3-.7l-62.6-60.1c-.2-.2-.6-.3-.9-.2Z"/>
  <g>
    <polygon class="cls-5" points="123.6 69.4 46.8 102.9 76 36.7 150.6 .8 123.6 69.4"/>
    <path class="cls-4" d="M151.4,1c0,0,0,.1,0,.2l-27,68.6c0,.2-.2.4-.4.5l-76.8,33.5c-.3.1-.7,0-.9-.2-.2-.2-.3-.6-.2-.9l29.2-66.2c0-.2.2-.3.4-.4L150.2,0c.3-.2.7,0,.9.1.2.2.3.5.3.7Z"/>
  </g>
  <path class="cls-1" d="M89.9,52.3c1.2,1.9,5.2,1.6,8.8-.7,3.6-2.3,5.6-5.8,4.4-7.7-1.2-1.9-5.2-1.6-8.8.7-3.6,2.3-5.6,5.8-4.4,7.7Z"/>
  <g>
    <path class="cls-1" d="M139.4,62.2c-2,2.2-1.1,6.3,2,9.3,3.2,3,7.4,3.6,9.4,1.4,2-2.2,1.1-6.3-2-9.3s-7.4-3.6-9.4-1.4Z"/>
    <path class="cls-1" d="M153.3,25.1c-2,2.2-1.1,6.3,2,9.3,3.2,3,7.4,3.6,9.4,1.4s1.1-6.3-2-9.3c-3.2-3-7.4-3.6-9.4-1.4Z"/>
    <path class="cls-1" d="M173.9,92.8c-2.1,2.1-1.4,6.3,1.6,9.4,3,3.1,7.2,3.9,9.3,1.9,2.1-2.1,1.4-6.3-1.6-9.4-3-3.1-7.2-3.9-9.3-1.9Z"/>
    <path class="cls-1" d="M187,54.1c-2.1,2.1-1.4,6.3,1.6,9.4,3,3.1,7.2,3.9,9.3,1.9,2.1-2.1,1.4-6.3-1.6-9.4-3-3.1-7.2-3.9-9.3-1.9Z"/>
  </g>
  <g>
    <path class="cls-1" d="M116.8,147.4c-1.9,2.5-6.5,2.3-10.1-.5-3.7-2.8-5.1-7.1-3.1-9.7,1.9-2.5,6.5-2.3,10.1.5,3.7,2.8,5.1,7.1,3.1,9.7Z"/>
    <path class="cls-1" d="M159.5,132.4c-1.9,2.5-6.5,2.3-10.1-.5s-5.1-7.1-3.1-9.7c1.9-2.5,6.5-2.3,10.1.5,3.7,2.8,5.1,7.1,3.1,9.7Z"/>
    <path class="cls-1" d="M84.4,117.6c-1.8,2.6-6.3,2.6-10.1,0-3.8-2.6-5.4-6.9-3.6-9.5,1.8-2.6,6.3-2.6,10.1,0,3.8,2.6,5.4,6.9,3.6,9.5Z"/>
    <path class="cls-1" d="M124.1,98.5c-1.8,2.6-6.3,2.6-10.1,0-3.8-2.6-5.4-6.9-3.6-9.5,1.8-2.6,6.3-2.6,10.1,0,3.8,2.6,5.4,6.9,3.6,9.5Z"/>
    <path class="cls-1" d="M122,125.6c-1.8,2.6-6.3,2.6-10.1,0-3.8-2.6-5.4-6.9-3.6-9.5,1.8-2.6,6.3-2.6,10.1,0,3.8,2.6,5.4,6.9,3.6,9.5Z"/>
  </g>
</svg>