<?xml version="1.0" encoding="UTF-8"?>
<svg xmlns="http://www.w3.org/2000/svg" version="1.1" xmlns:xlink="http://www.w3.org/1999/xlink" viewBox="0 0 835 509.3">
  <defs>
    <style>
      .cls-1 {
        fill: #e4e6ec;
      }

      .cls-1, .cls-2, .cls-3, .cls-4, .cls-5, .cls-6, .cls-7, .cls-8, .cls-9, .cls-10, .cls-11, .cls-12, .cls-13, .cls-14, .cls-15 {
        stroke-width: 0px;
      }

      .cls-2 {
        fill: url(#linear-gradient);
      }

      .cls-16 {
        fill: none;
        stroke: #403e5d;
        stroke-linecap: round;
        stroke-miterlimit: 10;
        stroke-width: 1.4px;
      }

      .cls-3 {
        fill: #81c700;
      }

      .cls-4 {
        fill: #bcbfcf;
      }

      .cls-17 {
        isolation: isolate;
      }

      .cls-5 {
        fill: #bcbfce;
      }

      .cls-6 {
        fill: url(#linear-gradient-2);
        mix-blend-mode: multiply;
        opacity: .5;
      }

      .cls-7, .cls-15 {
        fill: #d8d9dc;
      }

      .cls-8 {
        fill: #a640ab;
      }

      .cls-9 {
        fill: #c8cbd8;
      }

      .cls-10 {
        fill: #193649;
      }

      .cls-11 {
        fill: #ecedf1;
      }

      .cls-12 {
        fill: #222535;
      }

      .cls-13 {
        fill: #d2d4df;
      }

      .cls-14 {
        fill: #fff;
      }

      .cls-15 {
        opacity: .3;
      }
    </style>
    <linearGradient id="linear-gradient" x1="-1097.5" y1="-16077.6" x2="-1097.5" y2="-16043.7" gradientTransform="translate(-991.1 -15920) rotate(-180)" gradientUnits="userSpaceOnUse">
      <stop offset="0" stop-color="#12285c"/>
      <stop offset="1" stop-color="#071a3a"/>
    </linearGradient>
    <linearGradient id="linear-gradient-2" x1="-1081.8" y1="-16270.7" x2="-1080.8" y2="-16240.6" gradientTransform="translate(-991.1 -15920) rotate(-180)" gradientUnits="userSpaceOnUse">
      <stop offset="0" stop-color="#263574"/>
      <stop offset="1" stop-color="#15175e"/>
    </linearGradient>
  </defs>
  <g class="cls-17">
    <g id="_圖層_1" data-name="圖層 1">
      <g>
        <rect class="cls-1" x="94.8" y="4.5" width="669.7" height="454.9" rx="43.8" ry="43.8"/>
        <path class="cls-13" d="M764.5,67.9v-15.9c0-26.3-18.2-47.5-40.5-47.5H135.3c-22.4,0-40.5,21.3-40.5,47.5v15.9h669.7Z"/>
        <circle class="cls-14" cx="136.9" cy="36.2" r="14"/>
        <circle class="cls-14" cx="192.1" cy="36.2" r="14"/>
        <circle class="cls-14" cx="244.5" cy="36.2" r="14"/>
      </g>
      <path class="cls-16" d="M221.9,439.8"/>
      <path class="cls-16" d="M224.2,448.1"/>
      <path class="cls-16" d="M219.8,447.3"/>
      <rect class="cls-14" x="121.6" y="106.5" width="291.3" height="173.6" rx="30" ry="30"/>
      <rect class="cls-14" x="446.4" y="106.5" width="291.3" height="173.6" rx="30" ry="30"/>
      <path class="cls-14" d="M484.6,358.8h-202.2c-4.4,0-7.9-2.2-7.9-4.9v-4.7c0-2.7,3.6-4.9,7.9-4.9h202.2c4.4,0,7.9,2.2,7.9,4.9v4.7c0,2.7-3.6,4.9-7.9,4.9Z"/>
      <path class="cls-14" d="M456.1,385.7h-174.8c-3.8,0-6.9-2.2-6.9-4.9v-4.7c0-2.7,3.1-4.9,6.9-4.9h174.8c3.8,0,6.9,2.2,6.9,4.9v4.7c0,2.7-3.1,4.9-6.9,4.9Z"/>
      <path class="cls-14" d="M387.9,413.1h-109.1c-2.4,0-4.3-2.2-4.3-4.9v-4.7c0-2.7,1.9-4.9,4.3-4.9h109.1c2.4,0,4.3,2.2,4.3,4.9v4.7c0,2.7-1.9,4.9-4.3,4.9Z"/>
      <g>
        <g>
          <path class="cls-4" d="M199,373.5l41.1-33.9c17,20.6,16.2,50.2-1.9,69.9l-39.3-36Z"/>
          <path class="cls-8" d="M197.6,426.8c16,.4,29.8-5.4,40.7-17.2l-39.3-36,41.1-33.9c-10.2-12.4-23.7-19-39.7-19.4-2.6,0-5.7,0-8.3.4-29.2,3.8-49.7,30.6-45.9,59.7,3.5,26.5,24.7,45.6,51.4,46.3Z"/>
        </g>
        <circle class="cls-1" cx="198.6" cy="373.3" r="35.4"/>
      </g>
      <g>
        <g>
          <rect class="cls-14" x="574.3" y="320.3" width="7.9" height="101.6"/>
          <rect class="cls-14" x="610.5" y="320.3" width="7.9" height="101.6"/>
          <rect class="cls-14" x="646.7" y="320.3" width="7.9" height="101.6"/>
          <rect class="cls-14" x="682.8" y="320.3" width="7.9" height="101.6"/>
          <rect class="cls-14" x="719" y="320.3" width="7.9" height="101.6"/>
        </g>
        <g>
          <rect class="cls-4" x="574.3" y="345.6" width="7.9" height="76.3"/>
          <rect class="cls-4" x="610.5" y="380" width="7.9" height="41.9"/>
          <rect class="cls-4" x="646.7" y="354.9" width="7.9" height="67"/>
          <rect class="cls-4" x="682.8" y="388.4" width="7.9" height="33.5"/>
          <rect class="cls-4" x="719" y="354.9" width="7.9" height="67"/>
        </g>
      </g>
      <g>
        <path class="cls-7" d="M47.8,491.7l2.5-10.5c-4.3.7-11.3-1.3-14.1-1.7l.3,12.2s5.3,3.3,11.3,0Z"/>
        <g>
          <path class="cls-10" d="M110,283.3s0,0,0,0c0,0,0,0,0,0Z"/>
          <path class="cls-7" d="M102.8,491.7l.5-7.9c-4.3.7-9.3.3-12.1,0l.3,8s5.3,3.3,11.3,0Z"/>
          <path class="cls-12" d="M35.2,481.6c2.9,1.7,11.5,3,15.7,1.7,0,0,18.5-83.7,20.8-94,3.1-13.4,8.5-29.7,11.7-44.4,0,7.6.6,17.5,1.4,25.9h0c.8,9.8,1.8,17.5,1.8,17.5-.6,6.1-1.9,35.9.5,54.9,1.6,12.2,1.7,40.6,1.7,40.6,3.3.8,9.8,1.4,16.2.2,0,0,10.1-93.5,10.6-100.8,1.9-30.6.5-98.5.4-99.8,0,.5-3.5,3.5-14.3,2.9-14.9-.8-43-3-43-3-8.2,4.6-9.8,28.5-9.5,40,.3,5.4-2.5,42.4-4.3,63.6-5.4,12.8-5.5,34.5-6.6,50.5-1.7,24.9-3.1,44.2-3.1,44.2Z"/>
        </g>
        <path class="cls-11" d="M124.4,216.1l5.6,29c7-5.6,17.8-14.1,25.1-18.1l5.7,3.3s-6.2,8.5-14.8,17.9c-11.3,12.4-17.5,17.5-17.5,17.5h0c-1.6,1.5-3.9,1.9-7.3.1-11.1-5.9-17.2-41.3-17.2-41.3l20.4-8.4Z"/>
        <path class="cls-9" d="M130.9,233.3s-4.7,3.2-11.3,5.3c-1.8.6-3.7,1.1-5.8,1.4-1,.2-2.1.3-3.1.3-1.4,0-2.9,0-4.4,0-.5,0-1,0-1.4-.2l-3.8-15.6-2.8-11.5,19.5-22.5s5.1,8.6,13.3,42.9Z"/>
        <g>
          <path class="cls-2" d="M110.1,128.3h-3.6s-.2,1.1-.3,2.4l-4.2,2.4v6.7s-.5,6,4,4.6c2.7-.8,3.2-6,3.1-10.1,2.6-1.7,1-6,1-6Z"/>
          <path class="cls-11" d="M75.3,177.6c.9-2,1.7-27,1.7-27l11.1,9.4,5.2,4.4c.6,2.6,1.5,6,2.3,8.7.8,2.8.3,5.2.3,5.2,0,0-2.3,4.2-7.5,3.8-10.2-.8-13.1-4.5-13.1-4.5Z"/>
          <path class="cls-15" d="M81.2,160s4.5,9.8,14.4,13.1c-.8-2.7-1.7-6.1-2.3-8.7l-5.2-4.4h-6.9Z"/>
          <path class="cls-11" d="M106.9,138.4s2.2,23.4-5.4,27.7c-4.2,2.3-13.1,1.4-18.8-3.9-2.5-2.4-4-5.6-5.2-8.8-1.9-5.3-4.9-15.1-3-21.3,2.7-8.9,30-14.4,32.5,6.4Z"/>
          <path class="cls-12" d="M104,116.3c-4.4-.9-4.9-4.4-9.8-3.9-4.9.5-5.6,3.1-8,4-2.3.9-5,.1-8,1.9-1.9,1.1-2.6,3.2-2.8,4.5-9.1,1.4-8.3,7.6-6.1,14.7,1.6,5.3-.8,6.9,1.1,10.7.8,1.6,3,4.1,3.4,6.3.7,3.6,1,4.9,2.7,6.5.7-3.8,2-6.7,3.1-13,0-.5.2-.9.3-1.3,3.4-.3,5.6.3,6.3-2.1.6-1.9.4-4.6.6-7,7.8.5,10-2.7,11-3.4,8.5,1.9,11.8,1.1,13.8-1.9,2.1-3.1.2-5.2.2-6.1,0,0,0,0,0,0,.6-4.3-3.4-8.8-7.9-9.7Z"/>
        </g>
        <path class="cls-9" d="M115.4,287.6c-3.3,4.2-16.1,7.5-25.7,7.5s-31.3-4-34.3-8.1c-.3-.4-2.3-2.4.9-14.3.8-2.9,2-10,2.1-12.6.9-14.2-3.2-34-4.6-38.3-3.7-10.8-7.2-19.6-5.7-28.3,1.7-2.9,2.6-4.9,4.3-6.9,4.4-4.9,19.8-12.1,23.3-12.7,0,0,3.5,6.6,11.8,7.2,10.2.8,8.2-7.2,8.2-7.2,6,3.1,13.6,6.9,18.9,12.3,4.3,4.4,7.6,14.3,4.8,32.9-.9,5.8-2.4,27.5-3,45-.4,11.8.3,21.7-1.1,23.4Z"/>
        <path class="cls-11" d="M65.9,212.8s-5.1,12.8-10.5,23.1c-1.8,3.5-5.4,14.6-6.9,15.6-4.8,3.2-13-3.8-16.3-7,0-.3,1.2-7.6,3.8-16.3,3.9-13.2,9.9-29.5,9.9-29.5l20,14Z"/>
        <path class="cls-9" d="M69,188.8c-2.6-3.4-11.4-8.2-17.2-1.1-1.1,1.4-7.2,11.7-10.3,20.5-3.2,9.2-5.4,16.4-5.4,16.4,0,0,5.9,3.1,12.1,5.3,5.2,1.8,11.2,3.1,15.7,2,0,0,6.1-16.1,7.6-25,0,0,2.2-12-2.5-18.1Z"/>
        <path class="cls-11" d="M32.3,244.6s28.7-12.6,32.8-15c6.2-3.6,10.1-6.1,12.3-7.6h0s4.9-9.3,6.1-11.6c1.2-2.3,5.9-2.8,9.1-4.8,3.2-1.9,5.5-5,7-4.5,1.5.5-.5,4.6-2.1,5.9-1.5,1.3-5,4-5,4,0,0,1.6,2.4,1.6,3.3s1.4,1.9,1.5,3.6.9,2.5.6,4.1c-.3,1.7-2.1,4.8-2.7,5.7-.3.4-1.3.2-1.6-.3-.3-.6-.5-1.5-.6-1.8-.2,0-3,3.9-7.8,4.6-.3,0-.6,0-.9,0-10.1,12.3-19.5,21.6-36.7,30.9-12.3,6.7-15.7-9.7-13.7-16.6Z"/>
        <path class="cls-12" d="M110.4,491.1s-5.5-4.4-7.3-4.4-2.1.9-3.4,1.4c-.9.3-1.7.4-1.9.4-4.7,0-6.4-1.3-6.4-1.3-4.4,8-1.8,14.5-1.8,14.5h35.8c1-8.5-10.5-9.1-15-10.6Z"/>
        <path class="cls-12" d="M52.2,489.3s-1.4-1.6-4.1-2.6c-2.3-.9-5.2-1.4-9.9.4-1.3,0-1.9-.1-1.9-.1-.4,1.2-1,2.2-1.9,3-6.9,7.2-2.8,11.6-2.8,11.6h19.7c9.3-1.4,5.4-11,.9-12.4Z"/>
        <path class="cls-11" d="M82.2,155.8c-5.3,2.9-9-10.7-3.7-12,4-1,4.9,4.6,4.9,4.6,0,0,1.8,5.7-1.2,7.4Z"/>
        <path class="cls-6" d="M83.4,344.8c0,2.9,0,6.1.2,9.5l8.7-29.8c2.3-3.6,4.3-5.8,4.5-6.1l-8.1,3.1c-1.2,6.6-5.4,23.3-5.4,23.3Z"/>
        <path class="cls-3" d="M104.1,250.2h39.8c2.1,0,4-1.1,5-3l24.9-45c.8-1.5-.3-3.3-2-3.3h-39.8c-2.1,0-4,1.1-5,3l-24.9,45c-.8,1.5.3,3.3,2,3.3Z"/>
        <path class="cls-11" d="M152.9,228.2c-1.8-.3-1.2-2,.2-2.8.6-.3,1.5-.6,2.4-.9,0,0,0,0,0,0-3.7.7-3.1-1.7-1.3-2.7,1.7-1,6.3-1.8,6.3-1.8l5.1-2.9,2.3-4.1s1.2,5.3-.1,7.4c0,1,.1,2.6,0,2.9,0,.2-.3.4-.5.5-.1,1.4-.4,2.9-1,3.3-.2.1-.3.2-.5.3,0,.9-.4,1.7-.9,2-1.7,1.2-4.3,2-4.3,2,0,0-2.4.3-5.5.9-2.4.4-2.6-.7-1.8-1.6-2.1,0-1.7-1.7-.3-2.6Z"/>
      </g>
      <g>
        <path class="cls-5" d="M151.2,133.5h40.2c4.5,0,8.2,3.7,8.2,8.2v10.1c0,4.5-3.7,8.2-8.2,8.2h-29.1s-7.3,7.3-7.3,7.3c-1,1-2.6.3-2.6-1.1v-6.2s-1.3,0-1.3,0c-4.5,0-8.2-3.7-8.2-8.2v-10.1c0-4.5,3.7-8.2,8.2-8.2Z"/>
        <g>
          <path class="cls-14" d="M183.2,146.7c0,1.3,1.1,2.4,2.4,2.4s2.4-1.1,2.4-2.4-1.1-2.4-2.4-2.4-2.4,1.1-2.4,2.4Z"/>
          <path class="cls-14" d="M173.7,146.7c0,1.3,1.1,2.4,2.4,2.4s2.4-1.1,2.4-2.4-1.1-2.4-2.4-2.4-2.4,1.1-2.4,2.4Z"/>
          <path class="cls-14" d="M164.2,146.7c0,1.3,1.1,2.4,2.4,2.4s2.4-1.1,2.4-2.4-1.1-2.4-2.4-2.4-2.4,1.1-2.4,2.4Z"/>
          <path class="cls-14" d="M154.7,146.7c0,1.3,1.1,2.4,2.4,2.4s2.4-1.1,2.4-2.4-1.1-2.4-2.4-2.4-2.4,1.1-2.4,2.4Z"/>
        </g>
      </g>
    </g>
  </g>
</svg>