<?xml version="1.0" encoding="UTF-8"?>
<svg id="_圖層_1" data-name="圖層 1" xmlns="http://www.w3.org/2000/svg" version="1.1" viewBox="0 0 835 509.3">
  <defs>
    <style>
      .cls-1 {
        fill: #81c700;
        stroke-width: 0px;
      }
    </style>
  </defs>
  <polygon class="cls-1" points="647 101.8 692.7 134.7 697.7 130.5 648.9 95.4 647 101.8"/>
  <path class="cls-1" d="M731.5,104.4c-2.2-1.2-4.9-.8-6.6.9-.9.9-1.5,2-1.6,3.2h-.2c-12.3-1.6-20.6-13.5-17.8-25.6l3.5-15.2c2.4.5,5-.5,6.3-2.9,1.2-2.2.7-5.1-1.2-6.8-2.5-2.3-6.4-1.8-8.4.9s-1.4,4.4-.2,6.2l-13.3,8.1c-10.6,6.5-24.5,2.4-29.9-8.8v-.2c.9-.5,1.8-1.4,2.4-2.5,1.1-2.2.6-4.9-1.2-6.6-2.7-2.5-6.9-1.8-8.8,1.3-1.2,2.2-.9,4.9.8,6.7.8.8,1.7,1.3,2.6,1.5l-7.8,28,25,18,.8.6,24.2,17.4,24.1-16.3c.5.8,1.3,1.5,2.3,2,2.2,1.1,5,.5,6.6-1.3,2.4-2.7,1.7-7-1.5-8.7Z"/>
</svg>