<?xml version="1.0" encoding="UTF-8"?>
<svg id="_圖層_1" data-name="圖層 1" xmlns="http://www.w3.org/2000/svg" version="1.1" viewBox="0 0 835 509.3">
  <defs>
    <style>
      .cls-1 {
        fill: #a640ab;
        stroke-width: 0px;
      }
    </style>
  </defs>
  <path class="cls-1" d="M647.7,205c4.1,5.3,6.1,11.9,6.1,19.7,0,11-4.3,19.5-12.9,25.5-8.6,5.9-21.1,8.9-37.6,8.9h-65.2v-126.1h61.6c15.4,0,27.2,2.9,35.4,8.8,8.2,5.9,12.3,13.9,12.3,24s-1.5,11.6-4.4,16.4c-2.9,4.8-7.1,8.6-12.3,11.3,7.2,2.3,12.8,6.1,16.9,11.4ZM567.1,155v29.7h29c7.2,0,12.7-1.3,16.4-3.8,3.7-2.5,5.6-6.2,5.6-11.2s-1.9-8.6-5.6-11.1c-3.7-2.5-9.2-3.7-16.4-3.7h-29ZM618.6,233.4c3.9-2.5,5.9-6.4,5.9-11.7,0-10.4-7.7-15.7-23.2-15.7h-34v31.2h34c7.7,0,13.5-1.3,17.4-3.8Z"/>
</svg>