<?xml version="1.0" encoding="UTF-8"?>
<svg id="_圖層_1" data-name="圖層 1" xmlns="http://www.w3.org/2000/svg" version="1.1" viewBox="0 0 835 616">
  <defs>
    <style>
      .cls-1 {
        fill: #d8d9dc;
      }

      .cls-1, .cls-2, .cls-3, .cls-4, .cls-5, .cls-6, .cls-7 {
        stroke-width: 0px;
      }

      .cls-2 {
        fill: #a640ab;
      }

      .cls-3 {
        fill: #c8cbd8;
      }

      .cls-4 {
        fill: #ecedf1;
      }

      .cls-5 {
        fill: #222535;
      }

      .cls-6 {
        fill: #d3d9dd;
      }

      .cls-7 {
        fill: #fff;
      }
    </style>
  </defs>
  <g>
    <rect class="cls-3" x="268.8" y="64" width="269.2" height="516.6" rx="36" ry="36" transform="translate(806.8 644.6) rotate(180)"/>
    <g>
      <path class="cls-7" d="M409.7,80.3h-24.8c-1.2,0-2.2-1-2.2-2.2s1-2.2,2.2-2.2h24.8c1.2,0,2.2,1,2.2,2.2s-1,2.2-2.2,2.2Z"/>
      <path class="cls-7" d="M420.7,80.3c-.3,0-.6,0-.8-.2-.3-.1-.5-.3-.7-.5-.2-.2-.4-.5-.5-.7-.1-.3-.2-.5-.2-.8s0-.3,0-.4c0-.1,0-.3.1-.4,0-.1.1-.3.2-.4,0-.1.2-.2.3-.3.5-.5,1.3-.8,2-.6.1,0,.3,0,.4.1.1,0,.3.1.4.2.1,0,.2.2.3.3,0,0,.2.2.3.3,0,.1.1.2.2.4,0,.1,0,.3.1.4,0,.2,0,.3,0,.4,0,.3,0,.6-.2.8-.1.3-.3.5-.5.7-.2.2-.5.4-.7.5-.1,0-.3,0-.4.1-.1,0-.3,0-.4,0Z"/>
    </g>
    <path class="cls-7" d="M499.1,75.7h-22.7c-3.7,0-7.1,1.9-9,5l-4.4,7.1c-1.9,3.1-5.4,5-9,5h-102.4c-3.7,0-7.1-1.9-9-5l-4.4-7.1c-1.9-3.1-5.4-5-9-5h-22.7c-16.5,0-29.8,13.4-29.8,29.8v436.1c0,16.5,13.4,29.8,29.8,29.8h192.7c16.5,0,29.8-13.4,29.8-29.8V105.5c0-16.5-13.4-29.8-29.8-29.8Z"/>
  </g>
  <g>
    <path class="cls-6" d="M673.1,611.4h-242.9c-33.9-38.7-24.9-91.1,20-135.2,5.7-5.6,16.5-9.5,28.2-12.3,21.5-5.1,46-6.3,46.2-6.4,0,0,12.9-10.4,20.6-19.8,24-29.1,44.4-26.6,44.4-26.6,24.5-4.8,45.3-6.2,60.8,2.5t0,0c14.3,8,24,24.6,27.7,55.1.7,5.8,1.2,12,1.4,18.8.9,24.7,5.8,46.8,8.7,65.4,0,0,0,0,0,0,4.2,27,7.2,47.5-15.1,58.5Z"/>
    <g>
      <path class="cls-4" d="M477.7,559.9s4.3,11.3,3.4,15.6c-.9,4.2.6,12.4-1.1,16-1.7,3.7-4.8,9-1.8,10.3,1.1.5,14.1-9.7,14.9-12.6.7-3,1.3-11.8,3.8-16.6,2.5-4.8.4-8.6-3.2-10.4-3.6-1.7-8.7-11.4-8.7-11.4l-7.2,9.1Z"/>
      <path class="cls-5" d="M547.2,452.3s-71.1-4.4-80.2,5c-9.7,9.9,6.1,107.6,6.1,107.6,0,0,19.3.6,20.8-4.6,0,0-3.6-47.3-.6-55.5,3-8.2,1.1-19.5,1.1-19.5,0,0,37.7,5.6,49.7,2.8,12-2.9,3.2-35.9,3.2-35.9Z"/>
      <path class="cls-4" d="M564.4,400.2c0,0-10.5,24.4-15.6,27-5.1,2.6-23.6,23.9-27.6,23.5-4-.4,4.1,4.3,4.1,4.3,0,0,32.9-16,34.8-17,1.9-.9,11.8-17.2,13.1-25.5,1.4-8.3-8.8-12.4-8.8-12.4Z"/>
      <path class="cls-4" d="M464.5,578.6s-4.1,11.4-7.4,14.1c-3.4,2.6-7.5,9.8-11.2,11.5-3.7,1.7-9.4,3.8-8,6.7.5,1.1,17,1.7,19.5,0,2.5-1.8,8.6-8.2,13.6-10.2,5-2.1,5.9-6.4,4.2-10-1.6-3.7.7-14.3.7-14.3l-11.4,2.3Z"/>
      <path class="cls-5" d="M585.8,389.3c-1.5-1.8,37,2.6,42.1,22.2,0,0,29.6-23.3,2.4-42.9-9.4-6.8-10.3-14.1-11.7-20.7-1.4-6.6-10.7-25.7-27-16.2,0,0-7.4,0-12.1,4.1-10.7,9.3-22.3,68.1,6.3,53.5Z"/>
      <path class="cls-5" d="M578.4,455.8s-77.3,7.9-84.1,15.8c-6.8,7.9-33.4,110.5-33.4,110.5,0,0,7.9,4.4,15.1.3,0,0,20.4-34.8,29.5-45.7,9-10.9,12.4-44.6,13.9-45,1.5-.3,49.9,6.7,66.6-6.1,16.7-12.8-7.5-29.7-7.5-29.7Z"/>
      <path class="cls-3" d="M621.4,385.6s-18.4-8.2-41.8-4.5c-4.8.8-9.1,2.3-12.5,8-4.8,7.9-7.1,12.2-7.1,12.2,0,0,.5,3.7,7.1,6.6-1.8,6.6,1.6,18.1-1.5,22.6-3.2,4.5-22.8,15.5-23.8,21.7-1.8,11.3,33.6,31.8,44.1,29.6,30.3-6.3,50.9-87.6,35.5-96.2Z"/>
      <path class="cls-5" d="M610.9,362.3s3.6-7.2,4.1-13c.3-4.2-3.2-19.3-18.3-15.6,0,0-4.4.9-8.3,4.1-3.1,2.6-7.5,7.9-.8,20.7l1.8,4.4,21.6-.5Z"/>
      <g>
        <path class="cls-4" d="M590.2,386.4c-1.5,1.6-.9,7,6.2,6.6,4.7-.3,14.8-6.1,13.8-10.1-.4-1.9-4.1-6.8-4.9-18.2l-.9.2-14.4,4s.7,4.6,1,8.9c.3,3.6-.4,7.9-1,8.5Z"/>
        <path class="cls-1" d="M590.1,369s.7,4.6,1,8.9c8.1-.9,11.9-8.7,13.3-12.9l-14.4,4Z"/>
        <path class="cls-4" d="M589.8,375.7s18.8-4.7,15.7-16.4c-3.1-11.6-2.8-20.1-14.9-17.6-12.1,2.5-13.2,7.6-13.2,11.7,0,4.1,7.5,23.2,12.4,22.2Z"/>
        <path class="cls-5" d="M582,343.7s6.3,12,18.2,13.3c7,.8,8.9,5.3,8.9,5.3,0,0-2.1-13.1-5.6-21.1,0,0-19.4-5.1-21.5,2.5Z"/>
        <path class="cls-5" d="M584.1,345.3s-4.1,4.2-5.4,7.2c-1.9,4.4,1.8,13.6,3.3,15.6,0,0-8.7-14.8-5.8-21.2,3.1-6.8,7.9-1.5,7.9-1.5Z"/>
      </g>
      <path class="cls-4" d="M526.9,453.5s-3.7,4-4.2,4.2c-2.5,1.2-5.6.5-7.1.9-1.5.4-1.2-.6-.1-1.3,1.1-.8,3.9-.5,2.7-.7-1.1-.3-7.2-1.4-9.4-.8-3.6,1-6.4-.2-6.7-.5-.2-.4,8.2-4.5,10.6-4.4,2.4.1,9.4-.2,9.4-.2l4.8,2.9Z"/>
      <path class="cls-4" d="M627.7,392.9s23.3,52.6,16.8,60.3c-6.4,7.7-51.3-1.6-51.3-1.6l1.4-4.9s33-2,35.3-2.7c3.4-1-16.7-37.9-16.7-37.9l14.4-13.3Z"/>
      <path class="cls-3" d="M619,384.8c.6,0,7.5,2.3,12.5,12.2,4.9,9.7,6.7,14.4,6.7,14.4,0,0-21.8,16.9-30.5,10.7-8.7-6.2,3.2-37.5,11.2-37.3Z"/>
      <path class="cls-1" d="M598.5,446.5s-3.7-2.4-5.3-3.8c-1.5-1.3-10.3-2.4-10.3-1.5,0,.9,5.1,2.1,5.7,3,.6.9,3.7,4.5,6.3,4.5,2.7,0,3.5-2.2,3.5-2.2Z"/>
      <g>
        <path class="cls-2" d="M588.3,454.4l-10.1-1.4c-1.5-.2-3-1.5-3.4-2.8l-5.5-19.6c-.4-1.3.5-2.2,2-2l10.1,1.4c1.5.2,3,1.5,3.4,2.8l5.5,19.6c.4,1.3-.5,2.2-2,2Z"/>
        <path class="cls-2" d="M586.2,454.1l-10.1-1.4c-1.5-.2-3-1.5-3.4-2.8l-5.5-19.6c-.4-1.3.5-2.2,2-2l10.1,1.4c1.5.2,3,1.5,3.4,2.8l5.5,19.6c.4,1.3-.5,2.2-2,2Z"/>
        <path class="cls-2" d="M568.9,430.7c-.2-.6.2-.9.8-.8.6,0,1.3.6,1.4,1.2.2.6-.2.9-.8.8-.6,0-1.3-.6-1.4-1.2Z"/>
      </g>
      <path class="cls-4" d="M593.3,451.6s-6.8,0-8.5-.3c-1.7-.4-6.1-5.8-4.9-7.2.7-.9,4.8.7,6.7.7,1.9,0,7-2.8,10.4,2.9.4.6-3.7,3.9-3.7,3.9Z"/>
    </g>
  </g>
</svg>