<?xml version="1.0" encoding="UTF-8"?>
<svg id="_圖層_1" data-name="圖層 1" xmlns="http://www.w3.org/2000/svg" version="1.1" viewBox="0 0 835 616">
  <defs>
    <style>
      .cls-1 {
        fill: #7fc300;
      }

      .cls-1, .cls-2, .cls-3, .cls-4 {
        stroke-width: 0px;
      }

      .cls-2 {
        fill: #e1e5e8;
      }

      .cls-3 {
        fill: #c8cbd8;
      }

      .cls-4 {
        fill: #fff;
      }
    </style>
  </defs>
  <rect class="cls-2" x="510.5" y="5.9" width="287.7" height="287.7" rx="9.6" ry="9.6"/>
  <g>
    <g>
      <path class="cls-1" d="M701.1,275.5h-93.5c-10.8,0-19.5-8.8-19.5-19.6h0c0-10.8,8.8-19.5,19.5-19.5h93.5c10.8,0,19.5,8.8,19.5,19.5h0c0,10.8-8.8,19.6-19.5,19.6Z"/>
      <g>
        <path class="cls-4" d="M620.4,256.4c.4.6.6,1.3.6,2.1,0,1.2-.4,2.1-1.3,2.7-.9.6-2.2.9-3.9.9h-6.7v-13.3h6.3c1.6,0,2.8.3,3.6.9.8.6,1.3,1.5,1.3,2.5s-.2,1.2-.5,1.7-.7.9-1.3,1.2c.7.2,1.3.6,1.7,1.2ZM612.2,251.1v3.1h3c.7,0,1.3-.1,1.7-.4s.6-.7.6-1.2-.2-.9-.6-1.2c-.4-.3-.9-.4-1.7-.4h-3ZM617.5,259.4c.4-.3.6-.7.6-1.2,0-1.1-.8-1.7-2.4-1.7h-3.5v3.3h3.5c.8,0,1.4-.1,1.8-.4Z"/>
        <path class="cls-4" d="M624.8,260.8c-1-1-1.5-2.5-1.5-4.5v-7.4h3v7.3c0,2.4,1,3.6,2.9,3.6s1.7-.3,2.1-.9c.5-.6.7-1.5.7-2.7v-7.3h3v7.4c0,1.9-.5,3.4-1.5,4.5-1,1-2.5,1.6-4.3,1.6s-3.3-.5-4.3-1.6Z"/>
        <path class="cls-4" d="M644,257.4v4.7h-3v-4.7l-5-8.5h3.2l3.5,5.9,3.5-5.9h2.9l-5,8.6Z"/>
        <path class="cls-4" d="M667.4,248.8v13.3h-2.5l-6.5-8.1v8.1h-3v-13.3h2.5l6.4,8.1v-8.1h3Z"/>
        <path class="cls-4" d="M673.2,261.4c-1.1-.6-1.9-1.4-2.5-2.5-.6-1-.9-2.2-.9-3.5s.3-2.5.9-3.5c.6-1,1.5-1.9,2.5-2.5,1.1-.6,2.3-.9,3.6-.9s2.6.3,3.6.9c1.1.6,1.9,1.4,2.5,2.5.6,1,.9,2.2.9,3.5s-.3,2.5-.9,3.5c-.6,1-1.5,1.9-2.5,2.5-1.1.6-2.3.9-3.6.9s-2.6-.3-3.6-.9ZM678.9,259.2c.6-.4,1.1-.9,1.5-1.5.4-.6.5-1.4.5-2.2s-.2-1.6-.5-2.2c-.4-.6-.8-1.1-1.5-1.5-.6-.4-1.3-.5-2.1-.5s-1.5.2-2.1.5c-.6.4-1.1.9-1.5,1.5-.4.6-.5,1.4-.5,2.2s.2,1.6.5,2.2c.4.6.8,1.1,1.5,1.5.6.4,1.3.5,2.1.5s1.5-.2,2.1-.5Z"/>
        <path class="cls-4" d="M705.3,248.8l-4.2,13.3h-3.2l-2.9-9-2.9,9h-3.2l-4.3-13.3h3.1l2.9,9.3,3.1-9.3h2.8l3,9.4,3-9.4h2.9Z"/>
      </g>
    </g>
    <g>
      <rect class="cls-4" x="574.3" y="189.3" width="160.1" height="31.4" rx="1.8" ry="1.8"/>
      <g>
        <polygon class="cls-4" points="596.9 196.5 600.4 201.1 605.8 203 602.5 207.7 602.4 213.5 596.9 211.8 591.4 213.5 591.3 207.7 588 203 593.4 201.1 596.9 196.5"/>
        <polygon class="cls-1" points="625.6 196.5 629.1 201.1 634.5 203 631.2 207.7 631.1 213.5 625.6 211.8 620.1 213.5 620 207.7 616.7 203 622.1 201.1 625.6 196.5"/>
        <polygon class="cls-1" points="654.3 196.5 657.8 201.1 663.2 203 659.9 207.7 659.8 213.5 654.3 211.8 648.8 213.5 648.7 207.7 645.4 203 650.8 201.1 654.3 196.5"/>
        <polygon class="cls-1" points="683 196.5 686.4 201.1 691.9 203 688.6 207.7 688.5 213.5 683 211.8 677.5 213.5 677.4 207.7 674.1 203 679.5 201.1 683 196.5"/>
        <polygon class="cls-1" points="711.7 196.5 715.1 201.1 720.6 203 717.3 207.7 717.2 213.5 711.7 211.8 706.2 213.5 706.1 207.7 702.8 203 708.2 201.1 711.7 196.5"/>
      </g>
    </g>
    <g>
      <rect class="cls-4" x="573.5" y="23.9" width="161.6" height="152" rx="1.8" ry="1.8"/>
      <path class="cls-3" d="M709.5,137c-.2.5-.6.6-1.1.7-8.6,1.6-17.1,3.2-25.8,3-5.9-.1-28-2.9-33.1-6.1-1.2-.8-2.1-2-3-3.2-5.4-6.9-10-14.4-15.6-21.1-2.5-3-5.2-5.9-8.1-8.5l-3.4,35.9h-4.4l-8.3-45.4c-.1-.1-.2-.2-.2-.3-5.3-25.2,11.6-26.6,11.6-26.6l20.8,12.4c1,.6,2.1,3.7,2.8,4.8.9,1.6,1.8,3.1,2.7,4.7,2.3,3.7,4.8,7.3,7.4,10.7,1.9,2.5,4.1,4.8,6.7,6.4,3.2,1.9,6.7,3.1,10.2,4,5.2,1.4,34.5,11.1,40.6,27.3.1.4.5.8.3,1.2Z"/>
    </g>
  </g>
</svg>