<?xml version="1.0" encoding="UTF-8"?>
<svg id="_圖層_1" data-name="圖層 1" xmlns="http://www.w3.org/2000/svg" version="1.1" viewBox="0 0 835 616">
  <defs>
    <style>
      .cls-1 {
        fill: #7fc300;
      }

      .cls-1, .cls-2, .cls-3, .cls-4, .cls-5 {
        stroke-width: 0px;
      }

      .cls-2 {
        fill: #abb0c4;
      }

      .cls-3 {
        fill: #e3e7ea;
      }

      .cls-4 {
        fill: #c8cbd8;
      }

      .cls-5 {
        fill: #fff;
      }
    </style>
  </defs>
  <g>
    <rect class="cls-3" x="32.3" y="344.9" width="312.1" height="212" rx="20.4" ry="20.4"/>
    <path class="cls-2" d="M344.5,374.5v-7.4c0-12.2-8.5-22.2-18.9-22.2H51.2c-10.4,0-18.9,9.9-18.9,22.2v7.4h312.1Z"/>
    <circle class="cls-5" cx="51.9" cy="359.7" r="6.5"/>
    <circle class="cls-5" cx="77.6" cy="359.7" r="6.5"/>
    <circle class="cls-5" cx="102.1" cy="359.7" r="6.5"/>
  </g>
  <path class="cls-2" d="M291.2,521.3h-70c-8.1,0-14.6-6.5-14.6-14.6h0c0-8.1,6.5-14.6,14.6-14.6h70c8.1,0,14.6,6.5,14.6,14.6h0c0,8.1-6.5,14.6-14.6,14.6Z"/>
  <g>
    <rect class="cls-5" x="69" y="418.2" width="120.9" height="113.7" rx="1.8" ry="1.8"/>
    <path class="cls-4" d="M170,453.8h0l-15.2-16.4h0s0,0,0,0h-15.8c0,3.9-2.4,7.3-5.8,8.7-1.1.5-2.4.7-3.7.7s-1.3,0-1.9-.2c-4.3-.9-7.6-4.7-7.6-9.3h-15.8s0,0,0,0l-15.2,16.4h0l-2.4,2.6,12.3,11.4,2.4-2.6h0l2.9-3.2v50.7h50.6v-50.7l2.9,3.2h0l2.4,2.6,12.3-11.4-2.4-2.6Z"/>
  </g>
  <path class="cls-5" d="M302.1,443h-89.7c-2.1,0-3.7-1.9-3.7-4.3v-4.9c0-2.4,1.7-4.3,3.7-4.3h89.7c2.1,0,3.7,1.9,3.7,4.3v4.9c0,2.4-1.7,4.3-3.7,4.3Z"/>
  <path class="cls-5" d="M302.1,474.4h-89.7c-2.1,0-3.7-1.9-3.7-4.3v-4.9c0-2.4,1.7-4.3,3.7-4.3h89.7c2.1,0,3.7,1.9,3.7,4.3v4.9c0,2.4-1.7,4.3-3.7,4.3Z"/>
  <circle class="cls-1" cx="74.9" cy="421.7" r="27.8"/>
  <g>
    <path class="cls-5" d="M64.6,415.7v12.8h-2.4l-6.2-7.8v7.8h-2.9v-12.8h2.4l6.2,7.8v-7.8h2.9Z"/>
    <path class="cls-5" d="M77.2,426.1v2.4h-9.7v-12.8h9.4v2.4h-6.6v2.8h5.8v2.3h-5.8v3h6.8Z"/>
    <path class="cls-5" d="M98.2,415.7l-4.1,12.8h-3.1l-2.7-8.7-2.8,8.7h-3.1l-4.1-12.8h3l2.8,9,2.9-9h2.7l2.9,9.1,2.9-9.1h2.8Z"/>
  </g>
</svg>