<?xml version="1.0" encoding="UTF-8"?>
<svg id="_圖層_1" data-name=" 圖層 1" xmlns="http://www.w3.org/2000/svg" version="1.1" viewBox="0 0 835 619.6">
  <defs>
    <style>
      .cls-1 {
        fill: #d0d2dd;
      }

      .cls-1, .cls-2 {
        stroke-width: 0px;
      }

      .cls-3 {
        fill: none;
        stroke: #d0d2dd;
        stroke-miterlimit: 10;
        stroke-width: 2px;
      }

      .cls-2 {
        fill: #fff;
      }
    </style>
  </defs>
  <circle class="cls-1" cx="122.7" cy="306.7" r="66"/>
  <g>
    <rect class="cls-2" x="89.4" y="301.7" width="9.8" height="34.4"/>
    <rect class="cls-2" x="146.3" y="296.8" width="9.8" height="39.3"/>
    <rect class="cls-2" x="103.6" y="277.3" width="9.8" height="58.8"/>
    <rect class="cls-2" x="117.9" y="290.4" width="9.8" height="45.7"/>
    <rect class="cls-2" x="132.1" y="282.9" width="9.8" height="53.1"/>
  </g>
  <g>
    <circle class="cls-1" cx="182.2" cy="91.4" r="55"/>
    <g>
      <g>
        <path class="cls-2" d="M204.4,76.1l-3.9,3.9c.3.4.5.8.8,1.2,4.9,8.5,3.8,19.5-3.5,26.8-8.6,8.6-22.6,8.6-31.3,0-8.6-8.6-8.6-22.6,0-31.3,8.6-8.6,22.5-8.6,31.1-.2,0,0,0,0,0,0l3.9-3.9c0,0-.2-.2-.3-.3-10.8-10.4-28-10.3-38.7.4-10.8,10.8-10.8,28.3,0,39.1,10.8,10.8,28.3,10.8,39.1,0,9.8-9.8,10.7-25.1,2.7-35.9Z"/>
        <path class="cls-2" d="M196.4,84.1l-4.1,4.1c1.7,4,.9,8.8-2.4,12.1-4.3,4.3-11.3,4.3-15.7,0-4.3-4.3-4.3-11.3,0-15.7,4.2-4.2,10.9-4.3,15.3-.4,0,0,.2.2.3.3l3.9-3.9c-6.5-6.3-16.8-6.3-23.2.1-6.5,6.5-6.5,16.9,0,23.4,6.5,6.5,16.9,6.5,23.4,0,5.4-5.4,6.3-13.7,2.6-20Z"/>
        <path class="cls-2" d="M178.5,88.8c-2,2-2,5.3,0,7.4,2,2,5.3,2,7.4,0,2-2,2-5.3,0-7.4-2-2-5.3-2-7.4,0Z"/>
      </g>
      <path class="cls-2" d="M204,67.7l-22.8,22.8c-.8.8-.8,2.1,0,2.9.8.8,2.1.8,2.9,0l22.9-22.9c-1-.9-2-1.9-3-2.8Z"/>
      <path class="cls-2" d="M193.9,79.9c0,0,.2.2.3.2l-4.3,4.3c0,0-.2-.2-.3-.2l4.3-4.3Z"/>
      <path class="cls-2" d="M201.5,72.8l-4.3,4.3c0,0-.2-.2-.3-.2l4.3-4.3c0,0,.2.2.3.3Z"/>
      <g>
        <path class="cls-2" d="M201.8,72.8h0s8.3-8.3,8.3-8.3l-2.6-5.8-3.8,3.8c-2.7,2.7-3.5,6.8-1.9,10.3Z"/>
        <path class="cls-2" d="M201.8,72.8h0c3.5,1.6,7.6.8,10.3-1.9l3.8-3.8-5.8-2.6-8.3,8.3Z"/>
      </g>
    </g>
  </g>
  <line class="cls-3" x1="165.6" y1="290.4" x2="272.7" y2="284.3"/>
  <line class="cls-3" x1="191.9" y1="120.2" x2="318.1" y2="209.1"/>
  <line class="cls-3" x1="731.5" y1="84.5" x2="587.1" y2="214.5"/>
  <line class="cls-3" x1="600.7" y1="290.4" x2="704.7" y2="387.3"/>
  <line class="cls-3" x1="386.7" y1="401.2" x2="375.3" y2="556.5"/>
  <circle class="cls-1" cx="712.5" cy="402.7" r="55"/>
  <g>
    <g>
      <path class="cls-2" d="M707,406.2c.6-.8.9-1.6.9-2.5s-.3-1.5-1-2.1c-.6-.6-1.4-.9-2.4-.9-1.7,0-3.1.9-4.3,2.6l-2.8-1.6c.9-1.4,1.9-2.4,3-3.1,1.1-.7,2.5-1,4.3-1s3.3.6,4.6,1.7c1.3,1.1,2,2.6,2,4.5s-.3,2.1-.8,3.1c-.6,1-1.6,2.2-3.1,3.8l-4.9,5h9.4v3.4h-14.2v-3l6.3-6.3c1.4-1.4,2.4-2.6,3-3.4Z"/>
      <path class="cls-2" d="M722.2,410.5v-3.8h3.3v3.8h2.5v3.2h-2.5v5.2h-3.3v-5.2h-8.9v-3.1l7.7-12.5h3.8l-7.5,12.4h5Z"/>
    </g>
    <g>
      <path class="cls-2" d="M684.9,403.5c1.4,0,2.5-1.1,2.5-2.5,0,0,0,0,0,0,0-14.3,11.2-25.9,25.1-25.9s25.1,11.6,25.1,25.9,0,0,0,0c0,1.4,1.1,2.5,2.5,2.5h.2c.2-1.3.3-2.5.3-3.8,0-16-12.5-28.5-28-28.5s-28,12.5-28,28.5,0,2.6.3,3.8h.2Z"/>
      <g>
        <path class="cls-2" d="M687.4,416.9l-2.6-.3c-2.4-.3-4.1-2.3-4.1-4.7v-6.1c0-2.4,1.8-4.4,4.1-4.7l2.6-.3v16.1Z"/>
        <rect class="cls-2" x="687" y="398.9" width="6.3" height="19.9" rx="2.2" ry="2.2"/>
        <path class="cls-2" d="M737.5,416.9l2.6-.3c2.4-.3,4.1-2.3,4.1-4.7v-6.1c0-2.4-1.8-4.4-4.1-4.7l-2.6-.3v16.1Z"/>
        <rect class="cls-2" x="731.5" y="398.9" width="6.3" height="19.9" rx="2.2" ry="2.2" transform="translate(1469.4 817.7) rotate(180)"/>
        <path class="cls-2" d="M723,430.1h-8.5v-2.5h8.5c5.4,0,10.6-3.8,12.1-8.5,1.5-4.6,1.9-6.2,1.9-6.2l2.9,1.1-2.3,6c-2.3,6-8.2,10.1-14.6,10.1Z"/>
        <path class="cls-2" d="M717.1,432.2h-4.7c-1.8,0-3.3-1.5-3.3-3.3h0c0-1.8,1.5-3.3,3.3-3.3h4.7c1.8,0,3.3,1.5,3.3,3.3h0c0,1.8-1.5,3.3-3.3,3.3Z"/>
      </g>
    </g>
  </g>
  <g>
    <circle class="cls-1" cx="698.4" cy="82.9" r="79.9"/>
    <path class="cls-2" d="M743.5,127.7h-90.1s13.7-46.1,45.6-46.1,44.5,46.1,44.5,46.1Z"/>
    <circle class="cls-2" cx="699.1" cy="50.3" r="24.4"/>
  </g>
  <g>
    <circle class="cls-1" cx="375.3" cy="550.5" r="66"/>
    <g>
      <path class="cls-2" d="M358.1,564.9h39.6c1,0,1.8-.6,2.1-1.6l8.8-30.7c.2-.7,0-1.4-.4-1.9-.4-.5-1.1-.9-1.7-.9h-53.4l-1.6-7c-.2-1-1.1-1.7-2.1-1.7h-13.3c-1.2,0-2.2,1-2.2,2.2s1,2.2,2.2,2.2h11.5l7.9,35.6c-2.3,1-4,3.3-4,6s2.9,6.6,6.6,6.6h39.6c1.2,0,2.2-1,2.2-2.2s-1-2.2-2.2-2.2h-39.6c-1.2,0-2.2-1-2.2-2.2s1-2.2,2.2-2.2Z"/>
      <path class="cls-2" d="M355.9,580.2c0,3.6,2.9,6.6,6.6,6.6s6.6-2.9,6.6-6.6-2.9-6.6-6.6-6.6-6.6,2.9-6.6,6.6Z"/>
      <path class="cls-2" d="M386.7,580.2c0,3.6,2.9,6.6,6.6,6.6s6.6-2.9,6.6-6.6-2.9-6.6-6.6-6.6-6.6,2.9-6.6,6.6Z"/>
    </g>
  </g>
</svg>