<?xml version="1.0" encoding="UTF-8"?>
<svg id="Layer_1" data-name="Layer 1" xmlns="http://www.w3.org/2000/svg" version="1.1" viewBox="0 0 174 168">
  <defs>
    <style>
      .cls-1 {
        fill: #92c426;
        stroke-width: 0px;
      }
    </style>
  </defs>
  <path class="cls-1" d="M135.8,29.3c-1.8-1.6-4.6-1.8-6.4,0-2.4,2.4-4.8,4.8-7.2,7.2-5.7,5.7-11.4,11.4-17.1,17.1-6.9,6.9-13.8,13.8-20.8,20.8-5.9,5.9-11.9,11.9-17.8,17.8-1.9,1.9-3.8,3.7-5.7,5.6-2.1-2.1-4.3-4.3-6.4-6.4-5.1-5.1-10.2-10.2-15.2-15.2-1.2-1.2-2.3-2.3-3.5-3.5-1.7-1.7-4.7-1.8-6.4,0-1.6,1.8-1.8,4.6,0,6.4,3.2,3.2,6.4,6.4,9.6,9.6,5.1,5.1,10.2,10.2,15.2,15.2,1.2,1.2,2.3,2.3,3.5,3.5,1.7,1.7,4.6,1.7,6.4,0s4.8-4.8,7.2-7.2c5.7-5.7,11.4-11.4,17.1-17.1,6.9-6.9,13.8-13.8,20.8-20.8,5.9-5.9,11.9-11.9,17.8-17.8,2.9-2.9,5.9-5.7,8.7-8.7,0,0,0,0,.1-.1,1.7-1.7,1.8-4.7,0-6.4Z"/>
  <g>
    <path class="cls-1" d="M11.3,126.1c0-.3,0-.2,0,0h0Z"/>
    <path class="cls-1" d="M110.9,112.8v-19.5c0-2.4-2.1-4.6-4.5-4.5-2.4.1-4.5,2-4.5,4.5v27.8c0,1.3,0,2.5,0,3.8,0,.4,0,.8,0,1.2,0,.3-.1.6-.2.8-.1.5-.3,1-.5,1.5,0,0,0,0,0,0-.1.3-.3.5-.4.8-.3.5-.5.9-.8,1.3-.2.2-.4.4-.6.6-.4.4-.8.8-1.2,1.1-.2.2-.5.3-.7.5-.5.3-.9.5-1.4.7,0,0,0,0,0,0-.3,0-.6.2-.9.3-.5.1-1,.2-1.5.3-.4,0-.7,0-1.1,0-.2,0-.4,0-.6,0H22.5c-.6,0-1.2,0-1.9,0-.4,0-.9,0-1.3,0,0,0,0,0,0,0-.3,0-.6-.1-.9-.2-.3,0-.5-.1-.8-.2,0,0-.6-.2-.7-.3,0,0,0,0,0,0-.3-.1-.5-.3-.8-.4-.4-.2-.8-.7-1.2-.8,0,0,0,0,0,0-.2-.2-.5-.4-.7-.6-.3-.3-.6-.8-1-1.1-.2-.3-.3-.5-.5-.8-.3-.4-.4-1-.7-1.4,0,0,0,0,0,0-.1-.3-.2-.6-.3-.9,0-.3-.1-.5-.2-.8,0-.1,0-.3,0-.5,0,.1,0,.3,0,.5,0-.6,0-1.1,0-1.7,0-.2,0-.3,0-.5V54.9c0-.6,0-1.3,0-1.9,0-.3,0-.6,0-.8,0,0,0-.1,0-.2,0-.2,0-.4,0-.5,0-.4.2-.7.3-1,0-.3.2-.5.2-.8,0,0,0-.2.1-.2.2-.4.4-.8.6-1.2.1-.2.3-.4.4-.7,0,0,.1-.1.2-.2.3-.4.6-.7,1-1,.2-.2.4-.3.5-.5.5-.2,1-.7,1.5-1,.2-.1.4-.2.6-.3.4,0,1.2-.4,1.6-.5.3,0,.6-.1.9-.2.4,0,.9,0,1.3,0,.2,0,.4,0,.5,0h71.3c2.4,0,4.6-2.1,4.5-4.5-.1-2.4-2-4.5-4.5-4.5H29.9c-3,0-6,0-9.1,0-3.8,0-7.7,1.1-10.8,3.4-4.8,3.5-7.7,8.9-7.8,14.9,0,2.4,0,4.8,0,7.2v55.4c0,3,0,6.1,0,9.1,0,3.8,1.1,7.7,3.3,10.7,3.5,4.8,8.9,7.8,14.9,7.9,2.4,0,4.7,0,7.1,0h55.5c3,0,6.1,0,9.1,0,3.8,0,7.7-1.1,10.8-3.3,4.8-3.5,7.8-8.8,7.9-14.8,0-4.1,0-8.3,0-12.4Z"/>
  </g>
</svg>